%TF.GenerationSoftware,KiCad,Pcbnew,10.0.4*%
%TF.CreationDate,2026-07-22T17:59:10+02:00*%
%TF.ProjectId,ESP32_BUCK_WLED_NO_BOARD,45535033-325f-4425-9543-4b5f574c4544,rev?*%
%TF.SameCoordinates,Original*%
%TF.FileFunction,Copper,L2,Inr*%
%TF.FilePolarity,Positive*%
%FSLAX46Y46*%
G04 Gerber Fmt 4.6, Leading zero omitted, Abs format (unit mm)*
G04 Created by KiCad (PCBNEW 10.0.4) date 2026-07-22 17:59:10*
%MOMM*%
%LPD*%
G01*
G04 APERTURE LIST*
G04 Aperture macros list*
%AMRoundRect*
0 Rectangle with rounded corners*
0 $1 Rounding radius*
0 $2 $3 $4 $5 $6 $7 $8 $9 X,Y pos of 4 corners*
0 Add a 4 corners polygon primitive as box body*
4,1,4,$2,$3,$4,$5,$6,$7,$8,$9,$2,$3,0*
0 Add four circle primitives for the rounded corners*
1,1,$1+$1,$2,$3*
1,1,$1+$1,$4,$5*
1,1,$1+$1,$6,$7*
1,1,$1+$1,$8,$9*
0 Add four rect primitives between the rounded corners*
20,1,$1+$1,$2,$3,$4,$5,0*
20,1,$1+$1,$4,$5,$6,$7,0*
20,1,$1+$1,$6,$7,$8,$9,0*
20,1,$1+$1,$8,$9,$2,$3,0*%
G04 Aperture macros list end*
%TA.AperFunction,ComponentPad*%
%ADD10RoundRect,0.250000X0.550000X-0.550000X0.550000X0.550000X-0.550000X0.550000X-0.550000X-0.550000X0*%
%TD*%
%TA.AperFunction,ComponentPad*%
%ADD11C,1.600000*%
%TD*%
%TA.AperFunction,ComponentPad*%
%ADD12RoundRect,0.250000X-0.550000X-0.550000X0.550000X-0.550000X0.550000X0.550000X-0.550000X0.550000X0*%
%TD*%
%TA.AperFunction,ComponentPad*%
%ADD13C,2.000000*%
%TD*%
%TA.AperFunction,ComponentPad*%
%ADD14RoundRect,0.250000X-0.750000X-0.750000X0.750000X-0.750000X0.750000X0.750000X-0.750000X0.750000X0*%
%TD*%
%TA.AperFunction,ComponentPad*%
%ADD15RoundRect,0.249999X0.850001X-0.850001X0.850001X0.850001X-0.850001X0.850001X-0.850001X-0.850001X0*%
%TD*%
%TA.AperFunction,ComponentPad*%
%ADD16C,2.200000*%
%TD*%
%TA.AperFunction,ComponentPad*%
%ADD17R,1.700000X1.700000*%
%TD*%
%TA.AperFunction,ComponentPad*%
%ADD18C,1.700000*%
%TD*%
%TA.AperFunction,ComponentPad*%
%ADD19RoundRect,0.250001X1.149999X1.149999X-1.149999X1.149999X-1.149999X-1.149999X1.149999X-1.149999X0*%
%TD*%
%TA.AperFunction,ComponentPad*%
%ADD20C,2.800000*%
%TD*%
%TA.AperFunction,HeatsinkPad*%
%ADD21C,0.600000*%
%TD*%
%TA.AperFunction,ComponentPad*%
%ADD22C,1.440000*%
%TD*%
%TA.AperFunction,ViaPad*%
%ADD23C,0.600000*%
%TD*%
%TA.AperFunction,Conductor*%
%ADD24C,0.200000*%
%TD*%
G04 APERTURE END LIST*
D10*
%TO.N,/VDD33*%
%TO.C,C5*%
X111760000Y-43140000D03*
D11*
%TO.N,GND*%
X111760000Y-40640000D03*
%TD*%
D12*
%TO.N,/V_ALIM*%
%TO.C,C14*%
X154940000Y-99060000D03*
D11*
%TO.N,GND*%
X157440000Y-99060000D03*
%TD*%
D13*
%TO.N,GND*%
%TO.C,SW2*%
X146610000Y-51090000D03*
X153110000Y-51090000D03*
%TO.N,/IO0*%
X146610000Y-55590000D03*
X153110000Y-55590000D03*
%TD*%
D14*
%TO.N,/5V_BUCK*%
%TO.C,C1*%
X147320000Y-78740000D03*
D13*
%TO.N,GND*%
X152320000Y-78740000D03*
%TD*%
D15*
%TO.N,Net-(D1-K)*%
%TO.C,D1*%
X149860000Y-96520000D03*
D16*
%TO.N,GND*%
X149860000Y-86360000D03*
%TD*%
D17*
%TO.N,/5V_ESP*%
%TO.C,J6*%
X142240000Y-71120000D03*
D18*
%TO.N,/5V_BUCK*%
X142240000Y-73660000D03*
%TD*%
D19*
%TO.N,/V_ALIM*%
%TO.C,J3*%
X152400000Y-106680000D03*
D20*
%TO.N,GND*%
X147400000Y-106680000D03*
%TD*%
D12*
%TO.N,/5V_ESP*%
%TO.C,C4*%
X124500000Y-63500000D03*
D11*
%TO.N,GND*%
X127000000Y-63500000D03*
%TD*%
D17*
%TO.N,/DTR*%
%TO.C,J5*%
X114300000Y-66040000D03*
D18*
%TO.N,/RTS*%
X114300000Y-63500000D03*
%TO.N,/RXD0*%
X114300000Y-60960000D03*
%TO.N,/RXD*%
X114300000Y-58420000D03*
%TO.N,GND*%
X114300000Y-55880000D03*
%TO.N,/VDD33*%
X114300000Y-53340000D03*
%TD*%
D21*
%TO.N,GND*%
%TO.C,U3*%
X130680000Y-46160000D03*
X130680000Y-47560000D03*
X131380000Y-45460000D03*
X131380000Y-46860000D03*
X131380000Y-48260000D03*
X132080000Y-46160000D03*
X132080000Y-47560000D03*
X132780000Y-45460000D03*
X132780000Y-46860000D03*
X132780000Y-48260000D03*
X133480000Y-46160000D03*
X133480000Y-47560000D03*
%TD*%
D13*
%TO.N,GND*%
%TO.C,SW3*%
X146610000Y-40930000D03*
X153110000Y-40930000D03*
%TO.N,/EN*%
X146610000Y-45430000D03*
X153110000Y-45430000D03*
%TD*%
D22*
%TO.N,Net-(R4-Pad2)*%
%TO.C,RV1*%
X139700000Y-81280000D03*
X137160000Y-81280000D03*
%TO.N,GND*%
X134620000Y-81280000D03*
%TD*%
D12*
%TO.N,/VDD33*%
%TO.C,C3*%
X132120000Y-63500000D03*
D11*
%TO.N,GND*%
X134620000Y-63500000D03*
%TD*%
D19*
%TO.N,GND*%
%TO.C,J2*%
X136920000Y-106680000D03*
D20*
%TO.N,/V_ALIM*%
X131920000Y-106680000D03*
%TO.N,Net-(J2-Pin_3)*%
X126920000Y-106680000D03*
%TO.N,Net-(J2-Pin_4)*%
X121920000Y-106680000D03*
%TO.N,Net-(J2-Pin_5)*%
X116920000Y-106680000D03*
%TO.N,Net-(J2-Pin_6)*%
X111920000Y-106680000D03*
%TD*%
D23*
%TO.N,/RTS*%
X151130000Y-66927500D03*
%TO.N,/VDD33*%
X119380000Y-44450000D03*
X116840000Y-46990000D03*
X137160000Y-63500000D03*
X147320000Y-63500000D03*
X123420000Y-40410000D03*
%TO.N,/V_ALIM*%
X146910000Y-94840000D03*
X151130000Y-99060000D03*
%TO.N,/IO0*%
X156162208Y-55737947D03*
X151130000Y-72390000D03*
%TO.N,/5V_BUCK*%
X157480000Y-82550000D03*
X158750000Y-90170000D03*
%TO.N,/5V_ESP*%
X119380000Y-64770000D03*
X139700000Y-67310000D03*
X109220000Y-88900000D03*
X111825000Y-88965000D03*
%TO.N,Net-(D1-K)*%
X152400000Y-93420000D03*
X146890000Y-93140000D03*
%TO.N,/LED2*%
X121920000Y-97790000D03*
X119315000Y-96520000D03*
%TO.N,/EN*%
X153337500Y-60022500D03*
X115570000Y-46990000D03*
X123190000Y-46990000D03*
X123420000Y-41680000D03*
X156210000Y-44450000D03*
%TO.N,/DTR*%
X151130000Y-68027500D03*
%TO.N,/IO16*%
X114235000Y-91505000D03*
X143510000Y-53340000D03*
%TO.N,/LED1*%
X115570000Y-95250000D03*
X127000000Y-97790000D03*
%TO.N,/IO17*%
X118045000Y-91505000D03*
X143510000Y-52070000D03*
%TO.N,/LED3*%
X119692009Y-91127990D03*
X116840000Y-97790000D03*
%TO.N,/IO18*%
X143510000Y-49530000D03*
X119315000Y-86425000D03*
%TO.N,/LED4*%
X116775000Y-91375000D03*
X111760000Y-97790000D03*
%TO.N,/IO19*%
X143510000Y-48260000D03*
X115570000Y-86360000D03*
%TO.N,/RXD0*%
X143510000Y-44450000D03*
%TO.N,/RXD*%
X143499581Y-43072765D03*
%TO.N,Net-(U1-FB)*%
X153670000Y-86360000D03*
X146890000Y-89740000D03*
%TO.N,Net-(R4-Pad2)*%
X153670000Y-83820000D03*
%TD*%
%TO.N,/IO0*%
D24*
X151130000Y-72390000D02*
X149860000Y-71120000D01*
X149860000Y-71120000D02*
X149860000Y-58840000D01*
X149860000Y-58840000D02*
X146610000Y-55590000D01*
%TO.N,Net-(D1-K)*%
X152400000Y-93420000D02*
X152400000Y-93980000D01*
X146890000Y-93550000D02*
X149860000Y-96520000D01*
X146890000Y-93140000D02*
X146890000Y-93550000D01*
X152400000Y-93980000D02*
X149860000Y-96520000D01*
%TO.N,/LED2*%
X119315000Y-96520000D02*
X120650000Y-96520000D01*
X120650000Y-96520000D02*
X121920000Y-97790000D01*
%TO.N,/EN*%
X144110000Y-42834655D02*
X143185345Y-41910000D01*
X123420000Y-41680000D02*
X120880000Y-41680000D01*
X123190000Y-41910000D02*
X143185345Y-41910000D01*
X123190000Y-46990000D02*
X123190000Y-41910000D01*
X144110000Y-50795000D02*
X144110000Y-42834655D01*
X143185345Y-41910000D02*
X146610000Y-45334655D01*
X123190000Y-41910000D02*
X123420000Y-41680000D01*
X156210000Y-44450000D02*
X155230000Y-45430000D01*
X155230000Y-45430000D02*
X146610000Y-45430000D01*
X153337500Y-60022500D02*
X144110000Y-50795000D01*
X120880000Y-41680000D02*
X115570000Y-46990000D01*
X146610000Y-45334655D02*
X146610000Y-45430000D01*
%TO.N,/IO16*%
X140970000Y-53340000D02*
X135720000Y-58590000D01*
X135720000Y-70868529D02*
X115083529Y-91505000D01*
X143510000Y-53340000D02*
X140970000Y-53340000D01*
X115083529Y-91505000D02*
X114235000Y-91505000D01*
X135720000Y-58590000D02*
X135720000Y-70868529D01*
%TO.N,/LED1*%
X125130000Y-95920000D02*
X127000000Y-97790000D01*
X115570000Y-95320000D02*
X116170000Y-95920000D01*
X115570000Y-95250000D02*
X115570000Y-95320000D01*
X116170000Y-95920000D02*
X125130000Y-95920000D01*
%TO.N,/IO17*%
X144110000Y-52670000D02*
X144110000Y-65440000D01*
X144110000Y-65440000D02*
X118045000Y-91505000D01*
X143510000Y-52070000D02*
X144110000Y-52670000D01*
%TO.N,/IO18*%
X133220000Y-72520000D02*
X119315000Y-86425000D01*
X133220000Y-59820000D02*
X133220000Y-72520000D01*
X143510000Y-49530000D02*
X133220000Y-59820000D01*
%TO.N,/LED4*%
X111760000Y-96390000D02*
X111760000Y-97790000D01*
X116775000Y-91375000D02*
X111760000Y-96390000D01*
%TO.N,/IO19*%
X128100000Y-63670000D02*
X143510000Y-48260000D01*
X115570000Y-86360000D02*
X128100000Y-73830000D01*
X128100000Y-73830000D02*
X128100000Y-63670000D01*
%TO.N,/RXD0*%
X130810000Y-44450000D02*
X114300000Y-60960000D01*
X143510000Y-44450000D02*
X130810000Y-44450000D01*
%TO.N,/RXD*%
X129647235Y-43072765D02*
X114300000Y-58420000D01*
X143499581Y-43072765D02*
X129647235Y-43072765D01*
%TO.N,Net-(U1-FB)*%
X153670000Y-86360000D02*
X150290000Y-89740000D01*
X150290000Y-89740000D02*
X146890000Y-89740000D01*
%TO.N,Net-(R4-Pad2)*%
X151130000Y-81280000D02*
X137160000Y-81280000D01*
X153670000Y-83820000D02*
X151130000Y-81280000D01*
%TD*%
M02*
