%TF.GenerationSoftware,KiCad,Pcbnew,10.0.4*%
%TF.CreationDate,2026-07-22T17:59:10+02:00*%
%TF.ProjectId,ESP32_BUCK_WLED_NO_BOARD,45535033-325f-4425-9543-4b5f574c4544,rev?*%
%TF.SameCoordinates,Original*%
%TF.FileFunction,Legend,Bot*%
%TF.FilePolarity,Positive*%
%FSLAX46Y46*%
G04 Gerber Fmt 4.6, Leading zero omitted, Abs format (unit mm)*
G04 Created by KiCad (PCBNEW 10.0.4) date 2026-07-22 17:59:10*
%MOMM*%
%LPD*%
G01*
G04 APERTURE LIST*
%ADD10C,0.158750*%
%ADD11C,0.100000*%
G04 APERTURE END LIST*
D10*
X118703234Y-72122604D02*
X118703234Y-72969271D01*
X119005615Y-71638795D02*
X119307996Y-72545937D01*
X119307996Y-72545937D02*
X118521805Y-72545937D01*
X118158948Y-71699271D02*
X117312281Y-71699271D01*
X117312281Y-71699271D02*
X117856567Y-72969271D01*
X116586567Y-71699271D02*
X116465614Y-71699271D01*
X116465614Y-71699271D02*
X116344662Y-71759747D01*
X116344662Y-71759747D02*
X116284186Y-71820223D01*
X116284186Y-71820223D02*
X116223710Y-71941175D01*
X116223710Y-71941175D02*
X116163233Y-72183080D01*
X116163233Y-72183080D02*
X116163233Y-72485461D01*
X116163233Y-72485461D02*
X116223710Y-72727366D01*
X116223710Y-72727366D02*
X116284186Y-72848318D01*
X116284186Y-72848318D02*
X116344662Y-72908795D01*
X116344662Y-72908795D02*
X116465614Y-72969271D01*
X116465614Y-72969271D02*
X116586567Y-72969271D01*
X116586567Y-72969271D02*
X116707519Y-72908795D01*
X116707519Y-72908795D02*
X116767995Y-72848318D01*
X116767995Y-72848318D02*
X116828472Y-72727366D01*
X116828472Y-72727366D02*
X116888948Y-72485461D01*
X116888948Y-72485461D02*
X116888948Y-72183080D01*
X116888948Y-72183080D02*
X116828472Y-71941175D01*
X116828472Y-71941175D02*
X116767995Y-71820223D01*
X116767995Y-71820223D02*
X116707519Y-71759747D01*
X116707519Y-71759747D02*
X116586567Y-71699271D01*
X115074662Y-72122604D02*
X115074662Y-72969271D01*
X115618948Y-72122604D02*
X115618948Y-72787842D01*
X115618948Y-72787842D02*
X115558471Y-72908795D01*
X115558471Y-72908795D02*
X115437519Y-72969271D01*
X115437519Y-72969271D02*
X115256090Y-72969271D01*
X115256090Y-72969271D02*
X115135138Y-72908795D01*
X115135138Y-72908795D02*
X115074662Y-72848318D01*
X114046566Y-72304033D02*
X114469900Y-72304033D01*
X114469900Y-72969271D02*
X114469900Y-71699271D01*
X114469900Y-71699271D02*
X113865138Y-71699271D01*
X128681805Y-72848318D02*
X128742281Y-72908795D01*
X128742281Y-72908795D02*
X128923710Y-72969271D01*
X128923710Y-72969271D02*
X129044662Y-72969271D01*
X129044662Y-72969271D02*
X129226091Y-72908795D01*
X129226091Y-72908795D02*
X129347043Y-72787842D01*
X129347043Y-72787842D02*
X129407520Y-72666890D01*
X129407520Y-72666890D02*
X129467996Y-72424985D01*
X129467996Y-72424985D02*
X129467996Y-72243556D01*
X129467996Y-72243556D02*
X129407520Y-72001652D01*
X129407520Y-72001652D02*
X129347043Y-71880699D01*
X129347043Y-71880699D02*
X129226091Y-71759747D01*
X129226091Y-71759747D02*
X129044662Y-71699271D01*
X129044662Y-71699271D02*
X128923710Y-71699271D01*
X128923710Y-71699271D02*
X128742281Y-71759747D01*
X128742281Y-71759747D02*
X128681805Y-71820223D01*
X127472281Y-72969271D02*
X128197996Y-72969271D01*
X127835139Y-72969271D02*
X127835139Y-71699271D01*
X127835139Y-71699271D02*
X127956091Y-71880699D01*
X127956091Y-71880699D02*
X128077043Y-72001652D01*
X128077043Y-72001652D02*
X128197996Y-72062128D01*
X118703234Y-74662604D02*
X118703234Y-75509271D01*
X119005615Y-74178795D02*
X119307996Y-75085937D01*
X119307996Y-75085937D02*
X118521805Y-75085937D01*
X118158948Y-74239271D02*
X117312281Y-74239271D01*
X117312281Y-74239271D02*
X117856567Y-75509271D01*
X116284186Y-74662604D02*
X116284186Y-75509271D01*
X116828472Y-74662604D02*
X116828472Y-75327842D01*
X116828472Y-75327842D02*
X116767995Y-75448795D01*
X116767995Y-75448795D02*
X116647043Y-75509271D01*
X116647043Y-75509271D02*
X116465614Y-75509271D01*
X116465614Y-75509271D02*
X116344662Y-75448795D01*
X116344662Y-75448795D02*
X116284186Y-75388318D01*
X115256090Y-74844033D02*
X115679424Y-74844033D01*
X115679424Y-75509271D02*
X115679424Y-74239271D01*
X115679424Y-74239271D02*
X115074662Y-74239271D01*
X128681805Y-75388318D02*
X128742281Y-75448795D01*
X128742281Y-75448795D02*
X128923710Y-75509271D01*
X128923710Y-75509271D02*
X129044662Y-75509271D01*
X129044662Y-75509271D02*
X129226091Y-75448795D01*
X129226091Y-75448795D02*
X129347043Y-75327842D01*
X129347043Y-75327842D02*
X129407520Y-75206890D01*
X129407520Y-75206890D02*
X129467996Y-74964985D01*
X129467996Y-74964985D02*
X129467996Y-74783556D01*
X129467996Y-74783556D02*
X129407520Y-74541652D01*
X129407520Y-74541652D02*
X129347043Y-74420699D01*
X129347043Y-74420699D02*
X129226091Y-74299747D01*
X129226091Y-74299747D02*
X129044662Y-74239271D01*
X129044662Y-74239271D02*
X128923710Y-74239271D01*
X128923710Y-74239271D02*
X128742281Y-74299747D01*
X128742281Y-74299747D02*
X128681805Y-74360223D01*
X128197996Y-74360223D02*
X128137520Y-74299747D01*
X128137520Y-74299747D02*
X128016567Y-74239271D01*
X128016567Y-74239271D02*
X127714186Y-74239271D01*
X127714186Y-74239271D02*
X127593234Y-74299747D01*
X127593234Y-74299747D02*
X127532758Y-74360223D01*
X127532758Y-74360223D02*
X127472281Y-74481175D01*
X127472281Y-74481175D02*
X127472281Y-74602128D01*
X127472281Y-74602128D02*
X127532758Y-74783556D01*
X127532758Y-74783556D02*
X128258472Y-75509271D01*
X128258472Y-75509271D02*
X127472281Y-75509271D01*
X126927996Y-75025461D02*
X125960377Y-75025461D01*
X124750853Y-74239271D02*
X125355615Y-74239271D01*
X125355615Y-74239271D02*
X125416091Y-74844033D01*
X125416091Y-74844033D02*
X125355615Y-74783556D01*
X125355615Y-74783556D02*
X125234662Y-74723080D01*
X125234662Y-74723080D02*
X124932281Y-74723080D01*
X124932281Y-74723080D02*
X124811329Y-74783556D01*
X124811329Y-74783556D02*
X124750853Y-74844033D01*
X124750853Y-74844033D02*
X124690376Y-74964985D01*
X124690376Y-74964985D02*
X124690376Y-75267366D01*
X124690376Y-75267366D02*
X124750853Y-75388318D01*
X124750853Y-75388318D02*
X124811329Y-75448795D01*
X124811329Y-75448795D02*
X124932281Y-75509271D01*
X124932281Y-75509271D02*
X125234662Y-75509271D01*
X125234662Y-75509271D02*
X125355615Y-75448795D01*
X125355615Y-75448795D02*
X125416091Y-75388318D01*
X119005615Y-76779271D02*
X118884662Y-76779271D01*
X118884662Y-76779271D02*
X118763710Y-76839747D01*
X118763710Y-76839747D02*
X118703234Y-76900223D01*
X118703234Y-76900223D02*
X118642758Y-77021175D01*
X118642758Y-77021175D02*
X118582281Y-77263080D01*
X118582281Y-77263080D02*
X118582281Y-77565461D01*
X118582281Y-77565461D02*
X118642758Y-77807366D01*
X118642758Y-77807366D02*
X118703234Y-77928318D01*
X118703234Y-77928318D02*
X118763710Y-77988795D01*
X118763710Y-77988795D02*
X118884662Y-78049271D01*
X118884662Y-78049271D02*
X119005615Y-78049271D01*
X119005615Y-78049271D02*
X119126567Y-77988795D01*
X119126567Y-77988795D02*
X119187043Y-77928318D01*
X119187043Y-77928318D02*
X119247520Y-77807366D01*
X119247520Y-77807366D02*
X119307996Y-77565461D01*
X119307996Y-77565461D02*
X119307996Y-77263080D01*
X119307996Y-77263080D02*
X119247520Y-77021175D01*
X119247520Y-77021175D02*
X119187043Y-76900223D01*
X119187043Y-76900223D02*
X119126567Y-76839747D01*
X119126567Y-76839747D02*
X119005615Y-76779271D01*
X118037996Y-77928318D02*
X117977519Y-77988795D01*
X117977519Y-77988795D02*
X118037996Y-78049271D01*
X118037996Y-78049271D02*
X118098472Y-77988795D01*
X118098472Y-77988795D02*
X118037996Y-77928318D01*
X118037996Y-77928318D02*
X118037996Y-78049271D01*
X116767995Y-78049271D02*
X117493710Y-78049271D01*
X117130853Y-78049271D02*
X117130853Y-76779271D01*
X117130853Y-76779271D02*
X117251805Y-76960699D01*
X117251805Y-76960699D02*
X117372757Y-77081652D01*
X117372757Y-77081652D02*
X117493710Y-77142128D01*
X115679424Y-77202604D02*
X115679424Y-78049271D01*
X116223710Y-77202604D02*
X116223710Y-77867842D01*
X116223710Y-77867842D02*
X116163233Y-77988795D01*
X116163233Y-77988795D02*
X116042281Y-78049271D01*
X116042281Y-78049271D02*
X115860852Y-78049271D01*
X115860852Y-78049271D02*
X115739900Y-77988795D01*
X115739900Y-77988795D02*
X115679424Y-77928318D01*
X114651328Y-77384033D02*
X115074662Y-77384033D01*
X115074662Y-78049271D02*
X115074662Y-76779271D01*
X115074662Y-76779271D02*
X114469900Y-76779271D01*
X113623233Y-78533080D02*
X113683710Y-78472604D01*
X113683710Y-78472604D02*
X113804662Y-78291175D01*
X113804662Y-78291175D02*
X113865138Y-78170223D01*
X113865138Y-78170223D02*
X113925614Y-77988795D01*
X113925614Y-77988795D02*
X113986091Y-77686414D01*
X113986091Y-77686414D02*
X113986091Y-77444509D01*
X113986091Y-77444509D02*
X113925614Y-77142128D01*
X113925614Y-77142128D02*
X113865138Y-76960699D01*
X113865138Y-76960699D02*
X113804662Y-76839747D01*
X113804662Y-76839747D02*
X113683710Y-76658318D01*
X113683710Y-76658318D02*
X113623233Y-76597842D01*
X112534662Y-76779271D02*
X113139424Y-76779271D01*
X113139424Y-76779271D02*
X113199900Y-77384033D01*
X113199900Y-77384033D02*
X113139424Y-77323556D01*
X113139424Y-77323556D02*
X113018471Y-77263080D01*
X113018471Y-77263080D02*
X112716090Y-77263080D01*
X112716090Y-77263080D02*
X112595138Y-77323556D01*
X112595138Y-77323556D02*
X112534662Y-77384033D01*
X112534662Y-77384033D02*
X112474185Y-77504985D01*
X112474185Y-77504985D02*
X112474185Y-77807366D01*
X112474185Y-77807366D02*
X112534662Y-77928318D01*
X112534662Y-77928318D02*
X112595138Y-77988795D01*
X112595138Y-77988795D02*
X112716090Y-78049271D01*
X112716090Y-78049271D02*
X113018471Y-78049271D01*
X113018471Y-78049271D02*
X113139424Y-77988795D01*
X113139424Y-77988795D02*
X113199900Y-77928318D01*
X111687995Y-76779271D02*
X111567042Y-76779271D01*
X111567042Y-76779271D02*
X111446090Y-76839747D01*
X111446090Y-76839747D02*
X111385614Y-76900223D01*
X111385614Y-76900223D02*
X111325138Y-77021175D01*
X111325138Y-77021175D02*
X111264661Y-77263080D01*
X111264661Y-77263080D02*
X111264661Y-77565461D01*
X111264661Y-77565461D02*
X111325138Y-77807366D01*
X111325138Y-77807366D02*
X111385614Y-77928318D01*
X111385614Y-77928318D02*
X111446090Y-77988795D01*
X111446090Y-77988795D02*
X111567042Y-78049271D01*
X111567042Y-78049271D02*
X111687995Y-78049271D01*
X111687995Y-78049271D02*
X111808947Y-77988795D01*
X111808947Y-77988795D02*
X111869423Y-77928318D01*
X111869423Y-77928318D02*
X111929900Y-77807366D01*
X111929900Y-77807366D02*
X111990376Y-77565461D01*
X111990376Y-77565461D02*
X111990376Y-77263080D01*
X111990376Y-77263080D02*
X111929900Y-77021175D01*
X111929900Y-77021175D02*
X111869423Y-76900223D01*
X111869423Y-76900223D02*
X111808947Y-76839747D01*
X111808947Y-76839747D02*
X111687995Y-76779271D01*
X110901804Y-76779271D02*
X110478471Y-78049271D01*
X110478471Y-78049271D02*
X110055137Y-76779271D01*
X109752757Y-78533080D02*
X109692281Y-78472604D01*
X109692281Y-78472604D02*
X109571328Y-78291175D01*
X109571328Y-78291175D02*
X109510852Y-78170223D01*
X109510852Y-78170223D02*
X109450376Y-77988795D01*
X109450376Y-77988795D02*
X109389900Y-77686414D01*
X109389900Y-77686414D02*
X109389900Y-77444509D01*
X109389900Y-77444509D02*
X109450376Y-77142128D01*
X109450376Y-77142128D02*
X109510852Y-76960699D01*
X109510852Y-76960699D02*
X109571328Y-76839747D01*
X109571328Y-76839747D02*
X109692281Y-76658318D01*
X109692281Y-76658318D02*
X109752757Y-76597842D01*
X128681805Y-77928318D02*
X128742281Y-77988795D01*
X128742281Y-77988795D02*
X128923710Y-78049271D01*
X128923710Y-78049271D02*
X129044662Y-78049271D01*
X129044662Y-78049271D02*
X129226091Y-77988795D01*
X129226091Y-77988795D02*
X129347043Y-77867842D01*
X129347043Y-77867842D02*
X129407520Y-77746890D01*
X129407520Y-77746890D02*
X129467996Y-77504985D01*
X129467996Y-77504985D02*
X129467996Y-77323556D01*
X129467996Y-77323556D02*
X129407520Y-77081652D01*
X129407520Y-77081652D02*
X129347043Y-76960699D01*
X129347043Y-76960699D02*
X129226091Y-76839747D01*
X129226091Y-76839747D02*
X129044662Y-76779271D01*
X129044662Y-76779271D02*
X128923710Y-76779271D01*
X128923710Y-76779271D02*
X128742281Y-76839747D01*
X128742281Y-76839747D02*
X128681805Y-76900223D01*
X127593234Y-76779271D02*
X127835139Y-76779271D01*
X127835139Y-76779271D02*
X127956091Y-76839747D01*
X127956091Y-76839747D02*
X128016567Y-76900223D01*
X128016567Y-76900223D02*
X128137520Y-77081652D01*
X128137520Y-77081652D02*
X128197996Y-77323556D01*
X128197996Y-77323556D02*
X128197996Y-77807366D01*
X128197996Y-77807366D02*
X128137520Y-77928318D01*
X128137520Y-77928318D02*
X128077043Y-77988795D01*
X128077043Y-77988795D02*
X127956091Y-78049271D01*
X127956091Y-78049271D02*
X127714186Y-78049271D01*
X127714186Y-78049271D02*
X127593234Y-77988795D01*
X127593234Y-77988795D02*
X127532758Y-77928318D01*
X127532758Y-77928318D02*
X127472281Y-77807366D01*
X127472281Y-77807366D02*
X127472281Y-77504985D01*
X127472281Y-77504985D02*
X127532758Y-77384033D01*
X127532758Y-77384033D02*
X127593234Y-77323556D01*
X127593234Y-77323556D02*
X127714186Y-77263080D01*
X127714186Y-77263080D02*
X127956091Y-77263080D01*
X127956091Y-77263080D02*
X128077043Y-77323556D01*
X128077043Y-77323556D02*
X128137520Y-77384033D01*
X128137520Y-77384033D02*
X128197996Y-77504985D01*
X126927996Y-77565461D02*
X125960377Y-77565461D01*
X124690376Y-78049271D02*
X125416091Y-78049271D01*
X125053234Y-78049271D02*
X125053234Y-76779271D01*
X125053234Y-76779271D02*
X125174186Y-76960699D01*
X125174186Y-76960699D02*
X125295138Y-77081652D01*
X125295138Y-77081652D02*
X125416091Y-77142128D01*
X124206567Y-76900223D02*
X124146091Y-76839747D01*
X124146091Y-76839747D02*
X124025138Y-76779271D01*
X124025138Y-76779271D02*
X123722757Y-76779271D01*
X123722757Y-76779271D02*
X123601805Y-76839747D01*
X123601805Y-76839747D02*
X123541329Y-76900223D01*
X123541329Y-76900223D02*
X123480852Y-77021175D01*
X123480852Y-77021175D02*
X123480852Y-77142128D01*
X123480852Y-77142128D02*
X123541329Y-77323556D01*
X123541329Y-77323556D02*
X124267043Y-78049271D01*
X124267043Y-78049271D02*
X123480852Y-78049271D01*
X118582281Y-80589271D02*
X119307996Y-80589271D01*
X118945139Y-80589271D02*
X118945139Y-79319271D01*
X118945139Y-79319271D02*
X119066091Y-79500699D01*
X119066091Y-79500699D02*
X119187043Y-79621652D01*
X119187043Y-79621652D02*
X119307996Y-79682128D01*
X117796091Y-79319271D02*
X117675138Y-79319271D01*
X117675138Y-79319271D02*
X117554186Y-79379747D01*
X117554186Y-79379747D02*
X117493710Y-79440223D01*
X117493710Y-79440223D02*
X117433234Y-79561175D01*
X117433234Y-79561175D02*
X117372757Y-79803080D01*
X117372757Y-79803080D02*
X117372757Y-80105461D01*
X117372757Y-80105461D02*
X117433234Y-80347366D01*
X117433234Y-80347366D02*
X117493710Y-80468318D01*
X117493710Y-80468318D02*
X117554186Y-80528795D01*
X117554186Y-80528795D02*
X117675138Y-80589271D01*
X117675138Y-80589271D02*
X117796091Y-80589271D01*
X117796091Y-80589271D02*
X117917043Y-80528795D01*
X117917043Y-80528795D02*
X117977519Y-80468318D01*
X117977519Y-80468318D02*
X118037996Y-80347366D01*
X118037996Y-80347366D02*
X118098472Y-80105461D01*
X118098472Y-80105461D02*
X118098472Y-79803080D01*
X118098472Y-79803080D02*
X118037996Y-79561175D01*
X118037996Y-79561175D02*
X117977519Y-79440223D01*
X117977519Y-79440223D02*
X117917043Y-79379747D01*
X117917043Y-79379747D02*
X117796091Y-79319271D01*
X116586567Y-79319271D02*
X116465614Y-79319271D01*
X116465614Y-79319271D02*
X116344662Y-79379747D01*
X116344662Y-79379747D02*
X116284186Y-79440223D01*
X116284186Y-79440223D02*
X116223710Y-79561175D01*
X116223710Y-79561175D02*
X116163233Y-79803080D01*
X116163233Y-79803080D02*
X116163233Y-80105461D01*
X116163233Y-80105461D02*
X116223710Y-80347366D01*
X116223710Y-80347366D02*
X116284186Y-80468318D01*
X116284186Y-80468318D02*
X116344662Y-80528795D01*
X116344662Y-80528795D02*
X116465614Y-80589271D01*
X116465614Y-80589271D02*
X116586567Y-80589271D01*
X116586567Y-80589271D02*
X116707519Y-80528795D01*
X116707519Y-80528795D02*
X116767995Y-80468318D01*
X116767995Y-80468318D02*
X116828472Y-80347366D01*
X116828472Y-80347366D02*
X116888948Y-80105461D01*
X116888948Y-80105461D02*
X116888948Y-79803080D01*
X116888948Y-79803080D02*
X116828472Y-79561175D01*
X116828472Y-79561175D02*
X116767995Y-79440223D01*
X116767995Y-79440223D02*
X116707519Y-79379747D01*
X116707519Y-79379747D02*
X116586567Y-79319271D01*
X115074662Y-79742604D02*
X115074662Y-80589271D01*
X115618948Y-79742604D02*
X115618948Y-80407842D01*
X115618948Y-80407842D02*
X115558471Y-80528795D01*
X115558471Y-80528795D02*
X115437519Y-80589271D01*
X115437519Y-80589271D02*
X115256090Y-80589271D01*
X115256090Y-80589271D02*
X115135138Y-80528795D01*
X115135138Y-80528795D02*
X115074662Y-80468318D01*
X114046566Y-79924033D02*
X114469900Y-79924033D01*
X114469900Y-80589271D02*
X114469900Y-79319271D01*
X114469900Y-79319271D02*
X113865138Y-79319271D01*
X113018471Y-81073080D02*
X113078948Y-81012604D01*
X113078948Y-81012604D02*
X113199900Y-80831175D01*
X113199900Y-80831175D02*
X113260376Y-80710223D01*
X113260376Y-80710223D02*
X113320852Y-80528795D01*
X113320852Y-80528795D02*
X113381329Y-80226414D01*
X113381329Y-80226414D02*
X113381329Y-79984509D01*
X113381329Y-79984509D02*
X113320852Y-79682128D01*
X113320852Y-79682128D02*
X113260376Y-79500699D01*
X113260376Y-79500699D02*
X113199900Y-79379747D01*
X113199900Y-79379747D02*
X113078948Y-79198318D01*
X113078948Y-79198318D02*
X113018471Y-79137842D01*
X111929900Y-79319271D02*
X112534662Y-79319271D01*
X112534662Y-79319271D02*
X112595138Y-79924033D01*
X112595138Y-79924033D02*
X112534662Y-79863556D01*
X112534662Y-79863556D02*
X112413709Y-79803080D01*
X112413709Y-79803080D02*
X112111328Y-79803080D01*
X112111328Y-79803080D02*
X111990376Y-79863556D01*
X111990376Y-79863556D02*
X111929900Y-79924033D01*
X111929900Y-79924033D02*
X111869423Y-80044985D01*
X111869423Y-80044985D02*
X111869423Y-80347366D01*
X111869423Y-80347366D02*
X111929900Y-80468318D01*
X111929900Y-80468318D02*
X111990376Y-80528795D01*
X111990376Y-80528795D02*
X112111328Y-80589271D01*
X112111328Y-80589271D02*
X112413709Y-80589271D01*
X112413709Y-80589271D02*
X112534662Y-80528795D01*
X112534662Y-80528795D02*
X112595138Y-80468318D01*
X111083233Y-79319271D02*
X110962280Y-79319271D01*
X110962280Y-79319271D02*
X110841328Y-79379747D01*
X110841328Y-79379747D02*
X110780852Y-79440223D01*
X110780852Y-79440223D02*
X110720376Y-79561175D01*
X110720376Y-79561175D02*
X110659899Y-79803080D01*
X110659899Y-79803080D02*
X110659899Y-80105461D01*
X110659899Y-80105461D02*
X110720376Y-80347366D01*
X110720376Y-80347366D02*
X110780852Y-80468318D01*
X110780852Y-80468318D02*
X110841328Y-80528795D01*
X110841328Y-80528795D02*
X110962280Y-80589271D01*
X110962280Y-80589271D02*
X111083233Y-80589271D01*
X111083233Y-80589271D02*
X111204185Y-80528795D01*
X111204185Y-80528795D02*
X111264661Y-80468318D01*
X111264661Y-80468318D02*
X111325138Y-80347366D01*
X111325138Y-80347366D02*
X111385614Y-80105461D01*
X111385614Y-80105461D02*
X111385614Y-79803080D01*
X111385614Y-79803080D02*
X111325138Y-79561175D01*
X111325138Y-79561175D02*
X111264661Y-79440223D01*
X111264661Y-79440223D02*
X111204185Y-79379747D01*
X111204185Y-79379747D02*
X111083233Y-79319271D01*
X110297042Y-79319271D02*
X109873709Y-80589271D01*
X109873709Y-80589271D02*
X109450375Y-79319271D01*
X109147995Y-81073080D02*
X109087519Y-81012604D01*
X109087519Y-81012604D02*
X108966566Y-80831175D01*
X108966566Y-80831175D02*
X108906090Y-80710223D01*
X108906090Y-80710223D02*
X108845614Y-80528795D01*
X108845614Y-80528795D02*
X108785138Y-80226414D01*
X108785138Y-80226414D02*
X108785138Y-79984509D01*
X108785138Y-79984509D02*
X108845614Y-79682128D01*
X108845614Y-79682128D02*
X108906090Y-79500699D01*
X108906090Y-79500699D02*
X108966566Y-79379747D01*
X108966566Y-79379747D02*
X109087519Y-79198318D01*
X109087519Y-79198318D02*
X109147995Y-79137842D01*
X128681805Y-80468318D02*
X128742281Y-80528795D01*
X128742281Y-80528795D02*
X128923710Y-80589271D01*
X128923710Y-80589271D02*
X129044662Y-80589271D01*
X129044662Y-80589271D02*
X129226091Y-80528795D01*
X129226091Y-80528795D02*
X129347043Y-80407842D01*
X129347043Y-80407842D02*
X129407520Y-80286890D01*
X129407520Y-80286890D02*
X129467996Y-80044985D01*
X129467996Y-80044985D02*
X129467996Y-79863556D01*
X129467996Y-79863556D02*
X129407520Y-79621652D01*
X129407520Y-79621652D02*
X129347043Y-79500699D01*
X129347043Y-79500699D02*
X129226091Y-79379747D01*
X129226091Y-79379747D02*
X129044662Y-79319271D01*
X129044662Y-79319271D02*
X128923710Y-79319271D01*
X128923710Y-79319271D02*
X128742281Y-79379747D01*
X128742281Y-79379747D02*
X128681805Y-79440223D01*
X127472281Y-80589271D02*
X128197996Y-80589271D01*
X127835139Y-80589271D02*
X127835139Y-79319271D01*
X127835139Y-79319271D02*
X127956091Y-79500699D01*
X127956091Y-79500699D02*
X128077043Y-79621652D01*
X128077043Y-79621652D02*
X128197996Y-79682128D01*
X127048948Y-79319271D02*
X126262757Y-79319271D01*
X126262757Y-79319271D02*
X126686091Y-79803080D01*
X126686091Y-79803080D02*
X126504662Y-79803080D01*
X126504662Y-79803080D02*
X126383710Y-79863556D01*
X126383710Y-79863556D02*
X126323234Y-79924033D01*
X126323234Y-79924033D02*
X126262757Y-80044985D01*
X126262757Y-80044985D02*
X126262757Y-80347366D01*
X126262757Y-80347366D02*
X126323234Y-80468318D01*
X126323234Y-80468318D02*
X126383710Y-80528795D01*
X126383710Y-80528795D02*
X126504662Y-80589271D01*
X126504662Y-80589271D02*
X126867519Y-80589271D01*
X126867519Y-80589271D02*
X126988472Y-80528795D01*
X126988472Y-80528795D02*
X127048948Y-80468318D01*
X125657995Y-80528795D02*
X125657995Y-80589271D01*
X125657995Y-80589271D02*
X125718472Y-80710223D01*
X125718472Y-80710223D02*
X125778948Y-80770699D01*
X124448471Y-80589271D02*
X125174186Y-80589271D01*
X124811329Y-80589271D02*
X124811329Y-79319271D01*
X124811329Y-79319271D02*
X124932281Y-79500699D01*
X124932281Y-79500699D02*
X125053233Y-79621652D01*
X125053233Y-79621652D02*
X125174186Y-79682128D01*
X123359900Y-79742604D02*
X123359900Y-80589271D01*
X123662281Y-79258795D02*
X123964662Y-80165937D01*
X123964662Y-80165937D02*
X123178471Y-80165937D01*
X118582281Y-83129271D02*
X119307996Y-83129271D01*
X118945139Y-83129271D02*
X118945139Y-81859271D01*
X118945139Y-81859271D02*
X119066091Y-82040699D01*
X119066091Y-82040699D02*
X119187043Y-82161652D01*
X119187043Y-82161652D02*
X119307996Y-82222128D01*
X118037996Y-83129271D02*
X118037996Y-81859271D01*
X118037996Y-81859271D02*
X117312281Y-83129271D01*
X117312281Y-83129271D02*
X117312281Y-81859271D01*
X116102758Y-81859271D02*
X116707520Y-81859271D01*
X116707520Y-81859271D02*
X116767996Y-82464033D01*
X116767996Y-82464033D02*
X116707520Y-82403556D01*
X116707520Y-82403556D02*
X116586567Y-82343080D01*
X116586567Y-82343080D02*
X116284186Y-82343080D01*
X116284186Y-82343080D02*
X116163234Y-82403556D01*
X116163234Y-82403556D02*
X116102758Y-82464033D01*
X116102758Y-82464033D02*
X116042281Y-82584985D01*
X116042281Y-82584985D02*
X116042281Y-82887366D01*
X116042281Y-82887366D02*
X116102758Y-83008318D01*
X116102758Y-83008318D02*
X116163234Y-83068795D01*
X116163234Y-83068795D02*
X116284186Y-83129271D01*
X116284186Y-83129271D02*
X116586567Y-83129271D01*
X116586567Y-83129271D02*
X116707520Y-83068795D01*
X116707520Y-83068795D02*
X116767996Y-83008318D01*
X115316567Y-82403556D02*
X115437519Y-82343080D01*
X115437519Y-82343080D02*
X115497996Y-82282604D01*
X115497996Y-82282604D02*
X115558472Y-82161652D01*
X115558472Y-82161652D02*
X115558472Y-82101175D01*
X115558472Y-82101175D02*
X115497996Y-81980223D01*
X115497996Y-81980223D02*
X115437519Y-81919747D01*
X115437519Y-81919747D02*
X115316567Y-81859271D01*
X115316567Y-81859271D02*
X115074662Y-81859271D01*
X115074662Y-81859271D02*
X114953710Y-81919747D01*
X114953710Y-81919747D02*
X114893234Y-81980223D01*
X114893234Y-81980223D02*
X114832757Y-82101175D01*
X114832757Y-82101175D02*
X114832757Y-82161652D01*
X114832757Y-82161652D02*
X114893234Y-82282604D01*
X114893234Y-82282604D02*
X114953710Y-82343080D01*
X114953710Y-82343080D02*
X115074662Y-82403556D01*
X115074662Y-82403556D02*
X115316567Y-82403556D01*
X115316567Y-82403556D02*
X115437519Y-82464033D01*
X115437519Y-82464033D02*
X115497996Y-82524509D01*
X115497996Y-82524509D02*
X115558472Y-82645461D01*
X115558472Y-82645461D02*
X115558472Y-82887366D01*
X115558472Y-82887366D02*
X115497996Y-83008318D01*
X115497996Y-83008318D02*
X115437519Y-83068795D01*
X115437519Y-83068795D02*
X115316567Y-83129271D01*
X115316567Y-83129271D02*
X115074662Y-83129271D01*
X115074662Y-83129271D02*
X114953710Y-83068795D01*
X114953710Y-83068795D02*
X114893234Y-83008318D01*
X114893234Y-83008318D02*
X114832757Y-82887366D01*
X114832757Y-82887366D02*
X114832757Y-82645461D01*
X114832757Y-82645461D02*
X114893234Y-82524509D01*
X114893234Y-82524509D02*
X114953710Y-82464033D01*
X114953710Y-82464033D02*
X115074662Y-82403556D01*
X114348948Y-81980223D02*
X114288472Y-81919747D01*
X114288472Y-81919747D02*
X114167519Y-81859271D01*
X114167519Y-81859271D02*
X113865138Y-81859271D01*
X113865138Y-81859271D02*
X113744186Y-81919747D01*
X113744186Y-81919747D02*
X113683710Y-81980223D01*
X113683710Y-81980223D02*
X113623233Y-82101175D01*
X113623233Y-82101175D02*
X113623233Y-82222128D01*
X113623233Y-82222128D02*
X113683710Y-82403556D01*
X113683710Y-82403556D02*
X114409424Y-83129271D01*
X114409424Y-83129271D02*
X113623233Y-83129271D01*
X113139424Y-81980223D02*
X113078948Y-81919747D01*
X113078948Y-81919747D02*
X112957995Y-81859271D01*
X112957995Y-81859271D02*
X112655614Y-81859271D01*
X112655614Y-81859271D02*
X112534662Y-81919747D01*
X112534662Y-81919747D02*
X112474186Y-81980223D01*
X112474186Y-81980223D02*
X112413709Y-82101175D01*
X112413709Y-82101175D02*
X112413709Y-82222128D01*
X112413709Y-82222128D02*
X112474186Y-82403556D01*
X112474186Y-82403556D02*
X113199900Y-83129271D01*
X113199900Y-83129271D02*
X112413709Y-83129271D01*
X129407520Y-83129271D02*
X129407520Y-81859271D01*
X129407520Y-81859271D02*
X129105139Y-81859271D01*
X129105139Y-81859271D02*
X128923710Y-81919747D01*
X128923710Y-81919747D02*
X128802758Y-82040699D01*
X128802758Y-82040699D02*
X128742281Y-82161652D01*
X128742281Y-82161652D02*
X128681805Y-82403556D01*
X128681805Y-82403556D02*
X128681805Y-82584985D01*
X128681805Y-82584985D02*
X128742281Y-82826890D01*
X128742281Y-82826890D02*
X128802758Y-82947842D01*
X128802758Y-82947842D02*
X128923710Y-83068795D01*
X128923710Y-83068795D02*
X129105139Y-83129271D01*
X129105139Y-83129271D02*
X129407520Y-83129271D01*
X127472281Y-83129271D02*
X128197996Y-83129271D01*
X127835139Y-83129271D02*
X127835139Y-81859271D01*
X127835139Y-81859271D02*
X127956091Y-82040699D01*
X127956091Y-82040699D02*
X128077043Y-82161652D01*
X128077043Y-82161652D02*
X128197996Y-82222128D01*
X118521805Y-85669271D02*
X118945139Y-85064509D01*
X119247520Y-85669271D02*
X119247520Y-84399271D01*
X119247520Y-84399271D02*
X118763710Y-84399271D01*
X118763710Y-84399271D02*
X118642758Y-84459747D01*
X118642758Y-84459747D02*
X118582281Y-84520223D01*
X118582281Y-84520223D02*
X118521805Y-84641175D01*
X118521805Y-84641175D02*
X118521805Y-84822604D01*
X118521805Y-84822604D02*
X118582281Y-84943556D01*
X118582281Y-84943556D02*
X118642758Y-85004033D01*
X118642758Y-85004033D02*
X118763710Y-85064509D01*
X118763710Y-85064509D02*
X119247520Y-85064509D01*
X117977520Y-85004033D02*
X117554186Y-85004033D01*
X117372758Y-85669271D02*
X117977520Y-85669271D01*
X117977520Y-85669271D02*
X117977520Y-84399271D01*
X117977520Y-84399271D02*
X117372758Y-84399271D01*
X116828472Y-85669271D02*
X116828472Y-84399271D01*
X116828472Y-84399271D02*
X116526091Y-84399271D01*
X116526091Y-84399271D02*
X116344662Y-84459747D01*
X116344662Y-84459747D02*
X116223710Y-84580699D01*
X116223710Y-84580699D02*
X116163233Y-84701652D01*
X116163233Y-84701652D02*
X116102757Y-84943556D01*
X116102757Y-84943556D02*
X116102757Y-85124985D01*
X116102757Y-85124985D02*
X116163233Y-85366890D01*
X116163233Y-85366890D02*
X116223710Y-85487842D01*
X116223710Y-85487842D02*
X116344662Y-85608795D01*
X116344662Y-85608795D02*
X116526091Y-85669271D01*
X116526091Y-85669271D02*
X116828472Y-85669271D01*
X113986091Y-85669271D02*
X114590853Y-85669271D01*
X114590853Y-85669271D02*
X114590853Y-84399271D01*
X113562758Y-85004033D02*
X113139424Y-85004033D01*
X112957996Y-85669271D02*
X113562758Y-85669271D01*
X113562758Y-85669271D02*
X113562758Y-84399271D01*
X113562758Y-84399271D02*
X112957996Y-84399271D01*
X112413710Y-85669271D02*
X112413710Y-84399271D01*
X112413710Y-84399271D02*
X112111329Y-84399271D01*
X112111329Y-84399271D02*
X111929900Y-84459747D01*
X111929900Y-84459747D02*
X111808948Y-84580699D01*
X111808948Y-84580699D02*
X111748471Y-84701652D01*
X111748471Y-84701652D02*
X111687995Y-84943556D01*
X111687995Y-84943556D02*
X111687995Y-85124985D01*
X111687995Y-85124985D02*
X111748471Y-85366890D01*
X111748471Y-85366890D02*
X111808948Y-85487842D01*
X111808948Y-85487842D02*
X111929900Y-85608795D01*
X111929900Y-85608795D02*
X112111329Y-85669271D01*
X112111329Y-85669271D02*
X112413710Y-85669271D01*
X129407520Y-85669271D02*
X129407520Y-84399271D01*
X129407520Y-84399271D02*
X129105139Y-84399271D01*
X129105139Y-84399271D02*
X128923710Y-84459747D01*
X128923710Y-84459747D02*
X128802758Y-84580699D01*
X128802758Y-84580699D02*
X128742281Y-84701652D01*
X128742281Y-84701652D02*
X128681805Y-84943556D01*
X128681805Y-84943556D02*
X128681805Y-85124985D01*
X128681805Y-85124985D02*
X128742281Y-85366890D01*
X128742281Y-85366890D02*
X128802758Y-85487842D01*
X128802758Y-85487842D02*
X128923710Y-85608795D01*
X128923710Y-85608795D02*
X129105139Y-85669271D01*
X129105139Y-85669271D02*
X129407520Y-85669271D01*
X128197996Y-84520223D02*
X128137520Y-84459747D01*
X128137520Y-84459747D02*
X128016567Y-84399271D01*
X128016567Y-84399271D02*
X127714186Y-84399271D01*
X127714186Y-84399271D02*
X127593234Y-84459747D01*
X127593234Y-84459747D02*
X127532758Y-84520223D01*
X127532758Y-84520223D02*
X127472281Y-84641175D01*
X127472281Y-84641175D02*
X127472281Y-84762128D01*
X127472281Y-84762128D02*
X127532758Y-84943556D01*
X127532758Y-84943556D02*
X128258472Y-85669271D01*
X128258472Y-85669271D02*
X127472281Y-85669271D01*
X118703234Y-86939271D02*
X118945139Y-86939271D01*
X118945139Y-86939271D02*
X119066091Y-86999747D01*
X119066091Y-86999747D02*
X119126567Y-87060223D01*
X119126567Y-87060223D02*
X119247520Y-87241652D01*
X119247520Y-87241652D02*
X119307996Y-87483556D01*
X119307996Y-87483556D02*
X119307996Y-87967366D01*
X119307996Y-87967366D02*
X119247520Y-88088318D01*
X119247520Y-88088318D02*
X119187043Y-88148795D01*
X119187043Y-88148795D02*
X119066091Y-88209271D01*
X119066091Y-88209271D02*
X118824186Y-88209271D01*
X118824186Y-88209271D02*
X118703234Y-88148795D01*
X118703234Y-88148795D02*
X118642758Y-88088318D01*
X118642758Y-88088318D02*
X118582281Y-87967366D01*
X118582281Y-87967366D02*
X118582281Y-87664985D01*
X118582281Y-87664985D02*
X118642758Y-87544033D01*
X118642758Y-87544033D02*
X118703234Y-87483556D01*
X118703234Y-87483556D02*
X118824186Y-87423080D01*
X118824186Y-87423080D02*
X119066091Y-87423080D01*
X119066091Y-87423080D02*
X119187043Y-87483556D01*
X119187043Y-87483556D02*
X119247520Y-87544033D01*
X119247520Y-87544033D02*
X119307996Y-87664985D01*
X117856567Y-87483556D02*
X117977519Y-87423080D01*
X117977519Y-87423080D02*
X118037996Y-87362604D01*
X118037996Y-87362604D02*
X118098472Y-87241652D01*
X118098472Y-87241652D02*
X118098472Y-87181175D01*
X118098472Y-87181175D02*
X118037996Y-87060223D01*
X118037996Y-87060223D02*
X117977519Y-86999747D01*
X117977519Y-86999747D02*
X117856567Y-86939271D01*
X117856567Y-86939271D02*
X117614662Y-86939271D01*
X117614662Y-86939271D02*
X117493710Y-86999747D01*
X117493710Y-86999747D02*
X117433234Y-87060223D01*
X117433234Y-87060223D02*
X117372757Y-87181175D01*
X117372757Y-87181175D02*
X117372757Y-87241652D01*
X117372757Y-87241652D02*
X117433234Y-87362604D01*
X117433234Y-87362604D02*
X117493710Y-87423080D01*
X117493710Y-87423080D02*
X117614662Y-87483556D01*
X117614662Y-87483556D02*
X117856567Y-87483556D01*
X117856567Y-87483556D02*
X117977519Y-87544033D01*
X117977519Y-87544033D02*
X118037996Y-87604509D01*
X118037996Y-87604509D02*
X118098472Y-87725461D01*
X118098472Y-87725461D02*
X118098472Y-87967366D01*
X118098472Y-87967366D02*
X118037996Y-88088318D01*
X118037996Y-88088318D02*
X117977519Y-88148795D01*
X117977519Y-88148795D02*
X117856567Y-88209271D01*
X117856567Y-88209271D02*
X117614662Y-88209271D01*
X117614662Y-88209271D02*
X117493710Y-88148795D01*
X117493710Y-88148795D02*
X117433234Y-88088318D01*
X117433234Y-88088318D02*
X117372757Y-87967366D01*
X117372757Y-87967366D02*
X117372757Y-87725461D01*
X117372757Y-87725461D02*
X117433234Y-87604509D01*
X117433234Y-87604509D02*
X117493710Y-87544033D01*
X117493710Y-87544033D02*
X117614662Y-87483556D01*
X116284186Y-87362604D02*
X116284186Y-88209271D01*
X116828472Y-87362604D02*
X116828472Y-88027842D01*
X116828472Y-88027842D02*
X116767995Y-88148795D01*
X116767995Y-88148795D02*
X116647043Y-88209271D01*
X116647043Y-88209271D02*
X116465614Y-88209271D01*
X116465614Y-88209271D02*
X116344662Y-88148795D01*
X116344662Y-88148795D02*
X116284186Y-88088318D01*
X115679424Y-88209271D02*
X115679424Y-86939271D01*
X115679424Y-87544033D02*
X114953709Y-87544033D01*
X114953709Y-88209271D02*
X114953709Y-86939271D01*
X128802758Y-88209271D02*
X129407520Y-88209271D01*
X129407520Y-88209271D02*
X129407520Y-86939271D01*
X127714186Y-88209271D02*
X128439901Y-88209271D01*
X128077044Y-88209271D02*
X128077044Y-86939271D01*
X128077044Y-86939271D02*
X128197996Y-87120699D01*
X128197996Y-87120699D02*
X128318948Y-87241652D01*
X128318948Y-87241652D02*
X128439901Y-87302128D01*
X119307996Y-90688795D02*
X119126567Y-90749271D01*
X119126567Y-90749271D02*
X118824186Y-90749271D01*
X118824186Y-90749271D02*
X118703234Y-90688795D01*
X118703234Y-90688795D02*
X118642758Y-90628318D01*
X118642758Y-90628318D02*
X118582281Y-90507366D01*
X118582281Y-90507366D02*
X118582281Y-90386414D01*
X118582281Y-90386414D02*
X118642758Y-90265461D01*
X118642758Y-90265461D02*
X118703234Y-90204985D01*
X118703234Y-90204985D02*
X118824186Y-90144509D01*
X118824186Y-90144509D02*
X119066091Y-90084033D01*
X119066091Y-90084033D02*
X119187043Y-90023556D01*
X119187043Y-90023556D02*
X119247520Y-89963080D01*
X119247520Y-89963080D02*
X119307996Y-89842128D01*
X119307996Y-89842128D02*
X119307996Y-89721175D01*
X119307996Y-89721175D02*
X119247520Y-89600223D01*
X119247520Y-89600223D02*
X119187043Y-89539747D01*
X119187043Y-89539747D02*
X119066091Y-89479271D01*
X119066091Y-89479271D02*
X118763710Y-89479271D01*
X118763710Y-89479271D02*
X118582281Y-89539747D01*
X118098472Y-90688795D02*
X117917043Y-90749271D01*
X117917043Y-90749271D02*
X117614662Y-90749271D01*
X117614662Y-90749271D02*
X117493710Y-90688795D01*
X117493710Y-90688795D02*
X117433234Y-90628318D01*
X117433234Y-90628318D02*
X117372757Y-90507366D01*
X117372757Y-90507366D02*
X117372757Y-90386414D01*
X117372757Y-90386414D02*
X117433234Y-90265461D01*
X117433234Y-90265461D02*
X117493710Y-90204985D01*
X117493710Y-90204985D02*
X117614662Y-90144509D01*
X117614662Y-90144509D02*
X117856567Y-90084033D01*
X117856567Y-90084033D02*
X117977519Y-90023556D01*
X117977519Y-90023556D02*
X118037996Y-89963080D01*
X118037996Y-89963080D02*
X118098472Y-89842128D01*
X118098472Y-89842128D02*
X118098472Y-89721175D01*
X118098472Y-89721175D02*
X118037996Y-89600223D01*
X118037996Y-89600223D02*
X117977519Y-89539747D01*
X117977519Y-89539747D02*
X117856567Y-89479271D01*
X117856567Y-89479271D02*
X117554186Y-89479271D01*
X117554186Y-89479271D02*
X117372757Y-89539747D01*
X116647043Y-90023556D02*
X116767995Y-89963080D01*
X116767995Y-89963080D02*
X116828472Y-89902604D01*
X116828472Y-89902604D02*
X116888948Y-89781652D01*
X116888948Y-89781652D02*
X116888948Y-89721175D01*
X116888948Y-89721175D02*
X116828472Y-89600223D01*
X116828472Y-89600223D02*
X116767995Y-89539747D01*
X116767995Y-89539747D02*
X116647043Y-89479271D01*
X116647043Y-89479271D02*
X116405138Y-89479271D01*
X116405138Y-89479271D02*
X116284186Y-89539747D01*
X116284186Y-89539747D02*
X116223710Y-89600223D01*
X116223710Y-89600223D02*
X116163233Y-89721175D01*
X116163233Y-89721175D02*
X116163233Y-89781652D01*
X116163233Y-89781652D02*
X116223710Y-89902604D01*
X116223710Y-89902604D02*
X116284186Y-89963080D01*
X116284186Y-89963080D02*
X116405138Y-90023556D01*
X116405138Y-90023556D02*
X116647043Y-90023556D01*
X116647043Y-90023556D02*
X116767995Y-90084033D01*
X116767995Y-90084033D02*
X116828472Y-90144509D01*
X116828472Y-90144509D02*
X116888948Y-90265461D01*
X116888948Y-90265461D02*
X116888948Y-90507366D01*
X116888948Y-90507366D02*
X116828472Y-90628318D01*
X116828472Y-90628318D02*
X116767995Y-90688795D01*
X116767995Y-90688795D02*
X116647043Y-90749271D01*
X116647043Y-90749271D02*
X116405138Y-90749271D01*
X116405138Y-90749271D02*
X116284186Y-90688795D01*
X116284186Y-90688795D02*
X116223710Y-90628318D01*
X116223710Y-90628318D02*
X116163233Y-90507366D01*
X116163233Y-90507366D02*
X116163233Y-90265461D01*
X116163233Y-90265461D02*
X116223710Y-90144509D01*
X116223710Y-90144509D02*
X116284186Y-90084033D01*
X116284186Y-90084033D02*
X116405138Y-90023556D01*
X115377043Y-89479271D02*
X115256090Y-89479271D01*
X115256090Y-89479271D02*
X115135138Y-89539747D01*
X115135138Y-89539747D02*
X115074662Y-89600223D01*
X115074662Y-89600223D02*
X115014186Y-89721175D01*
X115014186Y-89721175D02*
X114953709Y-89963080D01*
X114953709Y-89963080D02*
X114953709Y-90265461D01*
X114953709Y-90265461D02*
X115014186Y-90507366D01*
X115014186Y-90507366D02*
X115074662Y-90628318D01*
X115074662Y-90628318D02*
X115135138Y-90688795D01*
X115135138Y-90688795D02*
X115256090Y-90749271D01*
X115256090Y-90749271D02*
X115377043Y-90749271D01*
X115377043Y-90749271D02*
X115497995Y-90688795D01*
X115497995Y-90688795D02*
X115558471Y-90628318D01*
X115558471Y-90628318D02*
X115618948Y-90507366D01*
X115618948Y-90507366D02*
X115679424Y-90265461D01*
X115679424Y-90265461D02*
X115679424Y-89963080D01*
X115679424Y-89963080D02*
X115618948Y-89721175D01*
X115618948Y-89721175D02*
X115558471Y-89600223D01*
X115558471Y-89600223D02*
X115497995Y-89539747D01*
X115497995Y-89539747D02*
X115377043Y-89479271D01*
X113804662Y-89479271D02*
X114409424Y-89479271D01*
X114409424Y-89479271D02*
X114469900Y-90084033D01*
X114469900Y-90084033D02*
X114409424Y-90023556D01*
X114409424Y-90023556D02*
X114288471Y-89963080D01*
X114288471Y-89963080D02*
X113986090Y-89963080D01*
X113986090Y-89963080D02*
X113865138Y-90023556D01*
X113865138Y-90023556D02*
X113804662Y-90084033D01*
X113804662Y-90084033D02*
X113744185Y-90204985D01*
X113744185Y-90204985D02*
X113744185Y-90507366D01*
X113744185Y-90507366D02*
X113804662Y-90628318D01*
X113804662Y-90628318D02*
X113865138Y-90688795D01*
X113865138Y-90688795D02*
X113986090Y-90749271D01*
X113986090Y-90749271D02*
X114288471Y-90749271D01*
X114288471Y-90749271D02*
X114409424Y-90688795D01*
X114409424Y-90688795D02*
X114469900Y-90628318D01*
X112957995Y-89479271D02*
X112837042Y-89479271D01*
X112837042Y-89479271D02*
X112716090Y-89539747D01*
X112716090Y-89539747D02*
X112655614Y-89600223D01*
X112655614Y-89600223D02*
X112595138Y-89721175D01*
X112595138Y-89721175D02*
X112534661Y-89963080D01*
X112534661Y-89963080D02*
X112534661Y-90265461D01*
X112534661Y-90265461D02*
X112595138Y-90507366D01*
X112595138Y-90507366D02*
X112655614Y-90628318D01*
X112655614Y-90628318D02*
X112716090Y-90688795D01*
X112716090Y-90688795D02*
X112837042Y-90749271D01*
X112837042Y-90749271D02*
X112957995Y-90749271D01*
X112957995Y-90749271D02*
X113078947Y-90688795D01*
X113078947Y-90688795D02*
X113139423Y-90628318D01*
X113139423Y-90628318D02*
X113199900Y-90507366D01*
X113199900Y-90507366D02*
X113260376Y-90265461D01*
X113260376Y-90265461D02*
X113260376Y-89963080D01*
X113260376Y-89963080D02*
X113199900Y-89721175D01*
X113199900Y-89721175D02*
X113139423Y-89600223D01*
X113139423Y-89600223D02*
X113078947Y-89539747D01*
X113078947Y-89539747D02*
X112957995Y-89479271D01*
X128560853Y-90870223D02*
X128681805Y-90809747D01*
X128681805Y-90809747D02*
X128802758Y-90688795D01*
X128802758Y-90688795D02*
X128984186Y-90507366D01*
X128984186Y-90507366D02*
X129105139Y-90446890D01*
X129105139Y-90446890D02*
X129226091Y-90446890D01*
X129165615Y-90749271D02*
X129286567Y-90688795D01*
X129286567Y-90688795D02*
X129407520Y-90567842D01*
X129407520Y-90567842D02*
X129467996Y-90325937D01*
X129467996Y-90325937D02*
X129467996Y-89902604D01*
X129467996Y-89902604D02*
X129407520Y-89660699D01*
X129407520Y-89660699D02*
X129286567Y-89539747D01*
X129286567Y-89539747D02*
X129165615Y-89479271D01*
X129165615Y-89479271D02*
X128923710Y-89479271D01*
X128923710Y-89479271D02*
X128802758Y-89539747D01*
X128802758Y-89539747D02*
X128681805Y-89660699D01*
X128681805Y-89660699D02*
X128621329Y-89902604D01*
X128621329Y-89902604D02*
X128621329Y-90325937D01*
X128621329Y-90325937D02*
X128681805Y-90567842D01*
X128681805Y-90567842D02*
X128802758Y-90688795D01*
X128802758Y-90688795D02*
X128923710Y-90749271D01*
X128923710Y-90749271D02*
X129165615Y-90749271D01*
X127411805Y-90749271D02*
X128137520Y-90749271D01*
X127774663Y-90749271D02*
X127774663Y-89479271D01*
X127774663Y-89479271D02*
X127895615Y-89660699D01*
X127895615Y-89660699D02*
X128016567Y-89781652D01*
X128016567Y-89781652D02*
X128137520Y-89842128D01*
X126807043Y-90688795D02*
X126807043Y-90749271D01*
X126807043Y-90749271D02*
X126867520Y-90870223D01*
X126867520Y-90870223D02*
X126927996Y-90930699D01*
X126323234Y-89600223D02*
X126262758Y-89539747D01*
X126262758Y-89539747D02*
X126141805Y-89479271D01*
X126141805Y-89479271D02*
X125839424Y-89479271D01*
X125839424Y-89479271D02*
X125718472Y-89539747D01*
X125718472Y-89539747D02*
X125657996Y-89600223D01*
X125657996Y-89600223D02*
X125597519Y-89721175D01*
X125597519Y-89721175D02*
X125597519Y-89842128D01*
X125597519Y-89842128D02*
X125657996Y-90023556D01*
X125657996Y-90023556D02*
X126383710Y-90749271D01*
X126383710Y-90749271D02*
X125597519Y-90749271D01*
X118642758Y-92019271D02*
X119247520Y-92019271D01*
X119247520Y-92019271D02*
X119307996Y-92624033D01*
X119307996Y-92624033D02*
X119247520Y-92563556D01*
X119247520Y-92563556D02*
X119126567Y-92503080D01*
X119126567Y-92503080D02*
X118824186Y-92503080D01*
X118824186Y-92503080D02*
X118703234Y-92563556D01*
X118703234Y-92563556D02*
X118642758Y-92624033D01*
X118642758Y-92624033D02*
X118582281Y-92744985D01*
X118582281Y-92744985D02*
X118582281Y-93047366D01*
X118582281Y-93047366D02*
X118642758Y-93168318D01*
X118642758Y-93168318D02*
X118703234Y-93228795D01*
X118703234Y-93228795D02*
X118824186Y-93289271D01*
X118824186Y-93289271D02*
X119126567Y-93289271D01*
X119126567Y-93289271D02*
X119247520Y-93228795D01*
X119247520Y-93228795D02*
X119307996Y-93168318D01*
X117977519Y-93228795D02*
X117977519Y-93289271D01*
X117977519Y-93289271D02*
X118037996Y-93410223D01*
X118037996Y-93410223D02*
X118098472Y-93470699D01*
X116767995Y-93289271D02*
X117493710Y-93289271D01*
X117130853Y-93289271D02*
X117130853Y-92019271D01*
X117130853Y-92019271D02*
X117251805Y-92200699D01*
X117251805Y-92200699D02*
X117372757Y-92321652D01*
X117372757Y-92321652D02*
X117493710Y-92382128D01*
X116223710Y-93289271D02*
X116223710Y-92019271D01*
X115497995Y-93289271D02*
X116042281Y-92563556D01*
X115497995Y-92019271D02*
X116223710Y-92744985D01*
X114590852Y-93773080D02*
X114651329Y-93712604D01*
X114651329Y-93712604D02*
X114772281Y-93531175D01*
X114772281Y-93531175D02*
X114832757Y-93410223D01*
X114832757Y-93410223D02*
X114893233Y-93228795D01*
X114893233Y-93228795D02*
X114953710Y-92926414D01*
X114953710Y-92926414D02*
X114953710Y-92684509D01*
X114953710Y-92684509D02*
X114893233Y-92382128D01*
X114893233Y-92382128D02*
X114832757Y-92200699D01*
X114832757Y-92200699D02*
X114772281Y-92079747D01*
X114772281Y-92079747D02*
X114651329Y-91898318D01*
X114651329Y-91898318D02*
X114590852Y-91837842D01*
X113441804Y-93289271D02*
X114167519Y-93289271D01*
X113804662Y-93289271D02*
X113804662Y-92019271D01*
X113804662Y-92019271D02*
X113925614Y-92200699D01*
X113925614Y-92200699D02*
X114046566Y-92321652D01*
X114046566Y-92321652D02*
X114167519Y-92382128D01*
X112957995Y-93289271D02*
X111990376Y-92019271D01*
X112776566Y-92019271D02*
X112655614Y-92079747D01*
X112655614Y-92079747D02*
X112595138Y-92200699D01*
X112595138Y-92200699D02*
X112655614Y-92321652D01*
X112655614Y-92321652D02*
X112776566Y-92382128D01*
X112776566Y-92382128D02*
X112897519Y-92321652D01*
X112897519Y-92321652D02*
X112957995Y-92200699D01*
X112957995Y-92200699D02*
X112897519Y-92079747D01*
X112897519Y-92079747D02*
X112776566Y-92019271D01*
X112050852Y-93228795D02*
X111990376Y-93107842D01*
X111990376Y-93107842D02*
X112050852Y-92986890D01*
X112050852Y-92986890D02*
X112171804Y-92926414D01*
X112171804Y-92926414D02*
X112292757Y-92986890D01*
X112292757Y-92986890D02*
X112353233Y-93107842D01*
X112353233Y-93107842D02*
X112292757Y-93228795D01*
X112292757Y-93228795D02*
X112171804Y-93289271D01*
X112171804Y-93289271D02*
X112050852Y-93228795D01*
X111567042Y-93773080D02*
X111506566Y-93712604D01*
X111506566Y-93712604D02*
X111385613Y-93531175D01*
X111385613Y-93531175D02*
X111325137Y-93410223D01*
X111325137Y-93410223D02*
X111264661Y-93228795D01*
X111264661Y-93228795D02*
X111204185Y-92926414D01*
X111204185Y-92926414D02*
X111204185Y-92684509D01*
X111204185Y-92684509D02*
X111264661Y-92382128D01*
X111264661Y-92382128D02*
X111325137Y-92200699D01*
X111325137Y-92200699D02*
X111385613Y-92079747D01*
X111385613Y-92079747D02*
X111506566Y-91898318D01*
X111506566Y-91898318D02*
X111567042Y-91837842D01*
X128681805Y-93289271D02*
X129105139Y-92684509D01*
X129407520Y-93289271D02*
X129407520Y-92019271D01*
X129407520Y-92019271D02*
X128923710Y-92019271D01*
X128923710Y-92019271D02*
X128802758Y-92079747D01*
X128802758Y-92079747D02*
X128742281Y-92140223D01*
X128742281Y-92140223D02*
X128681805Y-92261175D01*
X128681805Y-92261175D02*
X128681805Y-92442604D01*
X128681805Y-92442604D02*
X128742281Y-92563556D01*
X128742281Y-92563556D02*
X128802758Y-92624033D01*
X128802758Y-92624033D02*
X128923710Y-92684509D01*
X128923710Y-92684509D02*
X129407520Y-92684509D01*
X127472281Y-93289271D02*
X128197996Y-93289271D01*
X127835139Y-93289271D02*
X127835139Y-92019271D01*
X127835139Y-92019271D02*
X127956091Y-92200699D01*
X127956091Y-92200699D02*
X128077043Y-92321652D01*
X128077043Y-92321652D02*
X128197996Y-92382128D01*
X126927996Y-92805461D02*
X125960377Y-92805461D01*
X125476567Y-92019271D02*
X124690376Y-92019271D01*
X124690376Y-92019271D02*
X125113710Y-92503080D01*
X125113710Y-92503080D02*
X124932281Y-92503080D01*
X124932281Y-92503080D02*
X124811329Y-92563556D01*
X124811329Y-92563556D02*
X124750853Y-92624033D01*
X124750853Y-92624033D02*
X124690376Y-92744985D01*
X124690376Y-92744985D02*
X124690376Y-93047366D01*
X124690376Y-93047366D02*
X124750853Y-93168318D01*
X124750853Y-93168318D02*
X124811329Y-93228795D01*
X124811329Y-93228795D02*
X124932281Y-93289271D01*
X124932281Y-93289271D02*
X125295138Y-93289271D01*
X125295138Y-93289271D02*
X125416091Y-93228795D01*
X125416091Y-93228795D02*
X125476567Y-93168318D01*
X118582281Y-95829271D02*
X119307996Y-95829271D01*
X118945139Y-95829271D02*
X118945139Y-94559271D01*
X118945139Y-94559271D02*
X119066091Y-94740699D01*
X119066091Y-94740699D02*
X119187043Y-94861652D01*
X119187043Y-94861652D02*
X119307996Y-94922128D01*
X118037996Y-95829271D02*
X118037996Y-94559271D01*
X117312281Y-95829271D02*
X117856567Y-95103556D01*
X117312281Y-94559271D02*
X118037996Y-95284985D01*
X128681805Y-95829271D02*
X129105139Y-95224509D01*
X129407520Y-95829271D02*
X129407520Y-94559271D01*
X129407520Y-94559271D02*
X128923710Y-94559271D01*
X128923710Y-94559271D02*
X128802758Y-94619747D01*
X128802758Y-94619747D02*
X128742281Y-94680223D01*
X128742281Y-94680223D02*
X128681805Y-94801175D01*
X128681805Y-94801175D02*
X128681805Y-94982604D01*
X128681805Y-94982604D02*
X128742281Y-95103556D01*
X128742281Y-95103556D02*
X128802758Y-95164033D01*
X128802758Y-95164033D02*
X128923710Y-95224509D01*
X128923710Y-95224509D02*
X129407520Y-95224509D01*
X127593234Y-94982604D02*
X127593234Y-95829271D01*
X127895615Y-94498795D02*
X128197996Y-95405937D01*
X128197996Y-95405937D02*
X127411805Y-95405937D01*
X126867519Y-95768795D02*
X126867519Y-95829271D01*
X126867519Y-95829271D02*
X126927996Y-95950223D01*
X126927996Y-95950223D02*
X126988472Y-96010699D01*
X125718472Y-94559271D02*
X126323234Y-94559271D01*
X126323234Y-94559271D02*
X126383710Y-95164033D01*
X126383710Y-95164033D02*
X126323234Y-95103556D01*
X126323234Y-95103556D02*
X126202281Y-95043080D01*
X126202281Y-95043080D02*
X125899900Y-95043080D01*
X125899900Y-95043080D02*
X125778948Y-95103556D01*
X125778948Y-95103556D02*
X125718472Y-95164033D01*
X125718472Y-95164033D02*
X125657995Y-95284985D01*
X125657995Y-95284985D02*
X125657995Y-95587366D01*
X125657995Y-95587366D02*
X125718472Y-95708318D01*
X125718472Y-95708318D02*
X125778948Y-95768795D01*
X125778948Y-95768795D02*
X125899900Y-95829271D01*
X125899900Y-95829271D02*
X126202281Y-95829271D01*
X126202281Y-95829271D02*
X126323234Y-95768795D01*
X126323234Y-95768795D02*
X126383710Y-95708318D01*
X118582281Y-98369271D02*
X119307996Y-98369271D01*
X118945139Y-98369271D02*
X118945139Y-97099271D01*
X118945139Y-97099271D02*
X119066091Y-97280699D01*
X119066091Y-97280699D02*
X119187043Y-97401652D01*
X119187043Y-97401652D02*
X119307996Y-97462128D01*
X117796091Y-97099271D02*
X117675138Y-97099271D01*
X117675138Y-97099271D02*
X117554186Y-97159747D01*
X117554186Y-97159747D02*
X117493710Y-97220223D01*
X117493710Y-97220223D02*
X117433234Y-97341175D01*
X117433234Y-97341175D02*
X117372757Y-97583080D01*
X117372757Y-97583080D02*
X117372757Y-97885461D01*
X117372757Y-97885461D02*
X117433234Y-98127366D01*
X117433234Y-98127366D02*
X117493710Y-98248318D01*
X117493710Y-98248318D02*
X117554186Y-98308795D01*
X117554186Y-98308795D02*
X117675138Y-98369271D01*
X117675138Y-98369271D02*
X117796091Y-98369271D01*
X117796091Y-98369271D02*
X117917043Y-98308795D01*
X117917043Y-98308795D02*
X117977519Y-98248318D01*
X117977519Y-98248318D02*
X118037996Y-98127366D01*
X118037996Y-98127366D02*
X118098472Y-97885461D01*
X118098472Y-97885461D02*
X118098472Y-97583080D01*
X118098472Y-97583080D02*
X118037996Y-97341175D01*
X118037996Y-97341175D02*
X117977519Y-97220223D01*
X117977519Y-97220223D02*
X117917043Y-97159747D01*
X117917043Y-97159747D02*
X117796091Y-97099271D01*
X116828472Y-98369271D02*
X116828472Y-97099271D01*
X116102757Y-98369271D02*
X116647043Y-97643556D01*
X116102757Y-97099271D02*
X116828472Y-97824985D01*
X128681805Y-98369271D02*
X129105139Y-97764509D01*
X129407520Y-98369271D02*
X129407520Y-97099271D01*
X129407520Y-97099271D02*
X128923710Y-97099271D01*
X128923710Y-97099271D02*
X128802758Y-97159747D01*
X128802758Y-97159747D02*
X128742281Y-97220223D01*
X128742281Y-97220223D02*
X128681805Y-97341175D01*
X128681805Y-97341175D02*
X128681805Y-97522604D01*
X128681805Y-97522604D02*
X128742281Y-97643556D01*
X128742281Y-97643556D02*
X128802758Y-97704033D01*
X128802758Y-97704033D02*
X128923710Y-97764509D01*
X128923710Y-97764509D02*
X129407520Y-97764509D01*
X127593234Y-97099271D02*
X127835139Y-97099271D01*
X127835139Y-97099271D02*
X127956091Y-97159747D01*
X127956091Y-97159747D02*
X128016567Y-97220223D01*
X128016567Y-97220223D02*
X128137520Y-97401652D01*
X128137520Y-97401652D02*
X128197996Y-97643556D01*
X128197996Y-97643556D02*
X128197996Y-98127366D01*
X128197996Y-98127366D02*
X128137520Y-98248318D01*
X128137520Y-98248318D02*
X128077043Y-98308795D01*
X128077043Y-98308795D02*
X127956091Y-98369271D01*
X127956091Y-98369271D02*
X127714186Y-98369271D01*
X127714186Y-98369271D02*
X127593234Y-98308795D01*
X127593234Y-98308795D02*
X127532758Y-98248318D01*
X127532758Y-98248318D02*
X127472281Y-98127366D01*
X127472281Y-98127366D02*
X127472281Y-97824985D01*
X127472281Y-97824985D02*
X127532758Y-97704033D01*
X127532758Y-97704033D02*
X127593234Y-97643556D01*
X127593234Y-97643556D02*
X127714186Y-97583080D01*
X127714186Y-97583080D02*
X127956091Y-97583080D01*
X127956091Y-97583080D02*
X128077043Y-97643556D01*
X128077043Y-97643556D02*
X128137520Y-97704033D01*
X128137520Y-97704033D02*
X128197996Y-97824985D01*
X126927996Y-97885461D02*
X125960377Y-97885461D01*
X124690376Y-98369271D02*
X125416091Y-98369271D01*
X125053234Y-98369271D02*
X125053234Y-97099271D01*
X125053234Y-97099271D02*
X125174186Y-97280699D01*
X125174186Y-97280699D02*
X125295138Y-97401652D01*
X125295138Y-97401652D02*
X125416091Y-97462128D01*
X123904186Y-97099271D02*
X123783233Y-97099271D01*
X123783233Y-97099271D02*
X123662281Y-97159747D01*
X123662281Y-97159747D02*
X123601805Y-97220223D01*
X123601805Y-97220223D02*
X123541329Y-97341175D01*
X123541329Y-97341175D02*
X123480852Y-97583080D01*
X123480852Y-97583080D02*
X123480852Y-97885461D01*
X123480852Y-97885461D02*
X123541329Y-98127366D01*
X123541329Y-98127366D02*
X123601805Y-98248318D01*
X123601805Y-98248318D02*
X123662281Y-98308795D01*
X123662281Y-98308795D02*
X123783233Y-98369271D01*
X123783233Y-98369271D02*
X123904186Y-98369271D01*
X123904186Y-98369271D02*
X124025138Y-98308795D01*
X124025138Y-98308795D02*
X124085614Y-98248318D01*
X124085614Y-98248318D02*
X124146091Y-98127366D01*
X124146091Y-98127366D02*
X124206567Y-97885461D01*
X124206567Y-97885461D02*
X124206567Y-97583080D01*
X124206567Y-97583080D02*
X124146091Y-97341175D01*
X124146091Y-97341175D02*
X124085614Y-97220223D01*
X124085614Y-97220223D02*
X124025138Y-97159747D01*
X124025138Y-97159747D02*
X123904186Y-97099271D01*
X119368472Y-99639271D02*
X118582281Y-99639271D01*
X118582281Y-99639271D02*
X119005615Y-100123080D01*
X119005615Y-100123080D02*
X118824186Y-100123080D01*
X118824186Y-100123080D02*
X118703234Y-100183556D01*
X118703234Y-100183556D02*
X118642758Y-100244033D01*
X118642758Y-100244033D02*
X118582281Y-100364985D01*
X118582281Y-100364985D02*
X118582281Y-100667366D01*
X118582281Y-100667366D02*
X118642758Y-100788318D01*
X118642758Y-100788318D02*
X118703234Y-100848795D01*
X118703234Y-100848795D02*
X118824186Y-100909271D01*
X118824186Y-100909271D02*
X119187043Y-100909271D01*
X119187043Y-100909271D02*
X119307996Y-100848795D01*
X119307996Y-100848795D02*
X119368472Y-100788318D01*
X118158948Y-99639271D02*
X117372757Y-99639271D01*
X117372757Y-99639271D02*
X117796091Y-100123080D01*
X117796091Y-100123080D02*
X117614662Y-100123080D01*
X117614662Y-100123080D02*
X117493710Y-100183556D01*
X117493710Y-100183556D02*
X117433234Y-100244033D01*
X117433234Y-100244033D02*
X117372757Y-100364985D01*
X117372757Y-100364985D02*
X117372757Y-100667366D01*
X117372757Y-100667366D02*
X117433234Y-100788318D01*
X117433234Y-100788318D02*
X117493710Y-100848795D01*
X117493710Y-100848795D02*
X117614662Y-100909271D01*
X117614662Y-100909271D02*
X117977519Y-100909271D01*
X117977519Y-100909271D02*
X118098472Y-100848795D01*
X118098472Y-100848795D02*
X118158948Y-100788318D01*
X116586567Y-99639271D02*
X116465614Y-99639271D01*
X116465614Y-99639271D02*
X116344662Y-99699747D01*
X116344662Y-99699747D02*
X116284186Y-99760223D01*
X116284186Y-99760223D02*
X116223710Y-99881175D01*
X116223710Y-99881175D02*
X116163233Y-100123080D01*
X116163233Y-100123080D02*
X116163233Y-100425461D01*
X116163233Y-100425461D02*
X116223710Y-100667366D01*
X116223710Y-100667366D02*
X116284186Y-100788318D01*
X116284186Y-100788318D02*
X116344662Y-100848795D01*
X116344662Y-100848795D02*
X116465614Y-100909271D01*
X116465614Y-100909271D02*
X116586567Y-100909271D01*
X116586567Y-100909271D02*
X116707519Y-100848795D01*
X116707519Y-100848795D02*
X116767995Y-100788318D01*
X116767995Y-100788318D02*
X116828472Y-100667366D01*
X116828472Y-100667366D02*
X116888948Y-100425461D01*
X116888948Y-100425461D02*
X116888948Y-100123080D01*
X116888948Y-100123080D02*
X116828472Y-99881175D01*
X116828472Y-99881175D02*
X116767995Y-99760223D01*
X116767995Y-99760223D02*
X116707519Y-99699747D01*
X116707519Y-99699747D02*
X116586567Y-99639271D01*
X114893233Y-100909271D02*
X115316567Y-100304509D01*
X115618948Y-100909271D02*
X115618948Y-99639271D01*
X115618948Y-99639271D02*
X115135138Y-99639271D01*
X115135138Y-99639271D02*
X115014186Y-99699747D01*
X115014186Y-99699747D02*
X114953709Y-99760223D01*
X114953709Y-99760223D02*
X114893233Y-99881175D01*
X114893233Y-99881175D02*
X114893233Y-100062604D01*
X114893233Y-100062604D02*
X114953709Y-100183556D01*
X114953709Y-100183556D02*
X115014186Y-100244033D01*
X115014186Y-100244033D02*
X115135138Y-100304509D01*
X115135138Y-100304509D02*
X115618948Y-100304509D01*
X128681805Y-100909271D02*
X129105139Y-100304509D01*
X129407520Y-100909271D02*
X129407520Y-99639271D01*
X129407520Y-99639271D02*
X128923710Y-99639271D01*
X128923710Y-99639271D02*
X128802758Y-99699747D01*
X128802758Y-99699747D02*
X128742281Y-99760223D01*
X128742281Y-99760223D02*
X128681805Y-99881175D01*
X128681805Y-99881175D02*
X128681805Y-100062604D01*
X128681805Y-100062604D02*
X128742281Y-100183556D01*
X128742281Y-100183556D02*
X128802758Y-100244033D01*
X128802758Y-100244033D02*
X128923710Y-100304509D01*
X128923710Y-100304509D02*
X129407520Y-100304509D01*
X127472281Y-100909271D02*
X128197996Y-100909271D01*
X127835139Y-100909271D02*
X127835139Y-99639271D01*
X127835139Y-99639271D02*
X127956091Y-99820699D01*
X127956091Y-99820699D02*
X128077043Y-99941652D01*
X128077043Y-99941652D02*
X128197996Y-100002128D01*
X126262757Y-100909271D02*
X126988472Y-100909271D01*
X126625615Y-100909271D02*
X126625615Y-99639271D01*
X126625615Y-99639271D02*
X126746567Y-99820699D01*
X126746567Y-99820699D02*
X126867519Y-99941652D01*
X126867519Y-99941652D02*
X126988472Y-100002128D01*
X125718472Y-100425461D02*
X124750853Y-100425461D01*
X123480852Y-100909271D02*
X124206567Y-100909271D01*
X123843710Y-100909271D02*
X123843710Y-99639271D01*
X123843710Y-99639271D02*
X123964662Y-99820699D01*
X123964662Y-99820699D02*
X124085614Y-99941652D01*
X124085614Y-99941652D02*
X124206567Y-100002128D01*
X122392281Y-100062604D02*
X122392281Y-100909271D01*
X122694662Y-99578795D02*
X122997043Y-100485937D01*
X122997043Y-100485937D02*
X122210852Y-100485937D01*
D11*
X120656841Y-71120000D02*
X120656841Y-73660000D01*
X120656841Y-73660000D02*
X120656841Y-76200000D01*
X120656841Y-76200000D02*
X120656841Y-78740000D01*
X120656841Y-78740000D02*
X120656841Y-81280000D01*
X120656841Y-81280000D02*
X120656841Y-83820000D01*
X120656841Y-83820000D02*
X120656841Y-86360000D01*
X120656841Y-86360000D02*
X120656841Y-88900000D01*
X120656841Y-88900000D02*
X120656841Y-91440000D01*
X120656841Y-91440000D02*
X120656841Y-93980000D01*
X120656841Y-93980000D02*
X120656841Y-96520000D01*
X120656841Y-96520000D02*
X120656841Y-99060000D01*
X120656841Y-99060000D02*
X120656841Y-101600000D01*
X120656841Y-73660000D02*
X107943159Y-73660000D01*
X130816841Y-73660000D02*
X120656841Y-73660000D01*
X120656841Y-76200000D02*
X107943159Y-76200000D01*
X130816841Y-76200000D02*
X120656841Y-76200000D01*
X120656841Y-78740000D02*
X107943159Y-78740000D01*
X130816841Y-78740000D02*
X120656841Y-78740000D01*
X120656841Y-81280000D02*
X107943159Y-81280000D01*
X130816841Y-81280000D02*
X120656841Y-81280000D01*
X120656841Y-83820000D02*
X107943159Y-83820000D01*
X130816841Y-83820000D02*
X120656841Y-83820000D01*
X120656841Y-86360000D02*
X107943159Y-86360000D01*
X130816841Y-86360000D02*
X120656841Y-86360000D01*
X120656841Y-88900000D02*
X107943159Y-88900000D01*
X130816841Y-88900000D02*
X120656841Y-88900000D01*
X120656841Y-91440000D02*
X107943159Y-91440000D01*
X130816841Y-91440000D02*
X120656841Y-91440000D01*
X120656841Y-93980000D02*
X107943159Y-93980000D01*
X130816841Y-93980000D02*
X120656841Y-93980000D01*
X120656841Y-96520000D02*
X107943159Y-96520000D01*
X130816841Y-96520000D02*
X120656841Y-96520000D01*
X120656841Y-99060000D02*
X107943159Y-99060000D01*
X130816841Y-99060000D02*
X120656841Y-99060000D01*
X107943159Y-71120000D02*
X130816841Y-71120000D01*
X130816841Y-71120000D02*
X130816841Y-101600000D01*
X130816841Y-101600000D02*
X107943159Y-101600000D01*
X107943159Y-101600000D02*
X107943159Y-71120000D01*
M02*
