%TF.GenerationSoftware,KiCad,Pcbnew,10.0.4*%
%TF.CreationDate,2026-07-22T17:59:10+02:00*%
%TF.ProjectId,ESP32_BUCK_WLED_NO_BOARD,45535033-325f-4425-9543-4b5f574c4544,rev?*%
%TF.SameCoordinates,Original*%
%TF.FileFunction,Legend,Top*%
%TF.FilePolarity,Positive*%
%FSLAX46Y46*%
G04 Gerber Fmt 4.6, Leading zero omitted, Abs format (unit mm)*
G04 Created by KiCad (PCBNEW 10.0.4) date 2026-07-22 17:59:10*
%MOMM*%
%LPD*%
G01*
G04 APERTURE LIST*
%ADD10C,0.100000*%
%ADD11C,0.150000*%
%ADD12C,0.300000*%
%ADD13C,0.158750*%
%ADD14C,0.200000*%
%ADD15C,0.000000*%
%ADD16C,0.120000*%
G04 APERTURE END LIST*
D10*
X148592217Y-48878609D02*
X148735074Y-48926228D01*
X148735074Y-48926228D02*
X148782693Y-48973847D01*
X148782693Y-48973847D02*
X148830312Y-49069085D01*
X148830312Y-49069085D02*
X148830312Y-49211942D01*
X148830312Y-49211942D02*
X148782693Y-49307180D01*
X148782693Y-49307180D02*
X148735074Y-49354800D01*
X148735074Y-49354800D02*
X148639836Y-49402419D01*
X148639836Y-49402419D02*
X148258884Y-49402419D01*
X148258884Y-49402419D02*
X148258884Y-48402419D01*
X148258884Y-48402419D02*
X148592217Y-48402419D01*
X148592217Y-48402419D02*
X148687455Y-48450038D01*
X148687455Y-48450038D02*
X148735074Y-48497657D01*
X148735074Y-48497657D02*
X148782693Y-48592895D01*
X148782693Y-48592895D02*
X148782693Y-48688133D01*
X148782693Y-48688133D02*
X148735074Y-48783371D01*
X148735074Y-48783371D02*
X148687455Y-48830990D01*
X148687455Y-48830990D02*
X148592217Y-48878609D01*
X148592217Y-48878609D02*
X148258884Y-48878609D01*
X149449360Y-48402419D02*
X149639836Y-48402419D01*
X149639836Y-48402419D02*
X149735074Y-48450038D01*
X149735074Y-48450038D02*
X149830312Y-48545276D01*
X149830312Y-48545276D02*
X149877931Y-48735752D01*
X149877931Y-48735752D02*
X149877931Y-49069085D01*
X149877931Y-49069085D02*
X149830312Y-49259561D01*
X149830312Y-49259561D02*
X149735074Y-49354800D01*
X149735074Y-49354800D02*
X149639836Y-49402419D01*
X149639836Y-49402419D02*
X149449360Y-49402419D01*
X149449360Y-49402419D02*
X149354122Y-49354800D01*
X149354122Y-49354800D02*
X149258884Y-49259561D01*
X149258884Y-49259561D02*
X149211265Y-49069085D01*
X149211265Y-49069085D02*
X149211265Y-48735752D01*
X149211265Y-48735752D02*
X149258884Y-48545276D01*
X149258884Y-48545276D02*
X149354122Y-48450038D01*
X149354122Y-48450038D02*
X149449360Y-48402419D01*
X150496979Y-48402419D02*
X150687455Y-48402419D01*
X150687455Y-48402419D02*
X150782693Y-48450038D01*
X150782693Y-48450038D02*
X150877931Y-48545276D01*
X150877931Y-48545276D02*
X150925550Y-48735752D01*
X150925550Y-48735752D02*
X150925550Y-49069085D01*
X150925550Y-49069085D02*
X150877931Y-49259561D01*
X150877931Y-49259561D02*
X150782693Y-49354800D01*
X150782693Y-49354800D02*
X150687455Y-49402419D01*
X150687455Y-49402419D02*
X150496979Y-49402419D01*
X150496979Y-49402419D02*
X150401741Y-49354800D01*
X150401741Y-49354800D02*
X150306503Y-49259561D01*
X150306503Y-49259561D02*
X150258884Y-49069085D01*
X150258884Y-49069085D02*
X150258884Y-48735752D01*
X150258884Y-48735752D02*
X150306503Y-48545276D01*
X150306503Y-48545276D02*
X150401741Y-48450038D01*
X150401741Y-48450038D02*
X150496979Y-48402419D01*
X151211265Y-48402419D02*
X151782693Y-48402419D01*
X151496979Y-49402419D02*
X151496979Y-48402419D01*
X148893884Y-39278609D02*
X149227217Y-39278609D01*
X149370074Y-39802419D02*
X148893884Y-39802419D01*
X148893884Y-39802419D02*
X148893884Y-38802419D01*
X148893884Y-38802419D02*
X149370074Y-38802419D01*
X149798646Y-39802419D02*
X149798646Y-38802419D01*
X149798646Y-38802419D02*
X150370074Y-39802419D01*
X150370074Y-39802419D02*
X150370074Y-38802419D01*
D11*
X126495350Y-70913264D02*
X126495350Y-71722788D01*
X126495350Y-71722788D02*
X126447731Y-71818026D01*
X126447731Y-71818026D02*
X126400112Y-71865645D01*
X126400112Y-71865645D02*
X126304874Y-71913264D01*
X126304874Y-71913264D02*
X126162017Y-71913264D01*
X126162017Y-71913264D02*
X126066779Y-71865645D01*
X126495350Y-71532312D02*
X126400112Y-71579931D01*
X126400112Y-71579931D02*
X126209636Y-71579931D01*
X126209636Y-71579931D02*
X126114398Y-71532312D01*
X126114398Y-71532312D02*
X126066779Y-71484692D01*
X126066779Y-71484692D02*
X126019160Y-71389454D01*
X126019160Y-71389454D02*
X126019160Y-71103740D01*
X126019160Y-71103740D02*
X126066779Y-71008502D01*
X126066779Y-71008502D02*
X126114398Y-70960883D01*
X126114398Y-70960883D02*
X126209636Y-70913264D01*
X126209636Y-70913264D02*
X126400112Y-70913264D01*
X126400112Y-70913264D02*
X126495350Y-70960883D01*
X126971541Y-71579931D02*
X126971541Y-70913264D01*
X126971541Y-70579931D02*
X126923922Y-70627550D01*
X126923922Y-70627550D02*
X126971541Y-70675169D01*
X126971541Y-70675169D02*
X127019160Y-70627550D01*
X127019160Y-70627550D02*
X126971541Y-70579931D01*
X126971541Y-70579931D02*
X126971541Y-70675169D01*
X127304874Y-70913264D02*
X127685826Y-70913264D01*
X127447731Y-70579931D02*
X127447731Y-71437073D01*
X127447731Y-71437073D02*
X127495350Y-71532312D01*
X127495350Y-71532312D02*
X127590588Y-71579931D01*
X127590588Y-71579931D02*
X127685826Y-71579931D01*
X128019160Y-71579931D02*
X128019160Y-70579931D01*
X128447731Y-71579931D02*
X128447731Y-71056121D01*
X128447731Y-71056121D02*
X128400112Y-70960883D01*
X128400112Y-70960883D02*
X128304874Y-70913264D01*
X128304874Y-70913264D02*
X128162017Y-70913264D01*
X128162017Y-70913264D02*
X128066779Y-70960883D01*
X128066779Y-70960883D02*
X128019160Y-71008502D01*
X129352493Y-70913264D02*
X129352493Y-71579931D01*
X128923922Y-70913264D02*
X128923922Y-71437073D01*
X128923922Y-71437073D02*
X128971541Y-71532312D01*
X128971541Y-71532312D02*
X129066779Y-71579931D01*
X129066779Y-71579931D02*
X129209636Y-71579931D01*
X129209636Y-71579931D02*
X129304874Y-71532312D01*
X129304874Y-71532312D02*
X129352493Y-71484692D01*
X129828684Y-71579931D02*
X129828684Y-70579931D01*
X129828684Y-70960883D02*
X129923922Y-70913264D01*
X129923922Y-70913264D02*
X130114398Y-70913264D01*
X130114398Y-70913264D02*
X130209636Y-70960883D01*
X130209636Y-70960883D02*
X130257255Y-71008502D01*
X130257255Y-71008502D02*
X130304874Y-71103740D01*
X130304874Y-71103740D02*
X130304874Y-71389454D01*
X130304874Y-71389454D02*
X130257255Y-71484692D01*
X130257255Y-71484692D02*
X130209636Y-71532312D01*
X130209636Y-71532312D02*
X130114398Y-71579931D01*
X130114398Y-71579931D02*
X129923922Y-71579931D01*
X129923922Y-71579931D02*
X129828684Y-71532312D01*
X130733446Y-71484692D02*
X130781065Y-71532312D01*
X130781065Y-71532312D02*
X130733446Y-71579931D01*
X130733446Y-71579931D02*
X130685827Y-71532312D01*
X130685827Y-71532312D02*
X130733446Y-71484692D01*
X130733446Y-71484692D02*
X130733446Y-71579931D01*
X131638207Y-71532312D02*
X131542969Y-71579931D01*
X131542969Y-71579931D02*
X131352493Y-71579931D01*
X131352493Y-71579931D02*
X131257255Y-71532312D01*
X131257255Y-71532312D02*
X131209636Y-71484692D01*
X131209636Y-71484692D02*
X131162017Y-71389454D01*
X131162017Y-71389454D02*
X131162017Y-71103740D01*
X131162017Y-71103740D02*
X131209636Y-71008502D01*
X131209636Y-71008502D02*
X131257255Y-70960883D01*
X131257255Y-70960883D02*
X131352493Y-70913264D01*
X131352493Y-70913264D02*
X131542969Y-70913264D01*
X131542969Y-70913264D02*
X131638207Y-70960883D01*
X132209636Y-71579931D02*
X132114398Y-71532312D01*
X132114398Y-71532312D02*
X132066779Y-71484692D01*
X132066779Y-71484692D02*
X132019160Y-71389454D01*
X132019160Y-71389454D02*
X132019160Y-71103740D01*
X132019160Y-71103740D02*
X132066779Y-71008502D01*
X132066779Y-71008502D02*
X132114398Y-70960883D01*
X132114398Y-70960883D02*
X132209636Y-70913264D01*
X132209636Y-70913264D02*
X132352493Y-70913264D01*
X132352493Y-70913264D02*
X132447731Y-70960883D01*
X132447731Y-70960883D02*
X132495350Y-71008502D01*
X132495350Y-71008502D02*
X132542969Y-71103740D01*
X132542969Y-71103740D02*
X132542969Y-71389454D01*
X132542969Y-71389454D02*
X132495350Y-71484692D01*
X132495350Y-71484692D02*
X132447731Y-71532312D01*
X132447731Y-71532312D02*
X132352493Y-71579931D01*
X132352493Y-71579931D02*
X132209636Y-71579931D01*
X132971541Y-71579931D02*
X132971541Y-70913264D01*
X132971541Y-71008502D02*
X133019160Y-70960883D01*
X133019160Y-70960883D02*
X133114398Y-70913264D01*
X133114398Y-70913264D02*
X133257255Y-70913264D01*
X133257255Y-70913264D02*
X133352493Y-70960883D01*
X133352493Y-70960883D02*
X133400112Y-71056121D01*
X133400112Y-71056121D02*
X133400112Y-71579931D01*
X133400112Y-71056121D02*
X133447731Y-70960883D01*
X133447731Y-70960883D02*
X133542969Y-70913264D01*
X133542969Y-70913264D02*
X133685826Y-70913264D01*
X133685826Y-70913264D02*
X133781065Y-70960883D01*
X133781065Y-70960883D02*
X133828684Y-71056121D01*
X133828684Y-71056121D02*
X133828684Y-71579931D01*
X135019159Y-70532312D02*
X134162017Y-71818026D01*
X126209636Y-73189875D02*
X126114398Y-73142256D01*
X126114398Y-73142256D02*
X126066779Y-73047017D01*
X126066779Y-73047017D02*
X126066779Y-72189875D01*
X126971541Y-73142256D02*
X126876303Y-73189875D01*
X126876303Y-73189875D02*
X126685827Y-73189875D01*
X126685827Y-73189875D02*
X126590589Y-73142256D01*
X126590589Y-73142256D02*
X126542970Y-73047017D01*
X126542970Y-73047017D02*
X126542970Y-72666065D01*
X126542970Y-72666065D02*
X126590589Y-72570827D01*
X126590589Y-72570827D02*
X126685827Y-72523208D01*
X126685827Y-72523208D02*
X126876303Y-72523208D01*
X126876303Y-72523208D02*
X126971541Y-72570827D01*
X126971541Y-72570827D02*
X127019160Y-72666065D01*
X127019160Y-72666065D02*
X127019160Y-72761303D01*
X127019160Y-72761303D02*
X126542970Y-72856541D01*
X127447732Y-72523208D02*
X127447732Y-73523208D01*
X127447732Y-72570827D02*
X127542970Y-72523208D01*
X127542970Y-72523208D02*
X127733446Y-72523208D01*
X127733446Y-72523208D02*
X127828684Y-72570827D01*
X127828684Y-72570827D02*
X127876303Y-72618446D01*
X127876303Y-72618446D02*
X127923922Y-72713684D01*
X127923922Y-72713684D02*
X127923922Y-72999398D01*
X127923922Y-72999398D02*
X127876303Y-73094636D01*
X127876303Y-73094636D02*
X127828684Y-73142256D01*
X127828684Y-73142256D02*
X127733446Y-73189875D01*
X127733446Y-73189875D02*
X127542970Y-73189875D01*
X127542970Y-73189875D02*
X127447732Y-73142256D01*
X128733446Y-73142256D02*
X128638208Y-73189875D01*
X128638208Y-73189875D02*
X128447732Y-73189875D01*
X128447732Y-73189875D02*
X128352494Y-73142256D01*
X128352494Y-73142256D02*
X128304875Y-73047017D01*
X128304875Y-73047017D02*
X128304875Y-72666065D01*
X128304875Y-72666065D02*
X128352494Y-72570827D01*
X128352494Y-72570827D02*
X128447732Y-72523208D01*
X128447732Y-72523208D02*
X128638208Y-72523208D01*
X128638208Y-72523208D02*
X128733446Y-72570827D01*
X128733446Y-72570827D02*
X128781065Y-72666065D01*
X128781065Y-72666065D02*
X128781065Y-72761303D01*
X128781065Y-72761303D02*
X128304875Y-72856541D01*
X129066780Y-72523208D02*
X129447732Y-72523208D01*
X129209637Y-72189875D02*
X129209637Y-73047017D01*
X129209637Y-73047017D02*
X129257256Y-73142256D01*
X129257256Y-73142256D02*
X129352494Y-73189875D01*
X129352494Y-73189875D02*
X129447732Y-73189875D01*
X129781066Y-73189875D02*
X129781066Y-72523208D01*
X129781066Y-72189875D02*
X129733447Y-72237494D01*
X129733447Y-72237494D02*
X129781066Y-72285113D01*
X129781066Y-72285113D02*
X129828685Y-72237494D01*
X129828685Y-72237494D02*
X129781066Y-72189875D01*
X129781066Y-72189875D02*
X129781066Y-72285113D01*
X130685827Y-73189875D02*
X130685827Y-72189875D01*
X130685827Y-73142256D02*
X130590589Y-73189875D01*
X130590589Y-73189875D02*
X130400113Y-73189875D01*
X130400113Y-73189875D02*
X130304875Y-73142256D01*
X130304875Y-73142256D02*
X130257256Y-73094636D01*
X130257256Y-73094636D02*
X130209637Y-72999398D01*
X130209637Y-72999398D02*
X130209637Y-72713684D01*
X130209637Y-72713684D02*
X130257256Y-72618446D01*
X130257256Y-72618446D02*
X130304875Y-72570827D01*
X130304875Y-72570827D02*
X130400113Y-72523208D01*
X130400113Y-72523208D02*
X130590589Y-72523208D01*
X130590589Y-72523208D02*
X130685827Y-72570827D01*
X131304875Y-73189875D02*
X131209637Y-73142256D01*
X131209637Y-73142256D02*
X131162018Y-73094636D01*
X131162018Y-73094636D02*
X131114399Y-72999398D01*
X131114399Y-72999398D02*
X131114399Y-72713684D01*
X131114399Y-72713684D02*
X131162018Y-72618446D01*
X131162018Y-72618446D02*
X131209637Y-72570827D01*
X131209637Y-72570827D02*
X131304875Y-72523208D01*
X131304875Y-72523208D02*
X131447732Y-72523208D01*
X131447732Y-72523208D02*
X131542970Y-72570827D01*
X131542970Y-72570827D02*
X131590589Y-72618446D01*
X131590589Y-72618446D02*
X131638208Y-72713684D01*
X131638208Y-72713684D02*
X131638208Y-72999398D01*
X131638208Y-72999398D02*
X131590589Y-73094636D01*
X131590589Y-73094636D02*
X131542970Y-73142256D01*
X131542970Y-73142256D02*
X131447732Y-73189875D01*
X131447732Y-73189875D02*
X131304875Y-73189875D01*
X131971542Y-72523208D02*
X132495351Y-72523208D01*
X132495351Y-72523208D02*
X131971542Y-73189875D01*
X131971542Y-73189875D02*
X132495351Y-73189875D01*
X133019161Y-73189875D02*
X132923923Y-73142256D01*
X132923923Y-73142256D02*
X132876304Y-73094636D01*
X132876304Y-73094636D02*
X132828685Y-72999398D01*
X132828685Y-72999398D02*
X132828685Y-72713684D01*
X132828685Y-72713684D02*
X132876304Y-72618446D01*
X132876304Y-72618446D02*
X132923923Y-72570827D01*
X132923923Y-72570827D02*
X133019161Y-72523208D01*
X133019161Y-72523208D02*
X133162018Y-72523208D01*
X133162018Y-72523208D02*
X133257256Y-72570827D01*
X133257256Y-72570827D02*
X133304875Y-72618446D01*
X133304875Y-72618446D02*
X133352494Y-72713684D01*
X133352494Y-72713684D02*
X133352494Y-72999398D01*
X133352494Y-72999398D02*
X133304875Y-73094636D01*
X133304875Y-73094636D02*
X133257256Y-73142256D01*
X133257256Y-73142256D02*
X133162018Y-73189875D01*
X133162018Y-73189875D02*
X133019161Y-73189875D01*
X134495351Y-72142256D02*
X133638209Y-73427970D01*
X125971541Y-74133152D02*
X126162017Y-74799819D01*
X126162017Y-74799819D02*
X126352493Y-74323628D01*
X126352493Y-74323628D02*
X126542969Y-74799819D01*
X126542969Y-74799819D02*
X126733445Y-74133152D01*
X127257255Y-74799819D02*
X127162017Y-74752200D01*
X127162017Y-74752200D02*
X127114398Y-74656961D01*
X127114398Y-74656961D02*
X127114398Y-73799819D01*
X128019160Y-74752200D02*
X127923922Y-74799819D01*
X127923922Y-74799819D02*
X127733446Y-74799819D01*
X127733446Y-74799819D02*
X127638208Y-74752200D01*
X127638208Y-74752200D02*
X127590589Y-74656961D01*
X127590589Y-74656961D02*
X127590589Y-74276009D01*
X127590589Y-74276009D02*
X127638208Y-74180771D01*
X127638208Y-74180771D02*
X127733446Y-74133152D01*
X127733446Y-74133152D02*
X127923922Y-74133152D01*
X127923922Y-74133152D02*
X128019160Y-74180771D01*
X128019160Y-74180771D02*
X128066779Y-74276009D01*
X128066779Y-74276009D02*
X128066779Y-74371247D01*
X128066779Y-74371247D02*
X127590589Y-74466485D01*
X128923922Y-74799819D02*
X128923922Y-73799819D01*
X128923922Y-74752200D02*
X128828684Y-74799819D01*
X128828684Y-74799819D02*
X128638208Y-74799819D01*
X128638208Y-74799819D02*
X128542970Y-74752200D01*
X128542970Y-74752200D02*
X128495351Y-74704580D01*
X128495351Y-74704580D02*
X128447732Y-74609342D01*
X128447732Y-74609342D02*
X128447732Y-74323628D01*
X128447732Y-74323628D02*
X128495351Y-74228390D01*
X128495351Y-74228390D02*
X128542970Y-74180771D01*
X128542970Y-74180771D02*
X128638208Y-74133152D01*
X128638208Y-74133152D02*
X128828684Y-74133152D01*
X128828684Y-74133152D02*
X128923922Y-74180771D01*
X129971541Y-74704580D02*
X129923922Y-74752200D01*
X129923922Y-74752200D02*
X129781065Y-74799819D01*
X129781065Y-74799819D02*
X129685827Y-74799819D01*
X129685827Y-74799819D02*
X129542970Y-74752200D01*
X129542970Y-74752200D02*
X129447732Y-74656961D01*
X129447732Y-74656961D02*
X129400113Y-74561723D01*
X129400113Y-74561723D02*
X129352494Y-74371247D01*
X129352494Y-74371247D02*
X129352494Y-74228390D01*
X129352494Y-74228390D02*
X129400113Y-74037914D01*
X129400113Y-74037914D02*
X129447732Y-73942676D01*
X129447732Y-73942676D02*
X129542970Y-73847438D01*
X129542970Y-73847438D02*
X129685827Y-73799819D01*
X129685827Y-73799819D02*
X129781065Y-73799819D01*
X129781065Y-73799819D02*
X129923922Y-73847438D01*
X129923922Y-73847438D02*
X129971541Y-73895057D01*
X130542970Y-74799819D02*
X130447732Y-74752200D01*
X130447732Y-74752200D02*
X130400113Y-74704580D01*
X130400113Y-74704580D02*
X130352494Y-74609342D01*
X130352494Y-74609342D02*
X130352494Y-74323628D01*
X130352494Y-74323628D02*
X130400113Y-74228390D01*
X130400113Y-74228390D02*
X130447732Y-74180771D01*
X130447732Y-74180771D02*
X130542970Y-74133152D01*
X130542970Y-74133152D02*
X130685827Y-74133152D01*
X130685827Y-74133152D02*
X130781065Y-74180771D01*
X130781065Y-74180771D02*
X130828684Y-74228390D01*
X130828684Y-74228390D02*
X130876303Y-74323628D01*
X130876303Y-74323628D02*
X130876303Y-74609342D01*
X130876303Y-74609342D02*
X130828684Y-74704580D01*
X130828684Y-74704580D02*
X130781065Y-74752200D01*
X130781065Y-74752200D02*
X130685827Y-74799819D01*
X130685827Y-74799819D02*
X130542970Y-74799819D01*
X131304875Y-74133152D02*
X131304875Y-74799819D01*
X131304875Y-74228390D02*
X131352494Y-74180771D01*
X131352494Y-74180771D02*
X131447732Y-74133152D01*
X131447732Y-74133152D02*
X131590589Y-74133152D01*
X131590589Y-74133152D02*
X131685827Y-74180771D01*
X131685827Y-74180771D02*
X131733446Y-74276009D01*
X131733446Y-74276009D02*
X131733446Y-74799819D01*
X132066780Y-74133152D02*
X132447732Y-74133152D01*
X132209637Y-73799819D02*
X132209637Y-74656961D01*
X132209637Y-74656961D02*
X132257256Y-74752200D01*
X132257256Y-74752200D02*
X132352494Y-74799819D01*
X132352494Y-74799819D02*
X132447732Y-74799819D01*
X132781066Y-74799819D02*
X132781066Y-74133152D01*
X132781066Y-74323628D02*
X132828685Y-74228390D01*
X132828685Y-74228390D02*
X132876304Y-74180771D01*
X132876304Y-74180771D02*
X132971542Y-74133152D01*
X132971542Y-74133152D02*
X133066780Y-74133152D01*
X133542971Y-74799819D02*
X133447733Y-74752200D01*
X133447733Y-74752200D02*
X133400114Y-74704580D01*
X133400114Y-74704580D02*
X133352495Y-74609342D01*
X133352495Y-74609342D02*
X133352495Y-74323628D01*
X133352495Y-74323628D02*
X133400114Y-74228390D01*
X133400114Y-74228390D02*
X133447733Y-74180771D01*
X133447733Y-74180771D02*
X133542971Y-74133152D01*
X133542971Y-74133152D02*
X133685828Y-74133152D01*
X133685828Y-74133152D02*
X133781066Y-74180771D01*
X133781066Y-74180771D02*
X133828685Y-74228390D01*
X133828685Y-74228390D02*
X133876304Y-74323628D01*
X133876304Y-74323628D02*
X133876304Y-74609342D01*
X133876304Y-74609342D02*
X133828685Y-74704580D01*
X133828685Y-74704580D02*
X133781066Y-74752200D01*
X133781066Y-74752200D02*
X133685828Y-74799819D01*
X133685828Y-74799819D02*
X133542971Y-74799819D01*
X134447733Y-74799819D02*
X134352495Y-74752200D01*
X134352495Y-74752200D02*
X134304876Y-74656961D01*
X134304876Y-74656961D02*
X134304876Y-73799819D01*
X134971543Y-74799819D02*
X134876305Y-74752200D01*
X134876305Y-74752200D02*
X134828686Y-74656961D01*
X134828686Y-74656961D02*
X134828686Y-73799819D01*
X135733448Y-74752200D02*
X135638210Y-74799819D01*
X135638210Y-74799819D02*
X135447734Y-74799819D01*
X135447734Y-74799819D02*
X135352496Y-74752200D01*
X135352496Y-74752200D02*
X135304877Y-74656961D01*
X135304877Y-74656961D02*
X135304877Y-74276009D01*
X135304877Y-74276009D02*
X135352496Y-74180771D01*
X135352496Y-74180771D02*
X135447734Y-74133152D01*
X135447734Y-74133152D02*
X135638210Y-74133152D01*
X135638210Y-74133152D02*
X135733448Y-74180771D01*
X135733448Y-74180771D02*
X135781067Y-74276009D01*
X135781067Y-74276009D02*
X135781067Y-74371247D01*
X135781067Y-74371247D02*
X135304877Y-74466485D01*
X136209639Y-74799819D02*
X136209639Y-74133152D01*
X136209639Y-74323628D02*
X136257258Y-74228390D01*
X136257258Y-74228390D02*
X136304877Y-74180771D01*
X136304877Y-74180771D02*
X136400115Y-74133152D01*
X136400115Y-74133152D02*
X136495353Y-74133152D01*
X136590592Y-74895057D02*
X137352496Y-74895057D01*
X137447735Y-73799819D02*
X137781068Y-74799819D01*
X137781068Y-74799819D02*
X138114401Y-73799819D01*
X138971544Y-74799819D02*
X138400116Y-74799819D01*
X138685830Y-74799819D02*
X138685830Y-73799819D01*
X138685830Y-73799819D02*
X138590592Y-73942676D01*
X138590592Y-73942676D02*
X138495354Y-74037914D01*
X138495354Y-74037914D02*
X138400116Y-74085533D01*
D12*
X129880225Y-98630828D02*
X130380225Y-100130828D01*
X130380225Y-100130828D02*
X130880225Y-98630828D01*
X131380224Y-100130828D02*
X131380224Y-98630828D01*
X132094510Y-100130828D02*
X132094510Y-98630828D01*
X132094510Y-98630828D02*
X132951653Y-100130828D01*
X132951653Y-100130828D02*
X132951653Y-98630828D01*
X139770225Y-98702257D02*
X139627368Y-98630828D01*
X139627368Y-98630828D02*
X139413082Y-98630828D01*
X139413082Y-98630828D02*
X139198796Y-98702257D01*
X139198796Y-98702257D02*
X139055939Y-98845114D01*
X139055939Y-98845114D02*
X138984510Y-98987971D01*
X138984510Y-98987971D02*
X138913082Y-99273685D01*
X138913082Y-99273685D02*
X138913082Y-99487971D01*
X138913082Y-99487971D02*
X138984510Y-99773685D01*
X138984510Y-99773685D02*
X139055939Y-99916542D01*
X139055939Y-99916542D02*
X139198796Y-100059400D01*
X139198796Y-100059400D02*
X139413082Y-100130828D01*
X139413082Y-100130828D02*
X139555939Y-100130828D01*
X139555939Y-100130828D02*
X139770225Y-100059400D01*
X139770225Y-100059400D02*
X139841653Y-99987971D01*
X139841653Y-99987971D02*
X139841653Y-99487971D01*
X139841653Y-99487971D02*
X139555939Y-99487971D01*
X140484510Y-100130828D02*
X140484510Y-98630828D01*
X140484510Y-98630828D02*
X141341653Y-100130828D01*
X141341653Y-100130828D02*
X141341653Y-98630828D01*
X142055939Y-100130828D02*
X142055939Y-98630828D01*
X142055939Y-98630828D02*
X142413082Y-98630828D01*
X142413082Y-98630828D02*
X142627368Y-98702257D01*
X142627368Y-98702257D02*
X142770225Y-98845114D01*
X142770225Y-98845114D02*
X142841654Y-98987971D01*
X142841654Y-98987971D02*
X142913082Y-99273685D01*
X142913082Y-99273685D02*
X142913082Y-99487971D01*
X142913082Y-99487971D02*
X142841654Y-99773685D01*
X142841654Y-99773685D02*
X142770225Y-99916542D01*
X142770225Y-99916542D02*
X142627368Y-100059400D01*
X142627368Y-100059400D02*
X142413082Y-100130828D01*
X142413082Y-100130828D02*
X142055939Y-100130828D01*
D13*
X146854559Y-112399747D02*
X146733606Y-112339271D01*
X146733606Y-112339271D02*
X146552178Y-112339271D01*
X146552178Y-112339271D02*
X146370749Y-112399747D01*
X146370749Y-112399747D02*
X146249797Y-112520699D01*
X146249797Y-112520699D02*
X146189320Y-112641652D01*
X146189320Y-112641652D02*
X146128844Y-112883556D01*
X146128844Y-112883556D02*
X146128844Y-113064985D01*
X146128844Y-113064985D02*
X146189320Y-113306890D01*
X146189320Y-113306890D02*
X146249797Y-113427842D01*
X146249797Y-113427842D02*
X146370749Y-113548795D01*
X146370749Y-113548795D02*
X146552178Y-113609271D01*
X146552178Y-113609271D02*
X146673130Y-113609271D01*
X146673130Y-113609271D02*
X146854559Y-113548795D01*
X146854559Y-113548795D02*
X146915035Y-113488318D01*
X146915035Y-113488318D02*
X146915035Y-113064985D01*
X146915035Y-113064985D02*
X146673130Y-113064985D01*
X147459320Y-113609271D02*
X147459320Y-112339271D01*
X147459320Y-112339271D02*
X148185035Y-113609271D01*
X148185035Y-113609271D02*
X148185035Y-112339271D01*
X148789796Y-113609271D02*
X148789796Y-112339271D01*
X148789796Y-112339271D02*
X149092177Y-112339271D01*
X149092177Y-112339271D02*
X149273606Y-112399747D01*
X149273606Y-112399747D02*
X149394558Y-112520699D01*
X149394558Y-112520699D02*
X149455035Y-112641652D01*
X149455035Y-112641652D02*
X149515511Y-112883556D01*
X149515511Y-112883556D02*
X149515511Y-113064985D01*
X149515511Y-113064985D02*
X149455035Y-113306890D01*
X149455035Y-113306890D02*
X149394558Y-113427842D01*
X149394558Y-113427842D02*
X149273606Y-113548795D01*
X149273606Y-113548795D02*
X149092177Y-113609271D01*
X149092177Y-113609271D02*
X148789796Y-113609271D01*
X151087892Y-112339271D02*
X151511225Y-113609271D01*
X151511225Y-113609271D02*
X151934559Y-112339271D01*
X152357891Y-113609271D02*
X152357891Y-112339271D01*
X152962653Y-113609271D02*
X152962653Y-112339271D01*
X152962653Y-112339271D02*
X153688368Y-113609271D01*
X153688368Y-113609271D02*
X153688368Y-112339271D01*
D14*
X149860000Y-111760000D02*
X149860000Y-114300000D01*
X144780000Y-111760000D02*
X154940000Y-111760000D01*
X154940000Y-111760000D02*
X154940000Y-114300000D01*
X154940000Y-114300000D02*
X144780000Y-114300000D01*
X144780000Y-114300000D02*
X144780000Y-111760000D01*
D13*
X107943409Y-52699271D02*
X108729600Y-52699271D01*
X108729600Y-52699271D02*
X108306266Y-53183080D01*
X108306266Y-53183080D02*
X108487695Y-53183080D01*
X108487695Y-53183080D02*
X108608647Y-53243556D01*
X108608647Y-53243556D02*
X108669123Y-53304033D01*
X108669123Y-53304033D02*
X108729600Y-53424985D01*
X108729600Y-53424985D02*
X108729600Y-53727366D01*
X108729600Y-53727366D02*
X108669123Y-53848318D01*
X108669123Y-53848318D02*
X108608647Y-53908795D01*
X108608647Y-53908795D02*
X108487695Y-53969271D01*
X108487695Y-53969271D02*
X108124838Y-53969271D01*
X108124838Y-53969271D02*
X108003885Y-53908795D01*
X108003885Y-53908795D02*
X107943409Y-53848318D01*
X109092457Y-52699271D02*
X109515790Y-53969271D01*
X109515790Y-53969271D02*
X109939124Y-52699271D01*
X110241504Y-52699271D02*
X111027695Y-52699271D01*
X111027695Y-52699271D02*
X110604361Y-53183080D01*
X110604361Y-53183080D02*
X110785790Y-53183080D01*
X110785790Y-53183080D02*
X110906742Y-53243556D01*
X110906742Y-53243556D02*
X110967218Y-53304033D01*
X110967218Y-53304033D02*
X111027695Y-53424985D01*
X111027695Y-53424985D02*
X111027695Y-53727366D01*
X111027695Y-53727366D02*
X110967218Y-53848318D01*
X110967218Y-53848318D02*
X110906742Y-53908795D01*
X110906742Y-53908795D02*
X110785790Y-53969271D01*
X110785790Y-53969271D02*
X110422933Y-53969271D01*
X110422933Y-53969271D02*
X110301980Y-53908795D01*
X110301980Y-53908795D02*
X110241504Y-53848318D01*
X108729600Y-55299747D02*
X108608647Y-55239271D01*
X108608647Y-55239271D02*
X108427219Y-55239271D01*
X108427219Y-55239271D02*
X108245790Y-55299747D01*
X108245790Y-55299747D02*
X108124838Y-55420699D01*
X108124838Y-55420699D02*
X108064361Y-55541652D01*
X108064361Y-55541652D02*
X108003885Y-55783556D01*
X108003885Y-55783556D02*
X108003885Y-55964985D01*
X108003885Y-55964985D02*
X108064361Y-56206890D01*
X108064361Y-56206890D02*
X108124838Y-56327842D01*
X108124838Y-56327842D02*
X108245790Y-56448795D01*
X108245790Y-56448795D02*
X108427219Y-56509271D01*
X108427219Y-56509271D02*
X108548171Y-56509271D01*
X108548171Y-56509271D02*
X108729600Y-56448795D01*
X108729600Y-56448795D02*
X108790076Y-56388318D01*
X108790076Y-56388318D02*
X108790076Y-55964985D01*
X108790076Y-55964985D02*
X108548171Y-55964985D01*
X109334361Y-56509271D02*
X109334361Y-55239271D01*
X109334361Y-55239271D02*
X110060076Y-56509271D01*
X110060076Y-56509271D02*
X110060076Y-55239271D01*
X110664837Y-56509271D02*
X110664837Y-55239271D01*
X110664837Y-55239271D02*
X110967218Y-55239271D01*
X110967218Y-55239271D02*
X111148647Y-55299747D01*
X111148647Y-55299747D02*
X111269599Y-55420699D01*
X111269599Y-55420699D02*
X111330076Y-55541652D01*
X111330076Y-55541652D02*
X111390552Y-55783556D01*
X111390552Y-55783556D02*
X111390552Y-55964985D01*
X111390552Y-55964985D02*
X111330076Y-56206890D01*
X111330076Y-56206890D02*
X111269599Y-56327842D01*
X111269599Y-56327842D02*
X111148647Y-56448795D01*
X111148647Y-56448795D02*
X110967218Y-56509271D01*
X110967218Y-56509271D02*
X110664837Y-56509271D01*
X107882933Y-57779271D02*
X108608647Y-57779271D01*
X108245790Y-59049271D02*
X108245790Y-57779271D01*
X108911028Y-57779271D02*
X109757695Y-59049271D01*
X109757695Y-57779271D02*
X108911028Y-59049271D01*
X110241504Y-59049271D02*
X110241504Y-57779271D01*
X110241504Y-57779271D02*
X110543885Y-57779271D01*
X110543885Y-57779271D02*
X110725314Y-57839747D01*
X110725314Y-57839747D02*
X110846266Y-57960699D01*
X110846266Y-57960699D02*
X110906743Y-58081652D01*
X110906743Y-58081652D02*
X110967219Y-58323556D01*
X110967219Y-58323556D02*
X110967219Y-58504985D01*
X110967219Y-58504985D02*
X110906743Y-58746890D01*
X110906743Y-58746890D02*
X110846266Y-58867842D01*
X110846266Y-58867842D02*
X110725314Y-58988795D01*
X110725314Y-58988795D02*
X110543885Y-59049271D01*
X110543885Y-59049271D02*
X110241504Y-59049271D01*
X108790076Y-61589271D02*
X108366742Y-60984509D01*
X108064361Y-61589271D02*
X108064361Y-60319271D01*
X108064361Y-60319271D02*
X108548171Y-60319271D01*
X108548171Y-60319271D02*
X108669123Y-60379747D01*
X108669123Y-60379747D02*
X108729600Y-60440223D01*
X108729600Y-60440223D02*
X108790076Y-60561175D01*
X108790076Y-60561175D02*
X108790076Y-60742604D01*
X108790076Y-60742604D02*
X108729600Y-60863556D01*
X108729600Y-60863556D02*
X108669123Y-60924033D01*
X108669123Y-60924033D02*
X108548171Y-60984509D01*
X108548171Y-60984509D02*
X108064361Y-60984509D01*
X109213409Y-60319271D02*
X110060076Y-61589271D01*
X110060076Y-60319271D02*
X109213409Y-61589271D01*
X110543885Y-61589271D02*
X110543885Y-60319271D01*
X110543885Y-60319271D02*
X110846266Y-60319271D01*
X110846266Y-60319271D02*
X111027695Y-60379747D01*
X111027695Y-60379747D02*
X111148647Y-60500699D01*
X111148647Y-60500699D02*
X111209124Y-60621652D01*
X111209124Y-60621652D02*
X111269600Y-60863556D01*
X111269600Y-60863556D02*
X111269600Y-61044985D01*
X111269600Y-61044985D02*
X111209124Y-61286890D01*
X111209124Y-61286890D02*
X111148647Y-61407842D01*
X111148647Y-61407842D02*
X111027695Y-61528795D01*
X111027695Y-61528795D02*
X110846266Y-61589271D01*
X110846266Y-61589271D02*
X110543885Y-61589271D01*
X108790076Y-64129271D02*
X108366742Y-63524509D01*
X108064361Y-64129271D02*
X108064361Y-62859271D01*
X108064361Y-62859271D02*
X108548171Y-62859271D01*
X108548171Y-62859271D02*
X108669123Y-62919747D01*
X108669123Y-62919747D02*
X108729600Y-62980223D01*
X108729600Y-62980223D02*
X108790076Y-63101175D01*
X108790076Y-63101175D02*
X108790076Y-63282604D01*
X108790076Y-63282604D02*
X108729600Y-63403556D01*
X108729600Y-63403556D02*
X108669123Y-63464033D01*
X108669123Y-63464033D02*
X108548171Y-63524509D01*
X108548171Y-63524509D02*
X108064361Y-63524509D01*
X109152933Y-62859271D02*
X109878647Y-62859271D01*
X109515790Y-64129271D02*
X109515790Y-62859271D01*
X110241504Y-64068795D02*
X110422933Y-64129271D01*
X110422933Y-64129271D02*
X110725314Y-64129271D01*
X110725314Y-64129271D02*
X110846266Y-64068795D01*
X110846266Y-64068795D02*
X110906742Y-64008318D01*
X110906742Y-64008318D02*
X110967219Y-63887366D01*
X110967219Y-63887366D02*
X110967219Y-63766414D01*
X110967219Y-63766414D02*
X110906742Y-63645461D01*
X110906742Y-63645461D02*
X110846266Y-63584985D01*
X110846266Y-63584985D02*
X110725314Y-63524509D01*
X110725314Y-63524509D02*
X110483409Y-63464033D01*
X110483409Y-63464033D02*
X110362457Y-63403556D01*
X110362457Y-63403556D02*
X110301980Y-63343080D01*
X110301980Y-63343080D02*
X110241504Y-63222128D01*
X110241504Y-63222128D02*
X110241504Y-63101175D01*
X110241504Y-63101175D02*
X110301980Y-62980223D01*
X110301980Y-62980223D02*
X110362457Y-62919747D01*
X110362457Y-62919747D02*
X110483409Y-62859271D01*
X110483409Y-62859271D02*
X110785790Y-62859271D01*
X110785790Y-62859271D02*
X110967219Y-62919747D01*
X108064361Y-66669271D02*
X108064361Y-65399271D01*
X108064361Y-65399271D02*
X108366742Y-65399271D01*
X108366742Y-65399271D02*
X108548171Y-65459747D01*
X108548171Y-65459747D02*
X108669123Y-65580699D01*
X108669123Y-65580699D02*
X108729600Y-65701652D01*
X108729600Y-65701652D02*
X108790076Y-65943556D01*
X108790076Y-65943556D02*
X108790076Y-66124985D01*
X108790076Y-66124985D02*
X108729600Y-66366890D01*
X108729600Y-66366890D02*
X108669123Y-66487842D01*
X108669123Y-66487842D02*
X108548171Y-66608795D01*
X108548171Y-66608795D02*
X108366742Y-66669271D01*
X108366742Y-66669271D02*
X108064361Y-66669271D01*
X109152933Y-65399271D02*
X109878647Y-65399271D01*
X109515790Y-66669271D02*
X109515790Y-65399271D01*
X111027695Y-66669271D02*
X110604361Y-66064509D01*
X110301980Y-66669271D02*
X110301980Y-65399271D01*
X110301980Y-65399271D02*
X110785790Y-65399271D01*
X110785790Y-65399271D02*
X110906742Y-65459747D01*
X110906742Y-65459747D02*
X110967219Y-65520223D01*
X110967219Y-65520223D02*
X111027695Y-65641175D01*
X111027695Y-65641175D02*
X111027695Y-65822604D01*
X111027695Y-65822604D02*
X110967219Y-65943556D01*
X110967219Y-65943556D02*
X110906742Y-66004033D01*
X110906742Y-66004033D02*
X110785790Y-66064509D01*
X110785790Y-66064509D02*
X110301980Y-66064509D01*
D14*
X111784959Y-54660000D02*
X106655041Y-54660000D01*
X111784959Y-57200000D02*
X106655041Y-57200000D01*
X111784959Y-59740000D02*
X106655041Y-59740000D01*
X111784959Y-62280000D02*
X106655041Y-62280000D01*
X111784959Y-64820000D02*
X106655041Y-64820000D01*
X106655041Y-52120000D02*
X111784959Y-52120000D01*
X111784959Y-52120000D02*
X111784959Y-67360000D01*
X111784959Y-67360000D02*
X106655041Y-67360000D01*
X106655041Y-67360000D02*
X106655041Y-52120000D01*
D13*
X109979320Y-113609271D02*
X109979320Y-112339271D01*
X109979320Y-112339271D02*
X110281701Y-112339271D01*
X110281701Y-112339271D02*
X110463130Y-112399747D01*
X110463130Y-112399747D02*
X110584082Y-112520699D01*
X110584082Y-112520699D02*
X110644559Y-112641652D01*
X110644559Y-112641652D02*
X110705035Y-112883556D01*
X110705035Y-112883556D02*
X110705035Y-113064985D01*
X110705035Y-113064985D02*
X110644559Y-113306890D01*
X110644559Y-113306890D02*
X110584082Y-113427842D01*
X110584082Y-113427842D02*
X110463130Y-113548795D01*
X110463130Y-113548795D02*
X110281701Y-113609271D01*
X110281701Y-113609271D02*
X109979320Y-113609271D01*
X111914559Y-113609271D02*
X111188844Y-113609271D01*
X111551701Y-113609271D02*
X111551701Y-112339271D01*
X111551701Y-112339271D02*
X111430749Y-112520699D01*
X111430749Y-112520699D02*
X111309797Y-112641652D01*
X111309797Y-112641652D02*
X111188844Y-112702128D01*
X112519321Y-113609271D02*
X112761225Y-113609271D01*
X112761225Y-113609271D02*
X112882178Y-113548795D01*
X112882178Y-113548795D02*
X112942654Y-113488318D01*
X112942654Y-113488318D02*
X113063606Y-113306890D01*
X113063606Y-113306890D02*
X113124083Y-113064985D01*
X113124083Y-113064985D02*
X113124083Y-112581175D01*
X113124083Y-112581175D02*
X113063606Y-112460223D01*
X113063606Y-112460223D02*
X113003130Y-112399747D01*
X113003130Y-112399747D02*
X112882178Y-112339271D01*
X112882178Y-112339271D02*
X112640273Y-112339271D01*
X112640273Y-112339271D02*
X112519321Y-112399747D01*
X112519321Y-112399747D02*
X112458844Y-112460223D01*
X112458844Y-112460223D02*
X112398368Y-112581175D01*
X112398368Y-112581175D02*
X112398368Y-112883556D01*
X112398368Y-112883556D02*
X112458844Y-113004509D01*
X112458844Y-113004509D02*
X112519321Y-113064985D01*
X112519321Y-113064985D02*
X112640273Y-113125461D01*
X112640273Y-113125461D02*
X112882178Y-113125461D01*
X112882178Y-113125461D02*
X113003130Y-113064985D01*
X113003130Y-113064985D02*
X113063606Y-113004509D01*
X113063606Y-113004509D02*
X113124083Y-112883556D01*
X115359320Y-113609271D02*
X115359320Y-112339271D01*
X115359320Y-112339271D02*
X115661701Y-112339271D01*
X115661701Y-112339271D02*
X115843130Y-112399747D01*
X115843130Y-112399747D02*
X115964082Y-112520699D01*
X115964082Y-112520699D02*
X116024559Y-112641652D01*
X116024559Y-112641652D02*
X116085035Y-112883556D01*
X116085035Y-112883556D02*
X116085035Y-113064985D01*
X116085035Y-113064985D02*
X116024559Y-113306890D01*
X116024559Y-113306890D02*
X115964082Y-113427842D01*
X115964082Y-113427842D02*
X115843130Y-113548795D01*
X115843130Y-113548795D02*
X115661701Y-113609271D01*
X115661701Y-113609271D02*
X115359320Y-113609271D01*
X117294559Y-113609271D02*
X116568844Y-113609271D01*
X116931701Y-113609271D02*
X116931701Y-112339271D01*
X116931701Y-112339271D02*
X116810749Y-112520699D01*
X116810749Y-112520699D02*
X116689797Y-112641652D01*
X116689797Y-112641652D02*
X116568844Y-112702128D01*
X118020273Y-112883556D02*
X117899321Y-112823080D01*
X117899321Y-112823080D02*
X117838844Y-112762604D01*
X117838844Y-112762604D02*
X117778368Y-112641652D01*
X117778368Y-112641652D02*
X117778368Y-112581175D01*
X117778368Y-112581175D02*
X117838844Y-112460223D01*
X117838844Y-112460223D02*
X117899321Y-112399747D01*
X117899321Y-112399747D02*
X118020273Y-112339271D01*
X118020273Y-112339271D02*
X118262178Y-112339271D01*
X118262178Y-112339271D02*
X118383130Y-112399747D01*
X118383130Y-112399747D02*
X118443606Y-112460223D01*
X118443606Y-112460223D02*
X118504083Y-112581175D01*
X118504083Y-112581175D02*
X118504083Y-112641652D01*
X118504083Y-112641652D02*
X118443606Y-112762604D01*
X118443606Y-112762604D02*
X118383130Y-112823080D01*
X118383130Y-112823080D02*
X118262178Y-112883556D01*
X118262178Y-112883556D02*
X118020273Y-112883556D01*
X118020273Y-112883556D02*
X117899321Y-112944033D01*
X117899321Y-112944033D02*
X117838844Y-113004509D01*
X117838844Y-113004509D02*
X117778368Y-113125461D01*
X117778368Y-113125461D02*
X117778368Y-113367366D01*
X117778368Y-113367366D02*
X117838844Y-113488318D01*
X117838844Y-113488318D02*
X117899321Y-113548795D01*
X117899321Y-113548795D02*
X118020273Y-113609271D01*
X118020273Y-113609271D02*
X118262178Y-113609271D01*
X118262178Y-113609271D02*
X118383130Y-113548795D01*
X118383130Y-113548795D02*
X118443606Y-113488318D01*
X118443606Y-113488318D02*
X118504083Y-113367366D01*
X118504083Y-113367366D02*
X118504083Y-113125461D01*
X118504083Y-113125461D02*
X118443606Y-113004509D01*
X118443606Y-113004509D02*
X118383130Y-112944033D01*
X118383130Y-112944033D02*
X118262178Y-112883556D01*
X120739320Y-113609271D02*
X120739320Y-112339271D01*
X120739320Y-112339271D02*
X121041701Y-112339271D01*
X121041701Y-112339271D02*
X121223130Y-112399747D01*
X121223130Y-112399747D02*
X121344082Y-112520699D01*
X121344082Y-112520699D02*
X121404559Y-112641652D01*
X121404559Y-112641652D02*
X121465035Y-112883556D01*
X121465035Y-112883556D02*
X121465035Y-113064985D01*
X121465035Y-113064985D02*
X121404559Y-113306890D01*
X121404559Y-113306890D02*
X121344082Y-113427842D01*
X121344082Y-113427842D02*
X121223130Y-113548795D01*
X121223130Y-113548795D02*
X121041701Y-113609271D01*
X121041701Y-113609271D02*
X120739320Y-113609271D01*
X122674559Y-113609271D02*
X121948844Y-113609271D01*
X122311701Y-113609271D02*
X122311701Y-112339271D01*
X122311701Y-112339271D02*
X122190749Y-112520699D01*
X122190749Y-112520699D02*
X122069797Y-112641652D01*
X122069797Y-112641652D02*
X121948844Y-112702128D01*
X123097892Y-112339271D02*
X123944559Y-112339271D01*
X123944559Y-112339271D02*
X123400273Y-113609271D01*
X126119320Y-113609271D02*
X126119320Y-112339271D01*
X126119320Y-112339271D02*
X126421701Y-112339271D01*
X126421701Y-112339271D02*
X126603130Y-112399747D01*
X126603130Y-112399747D02*
X126724082Y-112520699D01*
X126724082Y-112520699D02*
X126784559Y-112641652D01*
X126784559Y-112641652D02*
X126845035Y-112883556D01*
X126845035Y-112883556D02*
X126845035Y-113064985D01*
X126845035Y-113064985D02*
X126784559Y-113306890D01*
X126784559Y-113306890D02*
X126724082Y-113427842D01*
X126724082Y-113427842D02*
X126603130Y-113548795D01*
X126603130Y-113548795D02*
X126421701Y-113609271D01*
X126421701Y-113609271D02*
X126119320Y-113609271D01*
X128054559Y-113609271D02*
X127328844Y-113609271D01*
X127691701Y-113609271D02*
X127691701Y-112339271D01*
X127691701Y-112339271D02*
X127570749Y-112520699D01*
X127570749Y-112520699D02*
X127449797Y-112641652D01*
X127449797Y-112641652D02*
X127328844Y-112702128D01*
X129143130Y-112339271D02*
X128901225Y-112339271D01*
X128901225Y-112339271D02*
X128780273Y-112399747D01*
X128780273Y-112399747D02*
X128719797Y-112460223D01*
X128719797Y-112460223D02*
X128598844Y-112641652D01*
X128598844Y-112641652D02*
X128538368Y-112883556D01*
X128538368Y-112883556D02*
X128538368Y-113367366D01*
X128538368Y-113367366D02*
X128598844Y-113488318D01*
X128598844Y-113488318D02*
X128659321Y-113548795D01*
X128659321Y-113548795D02*
X128780273Y-113609271D01*
X128780273Y-113609271D02*
X129022178Y-113609271D01*
X129022178Y-113609271D02*
X129143130Y-113548795D01*
X129143130Y-113548795D02*
X129203606Y-113488318D01*
X129203606Y-113488318D02*
X129264083Y-113367366D01*
X129264083Y-113367366D02*
X129264083Y-113064985D01*
X129264083Y-113064985D02*
X129203606Y-112944033D01*
X129203606Y-112944033D02*
X129143130Y-112883556D01*
X129143130Y-112883556D02*
X129022178Y-112823080D01*
X129022178Y-112823080D02*
X128780273Y-112823080D01*
X128780273Y-112823080D02*
X128659321Y-112883556D01*
X128659321Y-112883556D02*
X128598844Y-112944033D01*
X128598844Y-112944033D02*
X128538368Y-113064985D01*
X131267892Y-112339271D02*
X131691225Y-113609271D01*
X131691225Y-113609271D02*
X132114559Y-112339271D01*
X132537891Y-113609271D02*
X132537891Y-112339271D01*
X133142653Y-113609271D02*
X133142653Y-112339271D01*
X133142653Y-112339271D02*
X133868368Y-113609271D01*
X133868368Y-113609271D02*
X133868368Y-112339271D01*
X137244559Y-112399747D02*
X137123606Y-112339271D01*
X137123606Y-112339271D02*
X136942178Y-112339271D01*
X136942178Y-112339271D02*
X136760749Y-112399747D01*
X136760749Y-112399747D02*
X136639797Y-112520699D01*
X136639797Y-112520699D02*
X136579320Y-112641652D01*
X136579320Y-112641652D02*
X136518844Y-112883556D01*
X136518844Y-112883556D02*
X136518844Y-113064985D01*
X136518844Y-113064985D02*
X136579320Y-113306890D01*
X136579320Y-113306890D02*
X136639797Y-113427842D01*
X136639797Y-113427842D02*
X136760749Y-113548795D01*
X136760749Y-113548795D02*
X136942178Y-113609271D01*
X136942178Y-113609271D02*
X137063130Y-113609271D01*
X137063130Y-113609271D02*
X137244559Y-113548795D01*
X137244559Y-113548795D02*
X137305035Y-113488318D01*
X137305035Y-113488318D02*
X137305035Y-113064985D01*
X137305035Y-113064985D02*
X137063130Y-113064985D01*
X137849320Y-113609271D02*
X137849320Y-112339271D01*
X137849320Y-112339271D02*
X138575035Y-113609271D01*
X138575035Y-113609271D02*
X138575035Y-112339271D01*
X139179796Y-113609271D02*
X139179796Y-112339271D01*
X139179796Y-112339271D02*
X139482177Y-112339271D01*
X139482177Y-112339271D02*
X139663606Y-112399747D01*
X139663606Y-112399747D02*
X139784558Y-112520699D01*
X139784558Y-112520699D02*
X139845035Y-112641652D01*
X139845035Y-112641652D02*
X139905511Y-112883556D01*
X139905511Y-112883556D02*
X139905511Y-113064985D01*
X139905511Y-113064985D02*
X139845035Y-113306890D01*
X139845035Y-113306890D02*
X139784558Y-113427842D01*
X139784558Y-113427842D02*
X139663606Y-113548795D01*
X139663606Y-113548795D02*
X139482177Y-113609271D01*
X139482177Y-113609271D02*
X139179796Y-113609271D01*
D14*
X113950000Y-111840071D02*
X113950000Y-114219929D01*
X119330000Y-111840071D02*
X119330000Y-114219929D01*
X124710000Y-111840071D02*
X124710000Y-114219929D01*
X130040000Y-111840071D02*
X130040000Y-114219929D01*
X135170000Y-111840071D02*
X135170000Y-114219929D01*
X108570000Y-111840071D02*
X140350000Y-111840071D01*
X140350000Y-111840071D02*
X140350000Y-114219929D01*
X140350000Y-114219929D02*
X108570000Y-114219929D01*
X108570000Y-114219929D02*
X108570000Y-111840071D01*
D15*
G36*
X110168103Y-83942759D02*
G01*
X108462241Y-83942759D01*
X108462241Y-82236897D01*
X110168103Y-82236897D01*
X110168103Y-83942759D01*
G37*
G36*
X111305345Y-81668276D02*
G01*
X111305345Y-84511379D01*
X111305345Y-85080000D01*
X107325000Y-85080000D01*
X107325000Y-84511379D01*
X107893621Y-84511379D01*
X110736724Y-84511379D01*
X110736724Y-81668276D01*
X107893621Y-81668276D01*
X107893621Y-84511379D01*
X107325000Y-84511379D01*
X107325000Y-81668276D01*
X107325000Y-81099655D01*
X111305345Y-81099655D01*
X111305345Y-81668276D01*
G37*
G36*
X120403276Y-81668276D02*
G01*
X119834655Y-81668276D01*
X119834655Y-81099655D01*
X120403276Y-81099655D01*
X120403276Y-81668276D01*
G37*
G36*
X115285690Y-78256552D02*
G01*
X115285690Y-78825172D01*
X115285690Y-79393793D01*
X115854310Y-79393793D01*
X115854310Y-78825172D01*
X115854310Y-77687931D01*
X116422931Y-77687931D01*
X116422931Y-78825172D01*
X116991552Y-78825172D01*
X116991552Y-79393793D01*
X116991552Y-79962414D01*
X117560172Y-79962414D01*
X117560172Y-80531034D01*
X117560172Y-81099655D01*
X116991552Y-81099655D01*
X116991552Y-80531034D01*
X116422931Y-80531034D01*
X116422931Y-81099655D01*
X116991552Y-81099655D01*
X116991552Y-81668276D01*
X116422931Y-81668276D01*
X116422931Y-82805517D01*
X118128793Y-82805517D01*
X118128793Y-82236897D01*
X116991552Y-82236897D01*
X116991552Y-81668276D01*
X117560172Y-81668276D01*
X117560172Y-81099655D01*
X118697414Y-81099655D01*
X119266034Y-81099655D01*
X119266034Y-81668276D01*
X119266034Y-82236897D01*
X120971897Y-82236897D01*
X120971897Y-81668276D01*
X120971897Y-80531034D01*
X119266034Y-80531034D01*
X119266034Y-81099655D01*
X118697414Y-81099655D01*
X118697414Y-80531034D01*
X118697414Y-79962414D01*
X119834655Y-79962414D01*
X119834655Y-79393793D01*
X120403276Y-79393793D01*
X120403276Y-79962414D01*
X121540517Y-79962414D01*
X121540517Y-79393793D01*
X120971897Y-79393793D01*
X120971897Y-78825172D01*
X120971897Y-78256552D01*
X121540517Y-78256552D01*
X121540517Y-78825172D01*
X122109138Y-78825172D01*
X122109138Y-79393793D01*
X122677759Y-79393793D01*
X122677759Y-79962414D01*
X123246379Y-79962414D01*
X123246379Y-80531034D01*
X122109138Y-80531034D01*
X122109138Y-81668276D01*
X121540517Y-81668276D01*
X121540517Y-82236897D01*
X122109138Y-82236897D01*
X122109138Y-82805517D01*
X119834655Y-82805517D01*
X119834655Y-83374138D01*
X119834655Y-83942759D01*
X118697414Y-83942759D01*
X118697414Y-83374138D01*
X119266034Y-83374138D01*
X119266034Y-82805517D01*
X118128793Y-82805517D01*
X118128793Y-83374138D01*
X117560172Y-83374138D01*
X117560172Y-83942759D01*
X116991552Y-83942759D01*
X116991552Y-83374138D01*
X116422931Y-83374138D01*
X116422931Y-83942759D01*
X116422931Y-84511379D01*
X115854310Y-84511379D01*
X115854310Y-83942759D01*
X114717069Y-83942759D01*
X114717069Y-84511379D01*
X114148448Y-84511379D01*
X114148448Y-85080000D01*
X113579828Y-85080000D01*
X113579828Y-84511379D01*
X112442586Y-84511379D01*
X112442586Y-85080000D01*
X111873966Y-85080000D01*
X111873966Y-84511379D01*
X111873966Y-83942759D01*
X114148448Y-83942759D01*
X114148448Y-83374138D01*
X114717069Y-83374138D01*
X114717069Y-82805517D01*
X115854310Y-82805517D01*
X115854310Y-81668276D01*
X115854310Y-81099655D01*
X114717069Y-81099655D01*
X114717069Y-80531034D01*
X115285690Y-80531034D01*
X115285690Y-79962414D01*
X115854310Y-79962414D01*
X115854310Y-80531034D01*
X116422931Y-80531034D01*
X116422931Y-79962414D01*
X116422931Y-79393793D01*
X115854310Y-79393793D01*
X115854310Y-79962414D01*
X115285690Y-79962414D01*
X114717069Y-79962414D01*
X114717069Y-79393793D01*
X114148448Y-79393793D01*
X114148448Y-79962414D01*
X113011207Y-79962414D01*
X113011207Y-79393793D01*
X112442586Y-79393793D01*
X112442586Y-78825172D01*
X114148448Y-78825172D01*
X114148448Y-78256552D01*
X114717069Y-78256552D01*
X114717069Y-77687931D01*
X115285690Y-77687931D01*
X115285690Y-78256552D01*
G37*
G36*
X115285690Y-85080000D02*
G01*
X114717069Y-85080000D01*
X114717069Y-84511379D01*
X115285690Y-84511379D01*
X115285690Y-85080000D01*
G37*
G36*
X119266034Y-85080000D02*
G01*
X117560172Y-85080000D01*
X117560172Y-84511379D01*
X119266034Y-84511379D01*
X119266034Y-85080000D01*
G37*
G36*
X121540517Y-83942759D02*
G01*
X120971897Y-83942759D01*
X120971897Y-84511379D01*
X120403276Y-84511379D01*
X120403276Y-85080000D01*
X119834655Y-85080000D01*
X119834655Y-84511379D01*
X119834655Y-83942759D01*
X120403276Y-83942759D01*
X120403276Y-83374138D01*
X121540517Y-83374138D01*
X121540517Y-83942759D01*
G37*
G36*
X121540517Y-85080000D02*
G01*
X120971897Y-85080000D01*
X120971897Y-84511379D01*
X121540517Y-84511379D01*
X121540517Y-85080000D01*
G37*
G36*
X123815000Y-83374138D02*
G01*
X123815000Y-83942759D01*
X123815000Y-84511379D01*
X123246379Y-84511379D01*
X123246379Y-83942759D01*
X122677759Y-83942759D01*
X122677759Y-84511379D01*
X121540517Y-84511379D01*
X121540517Y-83942759D01*
X122109138Y-83942759D01*
X122109138Y-83374138D01*
X123246379Y-83374138D01*
X123246379Y-82805517D01*
X123815000Y-82805517D01*
X123815000Y-83374138D01*
G37*
G36*
X112442586Y-82805517D02*
G01*
X113011207Y-82805517D01*
X113011207Y-83374138D01*
X111873966Y-83374138D01*
X111873966Y-82805517D01*
X111873966Y-82236897D01*
X112442586Y-82236897D01*
X112442586Y-82805517D01*
G37*
G36*
X113011207Y-80531034D02*
G01*
X113011207Y-81099655D01*
X114148448Y-81099655D01*
X114148448Y-81668276D01*
X113579828Y-81668276D01*
X113579828Y-82805517D01*
X113011207Y-82805517D01*
X113011207Y-81668276D01*
X112442586Y-81668276D01*
X112442586Y-81099655D01*
X111873966Y-81099655D01*
X111873966Y-80531034D01*
X112442586Y-80531034D01*
X112442586Y-79962414D01*
X113011207Y-79962414D01*
X113011207Y-80531034D01*
G37*
G36*
X123246379Y-82236897D02*
G01*
X122677759Y-82236897D01*
X122677759Y-81668276D01*
X123246379Y-81668276D01*
X123246379Y-82236897D01*
G37*
G36*
X108462241Y-78256552D02*
G01*
X109030862Y-78256552D01*
X109030862Y-78825172D01*
X109599483Y-78825172D01*
X109599483Y-79393793D01*
X108462241Y-79393793D01*
X108462241Y-80531034D01*
X107325000Y-80531034D01*
X107325000Y-79393793D01*
X107325000Y-78825172D01*
X107325000Y-78256552D01*
X107893621Y-78256552D01*
X107893621Y-77687931D01*
X108462241Y-77687931D01*
X108462241Y-78256552D01*
G37*
G36*
X111873966Y-80531034D02*
G01*
X109030862Y-80531034D01*
X109030862Y-79962414D01*
X111873966Y-79962414D01*
X111873966Y-80531034D01*
G37*
G36*
X121540517Y-74844828D02*
G01*
X120971897Y-74844828D01*
X120971897Y-75413448D01*
X120971897Y-75982069D01*
X123246379Y-75982069D01*
X123246379Y-74844828D01*
X123815000Y-74844828D01*
X123815000Y-75982069D01*
X123815000Y-76550690D01*
X123815000Y-77687931D01*
X123246379Y-77687931D01*
X123246379Y-76550690D01*
X122677759Y-76550690D01*
X122677759Y-77687931D01*
X122109138Y-77687931D01*
X122109138Y-76550690D01*
X121540517Y-76550690D01*
X121540517Y-77119310D01*
X121540517Y-77687931D01*
X120403276Y-77687931D01*
X120403276Y-77119310D01*
X120971897Y-77119310D01*
X120971897Y-76550690D01*
X120403276Y-76550690D01*
X120403276Y-77119310D01*
X118697414Y-77119310D01*
X118697414Y-77687931D01*
X119834655Y-77687931D01*
X119834655Y-78256552D01*
X118697414Y-78256552D01*
X118697414Y-78825172D01*
X118697414Y-79962414D01*
X118128793Y-79962414D01*
X118128793Y-78825172D01*
X117560172Y-78825172D01*
X117560172Y-78256552D01*
X118128793Y-78256552D01*
X118128793Y-77687931D01*
X117560172Y-77687931D01*
X117560172Y-77119310D01*
X118128793Y-77119310D01*
X118128793Y-76550690D01*
X119834655Y-76550690D01*
X119834655Y-75982069D01*
X119834655Y-75413448D01*
X119266034Y-75413448D01*
X119266034Y-75982069D01*
X118697414Y-75982069D01*
X118697414Y-75413448D01*
X118697414Y-74844828D01*
X118697414Y-74276207D01*
X119266034Y-74276207D01*
X119266034Y-74844828D01*
X120403276Y-74844828D01*
X120403276Y-73707586D01*
X121540517Y-73707586D01*
X121540517Y-74844828D01*
G37*
G36*
X111305345Y-79393793D02*
G01*
X110168103Y-79393793D01*
X110168103Y-78825172D01*
X111305345Y-78825172D01*
X111305345Y-79393793D01*
G37*
G36*
X123815000Y-79393793D02*
G01*
X123246379Y-79393793D01*
X123246379Y-78825172D01*
X123815000Y-78825172D01*
X123815000Y-79393793D01*
G37*
G36*
X110168103Y-77119310D02*
G01*
X110736724Y-77119310D01*
X110736724Y-76550690D01*
X111873966Y-76550690D01*
X111873966Y-77119310D01*
X111873966Y-77687931D01*
X111873966Y-78256552D01*
X111873966Y-78825172D01*
X111305345Y-78825172D01*
X111305345Y-78256552D01*
X110736724Y-78256552D01*
X110736724Y-77687931D01*
X111305345Y-77687931D01*
X111305345Y-77119310D01*
X110736724Y-77119310D01*
X110736724Y-77687931D01*
X110168103Y-77687931D01*
X110168103Y-78256552D01*
X109599483Y-78256552D01*
X109599483Y-77687931D01*
X109599483Y-77119310D01*
X109599483Y-76550690D01*
X110168103Y-76550690D01*
X110168103Y-77119310D01*
G37*
G36*
X123246379Y-78825172D02*
G01*
X122109138Y-78825172D01*
X122109138Y-78256552D01*
X123246379Y-78256552D01*
X123246379Y-78825172D01*
G37*
G36*
X113579828Y-77687931D02*
G01*
X114148448Y-77687931D01*
X114148448Y-78256552D01*
X112442586Y-78256552D01*
X112442586Y-77687931D01*
X112442586Y-77119310D01*
X113579828Y-77119310D01*
X113579828Y-77687931D01*
G37*
G36*
X122109138Y-78256552D02*
G01*
X121540517Y-78256552D01*
X121540517Y-77687931D01*
X122109138Y-77687931D01*
X122109138Y-78256552D01*
G37*
G36*
X107893621Y-77687931D02*
G01*
X107325000Y-77687931D01*
X107325000Y-76550690D01*
X107893621Y-76550690D01*
X107893621Y-77687931D01*
G37*
G36*
X108462241Y-73707586D02*
G01*
X109030862Y-73707586D01*
X109030862Y-74276207D01*
X110168103Y-74276207D01*
X110168103Y-73707586D01*
X110736724Y-73707586D01*
X110736724Y-74276207D01*
X111305345Y-74276207D01*
X111305345Y-74844828D01*
X110736724Y-74844828D01*
X110736724Y-75413448D01*
X110168103Y-75413448D01*
X110168103Y-75982069D01*
X109599483Y-75982069D01*
X109599483Y-76550690D01*
X109030862Y-76550690D01*
X109030862Y-77687931D01*
X108462241Y-77687931D01*
X108462241Y-76550690D01*
X107893621Y-76550690D01*
X107893621Y-75982069D01*
X108462241Y-75982069D01*
X109030862Y-75982069D01*
X109030862Y-75413448D01*
X108462241Y-75413448D01*
X108462241Y-75982069D01*
X107893621Y-75982069D01*
X107893621Y-75413448D01*
X107893621Y-74844828D01*
X107893621Y-74276207D01*
X107893621Y-73707586D01*
X107325000Y-73707586D01*
X107325000Y-73138966D01*
X108462241Y-73138966D01*
X108462241Y-73707586D01*
G37*
G36*
X114717069Y-77687931D02*
G01*
X114148448Y-77687931D01*
X114148448Y-77119310D01*
X114717069Y-77119310D01*
X114717069Y-77687931D01*
G37*
G36*
X116991552Y-75982069D02*
G01*
X116991552Y-76550690D01*
X116422931Y-76550690D01*
X116422931Y-77119310D01*
X115285690Y-77119310D01*
X115285690Y-76550690D01*
X115285690Y-75982069D01*
X115854310Y-75982069D01*
X115854310Y-75413448D01*
X116991552Y-75413448D01*
X116991552Y-75982069D01*
G37*
G36*
X112442586Y-75413448D02*
G01*
X113579828Y-75413448D01*
X113579828Y-75982069D01*
X113579828Y-76550690D01*
X112442586Y-76550690D01*
X112442586Y-75982069D01*
X111873966Y-75982069D01*
X111873966Y-75413448D01*
X111873966Y-74844828D01*
X112442586Y-74844828D01*
X112442586Y-75413448D01*
G37*
G36*
X114717069Y-76550690D02*
G01*
X114148448Y-76550690D01*
X114148448Y-75413448D01*
X114717069Y-75413448D01*
X114717069Y-76550690D01*
G37*
G36*
X118128793Y-76550690D02*
G01*
X117560172Y-76550690D01*
X117560172Y-75982069D01*
X118128793Y-75982069D01*
X118128793Y-76550690D01*
G37*
G36*
X111305345Y-75982069D02*
G01*
X110736724Y-75982069D01*
X110736724Y-75413448D01*
X111305345Y-75413448D01*
X111305345Y-75982069D01*
G37*
G36*
X115854310Y-72570345D02*
G01*
X116422931Y-72570345D01*
X116422931Y-73138966D01*
X117560172Y-73138966D01*
X117560172Y-72570345D01*
X117560172Y-72001724D01*
X118128793Y-72001724D01*
X118128793Y-72570345D01*
X118697414Y-72570345D01*
X118697414Y-73138966D01*
X118697414Y-73707586D01*
X118697414Y-74276207D01*
X118128793Y-74276207D01*
X118128793Y-74844828D01*
X117560172Y-74844828D01*
X117560172Y-75413448D01*
X116991552Y-75413448D01*
X116991552Y-74844828D01*
X116991552Y-74276207D01*
X116991552Y-73707586D01*
X117560172Y-73707586D01*
X118128793Y-73707586D01*
X118128793Y-73138966D01*
X117560172Y-73138966D01*
X117560172Y-73707586D01*
X116991552Y-73707586D01*
X115285690Y-73707586D01*
X115285690Y-73138966D01*
X114717069Y-73138966D01*
X114717069Y-73707586D01*
X114148448Y-73707586D01*
X114148448Y-73138966D01*
X114148448Y-72570345D01*
X114148448Y-72001724D01*
X114717069Y-72001724D01*
X114717069Y-72570345D01*
X115285690Y-72570345D01*
X115285690Y-71433103D01*
X115854310Y-71433103D01*
X115854310Y-72570345D01*
G37*
G36*
X122109138Y-75413448D02*
G01*
X121540517Y-75413448D01*
X121540517Y-74844828D01*
X122109138Y-74844828D01*
X122109138Y-75413448D01*
G37*
G36*
X113011207Y-74844828D02*
G01*
X112442586Y-74844828D01*
X112442586Y-74276207D01*
X113011207Y-74276207D01*
X113011207Y-74844828D01*
G37*
G36*
X116422931Y-74844828D02*
G01*
X114148448Y-74844828D01*
X114148448Y-74276207D01*
X116422931Y-74276207D01*
X116422931Y-74844828D01*
G37*
G36*
X123246379Y-74276207D02*
G01*
X122677759Y-74276207D01*
X122677759Y-74844828D01*
X122109138Y-74844828D01*
X122109138Y-74276207D01*
X122109138Y-73707586D01*
X123246379Y-73707586D01*
X123246379Y-74276207D01*
G37*
G36*
X111873966Y-74276207D02*
G01*
X111305345Y-74276207D01*
X111305345Y-73707586D01*
X111873966Y-73707586D01*
X111873966Y-74276207D01*
G37*
G36*
X113579828Y-74276207D02*
G01*
X113011207Y-74276207D01*
X113011207Y-73707586D01*
X113579828Y-73707586D01*
X113579828Y-74276207D01*
G37*
G36*
X119834655Y-74276207D02*
G01*
X119266034Y-74276207D01*
X119266034Y-73707586D01*
X119834655Y-73707586D01*
X119834655Y-74276207D01*
G37*
G36*
X110168103Y-73707586D02*
G01*
X109030862Y-73707586D01*
X109030862Y-73138966D01*
X110168103Y-73138966D01*
X110168103Y-73707586D01*
G37*
G36*
X111305345Y-73707586D02*
G01*
X110736724Y-73707586D01*
X110736724Y-73138966D01*
X111305345Y-73138966D01*
X111305345Y-73707586D01*
G37*
G36*
X112442586Y-72570345D02*
G01*
X113011207Y-72570345D01*
X113011207Y-73138966D01*
X113011207Y-73707586D01*
X112442586Y-73707586D01*
X112442586Y-73138966D01*
X111873966Y-73138966D01*
X111873966Y-72570345D01*
X111873966Y-72001724D01*
X112442586Y-72001724D01*
X112442586Y-72570345D01*
G37*
G36*
X120403276Y-73707586D02*
G01*
X119834655Y-73707586D01*
X119834655Y-73138966D01*
X120403276Y-73138966D01*
X120403276Y-73707586D01*
G37*
G36*
X123815000Y-73707586D02*
G01*
X123246379Y-73707586D01*
X123246379Y-73138966D01*
X123815000Y-73138966D01*
X123815000Y-73707586D01*
G37*
G36*
X110168103Y-71433103D02*
G01*
X108462241Y-71433103D01*
X108462241Y-69727241D01*
X110168103Y-69727241D01*
X110168103Y-71433103D01*
G37*
G36*
X111305345Y-69158621D02*
G01*
X111305345Y-72001724D01*
X111305345Y-72570345D01*
X107325000Y-72570345D01*
X107325000Y-72001724D01*
X107893621Y-72001724D01*
X110736724Y-72001724D01*
X110736724Y-69158621D01*
X107893621Y-69158621D01*
X107893621Y-72001724D01*
X107325000Y-72001724D01*
X107325000Y-69158621D01*
X107325000Y-68590000D01*
X111305345Y-68590000D01*
X111305345Y-69158621D01*
G37*
G36*
X113579828Y-72570345D02*
G01*
X113011207Y-72570345D01*
X113011207Y-72001724D01*
X113579828Y-72001724D01*
X113579828Y-72570345D01*
G37*
G36*
X116991552Y-72570345D02*
G01*
X116422931Y-72570345D01*
X116422931Y-72001724D01*
X116991552Y-72001724D01*
X116991552Y-72570345D01*
G37*
G36*
X119266034Y-72570345D02*
G01*
X118697414Y-72570345D01*
X118697414Y-71433103D01*
X119266034Y-71433103D01*
X119266034Y-72570345D01*
G37*
G36*
X122677759Y-71433103D02*
G01*
X120971897Y-71433103D01*
X120971897Y-69727241D01*
X122677759Y-69727241D01*
X122677759Y-71433103D01*
G37*
G36*
X123815000Y-69158621D02*
G01*
X123815000Y-72001724D01*
X123815000Y-72570345D01*
X119834655Y-72570345D01*
X119834655Y-72001724D01*
X120403276Y-72001724D01*
X123246379Y-72001724D01*
X123246379Y-69158621D01*
X120403276Y-69158621D01*
X120403276Y-72001724D01*
X119834655Y-72001724D01*
X119834655Y-69158621D01*
X119834655Y-68590000D01*
X123815000Y-68590000D01*
X123815000Y-69158621D01*
G37*
G36*
X113011207Y-72001724D02*
G01*
X112442586Y-72001724D01*
X112442586Y-71433103D01*
X113011207Y-71433103D01*
X113011207Y-72001724D01*
G37*
G36*
X114148448Y-69158621D02*
G01*
X114717069Y-69158621D01*
X114717069Y-69727241D01*
X114148448Y-69727241D01*
X114148448Y-70295862D01*
X114148448Y-70864483D01*
X114717069Y-70864483D01*
X114717069Y-71433103D01*
X114148448Y-71433103D01*
X114148448Y-72001724D01*
X113579828Y-72001724D01*
X113579828Y-71433103D01*
X113011207Y-71433103D01*
X113011207Y-70864483D01*
X113011207Y-70295862D01*
X113579828Y-70295862D01*
X113579828Y-69727241D01*
X113579828Y-69158621D01*
X111873966Y-69158621D01*
X111873966Y-68590000D01*
X114148448Y-68590000D01*
X114148448Y-69158621D01*
G37*
G36*
X117560172Y-70864483D02*
G01*
X117560172Y-71433103D01*
X117560172Y-72001724D01*
X116991552Y-72001724D01*
X116991552Y-71433103D01*
X116422931Y-71433103D01*
X116422931Y-70864483D01*
X115854310Y-70864483D01*
X115854310Y-70295862D01*
X117560172Y-70295862D01*
X117560172Y-70864483D01*
G37*
G36*
X118697414Y-71433103D02*
G01*
X118128793Y-71433103D01*
X118128793Y-70864483D01*
X118697414Y-70864483D01*
X118697414Y-71433103D01*
G37*
G36*
X115285690Y-70864483D02*
G01*
X114717069Y-70864483D01*
X114717069Y-69727241D01*
X115285690Y-69727241D01*
X115285690Y-70864483D01*
G37*
G36*
X113011207Y-70295862D02*
G01*
X112442586Y-70295862D01*
X112442586Y-69727241D01*
X113011207Y-69727241D01*
X113011207Y-70295862D01*
G37*
G36*
X119266034Y-69727241D02*
G01*
X118697414Y-69727241D01*
X118697414Y-70295862D01*
X118128793Y-70295862D01*
X118128793Y-69727241D01*
X118128793Y-69158621D01*
X119266034Y-69158621D01*
X119266034Y-69727241D01*
G37*
G36*
X116991552Y-69727241D02*
G01*
X116422931Y-69727241D01*
X116422931Y-69158621D01*
X116991552Y-69158621D01*
X116991552Y-69727241D01*
G37*
G36*
X115854310Y-69158621D02*
G01*
X115285690Y-69158621D01*
X115285690Y-68590000D01*
X115854310Y-68590000D01*
X115854310Y-69158621D01*
G37*
G36*
X118128793Y-69158621D02*
G01*
X116991552Y-69158621D01*
X116991552Y-68590000D01*
X118128793Y-68590000D01*
X118128793Y-69158621D01*
G37*
D11*
X157044819Y-67194166D02*
X156568628Y-67527499D01*
X157044819Y-67765594D02*
X156044819Y-67765594D01*
X156044819Y-67765594D02*
X156044819Y-67384642D01*
X156044819Y-67384642D02*
X156092438Y-67289404D01*
X156092438Y-67289404D02*
X156140057Y-67241785D01*
X156140057Y-67241785D02*
X156235295Y-67194166D01*
X156235295Y-67194166D02*
X156378152Y-67194166D01*
X156378152Y-67194166D02*
X156473390Y-67241785D01*
X156473390Y-67241785D02*
X156521009Y-67289404D01*
X156521009Y-67289404D02*
X156568628Y-67384642D01*
X156568628Y-67384642D02*
X156568628Y-67765594D01*
X156044819Y-66860832D02*
X156044819Y-66194166D01*
X156044819Y-66194166D02*
X157044819Y-66622737D01*
X108369580Y-42056666D02*
X108417200Y-42104285D01*
X108417200Y-42104285D02*
X108464819Y-42247142D01*
X108464819Y-42247142D02*
X108464819Y-42342380D01*
X108464819Y-42342380D02*
X108417200Y-42485237D01*
X108417200Y-42485237D02*
X108321961Y-42580475D01*
X108321961Y-42580475D02*
X108226723Y-42628094D01*
X108226723Y-42628094D02*
X108036247Y-42675713D01*
X108036247Y-42675713D02*
X107893390Y-42675713D01*
X107893390Y-42675713D02*
X107702914Y-42628094D01*
X107702914Y-42628094D02*
X107607676Y-42580475D01*
X107607676Y-42580475D02*
X107512438Y-42485237D01*
X107512438Y-42485237D02*
X107464819Y-42342380D01*
X107464819Y-42342380D02*
X107464819Y-42247142D01*
X107464819Y-42247142D02*
X107512438Y-42104285D01*
X107512438Y-42104285D02*
X107560057Y-42056666D01*
X107464819Y-41151904D02*
X107464819Y-41628094D01*
X107464819Y-41628094D02*
X107941009Y-41675713D01*
X107941009Y-41675713D02*
X107893390Y-41628094D01*
X107893390Y-41628094D02*
X107845771Y-41532856D01*
X107845771Y-41532856D02*
X107845771Y-41294761D01*
X107845771Y-41294761D02*
X107893390Y-41199523D01*
X107893390Y-41199523D02*
X107941009Y-41151904D01*
X107941009Y-41151904D02*
X108036247Y-41104285D01*
X108036247Y-41104285D02*
X108274342Y-41104285D01*
X108274342Y-41104285D02*
X108369580Y-41151904D01*
X108369580Y-41151904D02*
X108417200Y-41199523D01*
X108417200Y-41199523D02*
X108464819Y-41294761D01*
X108464819Y-41294761D02*
X108464819Y-41532856D01*
X108464819Y-41532856D02*
X108417200Y-41628094D01*
X108417200Y-41628094D02*
X108369580Y-41675713D01*
X155547142Y-95669580D02*
X155499523Y-95717200D01*
X155499523Y-95717200D02*
X155356666Y-95764819D01*
X155356666Y-95764819D02*
X155261428Y-95764819D01*
X155261428Y-95764819D02*
X155118571Y-95717200D01*
X155118571Y-95717200D02*
X155023333Y-95621961D01*
X155023333Y-95621961D02*
X154975714Y-95526723D01*
X154975714Y-95526723D02*
X154928095Y-95336247D01*
X154928095Y-95336247D02*
X154928095Y-95193390D01*
X154928095Y-95193390D02*
X154975714Y-95002914D01*
X154975714Y-95002914D02*
X155023333Y-94907676D01*
X155023333Y-94907676D02*
X155118571Y-94812438D01*
X155118571Y-94812438D02*
X155261428Y-94764819D01*
X155261428Y-94764819D02*
X155356666Y-94764819D01*
X155356666Y-94764819D02*
X155499523Y-94812438D01*
X155499523Y-94812438D02*
X155547142Y-94860057D01*
X156499523Y-95764819D02*
X155928095Y-95764819D01*
X156213809Y-95764819D02*
X156213809Y-94764819D01*
X156213809Y-94764819D02*
X156118571Y-94907676D01*
X156118571Y-94907676D02*
X156023333Y-95002914D01*
X156023333Y-95002914D02*
X155928095Y-95050533D01*
X157356666Y-95098152D02*
X157356666Y-95764819D01*
X157118571Y-94717200D02*
X156880476Y-95431485D01*
X156880476Y-95431485D02*
X157499523Y-95431485D01*
X149653333Y-72849580D02*
X149605714Y-72897200D01*
X149605714Y-72897200D02*
X149462857Y-72944819D01*
X149462857Y-72944819D02*
X149367619Y-72944819D01*
X149367619Y-72944819D02*
X149224762Y-72897200D01*
X149224762Y-72897200D02*
X149129524Y-72801961D01*
X149129524Y-72801961D02*
X149081905Y-72706723D01*
X149081905Y-72706723D02*
X149034286Y-72516247D01*
X149034286Y-72516247D02*
X149034286Y-72373390D01*
X149034286Y-72373390D02*
X149081905Y-72182914D01*
X149081905Y-72182914D02*
X149129524Y-72087676D01*
X149129524Y-72087676D02*
X149224762Y-71992438D01*
X149224762Y-71992438D02*
X149367619Y-71944819D01*
X149367619Y-71944819D02*
X149462857Y-71944819D01*
X149462857Y-71944819D02*
X149605714Y-71992438D01*
X149605714Y-71992438D02*
X149653333Y-72040057D01*
X150605714Y-72944819D02*
X150034286Y-72944819D01*
X150320000Y-72944819D02*
X150320000Y-71944819D01*
X150320000Y-71944819D02*
X150224762Y-72087676D01*
X150224762Y-72087676D02*
X150129524Y-72182914D01*
X150129524Y-72182914D02*
X150034286Y-72230533D01*
X141478095Y-58454819D02*
X141478095Y-59264342D01*
X141478095Y-59264342D02*
X141525714Y-59359580D01*
X141525714Y-59359580D02*
X141573333Y-59407200D01*
X141573333Y-59407200D02*
X141668571Y-59454819D01*
X141668571Y-59454819D02*
X141859047Y-59454819D01*
X141859047Y-59454819D02*
X141954285Y-59407200D01*
X141954285Y-59407200D02*
X142001904Y-59359580D01*
X142001904Y-59359580D02*
X142049523Y-59264342D01*
X142049523Y-59264342D02*
X142049523Y-58454819D01*
X142478095Y-58550057D02*
X142525714Y-58502438D01*
X142525714Y-58502438D02*
X142620952Y-58454819D01*
X142620952Y-58454819D02*
X142859047Y-58454819D01*
X142859047Y-58454819D02*
X142954285Y-58502438D01*
X142954285Y-58502438D02*
X143001904Y-58550057D01*
X143001904Y-58550057D02*
X143049523Y-58645295D01*
X143049523Y-58645295D02*
X143049523Y-58740533D01*
X143049523Y-58740533D02*
X143001904Y-58883390D01*
X143001904Y-58883390D02*
X142430476Y-59454819D01*
X142430476Y-59454819D02*
X143049523Y-59454819D01*
X156159580Y-53506666D02*
X156207200Y-53554285D01*
X156207200Y-53554285D02*
X156254819Y-53697142D01*
X156254819Y-53697142D02*
X156254819Y-53792380D01*
X156254819Y-53792380D02*
X156207200Y-53935237D01*
X156207200Y-53935237D02*
X156111961Y-54030475D01*
X156111961Y-54030475D02*
X156016723Y-54078094D01*
X156016723Y-54078094D02*
X155826247Y-54125713D01*
X155826247Y-54125713D02*
X155683390Y-54125713D01*
X155683390Y-54125713D02*
X155492914Y-54078094D01*
X155492914Y-54078094D02*
X155397676Y-54030475D01*
X155397676Y-54030475D02*
X155302438Y-53935237D01*
X155302438Y-53935237D02*
X155254819Y-53792380D01*
X155254819Y-53792380D02*
X155254819Y-53697142D01*
X155254819Y-53697142D02*
X155302438Y-53554285D01*
X155302438Y-53554285D02*
X155350057Y-53506666D01*
X155254819Y-53173332D02*
X155254819Y-52506666D01*
X155254819Y-52506666D02*
X156254819Y-52935237D01*
X147844819Y-92178094D02*
X146844819Y-92178094D01*
X146844819Y-92178094D02*
X146844819Y-91939999D01*
X146844819Y-91939999D02*
X146892438Y-91797142D01*
X146892438Y-91797142D02*
X146987676Y-91701904D01*
X146987676Y-91701904D02*
X147082914Y-91654285D01*
X147082914Y-91654285D02*
X147273390Y-91606666D01*
X147273390Y-91606666D02*
X147416247Y-91606666D01*
X147416247Y-91606666D02*
X147606723Y-91654285D01*
X147606723Y-91654285D02*
X147701961Y-91701904D01*
X147701961Y-91701904D02*
X147797200Y-91797142D01*
X147797200Y-91797142D02*
X147844819Y-91939999D01*
X147844819Y-91939999D02*
X147844819Y-92178094D01*
X147844819Y-90654285D02*
X147844819Y-91225713D01*
X147844819Y-90939999D02*
X146844819Y-90939999D01*
X146844819Y-90939999D02*
X146987676Y-91035237D01*
X146987676Y-91035237D02*
X147082914Y-91130475D01*
X147082914Y-91130475D02*
X147130533Y-91225713D01*
X148214819Y-96781904D02*
X147214819Y-96781904D01*
X148214819Y-96210476D02*
X147643390Y-96639047D01*
X147214819Y-96210476D02*
X147786247Y-96781904D01*
X118184819Y-62666666D02*
X117708628Y-62999999D01*
X118184819Y-63238094D02*
X117184819Y-63238094D01*
X117184819Y-63238094D02*
X117184819Y-62857142D01*
X117184819Y-62857142D02*
X117232438Y-62761904D01*
X117232438Y-62761904D02*
X117280057Y-62714285D01*
X117280057Y-62714285D02*
X117375295Y-62666666D01*
X117375295Y-62666666D02*
X117518152Y-62666666D01*
X117518152Y-62666666D02*
X117613390Y-62714285D01*
X117613390Y-62714285D02*
X117661009Y-62761904D01*
X117661009Y-62761904D02*
X117708628Y-62857142D01*
X117708628Y-62857142D02*
X117708628Y-63238094D01*
X117184819Y-61761904D02*
X117184819Y-62238094D01*
X117184819Y-62238094D02*
X117661009Y-62285713D01*
X117661009Y-62285713D02*
X117613390Y-62238094D01*
X117613390Y-62238094D02*
X117565771Y-62142856D01*
X117565771Y-62142856D02*
X117565771Y-61904761D01*
X117565771Y-61904761D02*
X117613390Y-61809523D01*
X117613390Y-61809523D02*
X117661009Y-61761904D01*
X117661009Y-61761904D02*
X117756247Y-61714285D01*
X117756247Y-61714285D02*
X117994342Y-61714285D01*
X117994342Y-61714285D02*
X118089580Y-61761904D01*
X118089580Y-61761904D02*
X118137200Y-61809523D01*
X118137200Y-61809523D02*
X118184819Y-61904761D01*
X118184819Y-61904761D02*
X118184819Y-62142856D01*
X118184819Y-62142856D02*
X118137200Y-62238094D01*
X118137200Y-62238094D02*
X118089580Y-62285713D01*
X141906666Y-68194819D02*
X141906666Y-68909104D01*
X141906666Y-68909104D02*
X141859047Y-69051961D01*
X141859047Y-69051961D02*
X141763809Y-69147200D01*
X141763809Y-69147200D02*
X141620952Y-69194819D01*
X141620952Y-69194819D02*
X141525714Y-69194819D01*
X142811428Y-68194819D02*
X142620952Y-68194819D01*
X142620952Y-68194819D02*
X142525714Y-68242438D01*
X142525714Y-68242438D02*
X142478095Y-68290057D01*
X142478095Y-68290057D02*
X142382857Y-68432914D01*
X142382857Y-68432914D02*
X142335238Y-68623390D01*
X142335238Y-68623390D02*
X142335238Y-69004342D01*
X142335238Y-69004342D02*
X142382857Y-69099580D01*
X142382857Y-69099580D02*
X142430476Y-69147200D01*
X142430476Y-69147200D02*
X142525714Y-69194819D01*
X142525714Y-69194819D02*
X142716190Y-69194819D01*
X142716190Y-69194819D02*
X142811428Y-69147200D01*
X142811428Y-69147200D02*
X142859047Y-69099580D01*
X142859047Y-69099580D02*
X142906666Y-69004342D01*
X142906666Y-69004342D02*
X142906666Y-68766247D01*
X142906666Y-68766247D02*
X142859047Y-68671009D01*
X142859047Y-68671009D02*
X142811428Y-68623390D01*
X142811428Y-68623390D02*
X142716190Y-68575771D01*
X142716190Y-68575771D02*
X142525714Y-68575771D01*
X142525714Y-68575771D02*
X142430476Y-68623390D01*
X142430476Y-68623390D02*
X142382857Y-68671009D01*
X142382857Y-68671009D02*
X142335238Y-68766247D01*
X124024819Y-100702857D02*
X123548628Y-101036190D01*
X124024819Y-101274285D02*
X123024819Y-101274285D01*
X123024819Y-101274285D02*
X123024819Y-100893333D01*
X123024819Y-100893333D02*
X123072438Y-100798095D01*
X123072438Y-100798095D02*
X123120057Y-100750476D01*
X123120057Y-100750476D02*
X123215295Y-100702857D01*
X123215295Y-100702857D02*
X123358152Y-100702857D01*
X123358152Y-100702857D02*
X123453390Y-100750476D01*
X123453390Y-100750476D02*
X123501009Y-100798095D01*
X123501009Y-100798095D02*
X123548628Y-100893333D01*
X123548628Y-100893333D02*
X123548628Y-101274285D01*
X124024819Y-99750476D02*
X124024819Y-100321904D01*
X124024819Y-100036190D02*
X123024819Y-100036190D01*
X123024819Y-100036190D02*
X123167676Y-100131428D01*
X123167676Y-100131428D02*
X123262914Y-100226666D01*
X123262914Y-100226666D02*
X123310533Y-100321904D01*
X123024819Y-99417142D02*
X123024819Y-98798095D01*
X123024819Y-98798095D02*
X123405771Y-99131428D01*
X123405771Y-99131428D02*
X123405771Y-98988571D01*
X123405771Y-98988571D02*
X123453390Y-98893333D01*
X123453390Y-98893333D02*
X123501009Y-98845714D01*
X123501009Y-98845714D02*
X123596247Y-98798095D01*
X123596247Y-98798095D02*
X123834342Y-98798095D01*
X123834342Y-98798095D02*
X123929580Y-98845714D01*
X123929580Y-98845714D02*
X123977200Y-98893333D01*
X123977200Y-98893333D02*
X124024819Y-98988571D01*
X124024819Y-98988571D02*
X124024819Y-99274285D01*
X124024819Y-99274285D02*
X123977200Y-99369523D01*
X123977200Y-99369523D02*
X123929580Y-99417142D01*
X156159580Y-43822857D02*
X156207200Y-43870476D01*
X156207200Y-43870476D02*
X156254819Y-44013333D01*
X156254819Y-44013333D02*
X156254819Y-44108571D01*
X156254819Y-44108571D02*
X156207200Y-44251428D01*
X156207200Y-44251428D02*
X156111961Y-44346666D01*
X156111961Y-44346666D02*
X156016723Y-44394285D01*
X156016723Y-44394285D02*
X155826247Y-44441904D01*
X155826247Y-44441904D02*
X155683390Y-44441904D01*
X155683390Y-44441904D02*
X155492914Y-44394285D01*
X155492914Y-44394285D02*
X155397676Y-44346666D01*
X155397676Y-44346666D02*
X155302438Y-44251428D01*
X155302438Y-44251428D02*
X155254819Y-44108571D01*
X155254819Y-44108571D02*
X155254819Y-44013333D01*
X155254819Y-44013333D02*
X155302438Y-43870476D01*
X155302438Y-43870476D02*
X155350057Y-43822857D01*
X156254819Y-42870476D02*
X156254819Y-43441904D01*
X156254819Y-43156190D02*
X155254819Y-43156190D01*
X155254819Y-43156190D02*
X155397676Y-43251428D01*
X155397676Y-43251428D02*
X155492914Y-43346666D01*
X155492914Y-43346666D02*
X155540533Y-43441904D01*
X155254819Y-42251428D02*
X155254819Y-42156190D01*
X155254819Y-42156190D02*
X155302438Y-42060952D01*
X155302438Y-42060952D02*
X155350057Y-42013333D01*
X155350057Y-42013333D02*
X155445295Y-41965714D01*
X155445295Y-41965714D02*
X155635771Y-41918095D01*
X155635771Y-41918095D02*
X155873866Y-41918095D01*
X155873866Y-41918095D02*
X156064342Y-41965714D01*
X156064342Y-41965714D02*
X156159580Y-42013333D01*
X156159580Y-42013333D02*
X156207200Y-42060952D01*
X156207200Y-42060952D02*
X156254819Y-42156190D01*
X156254819Y-42156190D02*
X156254819Y-42251428D01*
X156254819Y-42251428D02*
X156207200Y-42346666D01*
X156207200Y-42346666D02*
X156159580Y-42394285D01*
X156159580Y-42394285D02*
X156064342Y-42441904D01*
X156064342Y-42441904D02*
X155873866Y-42489523D01*
X155873866Y-42489523D02*
X155635771Y-42489523D01*
X155635771Y-42489523D02*
X155445295Y-42441904D01*
X155445295Y-42441904D02*
X155350057Y-42394285D01*
X155350057Y-42394285D02*
X155302438Y-42346666D01*
X155302438Y-42346666D02*
X155254819Y-42251428D01*
X120715833Y-46939580D02*
X120668214Y-46987200D01*
X120668214Y-46987200D02*
X120525357Y-47034819D01*
X120525357Y-47034819D02*
X120430119Y-47034819D01*
X120430119Y-47034819D02*
X120287262Y-46987200D01*
X120287262Y-46987200D02*
X120192024Y-46891961D01*
X120192024Y-46891961D02*
X120144405Y-46796723D01*
X120144405Y-46796723D02*
X120096786Y-46606247D01*
X120096786Y-46606247D02*
X120096786Y-46463390D01*
X120096786Y-46463390D02*
X120144405Y-46272914D01*
X120144405Y-46272914D02*
X120192024Y-46177676D01*
X120192024Y-46177676D02*
X120287262Y-46082438D01*
X120287262Y-46082438D02*
X120430119Y-46034819D01*
X120430119Y-46034819D02*
X120525357Y-46034819D01*
X120525357Y-46034819D02*
X120668214Y-46082438D01*
X120668214Y-46082438D02*
X120715833Y-46130057D01*
X121192024Y-47034819D02*
X121382500Y-47034819D01*
X121382500Y-47034819D02*
X121477738Y-46987200D01*
X121477738Y-46987200D02*
X121525357Y-46939580D01*
X121525357Y-46939580D02*
X121620595Y-46796723D01*
X121620595Y-46796723D02*
X121668214Y-46606247D01*
X121668214Y-46606247D02*
X121668214Y-46225295D01*
X121668214Y-46225295D02*
X121620595Y-46130057D01*
X121620595Y-46130057D02*
X121572976Y-46082438D01*
X121572976Y-46082438D02*
X121477738Y-46034819D01*
X121477738Y-46034819D02*
X121287262Y-46034819D01*
X121287262Y-46034819D02*
X121192024Y-46082438D01*
X121192024Y-46082438D02*
X121144405Y-46130057D01*
X121144405Y-46130057D02*
X121096786Y-46225295D01*
X121096786Y-46225295D02*
X121096786Y-46463390D01*
X121096786Y-46463390D02*
X121144405Y-46558628D01*
X121144405Y-46558628D02*
X121192024Y-46606247D01*
X121192024Y-46606247D02*
X121287262Y-46653866D01*
X121287262Y-46653866D02*
X121477738Y-46653866D01*
X121477738Y-46653866D02*
X121572976Y-46606247D01*
X121572976Y-46606247D02*
X121620595Y-46558628D01*
X121620595Y-46558628D02*
X121668214Y-46463390D01*
X155763333Y-88894819D02*
X155287143Y-88894819D01*
X155287143Y-88894819D02*
X155287143Y-87894819D01*
X156620476Y-88894819D02*
X156049048Y-88894819D01*
X156334762Y-88894819D02*
X156334762Y-87894819D01*
X156334762Y-87894819D02*
X156239524Y-88037676D01*
X156239524Y-88037676D02*
X156144286Y-88132914D01*
X156144286Y-88132914D02*
X156049048Y-88180533D01*
X150796666Y-101054819D02*
X150796666Y-101769104D01*
X150796666Y-101769104D02*
X150749047Y-101911961D01*
X150749047Y-101911961D02*
X150653809Y-102007200D01*
X150653809Y-102007200D02*
X150510952Y-102054819D01*
X150510952Y-102054819D02*
X150415714Y-102054819D01*
X151177619Y-101054819D02*
X151796666Y-101054819D01*
X151796666Y-101054819D02*
X151463333Y-101435771D01*
X151463333Y-101435771D02*
X151606190Y-101435771D01*
X151606190Y-101435771D02*
X151701428Y-101483390D01*
X151701428Y-101483390D02*
X151749047Y-101531009D01*
X151749047Y-101531009D02*
X151796666Y-101626247D01*
X151796666Y-101626247D02*
X151796666Y-101864342D01*
X151796666Y-101864342D02*
X151749047Y-101959580D01*
X151749047Y-101959580D02*
X151701428Y-102007200D01*
X151701428Y-102007200D02*
X151606190Y-102054819D01*
X151606190Y-102054819D02*
X151320476Y-102054819D01*
X151320476Y-102054819D02*
X151225238Y-102007200D01*
X151225238Y-102007200D02*
X151177619Y-101959580D01*
X156940057Y-72140238D02*
X156892438Y-72235476D01*
X156892438Y-72235476D02*
X156797200Y-72330714D01*
X156797200Y-72330714D02*
X156654342Y-72473571D01*
X156654342Y-72473571D02*
X156606723Y-72568809D01*
X156606723Y-72568809D02*
X156606723Y-72664047D01*
X156844819Y-72616428D02*
X156797200Y-72711666D01*
X156797200Y-72711666D02*
X156701961Y-72806904D01*
X156701961Y-72806904D02*
X156511485Y-72854523D01*
X156511485Y-72854523D02*
X156178152Y-72854523D01*
X156178152Y-72854523D02*
X155987676Y-72806904D01*
X155987676Y-72806904D02*
X155892438Y-72711666D01*
X155892438Y-72711666D02*
X155844819Y-72616428D01*
X155844819Y-72616428D02*
X155844819Y-72425952D01*
X155844819Y-72425952D02*
X155892438Y-72330714D01*
X155892438Y-72330714D02*
X155987676Y-72235476D01*
X155987676Y-72235476D02*
X156178152Y-72187857D01*
X156178152Y-72187857D02*
X156511485Y-72187857D01*
X156511485Y-72187857D02*
X156701961Y-72235476D01*
X156701961Y-72235476D02*
X156797200Y-72330714D01*
X156797200Y-72330714D02*
X156844819Y-72425952D01*
X156844819Y-72425952D02*
X156844819Y-72616428D01*
X155940057Y-71806904D02*
X155892438Y-71759285D01*
X155892438Y-71759285D02*
X155844819Y-71664047D01*
X155844819Y-71664047D02*
X155844819Y-71425952D01*
X155844819Y-71425952D02*
X155892438Y-71330714D01*
X155892438Y-71330714D02*
X155940057Y-71283095D01*
X155940057Y-71283095D02*
X156035295Y-71235476D01*
X156035295Y-71235476D02*
X156130533Y-71235476D01*
X156130533Y-71235476D02*
X156273390Y-71283095D01*
X156273390Y-71283095D02*
X156844819Y-71854523D01*
X156844819Y-71854523D02*
X156844819Y-71235476D01*
X151204819Y-67194166D02*
X150728628Y-67527499D01*
X151204819Y-67765594D02*
X150204819Y-67765594D01*
X150204819Y-67765594D02*
X150204819Y-67384642D01*
X150204819Y-67384642D02*
X150252438Y-67289404D01*
X150252438Y-67289404D02*
X150300057Y-67241785D01*
X150300057Y-67241785D02*
X150395295Y-67194166D01*
X150395295Y-67194166D02*
X150538152Y-67194166D01*
X150538152Y-67194166D02*
X150633390Y-67241785D01*
X150633390Y-67241785D02*
X150681009Y-67289404D01*
X150681009Y-67289404D02*
X150728628Y-67384642D01*
X150728628Y-67384642D02*
X150728628Y-67765594D01*
X150204819Y-66337023D02*
X150204819Y-66527499D01*
X150204819Y-66527499D02*
X150252438Y-66622737D01*
X150252438Y-66622737D02*
X150300057Y-66670356D01*
X150300057Y-66670356D02*
X150442914Y-66765594D01*
X150442914Y-66765594D02*
X150633390Y-66813213D01*
X150633390Y-66813213D02*
X151014342Y-66813213D01*
X151014342Y-66813213D02*
X151109580Y-66765594D01*
X151109580Y-66765594D02*
X151157200Y-66717975D01*
X151157200Y-66717975D02*
X151204819Y-66622737D01*
X151204819Y-66622737D02*
X151204819Y-66432261D01*
X151204819Y-66432261D02*
X151157200Y-66337023D01*
X151157200Y-66337023D02*
X151109580Y-66289404D01*
X151109580Y-66289404D02*
X151014342Y-66241785D01*
X151014342Y-66241785D02*
X150776247Y-66241785D01*
X150776247Y-66241785D02*
X150681009Y-66289404D01*
X150681009Y-66289404D02*
X150633390Y-66337023D01*
X150633390Y-66337023D02*
X150585771Y-66432261D01*
X150585771Y-66432261D02*
X150585771Y-66622737D01*
X150585771Y-66622737D02*
X150633390Y-66717975D01*
X150633390Y-66717975D02*
X150681009Y-66765594D01*
X150681009Y-66765594D02*
X150776247Y-66813213D01*
X110949819Y-92201904D02*
X111759342Y-92201904D01*
X111759342Y-92201904D02*
X111854580Y-92154285D01*
X111854580Y-92154285D02*
X111902200Y-92106666D01*
X111902200Y-92106666D02*
X111949819Y-92011428D01*
X111949819Y-92011428D02*
X111949819Y-91820952D01*
X111949819Y-91820952D02*
X111902200Y-91725714D01*
X111902200Y-91725714D02*
X111854580Y-91678095D01*
X111854580Y-91678095D02*
X111759342Y-91630476D01*
X111759342Y-91630476D02*
X110949819Y-91630476D01*
X110949819Y-90678095D02*
X110949819Y-91154285D01*
X110949819Y-91154285D02*
X111426009Y-91201904D01*
X111426009Y-91201904D02*
X111378390Y-91154285D01*
X111378390Y-91154285D02*
X111330771Y-91059047D01*
X111330771Y-91059047D02*
X111330771Y-90820952D01*
X111330771Y-90820952D02*
X111378390Y-90725714D01*
X111378390Y-90725714D02*
X111426009Y-90678095D01*
X111426009Y-90678095D02*
X111521247Y-90630476D01*
X111521247Y-90630476D02*
X111759342Y-90630476D01*
X111759342Y-90630476D02*
X111854580Y-90678095D01*
X111854580Y-90678095D02*
X111902200Y-90725714D01*
X111902200Y-90725714D02*
X111949819Y-90820952D01*
X111949819Y-90820952D02*
X111949819Y-91059047D01*
X111949819Y-91059047D02*
X111902200Y-91154285D01*
X111902200Y-91154285D02*
X111854580Y-91201904D01*
X125583333Y-60109580D02*
X125535714Y-60157200D01*
X125535714Y-60157200D02*
X125392857Y-60204819D01*
X125392857Y-60204819D02*
X125297619Y-60204819D01*
X125297619Y-60204819D02*
X125154762Y-60157200D01*
X125154762Y-60157200D02*
X125059524Y-60061961D01*
X125059524Y-60061961D02*
X125011905Y-59966723D01*
X125011905Y-59966723D02*
X124964286Y-59776247D01*
X124964286Y-59776247D02*
X124964286Y-59633390D01*
X124964286Y-59633390D02*
X125011905Y-59442914D01*
X125011905Y-59442914D02*
X125059524Y-59347676D01*
X125059524Y-59347676D02*
X125154762Y-59252438D01*
X125154762Y-59252438D02*
X125297619Y-59204819D01*
X125297619Y-59204819D02*
X125392857Y-59204819D01*
X125392857Y-59204819D02*
X125535714Y-59252438D01*
X125535714Y-59252438D02*
X125583333Y-59300057D01*
X126440476Y-59538152D02*
X126440476Y-60204819D01*
X126202381Y-59157200D02*
X125964286Y-59871485D01*
X125964286Y-59871485D02*
X126583333Y-59871485D01*
X112696666Y-50254819D02*
X112696666Y-50969104D01*
X112696666Y-50969104D02*
X112649047Y-51111961D01*
X112649047Y-51111961D02*
X112553809Y-51207200D01*
X112553809Y-51207200D02*
X112410952Y-51254819D01*
X112410952Y-51254819D02*
X112315714Y-51254819D01*
X113649047Y-50254819D02*
X113172857Y-50254819D01*
X113172857Y-50254819D02*
X113125238Y-50731009D01*
X113125238Y-50731009D02*
X113172857Y-50683390D01*
X113172857Y-50683390D02*
X113268095Y-50635771D01*
X113268095Y-50635771D02*
X113506190Y-50635771D01*
X113506190Y-50635771D02*
X113601428Y-50683390D01*
X113601428Y-50683390D02*
X113649047Y-50731009D01*
X113649047Y-50731009D02*
X113696666Y-50826247D01*
X113696666Y-50826247D02*
X113696666Y-51064342D01*
X113696666Y-51064342D02*
X113649047Y-51159580D01*
X113649047Y-51159580D02*
X113601428Y-51207200D01*
X113601428Y-51207200D02*
X113506190Y-51254819D01*
X113506190Y-51254819D02*
X113268095Y-51254819D01*
X113268095Y-51254819D02*
X113172857Y-51207200D01*
X113172857Y-51207200D02*
X113125238Y-51159580D01*
X118184819Y-58133094D02*
X117184819Y-58133094D01*
X117184819Y-58133094D02*
X117184819Y-57894999D01*
X117184819Y-57894999D02*
X117232438Y-57752142D01*
X117232438Y-57752142D02*
X117327676Y-57656904D01*
X117327676Y-57656904D02*
X117422914Y-57609285D01*
X117422914Y-57609285D02*
X117613390Y-57561666D01*
X117613390Y-57561666D02*
X117756247Y-57561666D01*
X117756247Y-57561666D02*
X117946723Y-57609285D01*
X117946723Y-57609285D02*
X118041961Y-57656904D01*
X118041961Y-57656904D02*
X118137200Y-57752142D01*
X118137200Y-57752142D02*
X118184819Y-57894999D01*
X118184819Y-57894999D02*
X118184819Y-58133094D01*
X117280057Y-57180713D02*
X117232438Y-57133094D01*
X117232438Y-57133094D02*
X117184819Y-57037856D01*
X117184819Y-57037856D02*
X117184819Y-56799761D01*
X117184819Y-56799761D02*
X117232438Y-56704523D01*
X117232438Y-56704523D02*
X117280057Y-56656904D01*
X117280057Y-56656904D02*
X117375295Y-56609285D01*
X117375295Y-56609285D02*
X117470533Y-56609285D01*
X117470533Y-56609285D02*
X117613390Y-56656904D01*
X117613390Y-56656904D02*
X118184819Y-57228332D01*
X118184819Y-57228332D02*
X118184819Y-56609285D01*
X148179642Y-101099580D02*
X148132023Y-101147200D01*
X148132023Y-101147200D02*
X147989166Y-101194819D01*
X147989166Y-101194819D02*
X147893928Y-101194819D01*
X147893928Y-101194819D02*
X147751071Y-101147200D01*
X147751071Y-101147200D02*
X147655833Y-101051961D01*
X147655833Y-101051961D02*
X147608214Y-100956723D01*
X147608214Y-100956723D02*
X147560595Y-100766247D01*
X147560595Y-100766247D02*
X147560595Y-100623390D01*
X147560595Y-100623390D02*
X147608214Y-100432914D01*
X147608214Y-100432914D02*
X147655833Y-100337676D01*
X147655833Y-100337676D02*
X147751071Y-100242438D01*
X147751071Y-100242438D02*
X147893928Y-100194819D01*
X147893928Y-100194819D02*
X147989166Y-100194819D01*
X147989166Y-100194819D02*
X148132023Y-100242438D01*
X148132023Y-100242438D02*
X148179642Y-100290057D01*
X149132023Y-101194819D02*
X148560595Y-101194819D01*
X148846309Y-101194819D02*
X148846309Y-100194819D01*
X148846309Y-100194819D02*
X148751071Y-100337676D01*
X148751071Y-100337676D02*
X148655833Y-100432914D01*
X148655833Y-100432914D02*
X148560595Y-100480533D01*
X150036785Y-100194819D02*
X149560595Y-100194819D01*
X149560595Y-100194819D02*
X149512976Y-100671009D01*
X149512976Y-100671009D02*
X149560595Y-100623390D01*
X149560595Y-100623390D02*
X149655833Y-100575771D01*
X149655833Y-100575771D02*
X149893928Y-100575771D01*
X149893928Y-100575771D02*
X149989166Y-100623390D01*
X149989166Y-100623390D02*
X150036785Y-100671009D01*
X150036785Y-100671009D02*
X150084404Y-100766247D01*
X150084404Y-100766247D02*
X150084404Y-101004342D01*
X150084404Y-101004342D02*
X150036785Y-101099580D01*
X150036785Y-101099580D02*
X149989166Y-101147200D01*
X149989166Y-101147200D02*
X149893928Y-101194819D01*
X149893928Y-101194819D02*
X149655833Y-101194819D01*
X149655833Y-101194819D02*
X149560595Y-101147200D01*
X149560595Y-101147200D02*
X149512976Y-101099580D01*
X135243095Y-97544819D02*
X135243095Y-98354342D01*
X135243095Y-98354342D02*
X135290714Y-98449580D01*
X135290714Y-98449580D02*
X135338333Y-98497200D01*
X135338333Y-98497200D02*
X135433571Y-98544819D01*
X135433571Y-98544819D02*
X135624047Y-98544819D01*
X135624047Y-98544819D02*
X135719285Y-98497200D01*
X135719285Y-98497200D02*
X135766904Y-98449580D01*
X135766904Y-98449580D02*
X135814523Y-98354342D01*
X135814523Y-98354342D02*
X135814523Y-97544819D01*
X136814523Y-98544819D02*
X136243095Y-98544819D01*
X136528809Y-98544819D02*
X136528809Y-97544819D01*
X136528809Y-97544819D02*
X136433571Y-97687676D01*
X136433571Y-97687676D02*
X136338333Y-97782914D01*
X136338333Y-97782914D02*
X136243095Y-97830533D01*
X151487557Y-62645238D02*
X151439938Y-62740476D01*
X151439938Y-62740476D02*
X151344700Y-62835714D01*
X151344700Y-62835714D02*
X151201842Y-62978571D01*
X151201842Y-62978571D02*
X151154223Y-63073809D01*
X151154223Y-63073809D02*
X151154223Y-63169047D01*
X151392319Y-63121428D02*
X151344700Y-63216666D01*
X151344700Y-63216666D02*
X151249461Y-63311904D01*
X151249461Y-63311904D02*
X151058985Y-63359523D01*
X151058985Y-63359523D02*
X150725652Y-63359523D01*
X150725652Y-63359523D02*
X150535176Y-63311904D01*
X150535176Y-63311904D02*
X150439938Y-63216666D01*
X150439938Y-63216666D02*
X150392319Y-63121428D01*
X150392319Y-63121428D02*
X150392319Y-62930952D01*
X150392319Y-62930952D02*
X150439938Y-62835714D01*
X150439938Y-62835714D02*
X150535176Y-62740476D01*
X150535176Y-62740476D02*
X150725652Y-62692857D01*
X150725652Y-62692857D02*
X151058985Y-62692857D01*
X151058985Y-62692857D02*
X151249461Y-62740476D01*
X151249461Y-62740476D02*
X151344700Y-62835714D01*
X151344700Y-62835714D02*
X151392319Y-62930952D01*
X151392319Y-62930952D02*
X151392319Y-63121428D01*
X151392319Y-61740476D02*
X151392319Y-62311904D01*
X151392319Y-62026190D02*
X150392319Y-62026190D01*
X150392319Y-62026190D02*
X150535176Y-62121428D01*
X150535176Y-62121428D02*
X150630414Y-62216666D01*
X150630414Y-62216666D02*
X150678033Y-62311904D01*
X159584819Y-84986666D02*
X159108628Y-85319999D01*
X159584819Y-85558094D02*
X158584819Y-85558094D01*
X158584819Y-85558094D02*
X158584819Y-85177142D01*
X158584819Y-85177142D02*
X158632438Y-85081904D01*
X158632438Y-85081904D02*
X158680057Y-85034285D01*
X158680057Y-85034285D02*
X158775295Y-84986666D01*
X158775295Y-84986666D02*
X158918152Y-84986666D01*
X158918152Y-84986666D02*
X159013390Y-85034285D01*
X159013390Y-85034285D02*
X159061009Y-85081904D01*
X159061009Y-85081904D02*
X159108628Y-85177142D01*
X159108628Y-85177142D02*
X159108628Y-85558094D01*
X159584819Y-84034285D02*
X159584819Y-84605713D01*
X159584819Y-84319999D02*
X158584819Y-84319999D01*
X158584819Y-84319999D02*
X158727676Y-84415237D01*
X158727676Y-84415237D02*
X158822914Y-84510475D01*
X158822914Y-84510475D02*
X158870533Y-84605713D01*
X122534819Y-57563220D02*
X123344342Y-57563220D01*
X123344342Y-57563220D02*
X123439580Y-57515601D01*
X123439580Y-57515601D02*
X123487200Y-57467982D01*
X123487200Y-57467982D02*
X123534819Y-57372744D01*
X123534819Y-57372744D02*
X123534819Y-57182268D01*
X123534819Y-57182268D02*
X123487200Y-57087030D01*
X123487200Y-57087030D02*
X123439580Y-57039411D01*
X123439580Y-57039411D02*
X123344342Y-56991792D01*
X123344342Y-56991792D02*
X122534819Y-56991792D01*
X122534819Y-56610839D02*
X122534819Y-55991792D01*
X122534819Y-55991792D02*
X122915771Y-56325125D01*
X122915771Y-56325125D02*
X122915771Y-56182268D01*
X122915771Y-56182268D02*
X122963390Y-56087030D01*
X122963390Y-56087030D02*
X123011009Y-56039411D01*
X123011009Y-56039411D02*
X123106247Y-55991792D01*
X123106247Y-55991792D02*
X123344342Y-55991792D01*
X123344342Y-55991792D02*
X123439580Y-56039411D01*
X123439580Y-56039411D02*
X123487200Y-56087030D01*
X123487200Y-56087030D02*
X123534819Y-56182268D01*
X123534819Y-56182268D02*
X123534819Y-56467982D01*
X123534819Y-56467982D02*
X123487200Y-56563220D01*
X123487200Y-56563220D02*
X123439580Y-56610839D01*
X113864819Y-100702857D02*
X113388628Y-101036190D01*
X113864819Y-101274285D02*
X112864819Y-101274285D01*
X112864819Y-101274285D02*
X112864819Y-100893333D01*
X112864819Y-100893333D02*
X112912438Y-100798095D01*
X112912438Y-100798095D02*
X112960057Y-100750476D01*
X112960057Y-100750476D02*
X113055295Y-100702857D01*
X113055295Y-100702857D02*
X113198152Y-100702857D01*
X113198152Y-100702857D02*
X113293390Y-100750476D01*
X113293390Y-100750476D02*
X113341009Y-100798095D01*
X113341009Y-100798095D02*
X113388628Y-100893333D01*
X113388628Y-100893333D02*
X113388628Y-101274285D01*
X113864819Y-99750476D02*
X113864819Y-100321904D01*
X113864819Y-100036190D02*
X112864819Y-100036190D01*
X112864819Y-100036190D02*
X113007676Y-100131428D01*
X113007676Y-100131428D02*
X113102914Y-100226666D01*
X113102914Y-100226666D02*
X113150533Y-100321904D01*
X113864819Y-98798095D02*
X113864819Y-99369523D01*
X113864819Y-99083809D02*
X112864819Y-99083809D01*
X112864819Y-99083809D02*
X113007676Y-99179047D01*
X113007676Y-99179047D02*
X113102914Y-99274285D01*
X113102914Y-99274285D02*
X113150533Y-99369523D01*
X129104819Y-100702857D02*
X128628628Y-101036190D01*
X129104819Y-101274285D02*
X128104819Y-101274285D01*
X128104819Y-101274285D02*
X128104819Y-100893333D01*
X128104819Y-100893333D02*
X128152438Y-100798095D01*
X128152438Y-100798095D02*
X128200057Y-100750476D01*
X128200057Y-100750476D02*
X128295295Y-100702857D01*
X128295295Y-100702857D02*
X128438152Y-100702857D01*
X128438152Y-100702857D02*
X128533390Y-100750476D01*
X128533390Y-100750476D02*
X128581009Y-100798095D01*
X128581009Y-100798095D02*
X128628628Y-100893333D01*
X128628628Y-100893333D02*
X128628628Y-101274285D01*
X129104819Y-99750476D02*
X129104819Y-100321904D01*
X129104819Y-100036190D02*
X128104819Y-100036190D01*
X128104819Y-100036190D02*
X128247676Y-100131428D01*
X128247676Y-100131428D02*
X128342914Y-100226666D01*
X128342914Y-100226666D02*
X128390533Y-100321904D01*
X128438152Y-98893333D02*
X129104819Y-98893333D01*
X128057200Y-99131428D02*
X128771485Y-99369523D01*
X128771485Y-99369523D02*
X128771485Y-98750476D01*
X118059580Y-41844166D02*
X118107200Y-41891785D01*
X118107200Y-41891785D02*
X118154819Y-42034642D01*
X118154819Y-42034642D02*
X118154819Y-42129880D01*
X118154819Y-42129880D02*
X118107200Y-42272737D01*
X118107200Y-42272737D02*
X118011961Y-42367975D01*
X118011961Y-42367975D02*
X117916723Y-42415594D01*
X117916723Y-42415594D02*
X117726247Y-42463213D01*
X117726247Y-42463213D02*
X117583390Y-42463213D01*
X117583390Y-42463213D02*
X117392914Y-42415594D01*
X117392914Y-42415594D02*
X117297676Y-42367975D01*
X117297676Y-42367975D02*
X117202438Y-42272737D01*
X117202438Y-42272737D02*
X117154819Y-42129880D01*
X117154819Y-42129880D02*
X117154819Y-42034642D01*
X117154819Y-42034642D02*
X117202438Y-41891785D01*
X117202438Y-41891785D02*
X117250057Y-41844166D01*
X117583390Y-41272737D02*
X117535771Y-41367975D01*
X117535771Y-41367975D02*
X117488152Y-41415594D01*
X117488152Y-41415594D02*
X117392914Y-41463213D01*
X117392914Y-41463213D02*
X117345295Y-41463213D01*
X117345295Y-41463213D02*
X117250057Y-41415594D01*
X117250057Y-41415594D02*
X117202438Y-41367975D01*
X117202438Y-41367975D02*
X117154819Y-41272737D01*
X117154819Y-41272737D02*
X117154819Y-41082261D01*
X117154819Y-41082261D02*
X117202438Y-40987023D01*
X117202438Y-40987023D02*
X117250057Y-40939404D01*
X117250057Y-40939404D02*
X117345295Y-40891785D01*
X117345295Y-40891785D02*
X117392914Y-40891785D01*
X117392914Y-40891785D02*
X117488152Y-40939404D01*
X117488152Y-40939404D02*
X117535771Y-40987023D01*
X117535771Y-40987023D02*
X117583390Y-41082261D01*
X117583390Y-41082261D02*
X117583390Y-41272737D01*
X117583390Y-41272737D02*
X117631009Y-41367975D01*
X117631009Y-41367975D02*
X117678628Y-41415594D01*
X117678628Y-41415594D02*
X117773866Y-41463213D01*
X117773866Y-41463213D02*
X117964342Y-41463213D01*
X117964342Y-41463213D02*
X118059580Y-41415594D01*
X118059580Y-41415594D02*
X118107200Y-41367975D01*
X118107200Y-41367975D02*
X118154819Y-41272737D01*
X118154819Y-41272737D02*
X118154819Y-41082261D01*
X118154819Y-41082261D02*
X118107200Y-40987023D01*
X118107200Y-40987023D02*
X118059580Y-40939404D01*
X118059580Y-40939404D02*
X117964342Y-40891785D01*
X117964342Y-40891785D02*
X117773866Y-40891785D01*
X117773866Y-40891785D02*
X117678628Y-40939404D01*
X117678628Y-40939404D02*
X117631009Y-40987023D01*
X117631009Y-40987023D02*
X117583390Y-41082261D01*
X118944819Y-100702857D02*
X118468628Y-101036190D01*
X118944819Y-101274285D02*
X117944819Y-101274285D01*
X117944819Y-101274285D02*
X117944819Y-100893333D01*
X117944819Y-100893333D02*
X117992438Y-100798095D01*
X117992438Y-100798095D02*
X118040057Y-100750476D01*
X118040057Y-100750476D02*
X118135295Y-100702857D01*
X118135295Y-100702857D02*
X118278152Y-100702857D01*
X118278152Y-100702857D02*
X118373390Y-100750476D01*
X118373390Y-100750476D02*
X118421009Y-100798095D01*
X118421009Y-100798095D02*
X118468628Y-100893333D01*
X118468628Y-100893333D02*
X118468628Y-101274285D01*
X118944819Y-99750476D02*
X118944819Y-100321904D01*
X118944819Y-100036190D02*
X117944819Y-100036190D01*
X117944819Y-100036190D02*
X118087676Y-100131428D01*
X118087676Y-100131428D02*
X118182914Y-100226666D01*
X118182914Y-100226666D02*
X118230533Y-100321904D01*
X118040057Y-99369523D02*
X117992438Y-99321904D01*
X117992438Y-99321904D02*
X117944819Y-99226666D01*
X117944819Y-99226666D02*
X117944819Y-98988571D01*
X117944819Y-98988571D02*
X117992438Y-98893333D01*
X117992438Y-98893333D02*
X118040057Y-98845714D01*
X118040057Y-98845714D02*
X118135295Y-98798095D01*
X118135295Y-98798095D02*
X118230533Y-98798095D01*
X118230533Y-98798095D02*
X118373390Y-98845714D01*
X118373390Y-98845714D02*
X118944819Y-99417142D01*
X118944819Y-99417142D02*
X118944819Y-98798095D01*
X136564761Y-78074819D02*
X136231428Y-77598628D01*
X135993333Y-78074819D02*
X135993333Y-77074819D01*
X135993333Y-77074819D02*
X136374285Y-77074819D01*
X136374285Y-77074819D02*
X136469523Y-77122438D01*
X136469523Y-77122438D02*
X136517142Y-77170057D01*
X136517142Y-77170057D02*
X136564761Y-77265295D01*
X136564761Y-77265295D02*
X136564761Y-77408152D01*
X136564761Y-77408152D02*
X136517142Y-77503390D01*
X136517142Y-77503390D02*
X136469523Y-77551009D01*
X136469523Y-77551009D02*
X136374285Y-77598628D01*
X136374285Y-77598628D02*
X135993333Y-77598628D01*
X136850476Y-77074819D02*
X137183809Y-78074819D01*
X137183809Y-78074819D02*
X137517142Y-77074819D01*
X138374285Y-78074819D02*
X137802857Y-78074819D01*
X138088571Y-78074819D02*
X138088571Y-77074819D01*
X138088571Y-77074819D02*
X137993333Y-77217676D01*
X137993333Y-77217676D02*
X137898095Y-77312914D01*
X137898095Y-77312914D02*
X137802857Y-77360533D01*
X133203333Y-60109580D02*
X133155714Y-60157200D01*
X133155714Y-60157200D02*
X133012857Y-60204819D01*
X133012857Y-60204819D02*
X132917619Y-60204819D01*
X132917619Y-60204819D02*
X132774762Y-60157200D01*
X132774762Y-60157200D02*
X132679524Y-60061961D01*
X132679524Y-60061961D02*
X132631905Y-59966723D01*
X132631905Y-59966723D02*
X132584286Y-59776247D01*
X132584286Y-59776247D02*
X132584286Y-59633390D01*
X132584286Y-59633390D02*
X132631905Y-59442914D01*
X132631905Y-59442914D02*
X132679524Y-59347676D01*
X132679524Y-59347676D02*
X132774762Y-59252438D01*
X132774762Y-59252438D02*
X132917619Y-59204819D01*
X132917619Y-59204819D02*
X133012857Y-59204819D01*
X133012857Y-59204819D02*
X133155714Y-59252438D01*
X133155714Y-59252438D02*
X133203333Y-59300057D01*
X133536667Y-59204819D02*
X134155714Y-59204819D01*
X134155714Y-59204819D02*
X133822381Y-59585771D01*
X133822381Y-59585771D02*
X133965238Y-59585771D01*
X133965238Y-59585771D02*
X134060476Y-59633390D01*
X134060476Y-59633390D02*
X134108095Y-59681009D01*
X134108095Y-59681009D02*
X134155714Y-59776247D01*
X134155714Y-59776247D02*
X134155714Y-60014342D01*
X134155714Y-60014342D02*
X134108095Y-60109580D01*
X134108095Y-60109580D02*
X134060476Y-60157200D01*
X134060476Y-60157200D02*
X133965238Y-60204819D01*
X133965238Y-60204819D02*
X133679524Y-60204819D01*
X133679524Y-60204819D02*
X133584286Y-60157200D01*
X133584286Y-60157200D02*
X133536667Y-60109580D01*
X153744819Y-84986666D02*
X153268628Y-85319999D01*
X153744819Y-85558094D02*
X152744819Y-85558094D01*
X152744819Y-85558094D02*
X152744819Y-85177142D01*
X152744819Y-85177142D02*
X152792438Y-85081904D01*
X152792438Y-85081904D02*
X152840057Y-85034285D01*
X152840057Y-85034285D02*
X152935295Y-84986666D01*
X152935295Y-84986666D02*
X153078152Y-84986666D01*
X153078152Y-84986666D02*
X153173390Y-85034285D01*
X153173390Y-85034285D02*
X153221009Y-85081904D01*
X153221009Y-85081904D02*
X153268628Y-85177142D01*
X153268628Y-85177142D02*
X153268628Y-85558094D01*
X153078152Y-84129523D02*
X153744819Y-84129523D01*
X152697200Y-84367618D02*
X153411485Y-84605713D01*
X153411485Y-84605713D02*
X153411485Y-83986666D01*
X107899580Y-91606666D02*
X107947200Y-91654285D01*
X107947200Y-91654285D02*
X107994819Y-91797142D01*
X107994819Y-91797142D02*
X107994819Y-91892380D01*
X107994819Y-91892380D02*
X107947200Y-92035237D01*
X107947200Y-92035237D02*
X107851961Y-92130475D01*
X107851961Y-92130475D02*
X107756723Y-92178094D01*
X107756723Y-92178094D02*
X107566247Y-92225713D01*
X107566247Y-92225713D02*
X107423390Y-92225713D01*
X107423390Y-92225713D02*
X107232914Y-92178094D01*
X107232914Y-92178094D02*
X107137676Y-92130475D01*
X107137676Y-92130475D02*
X107042438Y-92035237D01*
X107042438Y-92035237D02*
X106994819Y-91892380D01*
X106994819Y-91892380D02*
X106994819Y-91797142D01*
X106994819Y-91797142D02*
X107042438Y-91654285D01*
X107042438Y-91654285D02*
X107090057Y-91606666D01*
X106994819Y-90749523D02*
X106994819Y-90939999D01*
X106994819Y-90939999D02*
X107042438Y-91035237D01*
X107042438Y-91035237D02*
X107090057Y-91082856D01*
X107090057Y-91082856D02*
X107232914Y-91178094D01*
X107232914Y-91178094D02*
X107423390Y-91225713D01*
X107423390Y-91225713D02*
X107804342Y-91225713D01*
X107804342Y-91225713D02*
X107899580Y-91178094D01*
X107899580Y-91178094D02*
X107947200Y-91130475D01*
X107947200Y-91130475D02*
X107994819Y-91035237D01*
X107994819Y-91035237D02*
X107994819Y-90844761D01*
X107994819Y-90844761D02*
X107947200Y-90749523D01*
X107947200Y-90749523D02*
X107899580Y-90701904D01*
X107899580Y-90701904D02*
X107804342Y-90654285D01*
X107804342Y-90654285D02*
X107566247Y-90654285D01*
X107566247Y-90654285D02*
X107471009Y-90701904D01*
X107471009Y-90701904D02*
X107423390Y-90749523D01*
X107423390Y-90749523D02*
X107375771Y-90844761D01*
X107375771Y-90844761D02*
X107375771Y-91035237D01*
X107375771Y-91035237D02*
X107423390Y-91130475D01*
X107423390Y-91130475D02*
X107471009Y-91178094D01*
X107471009Y-91178094D02*
X107566247Y-91225713D01*
X115673333Y-47064819D02*
X115340000Y-46588628D01*
X115101905Y-47064819D02*
X115101905Y-46064819D01*
X115101905Y-46064819D02*
X115482857Y-46064819D01*
X115482857Y-46064819D02*
X115578095Y-46112438D01*
X115578095Y-46112438D02*
X115625714Y-46160057D01*
X115625714Y-46160057D02*
X115673333Y-46255295D01*
X115673333Y-46255295D02*
X115673333Y-46398152D01*
X115673333Y-46398152D02*
X115625714Y-46493390D01*
X115625714Y-46493390D02*
X115578095Y-46541009D01*
X115578095Y-46541009D02*
X115482857Y-46588628D01*
X115482857Y-46588628D02*
X115101905Y-46588628D01*
X116149524Y-47064819D02*
X116340000Y-47064819D01*
X116340000Y-47064819D02*
X116435238Y-47017200D01*
X116435238Y-47017200D02*
X116482857Y-46969580D01*
X116482857Y-46969580D02*
X116578095Y-46826723D01*
X116578095Y-46826723D02*
X116625714Y-46636247D01*
X116625714Y-46636247D02*
X116625714Y-46255295D01*
X116625714Y-46255295D02*
X116578095Y-46160057D01*
X116578095Y-46160057D02*
X116530476Y-46112438D01*
X116530476Y-46112438D02*
X116435238Y-46064819D01*
X116435238Y-46064819D02*
X116244762Y-46064819D01*
X116244762Y-46064819D02*
X116149524Y-46112438D01*
X116149524Y-46112438D02*
X116101905Y-46160057D01*
X116101905Y-46160057D02*
X116054286Y-46255295D01*
X116054286Y-46255295D02*
X116054286Y-46493390D01*
X116054286Y-46493390D02*
X116101905Y-46588628D01*
X116101905Y-46588628D02*
X116149524Y-46636247D01*
X116149524Y-46636247D02*
X116244762Y-46683866D01*
X116244762Y-46683866D02*
X116435238Y-46683866D01*
X116435238Y-46683866D02*
X116530476Y-46636247D01*
X116530476Y-46636247D02*
X116578095Y-46588628D01*
X116578095Y-46588628D02*
X116625714Y-46493390D01*
X134286666Y-101054819D02*
X134286666Y-101769104D01*
X134286666Y-101769104D02*
X134239047Y-101911961D01*
X134239047Y-101911961D02*
X134143809Y-102007200D01*
X134143809Y-102007200D02*
X134000952Y-102054819D01*
X134000952Y-102054819D02*
X133905714Y-102054819D01*
X134715238Y-101150057D02*
X134762857Y-101102438D01*
X134762857Y-101102438D02*
X134858095Y-101054819D01*
X134858095Y-101054819D02*
X135096190Y-101054819D01*
X135096190Y-101054819D02*
X135191428Y-101102438D01*
X135191428Y-101102438D02*
X135239047Y-101150057D01*
X135239047Y-101150057D02*
X135286666Y-101245295D01*
X135286666Y-101245295D02*
X135286666Y-101340533D01*
X135286666Y-101340533D02*
X135239047Y-101483390D01*
X135239047Y-101483390D02*
X134667619Y-102054819D01*
X134667619Y-102054819D02*
X135286666Y-102054819D01*
%TO.C,R7*%
D16*
X154205000Y-67254564D02*
X154205000Y-66800436D01*
X155675000Y-67254564D02*
X155675000Y-66800436D01*
%TO.C,C5*%
X109180000Y-41850000D02*
X114340000Y-41850000D01*
X109180000Y-41890000D02*
X114340000Y-41890000D01*
X109181000Y-41810000D02*
X114339000Y-41810000D01*
X109183000Y-41770000D02*
X114337000Y-41770000D01*
X109185000Y-41730000D02*
X114335000Y-41730000D01*
X109188000Y-41690000D02*
X114332000Y-41690000D01*
X109191000Y-41650000D02*
X110720000Y-41650000D01*
X109195000Y-41610000D02*
X110720000Y-41610000D01*
X109200000Y-41570000D02*
X110720000Y-41570000D01*
X109205000Y-41530000D02*
X110720000Y-41530000D01*
X109211000Y-41490000D02*
X110720000Y-41490000D01*
X109217000Y-41450000D02*
X110720000Y-41450000D01*
X109224000Y-41410000D02*
X110720000Y-41410000D01*
X109232000Y-41370000D02*
X110720000Y-41370000D01*
X109241000Y-41330000D02*
X110720000Y-41330000D01*
X109250000Y-41290000D02*
X110720000Y-41290000D01*
X109259000Y-41250000D02*
X110720000Y-41250000D01*
X109270000Y-41210000D02*
X110720000Y-41210000D01*
X109281000Y-41170000D02*
X110720000Y-41170000D01*
X109293000Y-41130000D02*
X110720000Y-41130000D01*
X109305000Y-41090000D02*
X110720000Y-41090000D01*
X109318000Y-41050000D02*
X110720000Y-41050000D01*
X109332000Y-41010000D02*
X110720000Y-41010000D01*
X109347000Y-40970000D02*
X110720000Y-40970000D01*
X109362000Y-40930000D02*
X110720000Y-40930000D01*
X109378000Y-40890000D02*
X110720000Y-40890000D01*
X109395000Y-40850000D02*
X110720000Y-40850000D01*
X109413000Y-40810000D02*
X110720000Y-40810000D01*
X109431000Y-40770000D02*
X110720000Y-40770000D01*
X109451000Y-40730000D02*
X110720000Y-40730000D01*
X109471000Y-40690000D02*
X110720000Y-40690000D01*
X109492000Y-40650000D02*
X110720000Y-40650000D01*
X109514000Y-40610000D02*
X110720000Y-40610000D01*
X109537000Y-40570000D02*
X110720000Y-40570000D01*
X109561000Y-40530000D02*
X110720000Y-40530000D01*
X109585000Y-40490000D02*
X110720000Y-40490000D01*
X109611000Y-40450000D02*
X110720000Y-40450000D01*
X109638000Y-40410000D02*
X110720000Y-40410000D01*
X109666000Y-40370000D02*
X110720000Y-40370000D01*
X109695000Y-40330000D02*
X110720000Y-40330000D01*
X109725000Y-40290000D02*
X110720000Y-40290000D01*
X109757000Y-40250000D02*
X110720000Y-40250000D01*
X109790000Y-40210000D02*
X110720000Y-40210000D01*
X109824000Y-40170000D02*
X110720000Y-40170000D01*
X109859000Y-40130000D02*
X110720000Y-40130000D01*
X109896000Y-40090000D02*
X110720000Y-40090000D01*
X109935000Y-40050000D02*
X110720000Y-40050000D01*
X109975000Y-40010000D02*
X110720000Y-40010000D01*
X110017000Y-39970000D02*
X110720000Y-39970000D01*
X110035000Y-44444775D02*
X110535000Y-44444775D01*
X110061000Y-39930000D02*
X110720000Y-39930000D01*
X110108000Y-39890000D02*
X110720000Y-39890000D01*
X110156000Y-39850000D02*
X110720000Y-39850000D01*
X110207000Y-39810000D02*
X110720000Y-39810000D01*
X110261000Y-39770000D02*
X110720000Y-39770000D01*
X110285000Y-44694775D02*
X110285000Y-44194775D01*
X110317000Y-39730000D02*
X110720000Y-39730000D01*
X110377000Y-39690000D02*
X110720000Y-39690000D01*
X110441000Y-39650000D02*
X110720000Y-39650000D01*
X110509000Y-39610000D02*
X110720000Y-39610000D01*
X110583000Y-39570000D02*
X112937000Y-39570000D01*
X110662000Y-39530000D02*
X112858000Y-39530000D01*
X110749000Y-39490000D02*
X112771000Y-39490000D01*
X110846000Y-39450000D02*
X112674000Y-39450000D01*
X110955000Y-39410000D02*
X112565000Y-39410000D01*
X111083000Y-39370000D02*
X112437000Y-39370000D01*
X111243000Y-39330000D02*
X112277000Y-39330000D01*
X111477000Y-39290000D02*
X112043000Y-39290000D01*
X112800000Y-39610000D02*
X113011000Y-39610000D01*
X112800000Y-39650000D02*
X113079000Y-39650000D01*
X112800000Y-39690000D02*
X113143000Y-39690000D01*
X112800000Y-39730000D02*
X113203000Y-39730000D01*
X112800000Y-39770000D02*
X113259000Y-39770000D01*
X112800000Y-39810000D02*
X113313000Y-39810000D01*
X112800000Y-39850000D02*
X113364000Y-39850000D01*
X112800000Y-39890000D02*
X113412000Y-39890000D01*
X112800000Y-39930000D02*
X113459000Y-39930000D01*
X112800000Y-39970000D02*
X113503000Y-39970000D01*
X112800000Y-40010000D02*
X113545000Y-40010000D01*
X112800000Y-40050000D02*
X113585000Y-40050000D01*
X112800000Y-40090000D02*
X113624000Y-40090000D01*
X112800000Y-40130000D02*
X113661000Y-40130000D01*
X112800000Y-40170000D02*
X113696000Y-40170000D01*
X112800000Y-40210000D02*
X113730000Y-40210000D01*
X112800000Y-40250000D02*
X113763000Y-40250000D01*
X112800000Y-40290000D02*
X113795000Y-40290000D01*
X112800000Y-40330000D02*
X113825000Y-40330000D01*
X112800000Y-40370000D02*
X113854000Y-40370000D01*
X112800000Y-40410000D02*
X113882000Y-40410000D01*
X112800000Y-40450000D02*
X113909000Y-40450000D01*
X112800000Y-40490000D02*
X113935000Y-40490000D01*
X112800000Y-40530000D02*
X113959000Y-40530000D01*
X112800000Y-40570000D02*
X113983000Y-40570000D01*
X112800000Y-40610000D02*
X114006000Y-40610000D01*
X112800000Y-40650000D02*
X114028000Y-40650000D01*
X112800000Y-40690000D02*
X114049000Y-40690000D01*
X112800000Y-40730000D02*
X114069000Y-40730000D01*
X112800000Y-40770000D02*
X114089000Y-40770000D01*
X112800000Y-40810000D02*
X114107000Y-40810000D01*
X112800000Y-40850000D02*
X114125000Y-40850000D01*
X112800000Y-40890000D02*
X114142000Y-40890000D01*
X112800000Y-40930000D02*
X114158000Y-40930000D01*
X112800000Y-40970000D02*
X114173000Y-40970000D01*
X112800000Y-41010000D02*
X114188000Y-41010000D01*
X112800000Y-41050000D02*
X114202000Y-41050000D01*
X112800000Y-41090000D02*
X114215000Y-41090000D01*
X112800000Y-41130000D02*
X114227000Y-41130000D01*
X112800000Y-41170000D02*
X114239000Y-41170000D01*
X112800000Y-41210000D02*
X114250000Y-41210000D01*
X112800000Y-41250000D02*
X114261000Y-41250000D01*
X112800000Y-41290000D02*
X114270000Y-41290000D01*
X112800000Y-41330000D02*
X114279000Y-41330000D01*
X112800000Y-41370000D02*
X114288000Y-41370000D01*
X112800000Y-41410000D02*
X114296000Y-41410000D01*
X112800000Y-41450000D02*
X114303000Y-41450000D01*
X112800000Y-41490000D02*
X114309000Y-41490000D01*
X112800000Y-41530000D02*
X114315000Y-41530000D01*
X112800000Y-41570000D02*
X114320000Y-41570000D01*
X112800000Y-41610000D02*
X114325000Y-41610000D01*
X112800000Y-41650000D02*
X114329000Y-41650000D01*
X114380000Y-41890000D02*
G75*
G02*
X109140000Y-41890000I-2620000J0D01*
G01*
X109140000Y-41890000D02*
G75*
G02*
X114380000Y-41890000I2620000J0D01*
G01*
%TO.C,C14*%
X153385225Y-97585000D02*
X153885225Y-97585000D01*
X153635225Y-97335000D02*
X153635225Y-97835000D01*
X156190000Y-96480000D02*
X156190000Y-101640000D01*
X156230000Y-96480000D02*
X156230000Y-101640000D01*
X156270000Y-96481000D02*
X156270000Y-101639000D01*
X156310000Y-96483000D02*
X156310000Y-101637000D01*
X156350000Y-96485000D02*
X156350000Y-101635000D01*
X156390000Y-96488000D02*
X156390000Y-101632000D01*
X156430000Y-96491000D02*
X156430000Y-98020000D01*
X156430000Y-100100000D02*
X156430000Y-101629000D01*
X156470000Y-96495000D02*
X156470000Y-98020000D01*
X156470000Y-100100000D02*
X156470000Y-101625000D01*
X156510000Y-96500000D02*
X156510000Y-98020000D01*
X156510000Y-100100000D02*
X156510000Y-101620000D01*
X156550000Y-96505000D02*
X156550000Y-98020000D01*
X156550000Y-100100000D02*
X156550000Y-101615000D01*
X156590000Y-96511000D02*
X156590000Y-98020000D01*
X156590000Y-100100000D02*
X156590000Y-101609000D01*
X156630000Y-96517000D02*
X156630000Y-98020000D01*
X156630000Y-100100000D02*
X156630000Y-101603000D01*
X156670000Y-96524000D02*
X156670000Y-98020000D01*
X156670000Y-100100000D02*
X156670000Y-101596000D01*
X156710000Y-96532000D02*
X156710000Y-98020000D01*
X156710000Y-100100000D02*
X156710000Y-101588000D01*
X156750000Y-96541000D02*
X156750000Y-98020000D01*
X156750000Y-100100000D02*
X156750000Y-101579000D01*
X156790000Y-96550000D02*
X156790000Y-98020000D01*
X156790000Y-100100000D02*
X156790000Y-101570000D01*
X156830000Y-96559000D02*
X156830000Y-98020000D01*
X156830000Y-100100000D02*
X156830000Y-101561000D01*
X156870000Y-96570000D02*
X156870000Y-98020000D01*
X156870000Y-100100000D02*
X156870000Y-101550000D01*
X156910000Y-96581000D02*
X156910000Y-98020000D01*
X156910000Y-100100000D02*
X156910000Y-101539000D01*
X156950000Y-96593000D02*
X156950000Y-98020000D01*
X156950000Y-100100000D02*
X156950000Y-101527000D01*
X156990000Y-96605000D02*
X156990000Y-98020000D01*
X156990000Y-100100000D02*
X156990000Y-101515000D01*
X157030000Y-96618000D02*
X157030000Y-98020000D01*
X157030000Y-100100000D02*
X157030000Y-101502000D01*
X157070000Y-96632000D02*
X157070000Y-98020000D01*
X157070000Y-100100000D02*
X157070000Y-101488000D01*
X157110000Y-96647000D02*
X157110000Y-98020000D01*
X157110000Y-100100000D02*
X157110000Y-101473000D01*
X157150000Y-96662000D02*
X157150000Y-98020000D01*
X157150000Y-100100000D02*
X157150000Y-101458000D01*
X157190000Y-96678000D02*
X157190000Y-98020000D01*
X157190000Y-100100000D02*
X157190000Y-101442000D01*
X157230000Y-96695000D02*
X157230000Y-98020000D01*
X157230000Y-100100000D02*
X157230000Y-101425000D01*
X157270000Y-96713000D02*
X157270000Y-98020000D01*
X157270000Y-100100000D02*
X157270000Y-101407000D01*
X157310000Y-96731000D02*
X157310000Y-98020000D01*
X157310000Y-100100000D02*
X157310000Y-101389000D01*
X157350000Y-96751000D02*
X157350000Y-98020000D01*
X157350000Y-100100000D02*
X157350000Y-101369000D01*
X157390000Y-96771000D02*
X157390000Y-98020000D01*
X157390000Y-100100000D02*
X157390000Y-101349000D01*
X157430000Y-96792000D02*
X157430000Y-98020000D01*
X157430000Y-100100000D02*
X157430000Y-101328000D01*
X157470000Y-96814000D02*
X157470000Y-98020000D01*
X157470000Y-100100000D02*
X157470000Y-101306000D01*
X157510000Y-96837000D02*
X157510000Y-98020000D01*
X157510000Y-100100000D02*
X157510000Y-101283000D01*
X157550000Y-96861000D02*
X157550000Y-98020000D01*
X157550000Y-100100000D02*
X157550000Y-101259000D01*
X157590000Y-96885000D02*
X157590000Y-98020000D01*
X157590000Y-100100000D02*
X157590000Y-101235000D01*
X157630000Y-96911000D02*
X157630000Y-98020000D01*
X157630000Y-100100000D02*
X157630000Y-101209000D01*
X157670000Y-96938000D02*
X157670000Y-98020000D01*
X157670000Y-100100000D02*
X157670000Y-101182000D01*
X157710000Y-96966000D02*
X157710000Y-98020000D01*
X157710000Y-100100000D02*
X157710000Y-101154000D01*
X157750000Y-96995000D02*
X157750000Y-98020000D01*
X157750000Y-100100000D02*
X157750000Y-101125000D01*
X157790000Y-97025000D02*
X157790000Y-98020000D01*
X157790000Y-100100000D02*
X157790000Y-101095000D01*
X157830000Y-97057000D02*
X157830000Y-98020000D01*
X157830000Y-100100000D02*
X157830000Y-101063000D01*
X157870000Y-97090000D02*
X157870000Y-98020000D01*
X157870000Y-100100000D02*
X157870000Y-101030000D01*
X157910000Y-97124000D02*
X157910000Y-98020000D01*
X157910000Y-100100000D02*
X157910000Y-100996000D01*
X157950000Y-97159000D02*
X157950000Y-98020000D01*
X157950000Y-100100000D02*
X157950000Y-100961000D01*
X157990000Y-97196000D02*
X157990000Y-98020000D01*
X157990000Y-100100000D02*
X157990000Y-100924000D01*
X158030000Y-97235000D02*
X158030000Y-98020000D01*
X158030000Y-100100000D02*
X158030000Y-100885000D01*
X158070000Y-97275000D02*
X158070000Y-98020000D01*
X158070000Y-100100000D02*
X158070000Y-100845000D01*
X158110000Y-97317000D02*
X158110000Y-98020000D01*
X158110000Y-100100000D02*
X158110000Y-100803000D01*
X158150000Y-97361000D02*
X158150000Y-98020000D01*
X158150000Y-100100000D02*
X158150000Y-100759000D01*
X158190000Y-97408000D02*
X158190000Y-98020000D01*
X158190000Y-100100000D02*
X158190000Y-100712000D01*
X158230000Y-97456000D02*
X158230000Y-98020000D01*
X158230000Y-100100000D02*
X158230000Y-100664000D01*
X158270000Y-97507000D02*
X158270000Y-98020000D01*
X158270000Y-100100000D02*
X158270000Y-100613000D01*
X158310000Y-97561000D02*
X158310000Y-98020000D01*
X158310000Y-100100000D02*
X158310000Y-100559000D01*
X158350000Y-97617000D02*
X158350000Y-98020000D01*
X158350000Y-100100000D02*
X158350000Y-100503000D01*
X158390000Y-97677000D02*
X158390000Y-98020000D01*
X158390000Y-100100000D02*
X158390000Y-100443000D01*
X158430000Y-97741000D02*
X158430000Y-98020000D01*
X158430000Y-100100000D02*
X158430000Y-100379000D01*
X158470000Y-97809000D02*
X158470000Y-98020000D01*
X158470000Y-100100000D02*
X158470000Y-100311000D01*
X158510000Y-97883000D02*
X158510000Y-100237000D01*
X158550000Y-97962000D02*
X158550000Y-100158000D01*
X158590000Y-98049000D02*
X158590000Y-100071000D01*
X158630000Y-98146000D02*
X158630000Y-99974000D01*
X158670000Y-98255000D02*
X158670000Y-99865000D01*
X158710000Y-98383000D02*
X158710000Y-99737000D01*
X158750000Y-98543000D02*
X158750000Y-99577000D01*
X158790000Y-98777000D02*
X158790000Y-99343000D01*
X158810000Y-99060000D02*
G75*
G02*
X153570000Y-99060000I-2620000J0D01*
G01*
X153570000Y-99060000D02*
G75*
G02*
X158810000Y-99060000I2620000J0D01*
G01*
%TO.C,SW2*%
X146360000Y-52590000D02*
X146360000Y-54090000D01*
X147610000Y-56590000D02*
X152110000Y-56590000D01*
X152110000Y-50090000D02*
X147610000Y-50090000D01*
X153360000Y-54090000D02*
X153360000Y-52590000D01*
%TO.C,C1*%
X144340354Y-75865000D02*
X145340354Y-75865000D01*
X144840354Y-75365000D02*
X144840354Y-76365000D01*
X149820000Y-73660000D02*
X149820000Y-83820000D01*
X149860000Y-73660000D02*
X149860000Y-83820000D01*
X149900000Y-73661000D02*
X149900000Y-83819000D01*
X149940000Y-73661000D02*
X149940000Y-83819000D01*
X149980000Y-73663000D02*
X149980000Y-83817000D01*
X150020000Y-73664000D02*
X150020000Y-83816000D01*
X150060000Y-73666000D02*
X150060000Y-83814000D01*
X150100000Y-73668000D02*
X150100000Y-83812000D01*
X150140000Y-73670000D02*
X150140000Y-83810000D01*
X150180000Y-73673000D02*
X150180000Y-83807000D01*
X150220000Y-73676000D02*
X150220000Y-83804000D01*
X150260000Y-73679000D02*
X150260000Y-83801000D01*
X150300000Y-73683000D02*
X150300000Y-83797000D01*
X150340000Y-73686000D02*
X150340000Y-83794000D01*
X150380000Y-73691000D02*
X150380000Y-83789000D01*
X150420000Y-73695000D02*
X150420000Y-83785000D01*
X150460000Y-73700000D02*
X150460000Y-83780000D01*
X150500000Y-73705000D02*
X150500000Y-83775000D01*
X150540000Y-73711000D02*
X150540000Y-83769000D01*
X150580000Y-73717000D02*
X150580000Y-83763000D01*
X150620000Y-73723000D02*
X150620000Y-83757000D01*
X150660000Y-73729000D02*
X150660000Y-83751000D01*
X150700000Y-73736000D02*
X150700000Y-83744000D01*
X150740000Y-73743000D02*
X150740000Y-83737000D01*
X150780000Y-73751000D02*
X150780000Y-83729000D01*
X150820000Y-73759000D02*
X150820000Y-83721000D01*
X150860000Y-73767000D02*
X150860000Y-83713000D01*
X150900000Y-73775000D02*
X150900000Y-83705000D01*
X150940000Y-73784000D02*
X150940000Y-83696000D01*
X150980000Y-73793000D02*
X150980000Y-83687000D01*
X151020000Y-73803000D02*
X151020000Y-83677000D01*
X151060000Y-73812000D02*
X151060000Y-83668000D01*
X151100000Y-73823000D02*
X151100000Y-77500000D01*
X151100000Y-79980000D02*
X151100000Y-83657000D01*
X151140000Y-73833000D02*
X151140000Y-77500000D01*
X151140000Y-79980000D02*
X151140000Y-83647000D01*
X151180000Y-73844000D02*
X151180000Y-77500000D01*
X151180000Y-79980000D02*
X151180000Y-83636000D01*
X151220000Y-73855000D02*
X151220000Y-77500000D01*
X151220000Y-79980000D02*
X151220000Y-83625000D01*
X151260000Y-73867000D02*
X151260000Y-77500000D01*
X151260000Y-79980000D02*
X151260000Y-83613000D01*
X151300000Y-73879000D02*
X151300000Y-77500000D01*
X151300000Y-79980000D02*
X151300000Y-83601000D01*
X151340000Y-73891000D02*
X151340000Y-77500000D01*
X151340000Y-79980000D02*
X151340000Y-83589000D01*
X151380000Y-73903000D02*
X151380000Y-77500000D01*
X151380000Y-79980000D02*
X151380000Y-83577000D01*
X151420000Y-73916000D02*
X151420000Y-77500000D01*
X151420000Y-79980000D02*
X151420000Y-83564000D01*
X151460000Y-73930000D02*
X151460000Y-77500000D01*
X151460000Y-79980000D02*
X151460000Y-83550000D01*
X151500000Y-73943000D02*
X151500000Y-77500000D01*
X151500000Y-79980000D02*
X151500000Y-83537000D01*
X151540000Y-73958000D02*
X151540000Y-77500000D01*
X151540000Y-79980000D02*
X151540000Y-83522000D01*
X151580000Y-73972000D02*
X151580000Y-77500000D01*
X151580000Y-79980000D02*
X151580000Y-83508000D01*
X151620000Y-73987000D02*
X151620000Y-77500000D01*
X151620000Y-79980000D02*
X151620000Y-83493000D01*
X151660000Y-74002000D02*
X151660000Y-77500000D01*
X151660000Y-79980000D02*
X151660000Y-83478000D01*
X151700000Y-74018000D02*
X151700000Y-77500000D01*
X151700000Y-79980000D02*
X151700000Y-83462000D01*
X151740000Y-74034000D02*
X151740000Y-77500000D01*
X151740000Y-79980000D02*
X151740000Y-83446000D01*
X151780000Y-74050000D02*
X151780000Y-77500000D01*
X151780000Y-79980000D02*
X151780000Y-83430000D01*
X151820000Y-74067000D02*
X151820000Y-77500000D01*
X151820000Y-79980000D02*
X151820000Y-83413000D01*
X151860000Y-74084000D02*
X151860000Y-77500000D01*
X151860000Y-79980000D02*
X151860000Y-83396000D01*
X151900000Y-74102000D02*
X151900000Y-77500000D01*
X151900000Y-79980000D02*
X151900000Y-83378000D01*
X151940000Y-74120000D02*
X151940000Y-77500000D01*
X151940000Y-79980000D02*
X151940000Y-83360000D01*
X151980000Y-74138000D02*
X151980000Y-77500000D01*
X151980000Y-79980000D02*
X151980000Y-83342000D01*
X152020000Y-74157000D02*
X152020000Y-77500000D01*
X152020000Y-79980000D02*
X152020000Y-83323000D01*
X152060000Y-74176000D02*
X152060000Y-77500000D01*
X152060000Y-79980000D02*
X152060000Y-83304000D01*
X152100000Y-74196000D02*
X152100000Y-77500000D01*
X152100000Y-79980000D02*
X152100000Y-83284000D01*
X152140000Y-74216000D02*
X152140000Y-77500000D01*
X152140000Y-79980000D02*
X152140000Y-83264000D01*
X152180000Y-74236000D02*
X152180000Y-77500000D01*
X152180000Y-79980000D02*
X152180000Y-83244000D01*
X152220000Y-74257000D02*
X152220000Y-77500000D01*
X152220000Y-79980000D02*
X152220000Y-83223000D01*
X152260000Y-74279000D02*
X152260000Y-77500000D01*
X152260000Y-79980000D02*
X152260000Y-83201000D01*
X152300000Y-74301000D02*
X152300000Y-77500000D01*
X152300000Y-79980000D02*
X152300000Y-83179000D01*
X152340000Y-74323000D02*
X152340000Y-77500000D01*
X152340000Y-79980000D02*
X152340000Y-83157000D01*
X152380000Y-74346000D02*
X152380000Y-77500000D01*
X152380000Y-79980000D02*
X152380000Y-83134000D01*
X152420000Y-74369000D02*
X152420000Y-77500000D01*
X152420000Y-79980000D02*
X152420000Y-83111000D01*
X152460000Y-74393000D02*
X152460000Y-77500000D01*
X152460000Y-79980000D02*
X152460000Y-83087000D01*
X152500000Y-74417000D02*
X152500000Y-77500000D01*
X152500000Y-79980000D02*
X152500000Y-83063000D01*
X152540000Y-74442000D02*
X152540000Y-77500000D01*
X152540000Y-79980000D02*
X152540000Y-83038000D01*
X152580000Y-74468000D02*
X152580000Y-77500000D01*
X152580000Y-79980000D02*
X152580000Y-83012000D01*
X152620000Y-74493000D02*
X152620000Y-77500000D01*
X152620000Y-79980000D02*
X152620000Y-82987000D01*
X152660000Y-74520000D02*
X152660000Y-77500000D01*
X152660000Y-79980000D02*
X152660000Y-82960000D01*
X152700000Y-74547000D02*
X152700000Y-77500000D01*
X152700000Y-79980000D02*
X152700000Y-82933000D01*
X152740000Y-74574000D02*
X152740000Y-77500000D01*
X152740000Y-79980000D02*
X152740000Y-82906000D01*
X152780000Y-74602000D02*
X152780000Y-77500000D01*
X152780000Y-79980000D02*
X152780000Y-82878000D01*
X152820000Y-74631000D02*
X152820000Y-77500000D01*
X152820000Y-79980000D02*
X152820000Y-82849000D01*
X152860000Y-74660000D02*
X152860000Y-77500000D01*
X152860000Y-79980000D02*
X152860000Y-82820000D01*
X152900000Y-74690000D02*
X152900000Y-77500000D01*
X152900000Y-79980000D02*
X152900000Y-82790000D01*
X152940000Y-74720000D02*
X152940000Y-77500000D01*
X152940000Y-79980000D02*
X152940000Y-82760000D01*
X152980000Y-74752000D02*
X152980000Y-77500000D01*
X152980000Y-79980000D02*
X152980000Y-82728000D01*
X153020000Y-74783000D02*
X153020000Y-77500000D01*
X153020000Y-79980000D02*
X153020000Y-82697000D01*
X153060000Y-74816000D02*
X153060000Y-77500000D01*
X153060000Y-79980000D02*
X153060000Y-82664000D01*
X153100000Y-74849000D02*
X153100000Y-77500000D01*
X153100000Y-79980000D02*
X153100000Y-82631000D01*
X153140000Y-74882000D02*
X153140000Y-77500000D01*
X153140000Y-79980000D02*
X153140000Y-82598000D01*
X153180000Y-74917000D02*
X153180000Y-77500000D01*
X153180000Y-79980000D02*
X153180000Y-82563000D01*
X153220000Y-74952000D02*
X153220000Y-77500000D01*
X153220000Y-79980000D02*
X153220000Y-82528000D01*
X153260000Y-74988000D02*
X153260000Y-77500000D01*
X153260000Y-79980000D02*
X153260000Y-82492000D01*
X153300000Y-75024000D02*
X153300000Y-77500000D01*
X153300000Y-79980000D02*
X153300000Y-82456000D01*
X153340000Y-75062000D02*
X153340000Y-77500000D01*
X153340000Y-79980000D02*
X153340000Y-82418000D01*
X153380000Y-75100000D02*
X153380000Y-77500000D01*
X153380000Y-79980000D02*
X153380000Y-82380000D01*
X153420000Y-75139000D02*
X153420000Y-77500000D01*
X153420000Y-79980000D02*
X153420000Y-82341000D01*
X153460000Y-75179000D02*
X153460000Y-77500000D01*
X153460000Y-79980000D02*
X153460000Y-82301000D01*
X153500000Y-75220000D02*
X153500000Y-77500000D01*
X153500000Y-79980000D02*
X153500000Y-82260000D01*
X153540000Y-75262000D02*
X153540000Y-77500000D01*
X153540000Y-79980000D02*
X153540000Y-82218000D01*
X153580000Y-75305000D02*
X153580000Y-82175000D01*
X153620000Y-75349000D02*
X153620000Y-82131000D01*
X153660000Y-75393000D02*
X153660000Y-82087000D01*
X153700000Y-75439000D02*
X153700000Y-82041000D01*
X153740000Y-75486000D02*
X153740000Y-81994000D01*
X153780000Y-75535000D02*
X153780000Y-81945000D01*
X153820000Y-75584000D02*
X153820000Y-81896000D01*
X153860000Y-75635000D02*
X153860000Y-81845000D01*
X153900000Y-75687000D02*
X153900000Y-81793000D01*
X153940000Y-75740000D02*
X153940000Y-81740000D01*
X153980000Y-75795000D02*
X153980000Y-81685000D01*
X154020000Y-75852000D02*
X154020000Y-81628000D01*
X154060000Y-75910000D02*
X154060000Y-81570000D01*
X154100000Y-75970000D02*
X154100000Y-81510000D01*
X154140000Y-76032000D02*
X154140000Y-81448000D01*
X154180000Y-76096000D02*
X154180000Y-81384000D01*
X154220000Y-76162000D02*
X154220000Y-81318000D01*
X154260000Y-76230000D02*
X154260000Y-81250000D01*
X154300000Y-76301000D02*
X154300000Y-81179000D01*
X154340000Y-76375000D02*
X154340000Y-81105000D01*
X154380000Y-76452000D02*
X154380000Y-81028000D01*
X154420000Y-76532000D02*
X154420000Y-80948000D01*
X154460000Y-76616000D02*
X154460000Y-80864000D01*
X154500000Y-76703000D02*
X154500000Y-80777000D01*
X154540000Y-76796000D02*
X154540000Y-80684000D01*
X154580000Y-76894000D02*
X154580000Y-80586000D01*
X154620000Y-76998000D02*
X154620000Y-80482000D01*
X154660000Y-77110000D02*
X154660000Y-80370000D01*
X154700000Y-77231000D02*
X154700000Y-80249000D01*
X154740000Y-77363000D02*
X154740000Y-80117000D01*
X154780000Y-77510000D02*
X154780000Y-79970000D01*
X154820000Y-77678000D02*
X154820000Y-79802000D01*
X154860000Y-77878000D02*
X154860000Y-79602000D01*
X154900000Y-78141000D02*
X154900000Y-79339000D01*
X154940000Y-78740000D02*
G75*
G02*
X144700000Y-78740000I-5120000J0D01*
G01*
X144700000Y-78740000D02*
G75*
G02*
X154940000Y-78740000I5120000J0D01*
G01*
%TO.C,U2*%
X140390000Y-60090000D02*
X144150000Y-60090000D01*
X140390000Y-66910000D02*
X144150000Y-66910000D01*
X144150000Y-60090000D02*
X144150000Y-61350000D01*
X144150000Y-66910000D02*
X144150000Y-65650000D01*
X139110000Y-60190000D02*
X138870000Y-59860000D01*
X139350000Y-59860000D01*
X139110000Y-60190000D01*
G36*
X139110000Y-60190000D02*
G01*
X138870000Y-59860000D01*
X139350000Y-59860000D01*
X139110000Y-60190000D01*
G37*
%TO.C,C7*%
X156745000Y-53601252D02*
X156745000Y-53078748D01*
X158215000Y-53601252D02*
X158215000Y-53078748D01*
%TO.C,D1*%
X148390000Y-93140000D02*
X151330000Y-93140000D01*
X148390000Y-93260000D02*
X151330000Y-93260000D01*
X148390000Y-93380000D02*
X151330000Y-93380000D01*
X149860000Y-87700000D02*
X149860000Y-88720000D01*
X149860000Y-95180000D02*
X149860000Y-94160000D01*
X148390000Y-88720000D02*
X151330000Y-88720000D01*
X151330000Y-94160000D01*
X148390000Y-94160000D01*
X148390000Y-88720000D01*
%TO.C,R5*%
X118645000Y-62727064D02*
X118645000Y-62272936D01*
X120115000Y-62727064D02*
X120115000Y-62272936D01*
%TO.C,J6*%
X140860000Y-69740000D02*
X142240000Y-69740000D01*
X140860000Y-71120000D02*
X140860000Y-69740000D01*
X140860000Y-72390000D02*
X140860000Y-75040000D01*
X140860000Y-72390000D02*
X143620000Y-72390000D01*
X140860000Y-75040000D02*
X143620000Y-75040000D01*
X143620000Y-72390000D02*
X143620000Y-75040000D01*
%TO.C,R13*%
X121185000Y-99832936D02*
X121185000Y-100287064D01*
X122655000Y-99832936D02*
X122655000Y-100287064D01*
%TO.C,C10*%
X156745000Y-43441252D02*
X156745000Y-42918748D01*
X158215000Y-43441252D02*
X158215000Y-42918748D01*
%TO.C,C9*%
X121143752Y-47525000D02*
X120621248Y-47525000D01*
X121143752Y-48995000D02*
X120621248Y-48995000D01*
%TO.C,L1*%
X153930000Y-93550000D02*
X157930000Y-93550000D01*
X155930000Y-89330000D02*
X157930000Y-89330000D01*
%TO.C,J3*%
X144780000Y-102760000D02*
X152100000Y-102760000D01*
X144780000Y-110800000D02*
X144780000Y-102760000D01*
X145588000Y-106180000D02*
X144780000Y-106180000D01*
X145588000Y-107180000D02*
X144780000Y-107180000D01*
X146857000Y-104880000D02*
X144780000Y-104880000D01*
X150520000Y-104880000D02*
X147943000Y-104880000D01*
X150520000Y-106180000D02*
X149212000Y-106180000D01*
X150520000Y-107180000D02*
X149212000Y-107180000D01*
X152700000Y-102760000D02*
X155520000Y-102760000D01*
X155520000Y-102760000D02*
X155520000Y-110800000D01*
X155520000Y-104880000D02*
X154280000Y-104880000D01*
X155520000Y-106180000D02*
X154280000Y-106180000D01*
X155520000Y-107180000D02*
X154280000Y-107180000D01*
X155520000Y-110800000D02*
X144780000Y-110800000D01*
X152400000Y-102760000D02*
X151960000Y-102150000D01*
X152840000Y-102150000D01*
X152400000Y-102760000D01*
G36*
X152400000Y-102760000D02*
G01*
X151960000Y-102150000D01*
X152840000Y-102150000D01*
X152400000Y-102760000D01*
G37*
%TO.C,Q2*%
X152430000Y-71285000D02*
X152480000Y-71285000D01*
X152430000Y-72805000D02*
X152430000Y-71285000D01*
X153430000Y-72805000D02*
X152430000Y-72805000D01*
X153600000Y-71285000D02*
X154380000Y-71285000D01*
X155500000Y-71285000D02*
X155550000Y-71285000D01*
X155550000Y-71285000D02*
X155550000Y-72805000D01*
X155550000Y-72805000D02*
X154550000Y-72805000D01*
X154370000Y-70745000D02*
X154040000Y-70985000D01*
X154040000Y-70505000D01*
X154370000Y-70745000D01*
G36*
X154370000Y-70745000D02*
G01*
X154040000Y-70985000D01*
X154040000Y-70505000D01*
X154370000Y-70745000D01*
G37*
%TO.C,R6*%
X151665000Y-66800436D02*
X151665000Y-67254564D01*
X153135000Y-66800436D02*
X153135000Y-67254564D01*
%TO.C,U5*%
X112340000Y-89380000D02*
X112405000Y-89380000D01*
X112340000Y-93500000D02*
X112340000Y-89380000D01*
X112405000Y-93500000D02*
X112340000Y-93500000D01*
X121145000Y-89380000D02*
X121210000Y-89380000D01*
X121210000Y-89380000D02*
X121210000Y-93500000D01*
X121210000Y-93500000D02*
X121145000Y-93500000D01*
X112405000Y-94040000D02*
X112075000Y-94280000D01*
X112075000Y-93800000D01*
X112405000Y-94040000D01*
G36*
X112405000Y-94040000D02*
G01*
X112075000Y-94280000D01*
X112075000Y-93800000D01*
X112405000Y-94040000D01*
G37*
%TO.C,C4*%
X122945225Y-62025000D02*
X123445225Y-62025000D01*
X123195225Y-61775000D02*
X123195225Y-62275000D01*
X125750000Y-60920000D02*
X125750000Y-66080000D01*
X125790000Y-60920000D02*
X125790000Y-66080000D01*
X125830000Y-60921000D02*
X125830000Y-66079000D01*
X125870000Y-60923000D02*
X125870000Y-66077000D01*
X125910000Y-60925000D02*
X125910000Y-66075000D01*
X125950000Y-60928000D02*
X125950000Y-66072000D01*
X125990000Y-60931000D02*
X125990000Y-62460000D01*
X125990000Y-64540000D02*
X125990000Y-66069000D01*
X126030000Y-60935000D02*
X126030000Y-62460000D01*
X126030000Y-64540000D02*
X126030000Y-66065000D01*
X126070000Y-60940000D02*
X126070000Y-62460000D01*
X126070000Y-64540000D02*
X126070000Y-66060000D01*
X126110000Y-60945000D02*
X126110000Y-62460000D01*
X126110000Y-64540000D02*
X126110000Y-66055000D01*
X126150000Y-60951000D02*
X126150000Y-62460000D01*
X126150000Y-64540000D02*
X126150000Y-66049000D01*
X126190000Y-60957000D02*
X126190000Y-62460000D01*
X126190000Y-64540000D02*
X126190000Y-66043000D01*
X126230000Y-60964000D02*
X126230000Y-62460000D01*
X126230000Y-64540000D02*
X126230000Y-66036000D01*
X126270000Y-60972000D02*
X126270000Y-62460000D01*
X126270000Y-64540000D02*
X126270000Y-66028000D01*
X126310000Y-60981000D02*
X126310000Y-62460000D01*
X126310000Y-64540000D02*
X126310000Y-66019000D01*
X126350000Y-60990000D02*
X126350000Y-62460000D01*
X126350000Y-64540000D02*
X126350000Y-66010000D01*
X126390000Y-60999000D02*
X126390000Y-62460000D01*
X126390000Y-64540000D02*
X126390000Y-66001000D01*
X126430000Y-61010000D02*
X126430000Y-62460000D01*
X126430000Y-64540000D02*
X126430000Y-65990000D01*
X126470000Y-61021000D02*
X126470000Y-62460000D01*
X126470000Y-64540000D02*
X126470000Y-65979000D01*
X126510000Y-61033000D02*
X126510000Y-62460000D01*
X126510000Y-64540000D02*
X126510000Y-65967000D01*
X126550000Y-61045000D02*
X126550000Y-62460000D01*
X126550000Y-64540000D02*
X126550000Y-65955000D01*
X126590000Y-61058000D02*
X126590000Y-62460000D01*
X126590000Y-64540000D02*
X126590000Y-65942000D01*
X126630000Y-61072000D02*
X126630000Y-62460000D01*
X126630000Y-64540000D02*
X126630000Y-65928000D01*
X126670000Y-61087000D02*
X126670000Y-62460000D01*
X126670000Y-64540000D02*
X126670000Y-65913000D01*
X126710000Y-61102000D02*
X126710000Y-62460000D01*
X126710000Y-64540000D02*
X126710000Y-65898000D01*
X126750000Y-61118000D02*
X126750000Y-62460000D01*
X126750000Y-64540000D02*
X126750000Y-65882000D01*
X126790000Y-61135000D02*
X126790000Y-62460000D01*
X126790000Y-64540000D02*
X126790000Y-65865000D01*
X126830000Y-61153000D02*
X126830000Y-62460000D01*
X126830000Y-64540000D02*
X126830000Y-65847000D01*
X126870000Y-61171000D02*
X126870000Y-62460000D01*
X126870000Y-64540000D02*
X126870000Y-65829000D01*
X126910000Y-61191000D02*
X126910000Y-62460000D01*
X126910000Y-64540000D02*
X126910000Y-65809000D01*
X126950000Y-61211000D02*
X126950000Y-62460000D01*
X126950000Y-64540000D02*
X126950000Y-65789000D01*
X126990000Y-61232000D02*
X126990000Y-62460000D01*
X126990000Y-64540000D02*
X126990000Y-65768000D01*
X127030000Y-61254000D02*
X127030000Y-62460000D01*
X127030000Y-64540000D02*
X127030000Y-65746000D01*
X127070000Y-61277000D02*
X127070000Y-62460000D01*
X127070000Y-64540000D02*
X127070000Y-65723000D01*
X127110000Y-61301000D02*
X127110000Y-62460000D01*
X127110000Y-64540000D02*
X127110000Y-65699000D01*
X127150000Y-61325000D02*
X127150000Y-62460000D01*
X127150000Y-64540000D02*
X127150000Y-65675000D01*
X127190000Y-61351000D02*
X127190000Y-62460000D01*
X127190000Y-64540000D02*
X127190000Y-65649000D01*
X127230000Y-61378000D02*
X127230000Y-62460000D01*
X127230000Y-64540000D02*
X127230000Y-65622000D01*
X127270000Y-61406000D02*
X127270000Y-62460000D01*
X127270000Y-64540000D02*
X127270000Y-65594000D01*
X127310000Y-61435000D02*
X127310000Y-62460000D01*
X127310000Y-64540000D02*
X127310000Y-65565000D01*
X127350000Y-61465000D02*
X127350000Y-62460000D01*
X127350000Y-64540000D02*
X127350000Y-65535000D01*
X127390000Y-61497000D02*
X127390000Y-62460000D01*
X127390000Y-64540000D02*
X127390000Y-65503000D01*
X127430000Y-61530000D02*
X127430000Y-62460000D01*
X127430000Y-64540000D02*
X127430000Y-65470000D01*
X127470000Y-61564000D02*
X127470000Y-62460000D01*
X127470000Y-64540000D02*
X127470000Y-65436000D01*
X127510000Y-61599000D02*
X127510000Y-62460000D01*
X127510000Y-64540000D02*
X127510000Y-65401000D01*
X127550000Y-61636000D02*
X127550000Y-62460000D01*
X127550000Y-64540000D02*
X127550000Y-65364000D01*
X127590000Y-61675000D02*
X127590000Y-62460000D01*
X127590000Y-64540000D02*
X127590000Y-65325000D01*
X127630000Y-61715000D02*
X127630000Y-62460000D01*
X127630000Y-64540000D02*
X127630000Y-65285000D01*
X127670000Y-61757000D02*
X127670000Y-62460000D01*
X127670000Y-64540000D02*
X127670000Y-65243000D01*
X127710000Y-61801000D02*
X127710000Y-62460000D01*
X127710000Y-64540000D02*
X127710000Y-65199000D01*
X127750000Y-61848000D02*
X127750000Y-62460000D01*
X127750000Y-64540000D02*
X127750000Y-65152000D01*
X127790000Y-61896000D02*
X127790000Y-62460000D01*
X127790000Y-64540000D02*
X127790000Y-65104000D01*
X127830000Y-61947000D02*
X127830000Y-62460000D01*
X127830000Y-64540000D02*
X127830000Y-65053000D01*
X127870000Y-62001000D02*
X127870000Y-62460000D01*
X127870000Y-64540000D02*
X127870000Y-64999000D01*
X127910000Y-62057000D02*
X127910000Y-62460000D01*
X127910000Y-64540000D02*
X127910000Y-64943000D01*
X127950000Y-62117000D02*
X127950000Y-62460000D01*
X127950000Y-64540000D02*
X127950000Y-64883000D01*
X127990000Y-62181000D02*
X127990000Y-62460000D01*
X127990000Y-64540000D02*
X127990000Y-64819000D01*
X128030000Y-62249000D02*
X128030000Y-62460000D01*
X128030000Y-64540000D02*
X128030000Y-64751000D01*
X128070000Y-62323000D02*
X128070000Y-64677000D01*
X128110000Y-62402000D02*
X128110000Y-64598000D01*
X128150000Y-62489000D02*
X128150000Y-64511000D01*
X128190000Y-62586000D02*
X128190000Y-64414000D01*
X128230000Y-62695000D02*
X128230000Y-64305000D01*
X128270000Y-62823000D02*
X128270000Y-64177000D01*
X128310000Y-62983000D02*
X128310000Y-64017000D01*
X128350000Y-63217000D02*
X128350000Y-63783000D01*
X128370000Y-63500000D02*
G75*
G02*
X123130000Y-63500000I-2620000J0D01*
G01*
X123130000Y-63500000D02*
G75*
G02*
X128370000Y-63500000I2620000J0D01*
G01*
%TO.C,J5*%
X112920000Y-64770000D02*
X112920000Y-51960000D01*
X115680000Y-51960000D02*
X112920000Y-51960000D01*
X115680000Y-64770000D02*
X112920000Y-64770000D01*
X115680000Y-64770000D02*
X115680000Y-51960000D01*
X115680000Y-66040000D02*
X115680000Y-67420000D01*
X115680000Y-67420000D02*
X114300000Y-67420000D01*
%TO.C,D2*%
X118420000Y-55535000D02*
X118420000Y-58395000D01*
X120340000Y-55535000D02*
X118420000Y-55535000D01*
X120340000Y-58395000D02*
X120340000Y-55535000D01*
%TO.C,TP6*%
X148270000Y-68580000D02*
G75*
G02*
X146370000Y-68580000I-950000J0D01*
G01*
X146370000Y-68580000D02*
G75*
G02*
X148270000Y-68580000I950000J0D01*
G01*
%TO.C,TP4*%
X138110000Y-76200000D02*
G75*
G02*
X136210000Y-76200000I-950000J0D01*
G01*
X136210000Y-76200000D02*
G75*
G02*
X138110000Y-76200000I950000J0D01*
G01*
%TO.C,C15*%
X149083752Y-98325000D02*
X148561248Y-98325000D01*
X149083752Y-99795000D02*
X148561248Y-99795000D01*
%TO.C,U1*%
X139465000Y-86240000D02*
X140830000Y-86240000D01*
X139465000Y-96640000D02*
X140830000Y-96640000D01*
X140830000Y-86240000D02*
X140830000Y-87190000D01*
X140830000Y-96640000D02*
X140830000Y-95690000D01*
X143655000Y-95650000D02*
X143995000Y-96120000D01*
X143315000Y-96120000D01*
X143655000Y-95650000D01*
G36*
X143995000Y-96120000D02*
G01*
X143315000Y-96120000D01*
X143655000Y-95650000D01*
X143995000Y-96120000D01*
G37*
%TO.C,Q1*%
X151777500Y-61790000D02*
X152777500Y-61790000D01*
X151777500Y-63310000D02*
X151777500Y-61790000D01*
X151827500Y-63310000D02*
X151777500Y-63310000D01*
X153727500Y-63310000D02*
X152947500Y-63310000D01*
X153897500Y-61790000D02*
X154897500Y-61790000D01*
X154897500Y-61790000D02*
X154897500Y-63310000D01*
X154897500Y-63310000D02*
X154847500Y-63310000D01*
X152957500Y-63850000D02*
X153287500Y-63610000D01*
X153287500Y-64090000D01*
X152957500Y-63850000D01*
G36*
X153287500Y-64090000D02*
G01*
X152957500Y-63850000D01*
X153287500Y-63610000D01*
X153287500Y-64090000D01*
G37*
%TO.C,R1*%
X156745000Y-84592936D02*
X156745000Y-85047064D01*
X158215000Y-84592936D02*
X158215000Y-85047064D01*
%TO.C,U3*%
X124380000Y-57350000D02*
X124380000Y-56400000D01*
X125780000Y-57350000D02*
X124380000Y-57350000D01*
X141380000Y-57350000D02*
X142780000Y-57350000D01*
X142780000Y-57350000D02*
X142780000Y-56400000D01*
X124380000Y-38400000D02*
X123880000Y-38400000D01*
X124380000Y-37900000D01*
X124380000Y-38400000D01*
G36*
X124380000Y-38400000D02*
G01*
X123880000Y-38400000D01*
X124380000Y-37900000D01*
X124380000Y-38400000D01*
G37*
%TO.C,TP3*%
X133030000Y-76200000D02*
G75*
G02*
X131130000Y-76200000I-950000J0D01*
G01*
X131130000Y-76200000D02*
G75*
G02*
X133030000Y-76200000I950000J0D01*
G01*
%TO.C,TP5*%
X138110000Y-68580000D02*
G75*
G02*
X136210000Y-68580000I-950000J0D01*
G01*
X136210000Y-68580000D02*
G75*
G02*
X138110000Y-68580000I950000J0D01*
G01*
%TO.C,R11*%
X111025000Y-99832936D02*
X111025000Y-100287064D01*
X112495000Y-99832936D02*
X112495000Y-100287064D01*
%TO.C,R14*%
X126265000Y-99832936D02*
X126265000Y-100287064D01*
X127735000Y-99832936D02*
X127735000Y-100287064D01*
%TO.C,TP2*%
X138110000Y-99060000D02*
G75*
G02*
X136210000Y-99060000I-950000J0D01*
G01*
X136210000Y-99060000D02*
G75*
G02*
X138110000Y-99060000I950000J0D01*
G01*
%TO.C,C8*%
X118645000Y-41938752D02*
X118645000Y-41416248D01*
X120115000Y-41938752D02*
X120115000Y-41416248D01*
%TO.C,R12*%
X116105000Y-99832936D02*
X116105000Y-100287064D01*
X117575000Y-99832936D02*
X117575000Y-100287064D01*
%TO.C,SW3*%
X146360000Y-42430000D02*
X146360000Y-43930000D01*
X147610000Y-46430000D02*
X152110000Y-46430000D01*
X152110000Y-39930000D02*
X147610000Y-39930000D01*
X153360000Y-43930000D02*
X153360000Y-42430000D01*
%TO.C,RV1*%
X132285000Y-78760000D02*
X142035000Y-78760000D01*
X132285000Y-83810000D02*
X132285000Y-78760000D01*
X142035000Y-78760000D02*
X142035000Y-83810000D01*
X142035000Y-83810000D02*
X132285000Y-83810000D01*
%TO.C,C3*%
X130565225Y-62025000D02*
X131065225Y-62025000D01*
X130815225Y-61775000D02*
X130815225Y-62275000D01*
X133370000Y-60920000D02*
X133370000Y-66080000D01*
X133410000Y-60920000D02*
X133410000Y-66080000D01*
X133450000Y-60921000D02*
X133450000Y-66079000D01*
X133490000Y-60923000D02*
X133490000Y-66077000D01*
X133530000Y-60925000D02*
X133530000Y-66075000D01*
X133570000Y-60928000D02*
X133570000Y-66072000D01*
X133610000Y-60931000D02*
X133610000Y-62460000D01*
X133610000Y-64540000D02*
X133610000Y-66069000D01*
X133650000Y-60935000D02*
X133650000Y-62460000D01*
X133650000Y-64540000D02*
X133650000Y-66065000D01*
X133690000Y-60940000D02*
X133690000Y-62460000D01*
X133690000Y-64540000D02*
X133690000Y-66060000D01*
X133730000Y-60945000D02*
X133730000Y-62460000D01*
X133730000Y-64540000D02*
X133730000Y-66055000D01*
X133770000Y-60951000D02*
X133770000Y-62460000D01*
X133770000Y-64540000D02*
X133770000Y-66049000D01*
X133810000Y-60957000D02*
X133810000Y-62460000D01*
X133810000Y-64540000D02*
X133810000Y-66043000D01*
X133850000Y-60964000D02*
X133850000Y-62460000D01*
X133850000Y-64540000D02*
X133850000Y-66036000D01*
X133890000Y-60972000D02*
X133890000Y-62460000D01*
X133890000Y-64540000D02*
X133890000Y-66028000D01*
X133930000Y-60981000D02*
X133930000Y-62460000D01*
X133930000Y-64540000D02*
X133930000Y-66019000D01*
X133970000Y-60990000D02*
X133970000Y-62460000D01*
X133970000Y-64540000D02*
X133970000Y-66010000D01*
X134010000Y-60999000D02*
X134010000Y-62460000D01*
X134010000Y-64540000D02*
X134010000Y-66001000D01*
X134050000Y-61010000D02*
X134050000Y-62460000D01*
X134050000Y-64540000D02*
X134050000Y-65990000D01*
X134090000Y-61021000D02*
X134090000Y-62460000D01*
X134090000Y-64540000D02*
X134090000Y-65979000D01*
X134130000Y-61033000D02*
X134130000Y-62460000D01*
X134130000Y-64540000D02*
X134130000Y-65967000D01*
X134170000Y-61045000D02*
X134170000Y-62460000D01*
X134170000Y-64540000D02*
X134170000Y-65955000D01*
X134210000Y-61058000D02*
X134210000Y-62460000D01*
X134210000Y-64540000D02*
X134210000Y-65942000D01*
X134250000Y-61072000D02*
X134250000Y-62460000D01*
X134250000Y-64540000D02*
X134250000Y-65928000D01*
X134290000Y-61087000D02*
X134290000Y-62460000D01*
X134290000Y-64540000D02*
X134290000Y-65913000D01*
X134330000Y-61102000D02*
X134330000Y-62460000D01*
X134330000Y-64540000D02*
X134330000Y-65898000D01*
X134370000Y-61118000D02*
X134370000Y-62460000D01*
X134370000Y-64540000D02*
X134370000Y-65882000D01*
X134410000Y-61135000D02*
X134410000Y-62460000D01*
X134410000Y-64540000D02*
X134410000Y-65865000D01*
X134450000Y-61153000D02*
X134450000Y-62460000D01*
X134450000Y-64540000D02*
X134450000Y-65847000D01*
X134490000Y-61171000D02*
X134490000Y-62460000D01*
X134490000Y-64540000D02*
X134490000Y-65829000D01*
X134530000Y-61191000D02*
X134530000Y-62460000D01*
X134530000Y-64540000D02*
X134530000Y-65809000D01*
X134570000Y-61211000D02*
X134570000Y-62460000D01*
X134570000Y-64540000D02*
X134570000Y-65789000D01*
X134610000Y-61232000D02*
X134610000Y-62460000D01*
X134610000Y-64540000D02*
X134610000Y-65768000D01*
X134650000Y-61254000D02*
X134650000Y-62460000D01*
X134650000Y-64540000D02*
X134650000Y-65746000D01*
X134690000Y-61277000D02*
X134690000Y-62460000D01*
X134690000Y-64540000D02*
X134690000Y-65723000D01*
X134730000Y-61301000D02*
X134730000Y-62460000D01*
X134730000Y-64540000D02*
X134730000Y-65699000D01*
X134770000Y-61325000D02*
X134770000Y-62460000D01*
X134770000Y-64540000D02*
X134770000Y-65675000D01*
X134810000Y-61351000D02*
X134810000Y-62460000D01*
X134810000Y-64540000D02*
X134810000Y-65649000D01*
X134850000Y-61378000D02*
X134850000Y-62460000D01*
X134850000Y-64540000D02*
X134850000Y-65622000D01*
X134890000Y-61406000D02*
X134890000Y-62460000D01*
X134890000Y-64540000D02*
X134890000Y-65594000D01*
X134930000Y-61435000D02*
X134930000Y-62460000D01*
X134930000Y-64540000D02*
X134930000Y-65565000D01*
X134970000Y-61465000D02*
X134970000Y-62460000D01*
X134970000Y-64540000D02*
X134970000Y-65535000D01*
X135010000Y-61497000D02*
X135010000Y-62460000D01*
X135010000Y-64540000D02*
X135010000Y-65503000D01*
X135050000Y-61530000D02*
X135050000Y-62460000D01*
X135050000Y-64540000D02*
X135050000Y-65470000D01*
X135090000Y-61564000D02*
X135090000Y-62460000D01*
X135090000Y-64540000D02*
X135090000Y-65436000D01*
X135130000Y-61599000D02*
X135130000Y-62460000D01*
X135130000Y-64540000D02*
X135130000Y-65401000D01*
X135170000Y-61636000D02*
X135170000Y-62460000D01*
X135170000Y-64540000D02*
X135170000Y-65364000D01*
X135210000Y-61675000D02*
X135210000Y-62460000D01*
X135210000Y-64540000D02*
X135210000Y-65325000D01*
X135250000Y-61715000D02*
X135250000Y-62460000D01*
X135250000Y-64540000D02*
X135250000Y-65285000D01*
X135290000Y-61757000D02*
X135290000Y-62460000D01*
X135290000Y-64540000D02*
X135290000Y-65243000D01*
X135330000Y-61801000D02*
X135330000Y-62460000D01*
X135330000Y-64540000D02*
X135330000Y-65199000D01*
X135370000Y-61848000D02*
X135370000Y-62460000D01*
X135370000Y-64540000D02*
X135370000Y-65152000D01*
X135410000Y-61896000D02*
X135410000Y-62460000D01*
X135410000Y-64540000D02*
X135410000Y-65104000D01*
X135450000Y-61947000D02*
X135450000Y-62460000D01*
X135450000Y-64540000D02*
X135450000Y-65053000D01*
X135490000Y-62001000D02*
X135490000Y-62460000D01*
X135490000Y-64540000D02*
X135490000Y-64999000D01*
X135530000Y-62057000D02*
X135530000Y-62460000D01*
X135530000Y-64540000D02*
X135530000Y-64943000D01*
X135570000Y-62117000D02*
X135570000Y-62460000D01*
X135570000Y-64540000D02*
X135570000Y-64883000D01*
X135610000Y-62181000D02*
X135610000Y-62460000D01*
X135610000Y-64540000D02*
X135610000Y-64819000D01*
X135650000Y-62249000D02*
X135650000Y-62460000D01*
X135650000Y-64540000D02*
X135650000Y-64751000D01*
X135690000Y-62323000D02*
X135690000Y-64677000D01*
X135730000Y-62402000D02*
X135730000Y-64598000D01*
X135770000Y-62489000D02*
X135770000Y-64511000D01*
X135810000Y-62586000D02*
X135810000Y-64414000D01*
X135850000Y-62695000D02*
X135850000Y-64305000D01*
X135890000Y-62823000D02*
X135890000Y-64177000D01*
X135930000Y-62983000D02*
X135930000Y-64017000D01*
X135970000Y-63217000D02*
X135970000Y-63783000D01*
X135990000Y-63500000D02*
G75*
G02*
X130750000Y-63500000I-2620000J0D01*
G01*
X130750000Y-63500000D02*
G75*
G02*
X135990000Y-63500000I2620000J0D01*
G01*
%TO.C,TP1*%
X135570000Y-99060000D02*
G75*
G02*
X133670000Y-99060000I-950000J0D01*
G01*
X133670000Y-99060000D02*
G75*
G02*
X135570000Y-99060000I950000J0D01*
G01*
%TO.C,R4*%
X154205000Y-85047064D02*
X154205000Y-84592936D01*
X155675000Y-85047064D02*
X155675000Y-84592936D01*
%TO.C,C6*%
X108485000Y-91701252D02*
X108485000Y-91178748D01*
X109955000Y-91701252D02*
X109955000Y-91178748D01*
%TO.C,R9*%
X115612936Y-47525000D02*
X116067064Y-47525000D01*
X115612936Y-48995000D02*
X116067064Y-48995000D01*
%TO.C,J2*%
X109300000Y-102760000D02*
X136620000Y-102760000D01*
X109300000Y-110800000D02*
X109300000Y-102760000D01*
X110108000Y-106180000D02*
X109300000Y-106180000D01*
X110108000Y-107180000D02*
X109300000Y-107180000D01*
X111377000Y-104880000D02*
X109300000Y-104880000D01*
X115108000Y-106180000D02*
X113732000Y-106180000D01*
X115108000Y-107180000D02*
X113732000Y-107180000D01*
X116377000Y-104880000D02*
X112463000Y-104880000D01*
X120108000Y-106180000D02*
X118732000Y-106180000D01*
X120108000Y-107180000D02*
X118732000Y-107180000D01*
X121377000Y-104880000D02*
X117463000Y-104880000D01*
X125108000Y-106180000D02*
X123732000Y-106180000D01*
X125108000Y-107180000D02*
X123732000Y-107180000D01*
X126377000Y-104880000D02*
X122463000Y-104880000D01*
X130108000Y-106180000D02*
X128732000Y-106180000D01*
X130108000Y-107180000D02*
X128732000Y-107180000D01*
X131377000Y-104880000D02*
X127463000Y-104880000D01*
X135040000Y-104880000D02*
X132463000Y-104880000D01*
X135040000Y-106180000D02*
X133732000Y-106180000D01*
X135040000Y-107180000D02*
X133732000Y-107180000D01*
X137220000Y-102760000D02*
X140040000Y-102760000D01*
X140040000Y-102760000D02*
X140040000Y-110800000D01*
X140040000Y-104880000D02*
X138800000Y-104880000D01*
X140040000Y-106180000D02*
X138800000Y-106180000D01*
X140040000Y-107180000D02*
X138800000Y-107180000D01*
X140040000Y-110800000D02*
X109300000Y-110800000D01*
X136920000Y-102760000D02*
X136480000Y-102150000D01*
X137360000Y-102150000D01*
X136920000Y-102760000D01*
G36*
X136920000Y-102760000D02*
G01*
X136480000Y-102150000D01*
X137360000Y-102150000D01*
X136920000Y-102760000D01*
G37*
%TD*%
M02*
