%TF.GenerationSoftware,KiCad,Pcbnew,10.0.4*%
%TF.CreationDate,2026-07-22T17:59:10+02:00*%
%TF.ProjectId,ESP32_BUCK_WLED_NO_BOARD,45535033-325f-4425-9543-4b5f574c4544,rev?*%
%TF.SameCoordinates,Original*%
%TF.FileFunction,Copper,L4,Bot*%
%TF.FilePolarity,Positive*%
%FSLAX46Y46*%
G04 Gerber Fmt 4.6, Leading zero omitted, Abs format (unit mm)*
G04 Created by KiCad (PCBNEW 10.0.4) date 2026-07-22 17:59:10*
%MOMM*%
%LPD*%
G01*
G04 APERTURE LIST*
G04 Aperture macros list*
%AMRoundRect*
0 Rectangle with rounded corners*
0 $1 Rounding radius*
0 $2 $3 $4 $5 $6 $7 $8 $9 X,Y pos of 4 corners*
0 Add a 4 corners polygon primitive as box body*
4,1,4,$2,$3,$4,$5,$6,$7,$8,$9,$2,$3,0*
0 Add four circle primitives for the rounded corners*
1,1,$1+$1,$2,$3*
1,1,$1+$1,$4,$5*
1,1,$1+$1,$6,$7*
1,1,$1+$1,$8,$9*
0 Add four rect primitives between the rounded corners*
20,1,$1+$1,$2,$3,$4,$5,0*
20,1,$1+$1,$4,$5,$6,$7,0*
20,1,$1+$1,$6,$7,$8,$9,0*
20,1,$1+$1,$8,$9,$2,$3,0*%
G04 Aperture macros list end*
%TA.AperFunction,ComponentPad*%
%ADD10RoundRect,0.250000X0.550000X-0.550000X0.550000X0.550000X-0.550000X0.550000X-0.550000X-0.550000X0*%
%TD*%
%TA.AperFunction,ComponentPad*%
%ADD11C,1.600000*%
%TD*%
%TA.AperFunction,ComponentPad*%
%ADD12RoundRect,0.250000X-0.550000X-0.550000X0.550000X-0.550000X0.550000X0.550000X-0.550000X0.550000X0*%
%TD*%
%TA.AperFunction,ComponentPad*%
%ADD13C,2.000000*%
%TD*%
%TA.AperFunction,ComponentPad*%
%ADD14RoundRect,0.250000X-0.750000X-0.750000X0.750000X-0.750000X0.750000X0.750000X-0.750000X0.750000X0*%
%TD*%
%TA.AperFunction,ComponentPad*%
%ADD15RoundRect,0.249999X0.850001X-0.850001X0.850001X0.850001X-0.850001X0.850001X-0.850001X-0.850001X0*%
%TD*%
%TA.AperFunction,ComponentPad*%
%ADD16C,2.200000*%
%TD*%
%TA.AperFunction,ComponentPad*%
%ADD17R,1.700000X1.700000*%
%TD*%
%TA.AperFunction,ComponentPad*%
%ADD18C,1.700000*%
%TD*%
%TA.AperFunction,ComponentPad*%
%ADD19RoundRect,0.250001X1.149999X1.149999X-1.149999X1.149999X-1.149999X-1.149999X1.149999X-1.149999X0*%
%TD*%
%TA.AperFunction,ComponentPad*%
%ADD20C,2.800000*%
%TD*%
%TA.AperFunction,HeatsinkPad*%
%ADD21C,0.600000*%
%TD*%
%TA.AperFunction,ComponentPad*%
%ADD22C,1.440000*%
%TD*%
%TA.AperFunction,ViaPad*%
%ADD23C,0.600000*%
%TD*%
G04 APERTURE END LIST*
D10*
%TO.P,C5,1*%
%TO.N,/VDD33*%
X111760000Y-43140000D03*
D11*
%TO.P,C5,2*%
%TO.N,GND*%
X111760000Y-40640000D03*
%TD*%
D12*
%TO.P,C14,1*%
%TO.N,/V_ALIM*%
X154940000Y-99060000D03*
D11*
%TO.P,C14,2*%
%TO.N,GND*%
X157440000Y-99060000D03*
%TD*%
D13*
%TO.P,SW2,1,1_1*%
%TO.N,GND*%
X146610000Y-51090000D03*
X153110000Y-51090000D03*
%TO.P,SW2,2,2_2*%
%TO.N,/IO0*%
X146610000Y-55590000D03*
X153110000Y-55590000D03*
%TD*%
D14*
%TO.P,C1,1*%
%TO.N,/5V_BUCK*%
X147320000Y-78740000D03*
D13*
%TO.P,C1,2*%
%TO.N,GND*%
X152320000Y-78740000D03*
%TD*%
D15*
%TO.P,D1,1,K_1*%
%TO.N,Net-(D1-K)*%
X149860000Y-96520000D03*
D16*
%TO.P,D1,2,A_2*%
%TO.N,GND*%
X149860000Y-86360000D03*
%TD*%
D17*
%TO.P,J6,1,Pin_1_1*%
%TO.N,/5V_ESP*%
X142240000Y-71120000D03*
D18*
%TO.P,J6,2,Pin_2_2*%
%TO.N,/5V_BUCK*%
X142240000Y-73660000D03*
%TD*%
D19*
%TO.P,J3,1,Pin_1_1*%
%TO.N,/V_ALIM*%
X152400000Y-106680000D03*
D20*
%TO.P,J3,2,Pin_2_2*%
%TO.N,GND*%
X147400000Y-106680000D03*
%TD*%
D12*
%TO.P,C4,1*%
%TO.N,/5V_ESP*%
X124500000Y-63500000D03*
D11*
%TO.P,C4,2*%
%TO.N,GND*%
X127000000Y-63500000D03*
%TD*%
D17*
%TO.P,J5,1,Pin_1_1*%
%TO.N,/DTR*%
X114300000Y-66040000D03*
D18*
%TO.P,J5,2,Pin_2_2*%
%TO.N,/RTS*%
X114300000Y-63500000D03*
%TO.P,J5,3,Pin_3_3*%
%TO.N,/RXD0*%
X114300000Y-60960000D03*
%TO.P,J5,4,Pin_4_4*%
%TO.N,/RXD*%
X114300000Y-58420000D03*
%TO.P,J5,5,Pin_5_5*%
%TO.N,GND*%
X114300000Y-55880000D03*
%TO.P,J5,6,Pin_6_6*%
%TO.N,/VDD33*%
X114300000Y-53340000D03*
%TD*%
D21*
%TO.P,U3,39,GND_39*%
%TO.N,GND*%
X130680000Y-46160000D03*
X130680000Y-47560000D03*
X131380000Y-45460000D03*
X131380000Y-46860000D03*
X131380000Y-48260000D03*
X132080000Y-46160000D03*
X132080000Y-47560000D03*
X132780000Y-45460000D03*
X132780000Y-46860000D03*
X132780000Y-48260000D03*
X133480000Y-46160000D03*
X133480000Y-47560000D03*
%TD*%
D13*
%TO.P,SW3,1,1_1*%
%TO.N,GND*%
X146610000Y-40930000D03*
X153110000Y-40930000D03*
%TO.P,SW3,2,2_2*%
%TO.N,/EN*%
X146610000Y-45430000D03*
X153110000Y-45430000D03*
%TD*%
D22*
%TO.P,RV1,1,1_1*%
%TO.N,Net-(R4-Pad2)*%
X139700000Y-81280000D03*
%TO.P,RV1,2,2_2*%
X137160000Y-81280000D03*
%TO.P,RV1,3,3_3*%
%TO.N,GND*%
X134620000Y-81280000D03*
%TD*%
D12*
%TO.P,C3,1*%
%TO.N,/VDD33*%
X132120000Y-63500000D03*
D11*
%TO.P,C3,2*%
%TO.N,GND*%
X134620000Y-63500000D03*
%TD*%
D19*
%TO.P,J2,1,Pin_1_1*%
%TO.N,GND*%
X136920000Y-106680000D03*
D20*
%TO.P,J2,2,Pin_2_2*%
%TO.N,/V_ALIM*%
X131920000Y-106680000D03*
%TO.P,J2,3,Pin_3_3*%
%TO.N,Net-(J2-Pin_3)*%
X126920000Y-106680000D03*
%TO.P,J2,4,Pin_4_4*%
%TO.N,Net-(J2-Pin_4)*%
X121920000Y-106680000D03*
%TO.P,J2,5,Pin_5_5*%
%TO.N,Net-(J2-Pin_5)*%
X116920000Y-106680000D03*
%TO.P,J2,6,Pin_6_6*%
%TO.N,Net-(J2-Pin_6)*%
X111920000Y-106680000D03*
%TD*%
D23*
%TO.N,/RTS*%
X151130000Y-66927500D03*
%TO.N,/VDD33*%
X119380000Y-44450000D03*
X116840000Y-46990000D03*
X137160000Y-63500000D03*
X147320000Y-63500000D03*
X123420000Y-40410000D03*
%TO.N,/V_ALIM*%
X146910000Y-94840000D03*
X151130000Y-99060000D03*
%TO.N,/IO0*%
X156162208Y-55737947D03*
X151130000Y-72390000D03*
%TO.N,/5V_BUCK*%
X157480000Y-82550000D03*
X158750000Y-90170000D03*
%TO.N,/5V_ESP*%
X119380000Y-64770000D03*
X139700000Y-67310000D03*
X109220000Y-88900000D03*
X111825000Y-88965000D03*
%TO.N,Net-(D1-K)*%
X152400000Y-93420000D03*
X146890000Y-93140000D03*
%TO.N,/LED2*%
X121920000Y-97790000D03*
X119315000Y-96520000D03*
%TO.N,/EN*%
X153337500Y-60022500D03*
X115570000Y-46990000D03*
X123190000Y-46990000D03*
X123420000Y-41680000D03*
X156210000Y-44450000D03*
%TO.N,/DTR*%
X151130000Y-68027500D03*
%TO.N,/IO16*%
X114235000Y-91505000D03*
X143510000Y-53340000D03*
%TO.N,/LED1*%
X115570000Y-95250000D03*
X127000000Y-97790000D03*
%TO.N,/IO17*%
X118045000Y-91505000D03*
X143510000Y-52070000D03*
%TO.N,/LED3*%
X119692009Y-91127990D03*
X116840000Y-97790000D03*
%TO.N,/IO18*%
X143510000Y-49530000D03*
X119315000Y-86425000D03*
%TO.N,/LED4*%
X116775000Y-91375000D03*
X111760000Y-97790000D03*
%TO.N,/IO19*%
X143510000Y-48260000D03*
X115570000Y-86360000D03*
%TO.N,/RXD0*%
X143510000Y-44450000D03*
%TO.N,/RXD*%
X143499581Y-43072765D03*
%TO.N,Net-(U1-FB)*%
X153670000Y-86360000D03*
X146890000Y-89740000D03*
%TO.N,Net-(R4-Pad2)*%
X153670000Y-83820000D03*
%TD*%
%TA.AperFunction,Conductor*%
%TO.N,/VDD33*%
G36*
X109523039Y-37350185D02*
G01*
X109568794Y-37402989D01*
X109580000Y-37454500D01*
X109580000Y-37840000D01*
X157580000Y-37840000D01*
X157580000Y-37483238D01*
X157585099Y-37465872D01*
X157585180Y-37447773D01*
X157594738Y-37433044D01*
X157599685Y-37416199D01*
X157613362Y-37404347D01*
X157623216Y-37389164D01*
X157639220Y-37381941D01*
X157652489Y-37370444D01*
X157670404Y-37367868D01*
X157686901Y-37360423D01*
X157721123Y-37360575D01*
X157721647Y-37360500D01*
X157722102Y-37360566D01*
X157966703Y-37396849D01*
X157978617Y-37399219D01*
X158299951Y-37479709D01*
X158311588Y-37483240D01*
X158382806Y-37508722D01*
X158623467Y-37594832D01*
X158634688Y-37599479D01*
X158934163Y-37741120D01*
X158944871Y-37746844D01*
X159228988Y-37917137D01*
X159239106Y-37923897D01*
X159505170Y-38121224D01*
X159514576Y-38128944D01*
X159760013Y-38351395D01*
X159768604Y-38359986D01*
X159955755Y-38566475D01*
X159991055Y-38605423D01*
X159998775Y-38614829D01*
X160196102Y-38880893D01*
X160202862Y-38891011D01*
X160331776Y-39106092D01*
X160373148Y-39175116D01*
X160378883Y-39185844D01*
X160511598Y-39466447D01*
X160520514Y-39485297D01*
X160525170Y-39496540D01*
X160636759Y-39808411D01*
X160640292Y-39820055D01*
X160720777Y-40141369D01*
X160723151Y-40153305D01*
X160771754Y-40480962D01*
X160772947Y-40493071D01*
X160789351Y-40826966D01*
X160789500Y-40833051D01*
X160789500Y-64646000D01*
X160769815Y-64713039D01*
X160717011Y-64758794D01*
X160665500Y-64770000D01*
X135466171Y-64770000D01*
X135399132Y-64750315D01*
X135353377Y-64697511D01*
X135343433Y-64628353D01*
X135372458Y-64564797D01*
X135393286Y-64545682D01*
X135467212Y-64491971D01*
X135467210Y-64491971D01*
X135467219Y-64491966D01*
X135611966Y-64347219D01*
X135611968Y-64347215D01*
X135611971Y-64347213D01*
X135669670Y-64267796D01*
X135732287Y-64181610D01*
X135825220Y-63999219D01*
X135888477Y-63804534D01*
X135920500Y-63602352D01*
X135920500Y-63397648D01*
X135912257Y-63345606D01*
X135888477Y-63195465D01*
X135825218Y-63000776D01*
X135773865Y-62899991D01*
X135732287Y-62818390D01*
X135716894Y-62797203D01*
X135611971Y-62652786D01*
X135467213Y-62508028D01*
X135301613Y-62387715D01*
X135301612Y-62387714D01*
X135301610Y-62387713D01*
X135217681Y-62344949D01*
X135119223Y-62294781D01*
X134924534Y-62231522D01*
X134749995Y-62203878D01*
X134722352Y-62199500D01*
X134517648Y-62199500D01*
X134493329Y-62203351D01*
X134315465Y-62231522D01*
X134120776Y-62294781D01*
X133938386Y-62387715D01*
X133772786Y-62508028D01*
X133628032Y-62652782D01*
X133587087Y-62709139D01*
X133531757Y-62751804D01*
X133462144Y-62757783D01*
X133400349Y-62725177D01*
X133369063Y-62675256D01*
X133354359Y-62630882D01*
X133354356Y-62630875D01*
X133262315Y-62481654D01*
X133138345Y-62357684D01*
X132989124Y-62265643D01*
X132989119Y-62265641D01*
X132822697Y-62210494D01*
X132822690Y-62210493D01*
X132719986Y-62200000D01*
X132370000Y-62200000D01*
X132370000Y-63184314D01*
X132365606Y-63179920D01*
X132274394Y-63127259D01*
X132172661Y-63100000D01*
X132067339Y-63100000D01*
X131965606Y-63127259D01*
X131874394Y-63179920D01*
X131870000Y-63184314D01*
X131870000Y-62200000D01*
X131520028Y-62200000D01*
X131520012Y-62200001D01*
X131417302Y-62210494D01*
X131250880Y-62265641D01*
X131250875Y-62265643D01*
X131101654Y-62357684D01*
X130977684Y-62481654D01*
X130885643Y-62630875D01*
X130885641Y-62630880D01*
X130830494Y-62797302D01*
X130830493Y-62797309D01*
X130820000Y-62900013D01*
X130820000Y-63250000D01*
X131804314Y-63250000D01*
X131799920Y-63254394D01*
X131747259Y-63345606D01*
X131720000Y-63447339D01*
X131720000Y-63552661D01*
X131747259Y-63654394D01*
X131799920Y-63745606D01*
X131804314Y-63750000D01*
X130820001Y-63750000D01*
X130820001Y-64099986D01*
X130830494Y-64202697D01*
X130885641Y-64369119D01*
X130885643Y-64369124D01*
X130977684Y-64518345D01*
X131017658Y-64558319D01*
X131051143Y-64619642D01*
X131046159Y-64689334D01*
X131004287Y-64745267D01*
X130938823Y-64769684D01*
X130929977Y-64770000D01*
X127846171Y-64770000D01*
X127779132Y-64750315D01*
X127733377Y-64697511D01*
X127723433Y-64628353D01*
X127752458Y-64564797D01*
X127773286Y-64545682D01*
X127847212Y-64491971D01*
X127847210Y-64491971D01*
X127847219Y-64491966D01*
X127991966Y-64347219D01*
X127991968Y-64347215D01*
X127991971Y-64347213D01*
X128049670Y-64267796D01*
X128112287Y-64181610D01*
X128205220Y-63999219D01*
X128268477Y-63804534D01*
X128300500Y-63602352D01*
X128300500Y-63397648D01*
X128292257Y-63345606D01*
X128268477Y-63195465D01*
X128237458Y-63100000D01*
X128205220Y-63000781D01*
X128205217Y-63000777D01*
X128205217Y-63000774D01*
X128180956Y-62953160D01*
X128180955Y-62953159D01*
X128153865Y-62899992D01*
X128112287Y-62818390D01*
X128112285Y-62818387D01*
X128112284Y-62818385D01*
X127991971Y-62652786D01*
X127847213Y-62508028D01*
X127681613Y-62387715D01*
X127681612Y-62387714D01*
X127681610Y-62387713D01*
X127597681Y-62344949D01*
X127499223Y-62294781D01*
X127304534Y-62231522D01*
X127129995Y-62203878D01*
X127102352Y-62199500D01*
X126897648Y-62199500D01*
X126873329Y-62203351D01*
X126695465Y-62231522D01*
X126500776Y-62294781D01*
X126318386Y-62387715D01*
X126152786Y-62508028D01*
X126008032Y-62652782D01*
X126008031Y-62652784D01*
X125967447Y-62708642D01*
X125957759Y-62716111D01*
X125951504Y-62726623D01*
X125930610Y-62737046D01*
X125912117Y-62751307D01*
X125899927Y-62752353D01*
X125888983Y-62757814D01*
X125865769Y-62755287D01*
X125842503Y-62757285D01*
X125831685Y-62751576D01*
X125819524Y-62750253D01*
X125801358Y-62735574D01*
X125780709Y-62724678D01*
X125773357Y-62712947D01*
X125765179Y-62706339D01*
X125749426Y-62674764D01*
X125736292Y-62635127D01*
X125730000Y-62596129D01*
X125730000Y-62230000D01*
X125283159Y-62230000D01*
X125244156Y-62223706D01*
X125202801Y-62210002D01*
X125202798Y-62210001D01*
X125202797Y-62210001D01*
X125202793Y-62210000D01*
X125202790Y-62210000D01*
X125100010Y-62199500D01*
X123899998Y-62199500D01*
X123899981Y-62199501D01*
X123797203Y-62210000D01*
X123765151Y-62220621D01*
X123755843Y-62223706D01*
X123716840Y-62230000D01*
X115231237Y-62230000D01*
X115164198Y-62210315D01*
X115118443Y-62157511D01*
X115108499Y-62088353D01*
X115137524Y-62024797D01*
X115158352Y-62005682D01*
X115179785Y-61990109D01*
X115179783Y-61990109D01*
X115179792Y-61990104D01*
X115330104Y-61839792D01*
X115330106Y-61839788D01*
X115330109Y-61839786D01*
X115455048Y-61667820D01*
X115455047Y-61667820D01*
X115455051Y-61667816D01*
X115551557Y-61478412D01*
X115617246Y-61276243D01*
X115650500Y-61066287D01*
X115650500Y-60853713D01*
X115617246Y-60643757D01*
X115551557Y-60441588D01*
X115455051Y-60252184D01*
X115455049Y-60252181D01*
X115455048Y-60252179D01*
X115330109Y-60080213D01*
X115193549Y-59943653D01*
X152537000Y-59943653D01*
X152537000Y-60101346D01*
X152567761Y-60255989D01*
X152567764Y-60256001D01*
X152628102Y-60401672D01*
X152628109Y-60401685D01*
X152715710Y-60532788D01*
X152715713Y-60532792D01*
X152827207Y-60644286D01*
X152827211Y-60644289D01*
X152958314Y-60731890D01*
X152958327Y-60731897D01*
X153103998Y-60792235D01*
X153104003Y-60792237D01*
X153258653Y-60822999D01*
X153258656Y-60823000D01*
X153258658Y-60823000D01*
X153416344Y-60823000D01*
X153416345Y-60822999D01*
X153570997Y-60792237D01*
X153716679Y-60731894D01*
X153847789Y-60644289D01*
X153959289Y-60532789D01*
X154046894Y-60401679D01*
X154107237Y-60255997D01*
X154138000Y-60101342D01*
X154138000Y-59943658D01*
X154138000Y-59943655D01*
X154137999Y-59943653D01*
X154109521Y-59800486D01*
X154107237Y-59789003D01*
X154092122Y-59752512D01*
X154046897Y-59643327D01*
X154046890Y-59643314D01*
X153959289Y-59512211D01*
X153959286Y-59512207D01*
X153847792Y-59400713D01*
X153847788Y-59400710D01*
X153716685Y-59313109D01*
X153716672Y-59313102D01*
X153571001Y-59252764D01*
X153570989Y-59252761D01*
X153416345Y-59222000D01*
X153416342Y-59222000D01*
X153258658Y-59222000D01*
X153258655Y-59222000D01*
X153104010Y-59252761D01*
X153103998Y-59252764D01*
X152958327Y-59313102D01*
X152958314Y-59313109D01*
X152827211Y-59400710D01*
X152827207Y-59400713D01*
X152715713Y-59512207D01*
X152715710Y-59512211D01*
X152628109Y-59643314D01*
X152628102Y-59643327D01*
X152567764Y-59788998D01*
X152567761Y-59789010D01*
X152537000Y-59943653D01*
X115193549Y-59943653D01*
X115179786Y-59929890D01*
X115007820Y-59804951D01*
X115007115Y-59804591D01*
X114999054Y-59800485D01*
X114948259Y-59752512D01*
X114931463Y-59684692D01*
X114953999Y-59618556D01*
X114999054Y-59579515D01*
X115007816Y-59575051D01*
X115029789Y-59559086D01*
X115179786Y-59450109D01*
X115179788Y-59450106D01*
X115179792Y-59450104D01*
X115330104Y-59299792D01*
X115330106Y-59299788D01*
X115330109Y-59299786D01*
X115455048Y-59127820D01*
X115455047Y-59127820D01*
X115455051Y-59127816D01*
X115551557Y-58938412D01*
X115617246Y-58736243D01*
X115650500Y-58526287D01*
X115650500Y-58313713D01*
X115617246Y-58103757D01*
X115551557Y-57901588D01*
X115455051Y-57712184D01*
X115455049Y-57712181D01*
X115455048Y-57712179D01*
X115330109Y-57540213D01*
X115179786Y-57389890D01*
X115007820Y-57264951D01*
X115007115Y-57264591D01*
X114999054Y-57260485D01*
X114948259Y-57212512D01*
X114931463Y-57144692D01*
X114953999Y-57078556D01*
X114999054Y-57039515D01*
X115007816Y-57035051D01*
X115082809Y-56980566D01*
X115179786Y-56910109D01*
X115179788Y-56910106D01*
X115179792Y-56910104D01*
X115330104Y-56759792D01*
X115330106Y-56759788D01*
X115330109Y-56759786D01*
X115455048Y-56587820D01*
X115455047Y-56587820D01*
X115455051Y-56587816D01*
X115551557Y-56398412D01*
X115617246Y-56196243D01*
X115650500Y-55986287D01*
X115650500Y-55773713D01*
X115617246Y-55563757D01*
X115587400Y-55471902D01*
X145109500Y-55471902D01*
X145109500Y-55708097D01*
X145146446Y-55941368D01*
X145219433Y-56165996D01*
X145318148Y-56359733D01*
X145326657Y-56376433D01*
X145465483Y-56567510D01*
X145632490Y-56734517D01*
X145823567Y-56873343D01*
X145922991Y-56924002D01*
X146034003Y-56980566D01*
X146034005Y-56980566D01*
X146034008Y-56980568D01*
X146154412Y-57019689D01*
X146258631Y-57053553D01*
X146491903Y-57090500D01*
X146491908Y-57090500D01*
X146728097Y-57090500D01*
X146961368Y-57053553D01*
X147018320Y-57035048D01*
X147185992Y-56980568D01*
X147396433Y-56873343D01*
X147587510Y-56734517D01*
X147754517Y-56567510D01*
X147893343Y-56376433D01*
X148000568Y-56165992D01*
X148073553Y-55941368D01*
X148093284Y-55816791D01*
X148110500Y-55708097D01*
X148110500Y-55471902D01*
X151609500Y-55471902D01*
X151609500Y-55708097D01*
X151646446Y-55941368D01*
X151719433Y-56165996D01*
X151818148Y-56359733D01*
X151826657Y-56376433D01*
X151965483Y-56567510D01*
X152132490Y-56734517D01*
X152323567Y-56873343D01*
X152422991Y-56924002D01*
X152534003Y-56980566D01*
X152534005Y-56980566D01*
X152534008Y-56980568D01*
X152654412Y-57019689D01*
X152758631Y-57053553D01*
X152991903Y-57090500D01*
X152991908Y-57090500D01*
X153228097Y-57090500D01*
X153461368Y-57053553D01*
X153518320Y-57035048D01*
X153685992Y-56980568D01*
X153896433Y-56873343D01*
X154087510Y-56734517D01*
X154254517Y-56567510D01*
X154393343Y-56376433D01*
X154500568Y-56165992D01*
X154573553Y-55941368D01*
X154593284Y-55816791D01*
X154610500Y-55708097D01*
X154610500Y-55659100D01*
X155361708Y-55659100D01*
X155361708Y-55816793D01*
X155392469Y-55971436D01*
X155392472Y-55971448D01*
X155452810Y-56117119D01*
X155452817Y-56117132D01*
X155540418Y-56248235D01*
X155540421Y-56248239D01*
X155651915Y-56359733D01*
X155651919Y-56359736D01*
X155783022Y-56447337D01*
X155783035Y-56447344D01*
X155928706Y-56507682D01*
X155928711Y-56507684D01*
X156083361Y-56538446D01*
X156083364Y-56538447D01*
X156083366Y-56538447D01*
X156241052Y-56538447D01*
X156241053Y-56538446D01*
X156395705Y-56507684D01*
X156541387Y-56447341D01*
X156672497Y-56359736D01*
X156783997Y-56248236D01*
X156871602Y-56117126D01*
X156931945Y-55971444D01*
X156962708Y-55816789D01*
X156962708Y-55659105D01*
X156962708Y-55659102D01*
X156962707Y-55659100D01*
X156943743Y-55563762D01*
X156931945Y-55504450D01*
X156918463Y-55471902D01*
X156871605Y-55358774D01*
X156871598Y-55358761D01*
X156783997Y-55227658D01*
X156783994Y-55227654D01*
X156672500Y-55116160D01*
X156672496Y-55116157D01*
X156541393Y-55028556D01*
X156541380Y-55028549D01*
X156395709Y-54968211D01*
X156395697Y-54968208D01*
X156241053Y-54937447D01*
X156241050Y-54937447D01*
X156083366Y-54937447D01*
X156083363Y-54937447D01*
X155928718Y-54968208D01*
X155928706Y-54968211D01*
X155783035Y-55028549D01*
X155783022Y-55028556D01*
X155651919Y-55116157D01*
X155651915Y-55116160D01*
X155540421Y-55227654D01*
X155540418Y-55227658D01*
X155452817Y-55358761D01*
X155452810Y-55358774D01*
X155392472Y-55504445D01*
X155392469Y-55504457D01*
X155361708Y-55659100D01*
X154610500Y-55659100D01*
X154610500Y-55471902D01*
X154573553Y-55238631D01*
X154505294Y-55028553D01*
X154500568Y-55014008D01*
X154500566Y-55014005D01*
X154500566Y-55014003D01*
X154416949Y-54849896D01*
X154393343Y-54803567D01*
X154254517Y-54612490D01*
X154087510Y-54445483D01*
X153896433Y-54306657D01*
X153685996Y-54199433D01*
X153461368Y-54126446D01*
X153228097Y-54089500D01*
X153228092Y-54089500D01*
X152991908Y-54089500D01*
X152991903Y-54089500D01*
X152758631Y-54126446D01*
X152534003Y-54199433D01*
X152323566Y-54306657D01*
X152214550Y-54385862D01*
X152132490Y-54445483D01*
X152132488Y-54445485D01*
X152132487Y-54445485D01*
X151965485Y-54612487D01*
X151965485Y-54612488D01*
X151965483Y-54612490D01*
X151922079Y-54672230D01*
X151826657Y-54803566D01*
X151719433Y-55014003D01*
X151646446Y-55238631D01*
X151609500Y-55471902D01*
X148110500Y-55471902D01*
X148073553Y-55238631D01*
X148005294Y-55028553D01*
X148000568Y-55014008D01*
X148000566Y-55014005D01*
X148000566Y-55014003D01*
X147916949Y-54849896D01*
X147893343Y-54803567D01*
X147754517Y-54612490D01*
X147587510Y-54445483D01*
X147396433Y-54306657D01*
X147185996Y-54199433D01*
X146961368Y-54126446D01*
X146728097Y-54089500D01*
X146728092Y-54089500D01*
X146491908Y-54089500D01*
X146491903Y-54089500D01*
X146258631Y-54126446D01*
X146034003Y-54199433D01*
X145823566Y-54306657D01*
X145714550Y-54385862D01*
X145632490Y-54445483D01*
X145632488Y-54445485D01*
X145632487Y-54445485D01*
X145465485Y-54612487D01*
X145465485Y-54612488D01*
X145465483Y-54612490D01*
X145422079Y-54672230D01*
X145326657Y-54803566D01*
X145219433Y-55014003D01*
X145146446Y-55238631D01*
X145109500Y-55471902D01*
X115587400Y-55471902D01*
X115551557Y-55361588D01*
X115455051Y-55172184D01*
X115455049Y-55172181D01*
X115455048Y-55172179D01*
X115330109Y-55000213D01*
X115179786Y-54849890D01*
X115007817Y-54724949D01*
X114998504Y-54720204D01*
X114947707Y-54672230D01*
X114930912Y-54604409D01*
X114953449Y-54538274D01*
X114998507Y-54499232D01*
X115007555Y-54494622D01*
X115061716Y-54455270D01*
X115061717Y-54455270D01*
X114429408Y-53822962D01*
X114492993Y-53805925D01*
X114607007Y-53740099D01*
X114700099Y-53647007D01*
X114765925Y-53532993D01*
X114782962Y-53469408D01*
X115415270Y-54101717D01*
X115415270Y-54101716D01*
X115454622Y-54047554D01*
X115551095Y-53858217D01*
X115616757Y-53656130D01*
X115616757Y-53656127D01*
X115650000Y-53446246D01*
X115650000Y-53233753D01*
X115616757Y-53023872D01*
X115616757Y-53023869D01*
X115551095Y-52821782D01*
X115454624Y-52632449D01*
X115415270Y-52578282D01*
X115415269Y-52578282D01*
X114782962Y-53210590D01*
X114765925Y-53147007D01*
X114700099Y-53032993D01*
X114607007Y-52939901D01*
X114492993Y-52874075D01*
X114429409Y-52857037D01*
X115061716Y-52224728D01*
X115007550Y-52185375D01*
X114831262Y-52095551D01*
X114831260Y-52095549D01*
X114818220Y-52088905D01*
X114616129Y-52023242D01*
X114413526Y-51991153D01*
X142709500Y-51991153D01*
X142709500Y-52148846D01*
X142740261Y-52303489D01*
X142740264Y-52303501D01*
X142800602Y-52449172D01*
X142800609Y-52449185D01*
X142888210Y-52580288D01*
X142888213Y-52580292D01*
X142925240Y-52617319D01*
X142958725Y-52678642D01*
X142953741Y-52748334D01*
X142925240Y-52792681D01*
X142888213Y-52829707D01*
X142888210Y-52829711D01*
X142800609Y-52960814D01*
X142800602Y-52960827D01*
X142740264Y-53106498D01*
X142740261Y-53106510D01*
X142709500Y-53261153D01*
X142709500Y-53418846D01*
X142740261Y-53573489D01*
X142740264Y-53573501D01*
X142800602Y-53719172D01*
X142800609Y-53719185D01*
X142888210Y-53850288D01*
X142888213Y-53850292D01*
X142999707Y-53961786D01*
X142999711Y-53961789D01*
X143130814Y-54049390D01*
X143130827Y-54049397D01*
X143227646Y-54089500D01*
X143276503Y-54109737D01*
X143431153Y-54140499D01*
X143431156Y-54140500D01*
X143431158Y-54140500D01*
X143588844Y-54140500D01*
X143588845Y-54140499D01*
X143743497Y-54109737D01*
X143889179Y-54049394D01*
X144020289Y-53961789D01*
X144131789Y-53850289D01*
X144219394Y-53719179D01*
X144279737Y-53573497D01*
X144310500Y-53418842D01*
X144310500Y-53261158D01*
X144310500Y-53261155D01*
X144310499Y-53261153D01*
X144279738Y-53106510D01*
X144279737Y-53106503D01*
X144279735Y-53106498D01*
X144219397Y-52960827D01*
X144219390Y-52960814D01*
X144131789Y-52829711D01*
X144131786Y-52829707D01*
X144094760Y-52792681D01*
X144061275Y-52731358D01*
X144066259Y-52661666D01*
X144094760Y-52617319D01*
X144131786Y-52580292D01*
X144131789Y-52580289D01*
X144219394Y-52449179D01*
X144279737Y-52303497D01*
X144310500Y-52148842D01*
X144310500Y-51991158D01*
X144310500Y-51991155D01*
X144310499Y-51991153D01*
X144310270Y-51990000D01*
X144279737Y-51836503D01*
X144279735Y-51836498D01*
X144219397Y-51690827D01*
X144219390Y-51690814D01*
X144131789Y-51559711D01*
X144131786Y-51559707D01*
X144020292Y-51448213D01*
X144020288Y-51448210D01*
X143889185Y-51360609D01*
X143889172Y-51360602D01*
X143743501Y-51300264D01*
X143743489Y-51300261D01*
X143588845Y-51269500D01*
X143588842Y-51269500D01*
X143431158Y-51269500D01*
X143431155Y-51269500D01*
X143276510Y-51300261D01*
X143276498Y-51300264D01*
X143130827Y-51360602D01*
X143130814Y-51360609D01*
X142999711Y-51448210D01*
X142999707Y-51448213D01*
X142888213Y-51559707D01*
X142888210Y-51559711D01*
X142800609Y-51690814D01*
X142800602Y-51690827D01*
X142740264Y-51836498D01*
X142740261Y-51836510D01*
X142709500Y-51991153D01*
X114413526Y-51991153D01*
X114406246Y-51990000D01*
X114193754Y-51990000D01*
X113983872Y-52023242D01*
X113983869Y-52023242D01*
X113781782Y-52088904D01*
X113592439Y-52185380D01*
X113538282Y-52224727D01*
X113538282Y-52224728D01*
X114170591Y-52857037D01*
X114107007Y-52874075D01*
X113992993Y-52939901D01*
X113899901Y-53032993D01*
X113834075Y-53147007D01*
X113817037Y-53210591D01*
X113184728Y-52578282D01*
X113184727Y-52578282D01*
X113145380Y-52632439D01*
X113048904Y-52821782D01*
X112983242Y-53023869D01*
X112983242Y-53023872D01*
X112950000Y-53233753D01*
X112950000Y-53446246D01*
X112983242Y-53656127D01*
X112983242Y-53656130D01*
X113048904Y-53858217D01*
X113145375Y-54047550D01*
X113184728Y-54101716D01*
X113817037Y-53469408D01*
X113834075Y-53532993D01*
X113899901Y-53647007D01*
X113992993Y-53740099D01*
X114107007Y-53805925D01*
X114170590Y-53822962D01*
X113538282Y-54455269D01*
X113538282Y-54455270D01*
X113592452Y-54494626D01*
X113592451Y-54494626D01*
X113601495Y-54499234D01*
X113652292Y-54547208D01*
X113669087Y-54615029D01*
X113646550Y-54681164D01*
X113601499Y-54720202D01*
X113592182Y-54724949D01*
X113420213Y-54849890D01*
X113269890Y-55000213D01*
X113144951Y-55172179D01*
X113048444Y-55361585D01*
X112982753Y-55563760D01*
X112949500Y-55773713D01*
X112949500Y-55986286D01*
X112977962Y-56165992D01*
X112982754Y-56196243D01*
X113035876Y-56359736D01*
X113048444Y-56398414D01*
X113144951Y-56587820D01*
X113269890Y-56759786D01*
X113420213Y-56910109D01*
X113592182Y-57035050D01*
X113600946Y-57039516D01*
X113651742Y-57087491D01*
X113668536Y-57155312D01*
X113645998Y-57221447D01*
X113600946Y-57260484D01*
X113592182Y-57264949D01*
X113420213Y-57389890D01*
X113269890Y-57540213D01*
X113144951Y-57712179D01*
X113048444Y-57901585D01*
X112982753Y-58103760D01*
X112949500Y-58313713D01*
X112949500Y-58526286D01*
X112982753Y-58736239D01*
X113048444Y-58938414D01*
X113144951Y-59127820D01*
X113269890Y-59299786D01*
X113420213Y-59450109D01*
X113592182Y-59575050D01*
X113600946Y-59579516D01*
X113651742Y-59627491D01*
X113668536Y-59695312D01*
X113645998Y-59761447D01*
X113600946Y-59800484D01*
X113592182Y-59804949D01*
X113420213Y-59929890D01*
X113269890Y-60080213D01*
X113144951Y-60252179D01*
X113048444Y-60441585D01*
X112982753Y-60643760D01*
X112949500Y-60853713D01*
X112949500Y-61066286D01*
X112982753Y-61276239D01*
X113048444Y-61478414D01*
X113144951Y-61667820D01*
X113269890Y-61839786D01*
X113420209Y-61990105D01*
X113420214Y-61990109D01*
X113441648Y-62005682D01*
X113484314Y-62061012D01*
X113490293Y-62130625D01*
X113457688Y-62192420D01*
X113396849Y-62226777D01*
X113368763Y-62230000D01*
X106034500Y-62230000D01*
X105967461Y-62210315D01*
X105921706Y-62157511D01*
X105910500Y-62106000D01*
X105910500Y-50971902D01*
X145109500Y-50971902D01*
X145109500Y-51208097D01*
X145146446Y-51441368D01*
X145219433Y-51665996D01*
X145306315Y-51836510D01*
X145326657Y-51876433D01*
X145465483Y-52067510D01*
X145632490Y-52234517D01*
X145823567Y-52373343D01*
X145922991Y-52424002D01*
X146034003Y-52480566D01*
X146034005Y-52480566D01*
X146034008Y-52480568D01*
X146154412Y-52519689D01*
X146258631Y-52553553D01*
X146491903Y-52590500D01*
X146491908Y-52590500D01*
X146728097Y-52590500D01*
X146961368Y-52553553D01*
X147185992Y-52480568D01*
X147396433Y-52373343D01*
X147587510Y-52234517D01*
X147754517Y-52067510D01*
X147893343Y-51876433D01*
X148000568Y-51665992D01*
X148073553Y-51441368D01*
X148086344Y-51360609D01*
X148110500Y-51208097D01*
X148110500Y-50971902D01*
X151609500Y-50971902D01*
X151609500Y-51208097D01*
X151646446Y-51441368D01*
X151719433Y-51665996D01*
X151806315Y-51836510D01*
X151826657Y-51876433D01*
X151965483Y-52067510D01*
X152132490Y-52234517D01*
X152323567Y-52373343D01*
X152422991Y-52424002D01*
X152534003Y-52480566D01*
X152534005Y-52480566D01*
X152534008Y-52480568D01*
X152654412Y-52519689D01*
X152758631Y-52553553D01*
X152991903Y-52590500D01*
X152991908Y-52590500D01*
X153228097Y-52590500D01*
X153461368Y-52553553D01*
X153685992Y-52480568D01*
X153896433Y-52373343D01*
X154087510Y-52234517D01*
X154254517Y-52067510D01*
X154393343Y-51876433D01*
X154500568Y-51665992D01*
X154573553Y-51441368D01*
X154586344Y-51360609D01*
X154610500Y-51208097D01*
X154610500Y-50971902D01*
X154573553Y-50738631D01*
X154500566Y-50514003D01*
X154407066Y-50330500D01*
X154393343Y-50303567D01*
X154254517Y-50112490D01*
X154087510Y-49945483D01*
X153896433Y-49806657D01*
X153811735Y-49763501D01*
X153685996Y-49699433D01*
X153461368Y-49626446D01*
X153228097Y-49589500D01*
X153228092Y-49589500D01*
X152991908Y-49589500D01*
X152991903Y-49589500D01*
X152758631Y-49626446D01*
X152534003Y-49699433D01*
X152323566Y-49806657D01*
X152214550Y-49885862D01*
X152132490Y-49945483D01*
X152132488Y-49945485D01*
X152132487Y-49945485D01*
X151965485Y-50112487D01*
X151965485Y-50112488D01*
X151965483Y-50112490D01*
X151936933Y-50151786D01*
X151826657Y-50303566D01*
X151719433Y-50514003D01*
X151646446Y-50738631D01*
X151609500Y-50971902D01*
X148110500Y-50971902D01*
X148073553Y-50738631D01*
X148000566Y-50514003D01*
X147907066Y-50330500D01*
X147893343Y-50303567D01*
X147754517Y-50112490D01*
X147587510Y-49945483D01*
X147396433Y-49806657D01*
X147311735Y-49763501D01*
X147185996Y-49699433D01*
X146961368Y-49626446D01*
X146728097Y-49589500D01*
X146728092Y-49589500D01*
X146491908Y-49589500D01*
X146491903Y-49589500D01*
X146258631Y-49626446D01*
X146034003Y-49699433D01*
X145823566Y-49806657D01*
X145714550Y-49885862D01*
X145632490Y-49945483D01*
X145632488Y-49945485D01*
X145632487Y-49945485D01*
X145465485Y-50112487D01*
X145465485Y-50112488D01*
X145465483Y-50112490D01*
X145436933Y-50151786D01*
X145326657Y-50303566D01*
X145219433Y-50514003D01*
X145146446Y-50738631D01*
X145109500Y-50971902D01*
X105910500Y-50971902D01*
X105910500Y-46911153D01*
X114769500Y-46911153D01*
X114769500Y-47068846D01*
X114800261Y-47223489D01*
X114800264Y-47223501D01*
X114860602Y-47369172D01*
X114860609Y-47369185D01*
X114948210Y-47500288D01*
X114948213Y-47500292D01*
X115059707Y-47611786D01*
X115059711Y-47611789D01*
X115190814Y-47699390D01*
X115190827Y-47699397D01*
X115312288Y-47749707D01*
X115336503Y-47759737D01*
X115491153Y-47790499D01*
X115491156Y-47790500D01*
X115491158Y-47790500D01*
X115648844Y-47790500D01*
X115648845Y-47790499D01*
X115803497Y-47759737D01*
X115949179Y-47699394D01*
X116080289Y-47611789D01*
X116191789Y-47500289D01*
X116279394Y-47369179D01*
X116339737Y-47223497D01*
X116370500Y-47068842D01*
X116370500Y-46911158D01*
X116370500Y-46911155D01*
X116370499Y-46911153D01*
X122389500Y-46911153D01*
X122389500Y-47068846D01*
X122420261Y-47223489D01*
X122420264Y-47223501D01*
X122480602Y-47369172D01*
X122480609Y-47369185D01*
X122568210Y-47500288D01*
X122568213Y-47500292D01*
X122679707Y-47611786D01*
X122679711Y-47611789D01*
X122810814Y-47699390D01*
X122810827Y-47699397D01*
X122932288Y-47749707D01*
X122956503Y-47759737D01*
X123111153Y-47790499D01*
X123111156Y-47790500D01*
X123111158Y-47790500D01*
X123268844Y-47790500D01*
X123268845Y-47790499D01*
X123423497Y-47759737D01*
X123569179Y-47699394D01*
X123700289Y-47611789D01*
X123811789Y-47500289D01*
X123899394Y-47369179D01*
X123959737Y-47223497D01*
X123990500Y-47068842D01*
X123990500Y-46911158D01*
X123990500Y-46911155D01*
X123990499Y-46911153D01*
X123971704Y-46816666D01*
X123959737Y-46756503D01*
X123924028Y-46670292D01*
X123899397Y-46610827D01*
X123899390Y-46610814D01*
X123811789Y-46479711D01*
X123811786Y-46479707D01*
X123700292Y-46368213D01*
X123700288Y-46368210D01*
X123569185Y-46280609D01*
X123569172Y-46280602D01*
X123423501Y-46220264D01*
X123423489Y-46220261D01*
X123304956Y-46196683D01*
X123304955Y-46196683D01*
X123268844Y-46189500D01*
X123268842Y-46189500D01*
X123111158Y-46189500D01*
X123111155Y-46189500D01*
X122956510Y-46220261D01*
X122956498Y-46220264D01*
X122810827Y-46280602D01*
X122810814Y-46280609D01*
X122679711Y-46368210D01*
X122679707Y-46368213D01*
X122568213Y-46479707D01*
X122568210Y-46479711D01*
X122480609Y-46610814D01*
X122480602Y-46610827D01*
X122420264Y-46756498D01*
X122420261Y-46756510D01*
X122389500Y-46911153D01*
X116370499Y-46911153D01*
X116351704Y-46816666D01*
X116339737Y-46756503D01*
X116304028Y-46670292D01*
X116279397Y-46610827D01*
X116279390Y-46610814D01*
X116191789Y-46479711D01*
X116191786Y-46479707D01*
X116080292Y-46368213D01*
X116080288Y-46368210D01*
X115949185Y-46280609D01*
X115949172Y-46280602D01*
X115803501Y-46220264D01*
X115803489Y-46220261D01*
X115648845Y-46189500D01*
X115648842Y-46189500D01*
X115491158Y-46189500D01*
X115491155Y-46189500D01*
X115336510Y-46220261D01*
X115336498Y-46220264D01*
X115190827Y-46280602D01*
X115190814Y-46280609D01*
X115059711Y-46368210D01*
X115059707Y-46368213D01*
X114948213Y-46479707D01*
X114948210Y-46479711D01*
X114860609Y-46610814D01*
X114860602Y-46610827D01*
X114800264Y-46756498D01*
X114800261Y-46756510D01*
X114769500Y-46911153D01*
X105910500Y-46911153D01*
X105910500Y-46081153D01*
X129879500Y-46081153D01*
X129879500Y-46238846D01*
X129910261Y-46393489D01*
X129910264Y-46393501D01*
X129970602Y-46539172D01*
X129970609Y-46539185D01*
X130058210Y-46670288D01*
X130058213Y-46670292D01*
X130160240Y-46772319D01*
X130193725Y-46833642D01*
X130188741Y-46903334D01*
X130160240Y-46947681D01*
X130058213Y-47049707D01*
X130058210Y-47049711D01*
X129970609Y-47180814D01*
X129970602Y-47180827D01*
X129910264Y-47326498D01*
X129910261Y-47326510D01*
X129879500Y-47481153D01*
X129879500Y-47638846D01*
X129910261Y-47793489D01*
X129910264Y-47793501D01*
X129970602Y-47939172D01*
X129970609Y-47939185D01*
X130058210Y-48070288D01*
X130058213Y-48070292D01*
X130169707Y-48181786D01*
X130169711Y-48181789D01*
X130300814Y-48269390D01*
X130300827Y-48269397D01*
X130410082Y-48314651D01*
X130446503Y-48329737D01*
X130501831Y-48340742D01*
X130563740Y-48373126D01*
X130598315Y-48433841D01*
X130599256Y-48438166D01*
X130610261Y-48493492D01*
X130610264Y-48493501D01*
X130670602Y-48639172D01*
X130670609Y-48639185D01*
X130758210Y-48770288D01*
X130758213Y-48770292D01*
X130869707Y-48881786D01*
X130869711Y-48881789D01*
X131000814Y-48969390D01*
X131000827Y-48969397D01*
X131122288Y-49019707D01*
X131146503Y-49029737D01*
X131301153Y-49060499D01*
X131301156Y-49060500D01*
X131301158Y-49060500D01*
X131458844Y-49060500D01*
X131458845Y-49060499D01*
X131613497Y-49029737D01*
X131759179Y-48969394D01*
X131890289Y-48881789D01*
X131920412Y-48851666D01*
X131992319Y-48779760D01*
X132053642Y-48746275D01*
X132123334Y-48751259D01*
X132167681Y-48779760D01*
X132269707Y-48881786D01*
X132269711Y-48881789D01*
X132400814Y-48969390D01*
X132400827Y-48969397D01*
X132522288Y-49019707D01*
X132546503Y-49029737D01*
X132701153Y-49060499D01*
X132701156Y-49060500D01*
X132701158Y-49060500D01*
X132858844Y-49060500D01*
X132858845Y-49060499D01*
X133013497Y-49029737D01*
X133159179Y-48969394D01*
X133290289Y-48881789D01*
X133401789Y-48770289D01*
X133489394Y-48639179D01*
X133549737Y-48493497D01*
X133560743Y-48438166D01*
X133593125Y-48376258D01*
X133653841Y-48341683D01*
X133658118Y-48340752D01*
X133713497Y-48329737D01*
X133859179Y-48269394D01*
X133990289Y-48181789D01*
X133990925Y-48181153D01*
X142709500Y-48181153D01*
X142709500Y-48338846D01*
X142740261Y-48493489D01*
X142740264Y-48493501D01*
X142800602Y-48639172D01*
X142800609Y-48639185D01*
X142888210Y-48770288D01*
X142888213Y-48770292D01*
X142925240Y-48807319D01*
X142958725Y-48868642D01*
X142953741Y-48938334D01*
X142925240Y-48982681D01*
X142888213Y-49019707D01*
X142888210Y-49019711D01*
X142800609Y-49150814D01*
X142800602Y-49150827D01*
X142740264Y-49296498D01*
X142740261Y-49296510D01*
X142709500Y-49451153D01*
X142709500Y-49608846D01*
X142740261Y-49763489D01*
X142740264Y-49763501D01*
X142800602Y-49909172D01*
X142800609Y-49909185D01*
X142888210Y-50040288D01*
X142888213Y-50040292D01*
X142999707Y-50151786D01*
X142999711Y-50151789D01*
X143130814Y-50239390D01*
X143130827Y-50239397D01*
X143276498Y-50299735D01*
X143276503Y-50299737D01*
X143431153Y-50330499D01*
X143431156Y-50330500D01*
X143431158Y-50330500D01*
X143588844Y-50330500D01*
X143588845Y-50330499D01*
X143743497Y-50299737D01*
X143889179Y-50239394D01*
X144020289Y-50151789D01*
X144131789Y-50040289D01*
X144219394Y-49909179D01*
X144279737Y-49763497D01*
X144310500Y-49608842D01*
X144310500Y-49451158D01*
X144310500Y-49451155D01*
X144310499Y-49451153D01*
X144279738Y-49296510D01*
X144279737Y-49296503D01*
X144279735Y-49296498D01*
X144219397Y-49150827D01*
X144219390Y-49150814D01*
X144131789Y-49019711D01*
X144131786Y-49019707D01*
X144094760Y-48982681D01*
X144061275Y-48921358D01*
X144066259Y-48851666D01*
X144094760Y-48807319D01*
X144131786Y-48770292D01*
X144131789Y-48770289D01*
X144219394Y-48639179D01*
X144279737Y-48493497D01*
X144310500Y-48338842D01*
X144310500Y-48181158D01*
X144310500Y-48181155D01*
X144310499Y-48181153D01*
X144288447Y-48070292D01*
X144279737Y-48026503D01*
X144243569Y-47939185D01*
X144219397Y-47880827D01*
X144219390Y-47880814D01*
X144131789Y-47749711D01*
X144131786Y-47749707D01*
X144020292Y-47638213D01*
X144020288Y-47638210D01*
X143889185Y-47550609D01*
X143889172Y-47550602D01*
X143743501Y-47490264D01*
X143743489Y-47490261D01*
X143588845Y-47459500D01*
X143588842Y-47459500D01*
X143431158Y-47459500D01*
X143431155Y-47459500D01*
X143276510Y-47490261D01*
X143276498Y-47490264D01*
X143130827Y-47550602D01*
X143130814Y-47550609D01*
X142999711Y-47638210D01*
X142999707Y-47638213D01*
X142888213Y-47749707D01*
X142888210Y-47749711D01*
X142800609Y-47880814D01*
X142800602Y-47880827D01*
X142740264Y-48026498D01*
X142740261Y-48026510D01*
X142709500Y-48181153D01*
X133990925Y-48181153D01*
X134084694Y-48087385D01*
X134101786Y-48070292D01*
X134101789Y-48070289D01*
X134189394Y-47939179D01*
X134249737Y-47793497D01*
X134280500Y-47638842D01*
X134280500Y-47481158D01*
X134280500Y-47481155D01*
X134280499Y-47481153D01*
X134249738Y-47326510D01*
X134249737Y-47326503D01*
X134207068Y-47223489D01*
X134189397Y-47180827D01*
X134189390Y-47180814D01*
X134101789Y-47049711D01*
X134101786Y-47049707D01*
X133999760Y-46947681D01*
X133966275Y-46886358D01*
X133971259Y-46816666D01*
X133999760Y-46772319D01*
X134101786Y-46670292D01*
X134101789Y-46670289D01*
X134189394Y-46539179D01*
X134249737Y-46393497D01*
X134280500Y-46238842D01*
X134280500Y-46081158D01*
X134280500Y-46081155D01*
X134280499Y-46081153D01*
X134249738Y-45926510D01*
X134249737Y-45926503D01*
X134189621Y-45781368D01*
X134189397Y-45780827D01*
X134189390Y-45780814D01*
X134101789Y-45649711D01*
X134101786Y-45649707D01*
X133990292Y-45538213D01*
X133990288Y-45538210D01*
X133859185Y-45450609D01*
X133859172Y-45450602D01*
X133713501Y-45390264D01*
X133713492Y-45390261D01*
X133658166Y-45379256D01*
X133596256Y-45346870D01*
X133576344Y-45311902D01*
X145109500Y-45311902D01*
X145109500Y-45548097D01*
X145146446Y-45781368D01*
X145219433Y-46005996D01*
X145312934Y-46189500D01*
X145326657Y-46216433D01*
X145465483Y-46407510D01*
X145632490Y-46574517D01*
X145823567Y-46713343D01*
X145908273Y-46756503D01*
X146034003Y-46820566D01*
X146034005Y-46820566D01*
X146034008Y-46820568D01*
X146074246Y-46833642D01*
X146258631Y-46893553D01*
X146491903Y-46930500D01*
X146491908Y-46930500D01*
X146728097Y-46930500D01*
X146961368Y-46893553D01*
X146983512Y-46886358D01*
X147185992Y-46820568D01*
X147396433Y-46713343D01*
X147587510Y-46574517D01*
X147754517Y-46407510D01*
X147893343Y-46216433D01*
X148000568Y-46005992D01*
X148073553Y-45781368D01*
X148073641Y-45780814D01*
X148110500Y-45548097D01*
X148110500Y-45311902D01*
X151609500Y-45311902D01*
X151609500Y-45548097D01*
X151646446Y-45781368D01*
X151719433Y-46005996D01*
X151812934Y-46189500D01*
X151826657Y-46216433D01*
X151965483Y-46407510D01*
X152132490Y-46574517D01*
X152323567Y-46713343D01*
X152408273Y-46756503D01*
X152534003Y-46820566D01*
X152534005Y-46820566D01*
X152534008Y-46820568D01*
X152574246Y-46833642D01*
X152758631Y-46893553D01*
X152991903Y-46930500D01*
X152991908Y-46930500D01*
X153228097Y-46930500D01*
X153461368Y-46893553D01*
X153483512Y-46886358D01*
X153685992Y-46820568D01*
X153896433Y-46713343D01*
X154087510Y-46574517D01*
X154254517Y-46407510D01*
X154393343Y-46216433D01*
X154500568Y-46005992D01*
X154573553Y-45781368D01*
X154573641Y-45780814D01*
X154610500Y-45548097D01*
X154610500Y-45311902D01*
X154573553Y-45078631D01*
X154531663Y-44949707D01*
X154500568Y-44854008D01*
X154500566Y-44854005D01*
X154500566Y-44854003D01*
X154393342Y-44643566D01*
X154254517Y-44452490D01*
X154173180Y-44371153D01*
X155409500Y-44371153D01*
X155409500Y-44528846D01*
X155440261Y-44683489D01*
X155440264Y-44683501D01*
X155500602Y-44829172D01*
X155500609Y-44829185D01*
X155588210Y-44960288D01*
X155588213Y-44960292D01*
X155699707Y-45071786D01*
X155699711Y-45071789D01*
X155830814Y-45159390D01*
X155830827Y-45159397D01*
X155910686Y-45192475D01*
X155976503Y-45219737D01*
X156131153Y-45250499D01*
X156131156Y-45250500D01*
X156131158Y-45250500D01*
X156288844Y-45250500D01*
X156288845Y-45250499D01*
X156443497Y-45219737D01*
X156589179Y-45159394D01*
X156720289Y-45071789D01*
X156831789Y-44960289D01*
X156919394Y-44829179D01*
X156979737Y-44683497D01*
X157010500Y-44528842D01*
X157010500Y-44371158D01*
X157010500Y-44371155D01*
X157010499Y-44371153D01*
X156979738Y-44216510D01*
X156979737Y-44216503D01*
X156979735Y-44216498D01*
X156919397Y-44070827D01*
X156919390Y-44070814D01*
X156831789Y-43939711D01*
X156831786Y-43939707D01*
X156720292Y-43828213D01*
X156720288Y-43828210D01*
X156589185Y-43740609D01*
X156589172Y-43740602D01*
X156443501Y-43680264D01*
X156443489Y-43680261D01*
X156288845Y-43649500D01*
X156288842Y-43649500D01*
X156131158Y-43649500D01*
X156131155Y-43649500D01*
X155976510Y-43680261D01*
X155976498Y-43680264D01*
X155830827Y-43740602D01*
X155830814Y-43740609D01*
X155699711Y-43828210D01*
X155699707Y-43828213D01*
X155588213Y-43939707D01*
X155588210Y-43939711D01*
X155500609Y-44070814D01*
X155500602Y-44070827D01*
X155440264Y-44216498D01*
X155440261Y-44216510D01*
X155409500Y-44371153D01*
X154173180Y-44371153D01*
X154087510Y-44285483D01*
X153896433Y-44146657D01*
X153685996Y-44039433D01*
X153461368Y-43966446D01*
X153228097Y-43929500D01*
X153228092Y-43929500D01*
X152991908Y-43929500D01*
X152991903Y-43929500D01*
X152758631Y-43966446D01*
X152534003Y-44039433D01*
X152323566Y-44146657D01*
X152227423Y-44216510D01*
X152132490Y-44285483D01*
X152132488Y-44285485D01*
X152132487Y-44285485D01*
X151965485Y-44452487D01*
X151965485Y-44452488D01*
X151965483Y-44452490D01*
X151910010Y-44528842D01*
X151826657Y-44643566D01*
X151719433Y-44854003D01*
X151646446Y-45078631D01*
X151609500Y-45311902D01*
X148110500Y-45311902D01*
X148073553Y-45078631D01*
X148031663Y-44949707D01*
X148000568Y-44854008D01*
X148000566Y-44854005D01*
X148000566Y-44854003D01*
X147893342Y-44643566D01*
X147754517Y-44452490D01*
X147587510Y-44285483D01*
X147396433Y-44146657D01*
X147185996Y-44039433D01*
X146961368Y-43966446D01*
X146728097Y-43929500D01*
X146728092Y-43929500D01*
X146491908Y-43929500D01*
X146491903Y-43929500D01*
X146258631Y-43966446D01*
X146034003Y-44039433D01*
X145823566Y-44146657D01*
X145727423Y-44216510D01*
X145632490Y-44285483D01*
X145632488Y-44285485D01*
X145632487Y-44285485D01*
X145465485Y-44452487D01*
X145465485Y-44452488D01*
X145465483Y-44452490D01*
X145410010Y-44528842D01*
X145326657Y-44643566D01*
X145219433Y-44854003D01*
X145146446Y-45078631D01*
X145109500Y-45311902D01*
X133576344Y-45311902D01*
X133561682Y-45286154D01*
X133560750Y-45281874D01*
X133549737Y-45226503D01*
X133521938Y-45159390D01*
X133489397Y-45080827D01*
X133489390Y-45080814D01*
X133401789Y-44949711D01*
X133401786Y-44949707D01*
X133290292Y-44838213D01*
X133290288Y-44838210D01*
X133159185Y-44750609D01*
X133159172Y-44750602D01*
X133013501Y-44690264D01*
X133013489Y-44690261D01*
X132858845Y-44659500D01*
X132858842Y-44659500D01*
X132701158Y-44659500D01*
X132701155Y-44659500D01*
X132546510Y-44690261D01*
X132546498Y-44690264D01*
X132400827Y-44750602D01*
X132400814Y-44750609D01*
X132269711Y-44838210D01*
X132269707Y-44838213D01*
X132167681Y-44940240D01*
X132106358Y-44973725D01*
X132036666Y-44968741D01*
X131992319Y-44940240D01*
X131890292Y-44838213D01*
X131890288Y-44838210D01*
X131759185Y-44750609D01*
X131759172Y-44750602D01*
X131613501Y-44690264D01*
X131613489Y-44690261D01*
X131458845Y-44659500D01*
X131458842Y-44659500D01*
X131301158Y-44659500D01*
X131301155Y-44659500D01*
X131146510Y-44690261D01*
X131146498Y-44690264D01*
X131000827Y-44750602D01*
X131000814Y-44750609D01*
X130869711Y-44838210D01*
X130869707Y-44838213D01*
X130758213Y-44949707D01*
X130758210Y-44949711D01*
X130670609Y-45080814D01*
X130670602Y-45080827D01*
X130610264Y-45226498D01*
X130610262Y-45226505D01*
X130599256Y-45281833D01*
X130566870Y-45343743D01*
X130506153Y-45378316D01*
X130501833Y-45379256D01*
X130446505Y-45390262D01*
X130446498Y-45390264D01*
X130300827Y-45450602D01*
X130300814Y-45450609D01*
X130169711Y-45538210D01*
X130169707Y-45538213D01*
X130058213Y-45649707D01*
X130058210Y-45649711D01*
X129970609Y-45780814D01*
X129970602Y-45780827D01*
X129910264Y-45926498D01*
X129910261Y-45926510D01*
X129879500Y-46081153D01*
X105910500Y-46081153D01*
X105910500Y-40833051D01*
X105910649Y-40826967D01*
X105920153Y-40633504D01*
X105924862Y-40537648D01*
X110459500Y-40537648D01*
X110459500Y-40742351D01*
X110491522Y-40944534D01*
X110554781Y-41139223D01*
X110570314Y-41169707D01*
X110637120Y-41300821D01*
X110647715Y-41321613D01*
X110768028Y-41487213D01*
X110768034Y-41487219D01*
X110912781Y-41631966D01*
X110969138Y-41672911D01*
X111011804Y-41728241D01*
X111017783Y-41797854D01*
X110985178Y-41859649D01*
X110935258Y-41890935D01*
X110890886Y-41905638D01*
X110890875Y-41905643D01*
X110741654Y-41997684D01*
X110617684Y-42121654D01*
X110525643Y-42270875D01*
X110525641Y-42270880D01*
X110470494Y-42437302D01*
X110470493Y-42437309D01*
X110460000Y-42540013D01*
X110460000Y-42890000D01*
X111444314Y-42890000D01*
X111439920Y-42894394D01*
X111387259Y-42985606D01*
X111360000Y-43087339D01*
X111360000Y-43192661D01*
X111387259Y-43294394D01*
X111439920Y-43385606D01*
X111444314Y-43390000D01*
X110460001Y-43390000D01*
X110460001Y-43739986D01*
X110470494Y-43842697D01*
X110525641Y-44009119D01*
X110525643Y-44009124D01*
X110617684Y-44158345D01*
X110741654Y-44282315D01*
X110890875Y-44374356D01*
X110890880Y-44374358D01*
X111057302Y-44429505D01*
X111057309Y-44429506D01*
X111160019Y-44439999D01*
X111509999Y-44439999D01*
X111510000Y-44439998D01*
X111510000Y-43455686D01*
X111514394Y-43460080D01*
X111605606Y-43512741D01*
X111707339Y-43540000D01*
X111812661Y-43540000D01*
X111914394Y-43512741D01*
X112005606Y-43460080D01*
X112010000Y-43455686D01*
X112010000Y-44439999D01*
X112359972Y-44439999D01*
X112359986Y-44439998D01*
X112462697Y-44429505D01*
X112629119Y-44374358D01*
X112629124Y-44374356D01*
X112778345Y-44282315D01*
X112902315Y-44158345D01*
X112994356Y-44009124D01*
X112994358Y-44009119D01*
X113049505Y-43842697D01*
X113049506Y-43842690D01*
X113059999Y-43739986D01*
X113060000Y-43739973D01*
X113060000Y-43390000D01*
X112075686Y-43390000D01*
X112080080Y-43385606D01*
X112132741Y-43294394D01*
X112160000Y-43192661D01*
X112160000Y-43087339D01*
X112134968Y-42993918D01*
X142699081Y-42993918D01*
X142699081Y-43151611D01*
X142729842Y-43306254D01*
X142729845Y-43306266D01*
X142790183Y-43451937D01*
X142790190Y-43451950D01*
X142877791Y-43583053D01*
X142877794Y-43583057D01*
X142973648Y-43678911D01*
X143007133Y-43740234D01*
X143002149Y-43809926D01*
X142973648Y-43854273D01*
X142888213Y-43939707D01*
X142888210Y-43939711D01*
X142800609Y-44070814D01*
X142800602Y-44070827D01*
X142740264Y-44216498D01*
X142740261Y-44216510D01*
X142709500Y-44371153D01*
X142709500Y-44528846D01*
X142740261Y-44683489D01*
X142740264Y-44683501D01*
X142800602Y-44829172D01*
X142800609Y-44829185D01*
X142888210Y-44960288D01*
X142888213Y-44960292D01*
X142999707Y-45071786D01*
X142999711Y-45071789D01*
X143130814Y-45159390D01*
X143130827Y-45159397D01*
X143210686Y-45192475D01*
X143276503Y-45219737D01*
X143431153Y-45250499D01*
X143431156Y-45250500D01*
X143431158Y-45250500D01*
X143588844Y-45250500D01*
X143588845Y-45250499D01*
X143743497Y-45219737D01*
X143770276Y-45208644D01*
X143809315Y-45192475D01*
X143889172Y-45159397D01*
X143889172Y-45159396D01*
X143889179Y-45159394D01*
X144020289Y-45071789D01*
X144131789Y-44960289D01*
X144219394Y-44829179D01*
X144279737Y-44683497D01*
X144310500Y-44528842D01*
X144310500Y-44371158D01*
X144310500Y-44371155D01*
X144310499Y-44371153D01*
X144279738Y-44216510D01*
X144279737Y-44216503D01*
X144279735Y-44216498D01*
X144219397Y-44070827D01*
X144219390Y-44070814D01*
X144131789Y-43939711D01*
X144131786Y-43939707D01*
X144035933Y-43843854D01*
X144002448Y-43782531D01*
X144007432Y-43712839D01*
X144035933Y-43668492D01*
X144121367Y-43583057D01*
X144121370Y-43583054D01*
X144208975Y-43451944D01*
X144269318Y-43306262D01*
X144300081Y-43151607D01*
X144300081Y-42993923D01*
X144300081Y-42993920D01*
X144300080Y-42993918D01*
X144269319Y-42839275D01*
X144269318Y-42839268D01*
X144239491Y-42767259D01*
X144208978Y-42693592D01*
X144208971Y-42693579D01*
X144121370Y-42562476D01*
X144121367Y-42562472D01*
X144009873Y-42450978D01*
X144009869Y-42450975D01*
X143878766Y-42363374D01*
X143878753Y-42363367D01*
X143733082Y-42303029D01*
X143733070Y-42303026D01*
X143578426Y-42272265D01*
X143578423Y-42272265D01*
X143420739Y-42272265D01*
X143420736Y-42272265D01*
X143266091Y-42303026D01*
X143266079Y-42303029D01*
X143120408Y-42363367D01*
X143120395Y-42363374D01*
X142989292Y-42450975D01*
X142989288Y-42450978D01*
X142877794Y-42562472D01*
X142877791Y-42562476D01*
X142790190Y-42693579D01*
X142790183Y-42693592D01*
X142729845Y-42839263D01*
X142729842Y-42839275D01*
X142699081Y-42993918D01*
X112134968Y-42993918D01*
X112132741Y-42985606D01*
X112080080Y-42894394D01*
X112075686Y-42890000D01*
X113059999Y-42890000D01*
X113059999Y-42540028D01*
X113059998Y-42540013D01*
X113049505Y-42437302D01*
X112994358Y-42270880D01*
X112994356Y-42270875D01*
X112902315Y-42121654D01*
X112778345Y-41997684D01*
X112629124Y-41905643D01*
X112629121Y-41905642D01*
X112584741Y-41890936D01*
X112527297Y-41851163D01*
X112500474Y-41786647D01*
X112512789Y-41717871D01*
X112550861Y-41672912D01*
X112607219Y-41631966D01*
X112638032Y-41601153D01*
X122619500Y-41601153D01*
X122619500Y-41758846D01*
X122650261Y-41913489D01*
X122650264Y-41913501D01*
X122710602Y-42059172D01*
X122710609Y-42059185D01*
X122798210Y-42190288D01*
X122798213Y-42190292D01*
X122909707Y-42301786D01*
X122909711Y-42301789D01*
X123040814Y-42389390D01*
X123040827Y-42389397D01*
X123140060Y-42430500D01*
X123186503Y-42449737D01*
X123341153Y-42480499D01*
X123341156Y-42480500D01*
X123341158Y-42480500D01*
X123498844Y-42480500D01*
X123498845Y-42480499D01*
X123653497Y-42449737D01*
X123799179Y-42389394D01*
X123930289Y-42301789D01*
X124041789Y-42190289D01*
X124129394Y-42059179D01*
X124189737Y-41913497D01*
X124220500Y-41758842D01*
X124220500Y-41601158D01*
X124220500Y-41601155D01*
X124220499Y-41601153D01*
X124197836Y-41487219D01*
X124189737Y-41446503D01*
X124189735Y-41446498D01*
X124129397Y-41300827D01*
X124129390Y-41300814D01*
X124041789Y-41169711D01*
X124041786Y-41169707D01*
X123930292Y-41058213D01*
X123930288Y-41058210D01*
X123799185Y-40970609D01*
X123799172Y-40970602D01*
X123680861Y-40921597D01*
X123653501Y-40910264D01*
X123653489Y-40910261D01*
X123498845Y-40879500D01*
X123498842Y-40879500D01*
X123341158Y-40879500D01*
X123341155Y-40879500D01*
X123186510Y-40910261D01*
X123186498Y-40910264D01*
X123040827Y-40970602D01*
X123040814Y-40970609D01*
X122909711Y-41058210D01*
X122909707Y-41058213D01*
X122798213Y-41169707D01*
X122798210Y-41169711D01*
X122710609Y-41300814D01*
X122710602Y-41300827D01*
X122650264Y-41446498D01*
X122650261Y-41446510D01*
X122619500Y-41601153D01*
X112638032Y-41601153D01*
X112751966Y-41487219D01*
X112751968Y-41487215D01*
X112751971Y-41487213D01*
X112804732Y-41414590D01*
X112872287Y-41321610D01*
X112965220Y-41139219D01*
X113028477Y-40944534D01*
X113049484Y-40811902D01*
X145109500Y-40811902D01*
X145109500Y-41048097D01*
X145146446Y-41281368D01*
X145219433Y-41505996D01*
X145267921Y-41601158D01*
X145326657Y-41716433D01*
X145465483Y-41907510D01*
X145632490Y-42074517D01*
X145823567Y-42213343D01*
X145922991Y-42264002D01*
X146034003Y-42320566D01*
X146034005Y-42320566D01*
X146034008Y-42320568D01*
X146154412Y-42359689D01*
X146258631Y-42393553D01*
X146491903Y-42430500D01*
X146491908Y-42430500D01*
X146728097Y-42430500D01*
X146961368Y-42393553D01*
X146974180Y-42389390D01*
X147185992Y-42320568D01*
X147396433Y-42213343D01*
X147587510Y-42074517D01*
X147754517Y-41907510D01*
X147893343Y-41716433D01*
X148000568Y-41505992D01*
X148073553Y-41281368D01*
X148091238Y-41169711D01*
X148110500Y-41048097D01*
X148110500Y-40811902D01*
X151609500Y-40811902D01*
X151609500Y-41048097D01*
X151646446Y-41281368D01*
X151719433Y-41505996D01*
X151767921Y-41601158D01*
X151826657Y-41716433D01*
X151965483Y-41907510D01*
X152132490Y-42074517D01*
X152323567Y-42213343D01*
X152422991Y-42264002D01*
X152534003Y-42320566D01*
X152534005Y-42320566D01*
X152534008Y-42320568D01*
X152654412Y-42359689D01*
X152758631Y-42393553D01*
X152991903Y-42430500D01*
X152991908Y-42430500D01*
X153228097Y-42430500D01*
X153461368Y-42393553D01*
X153474180Y-42389390D01*
X153685992Y-42320568D01*
X153896433Y-42213343D01*
X154087510Y-42074517D01*
X154254517Y-41907510D01*
X154393343Y-41716433D01*
X154500568Y-41505992D01*
X154573553Y-41281368D01*
X154591238Y-41169711D01*
X154610500Y-41048097D01*
X154610500Y-40811902D01*
X154573553Y-40578631D01*
X154500566Y-40354003D01*
X154443501Y-40242007D01*
X154393343Y-40143567D01*
X154254517Y-39952490D01*
X154087510Y-39785483D01*
X153896433Y-39646657D01*
X153685996Y-39539433D01*
X153461368Y-39466446D01*
X153228097Y-39429500D01*
X153228092Y-39429500D01*
X152991908Y-39429500D01*
X152991903Y-39429500D01*
X152758631Y-39466446D01*
X152534003Y-39539433D01*
X152323566Y-39646657D01*
X152214550Y-39725862D01*
X152132490Y-39785483D01*
X152132488Y-39785485D01*
X152132487Y-39785485D01*
X151965485Y-39952487D01*
X151965485Y-39952488D01*
X151965483Y-39952490D01*
X151905862Y-40034550D01*
X151826657Y-40143566D01*
X151719433Y-40354003D01*
X151646446Y-40578631D01*
X151609500Y-40811902D01*
X148110500Y-40811902D01*
X148073553Y-40578631D01*
X148000566Y-40354003D01*
X147943501Y-40242007D01*
X147893343Y-40143567D01*
X147754517Y-39952490D01*
X147587510Y-39785483D01*
X147396433Y-39646657D01*
X147185996Y-39539433D01*
X146961368Y-39466446D01*
X146728097Y-39429500D01*
X146728092Y-39429500D01*
X146491908Y-39429500D01*
X146491903Y-39429500D01*
X146258631Y-39466446D01*
X146034003Y-39539433D01*
X145823566Y-39646657D01*
X145714550Y-39725862D01*
X145632490Y-39785483D01*
X145632488Y-39785485D01*
X145632487Y-39785485D01*
X145465485Y-39952487D01*
X145465485Y-39952488D01*
X145465483Y-39952490D01*
X145405862Y-40034550D01*
X145326657Y-40143566D01*
X145219433Y-40354003D01*
X145146446Y-40578631D01*
X145109500Y-40811902D01*
X113049484Y-40811902D01*
X113060500Y-40742352D01*
X113060500Y-40537648D01*
X113028477Y-40335466D01*
X112965220Y-40140781D01*
X112965218Y-40140778D01*
X112965218Y-40140776D01*
X112931503Y-40074607D01*
X112872287Y-39958390D01*
X112864556Y-39947749D01*
X112751971Y-39792786D01*
X112607213Y-39648028D01*
X112441613Y-39527715D01*
X112441612Y-39527714D01*
X112441610Y-39527713D01*
X112380430Y-39496540D01*
X112259223Y-39434781D01*
X112064534Y-39371522D01*
X111889995Y-39343878D01*
X111862352Y-39339500D01*
X111657648Y-39339500D01*
X111633329Y-39343351D01*
X111455465Y-39371522D01*
X111260776Y-39434781D01*
X111078386Y-39527715D01*
X110912786Y-39648028D01*
X110768028Y-39792786D01*
X110647715Y-39958386D01*
X110554781Y-40140776D01*
X110491522Y-40335465D01*
X110459500Y-40537648D01*
X105924862Y-40537648D01*
X105927052Y-40493064D01*
X105928245Y-40480962D01*
X105947077Y-40354008D01*
X105976849Y-40153296D01*
X105979218Y-40141385D01*
X106059710Y-39820043D01*
X106063240Y-39808411D01*
X106068831Y-39792786D01*
X106174835Y-39496525D01*
X106179476Y-39485318D01*
X106321124Y-39185828D01*
X106326840Y-39175136D01*
X106497145Y-38890998D01*
X106503888Y-38880905D01*
X106701232Y-38614818D01*
X106708935Y-38605433D01*
X106931405Y-38359975D01*
X106939975Y-38351405D01*
X107185433Y-38128935D01*
X107194818Y-38121232D01*
X107460905Y-37923888D01*
X107470998Y-37917145D01*
X107755136Y-37746840D01*
X107765828Y-37741124D01*
X108065318Y-37599476D01*
X108076525Y-37594835D01*
X108388412Y-37483239D01*
X108400043Y-37479710D01*
X108721385Y-37399218D01*
X108733296Y-37396849D01*
X109060962Y-37348244D01*
X109073068Y-37347052D01*
X109406967Y-37330648D01*
X109413051Y-37330500D01*
X109456000Y-37330500D01*
X109523039Y-37350185D01*
G37*
%TD.AperFunction*%
%TD*%
%TA.AperFunction,Conductor*%
%TO.N,/5V_BUCK*%
G36*
X151842273Y-72863737D02*
G01*
X151862212Y-72863244D01*
X151871733Y-72864827D01*
X151873395Y-72865586D01*
X151888394Y-72869991D01*
X151958864Y-72885325D01*
X151993798Y-72890350D01*
X152011508Y-72892579D01*
X152029772Y-72891935D01*
X152065777Y-72895500D01*
X160652166Y-72895500D01*
X160652168Y-72895500D01*
X160658857Y-72895141D01*
X160726854Y-72911206D01*
X160775373Y-72961482D01*
X160789500Y-73018963D01*
X160789500Y-93838170D01*
X160789499Y-93838176D01*
X160789500Y-93838179D01*
X160784475Y-93873114D01*
X160780070Y-93888112D01*
X160742327Y-93946855D01*
X160742292Y-93946885D01*
X160742291Y-93946887D01*
X160742289Y-93946887D01*
X160740958Y-93948042D01*
X160686097Y-93975518D01*
X160678539Y-93977163D01*
X160652168Y-93980000D01*
X153237455Y-93980000D01*
X153237452Y-93979999D01*
X153237451Y-93980000D01*
X153202516Y-93974976D01*
X153189198Y-93971065D01*
X153130421Y-93933289D01*
X153101399Y-93869735D01*
X153101015Y-93867064D01*
X153105923Y-93810790D01*
X153107787Y-93805107D01*
X153107786Y-93805106D01*
X153109541Y-93799754D01*
X153112803Y-93790949D01*
X153168054Y-93657557D01*
X153169222Y-93654999D01*
X153169730Y-93653510D01*
X153169735Y-93653501D01*
X153169737Y-93653497D01*
X153196452Y-93519191D01*
X153200500Y-93498844D01*
X153200500Y-93340971D01*
X153200064Y-93338966D01*
X153176170Y-93218844D01*
X153169737Y-93186503D01*
X153117816Y-93061153D01*
X153109397Y-93040827D01*
X153109390Y-93040814D01*
X153021789Y-92909711D01*
X153021786Y-92909707D01*
X153021781Y-92909701D01*
X152910297Y-92798217D01*
X152910291Y-92798212D01*
X152910290Y-92798211D01*
X152779191Y-92710613D01*
X152779190Y-92710612D01*
X152779185Y-92710609D01*
X152779172Y-92710602D01*
X152779165Y-92710598D01*
X152633502Y-92650264D01*
X152633471Y-92650257D01*
X152478847Y-92619500D01*
X152478845Y-92619500D01*
X152478842Y-92619500D01*
X152321158Y-92619500D01*
X152321155Y-92619500D01*
X152321153Y-92619500D01*
X152166527Y-92650257D01*
X152166496Y-92650264D01*
X152020833Y-92710598D01*
X152020824Y-92710603D01*
X152020807Y-92710613D01*
X151889708Y-92798211D01*
X151889707Y-92798212D01*
X151889701Y-92798217D01*
X151778217Y-92909701D01*
X151778212Y-92909707D01*
X151778211Y-92909708D01*
X151690613Y-93040807D01*
X151690603Y-93040824D01*
X151690598Y-93040833D01*
X151630264Y-93186496D01*
X151630257Y-93186527D01*
X151599500Y-93341150D01*
X151599500Y-93341153D01*
X151599500Y-93498846D01*
X151599500Y-93498848D01*
X151599499Y-93498848D01*
X151630257Y-93653471D01*
X151630263Y-93653499D01*
X151640014Y-93677040D01*
X151685076Y-93785830D01*
X151691910Y-93808004D01*
X151696196Y-93828592D01*
X151690588Y-93898236D01*
X151648218Y-93953792D01*
X151648202Y-93953804D01*
X151646029Y-93955400D01*
X151594128Y-93977582D01*
X151593173Y-93977750D01*
X151591054Y-93978122D01*
X151569559Y-93980000D01*
X147498785Y-93980000D01*
X147463850Y-93974977D01*
X147452996Y-93971790D01*
X147394218Y-93934016D01*
X147365193Y-93870460D01*
X147375136Y-93801303D01*
X147377593Y-93795924D01*
X147403887Y-93758592D01*
X147427637Y-93735469D01*
X147432046Y-93730031D01*
X147511786Y-93650292D01*
X147511789Y-93650289D01*
X147599394Y-93519179D01*
X147659737Y-93373497D01*
X147690500Y-93218842D01*
X147690500Y-93061158D01*
X147690500Y-93061155D01*
X147690500Y-93061154D01*
X147690500Y-93060973D01*
X147690065Y-93058972D01*
X147660397Y-92909824D01*
X147659994Y-92907467D01*
X147659738Y-92906508D01*
X147659737Y-92906506D01*
X147659737Y-92906503D01*
X147659735Y-92906498D01*
X147599397Y-92760827D01*
X147599390Y-92760814D01*
X147511789Y-92629711D01*
X147511786Y-92629707D01*
X147511781Y-92629701D01*
X147400297Y-92518217D01*
X147400291Y-92518212D01*
X147400290Y-92518211D01*
X147269191Y-92430613D01*
X147269190Y-92430612D01*
X147269185Y-92430609D01*
X147269172Y-92430602D01*
X147269165Y-92430598D01*
X147123502Y-92370264D01*
X147123471Y-92370257D01*
X146968847Y-92339500D01*
X146968845Y-92339500D01*
X146968842Y-92339500D01*
X146811158Y-92339500D01*
X146811155Y-92339500D01*
X146811153Y-92339500D01*
X146656527Y-92370257D01*
X146656496Y-92370264D01*
X146510833Y-92430598D01*
X146510824Y-92430603D01*
X146510807Y-92430613D01*
X146379708Y-92518211D01*
X146379707Y-92518212D01*
X146379701Y-92518217D01*
X146268217Y-92629701D01*
X146268212Y-92629707D01*
X146268211Y-92629708D01*
X146180613Y-92760807D01*
X146180603Y-92760824D01*
X146180598Y-92760833D01*
X146120264Y-92906496D01*
X146120257Y-92906527D01*
X146089500Y-93061150D01*
X146089500Y-93218844D01*
X146089499Y-93218848D01*
X146120257Y-93373471D01*
X146120264Y-93373502D01*
X146180598Y-93519165D01*
X146180603Y-93519174D01*
X146180613Y-93519191D01*
X146268211Y-93650290D01*
X146268212Y-93650291D01*
X146268217Y-93650297D01*
X146368691Y-93750771D01*
X146374405Y-93759630D01*
X146380028Y-93763810D01*
X146383484Y-93768630D01*
X146394103Y-93784215D01*
X146400233Y-93803189D01*
X146403658Y-93812278D01*
X146403805Y-93814244D01*
X146415584Y-93850701D01*
X146408531Y-93877352D01*
X146408876Y-93881953D01*
X146405822Y-93887590D01*
X146397710Y-93918246D01*
X146380868Y-93933655D01*
X146375596Y-93943388D01*
X146362132Y-93950797D01*
X146346181Y-93965393D01*
X146343291Y-93966808D01*
X146342172Y-93967356D01*
X146324680Y-93971410D01*
X146314385Y-93977077D01*
X146303448Y-93976331D01*
X146287622Y-93980000D01*
X130169500Y-93980000D01*
X130102461Y-93960315D01*
X130056706Y-93907511D01*
X130045500Y-93856000D01*
X130045500Y-89818848D01*
X146089499Y-89818848D01*
X146120257Y-89973471D01*
X146120264Y-89973502D01*
X146180598Y-90119165D01*
X146180603Y-90119174D01*
X146180613Y-90119191D01*
X146268211Y-90250290D01*
X146268212Y-90250291D01*
X146268217Y-90250297D01*
X146379701Y-90361781D01*
X146379707Y-90361786D01*
X146379711Y-90361789D01*
X146510814Y-90449390D01*
X146510827Y-90449397D01*
X146656498Y-90509735D01*
X146656503Y-90509737D01*
X146811153Y-90540499D01*
X146811156Y-90540500D01*
X146811158Y-90540500D01*
X146968844Y-90540500D01*
X146968845Y-90540499D01*
X147123497Y-90509737D01*
X147269179Y-90449394D01*
X147400289Y-90361789D01*
X147511789Y-90250289D01*
X147599394Y-90119179D01*
X147659737Y-89973497D01*
X147690500Y-89818842D01*
X147690500Y-89661158D01*
X147690500Y-89661155D01*
X147690500Y-89660973D01*
X147690065Y-89658972D01*
X147660397Y-89509824D01*
X147659994Y-89507467D01*
X147659738Y-89506508D01*
X147659737Y-89506506D01*
X147659737Y-89506503D01*
X147659735Y-89506498D01*
X147599397Y-89360827D01*
X147599390Y-89360814D01*
X147511789Y-89229711D01*
X147511786Y-89229707D01*
X147511781Y-89229701D01*
X147400297Y-89118217D01*
X147400291Y-89118212D01*
X147400290Y-89118211D01*
X147269191Y-89030613D01*
X147269190Y-89030612D01*
X147269185Y-89030609D01*
X147269172Y-89030602D01*
X147269165Y-89030598D01*
X147123502Y-88970264D01*
X147123471Y-88970257D01*
X146968847Y-88939500D01*
X146968845Y-88939500D01*
X146968842Y-88939500D01*
X146811158Y-88939500D01*
X146811155Y-88939500D01*
X146811153Y-88939500D01*
X146656527Y-88970257D01*
X146656496Y-88970264D01*
X146510833Y-89030598D01*
X146510824Y-89030603D01*
X146510807Y-89030613D01*
X146379708Y-89118211D01*
X146379707Y-89118212D01*
X146379701Y-89118217D01*
X146268217Y-89229701D01*
X146268212Y-89229707D01*
X146268211Y-89229708D01*
X146180613Y-89360807D01*
X146180603Y-89360824D01*
X146180598Y-89360833D01*
X146120264Y-89506496D01*
X146120257Y-89506527D01*
X146089500Y-89661150D01*
X146089500Y-89661153D01*
X146089500Y-89818846D01*
X146089500Y-89818848D01*
X146089499Y-89818848D01*
X130045500Y-89818848D01*
X130045500Y-86234038D01*
X148259500Y-86234038D01*
X148259500Y-86485960D01*
X148298910Y-86734786D01*
X148298910Y-86734789D01*
X148342940Y-86870297D01*
X148376760Y-86974383D01*
X148491132Y-87198848D01*
X148639201Y-87402649D01*
X148639205Y-87402654D01*
X148639210Y-87402660D01*
X148817338Y-87580788D01*
X148817342Y-87580791D01*
X148817345Y-87580794D01*
X148817350Y-87580798D01*
X148995117Y-87709952D01*
X149021155Y-87728870D01*
X149164184Y-87801747D01*
X149164183Y-87801747D01*
X149200752Y-87820379D01*
X149242775Y-87841791D01*
X149246488Y-87843684D01*
X149250243Y-87844743D01*
X149460780Y-87913150D01*
X149485215Y-87921090D01*
X149734038Y-87960500D01*
X149734039Y-87960500D01*
X149985961Y-87960500D01*
X149985962Y-87960500D01*
X150234785Y-87921090D01*
X150474379Y-87843241D01*
X150698845Y-87728870D01*
X150902656Y-87580793D01*
X151080793Y-87402656D01*
X151228870Y-87198845D01*
X151343241Y-86974379D01*
X151421090Y-86734785D01*
X151460500Y-86485962D01*
X151460500Y-86438848D01*
X152869499Y-86438848D01*
X152900257Y-86593471D01*
X152900264Y-86593502D01*
X152960598Y-86739165D01*
X152960603Y-86739174D01*
X152960613Y-86739191D01*
X153048211Y-86870290D01*
X153048212Y-86870291D01*
X153048217Y-86870297D01*
X153159701Y-86981781D01*
X153159707Y-86981786D01*
X153159711Y-86981789D01*
X153290814Y-87069390D01*
X153290827Y-87069397D01*
X153436498Y-87129735D01*
X153436503Y-87129737D01*
X153591153Y-87160499D01*
X153591156Y-87160500D01*
X153591158Y-87160500D01*
X153748844Y-87160500D01*
X153748845Y-87160499D01*
X153903497Y-87129737D01*
X154049179Y-87069394D01*
X154180289Y-86981789D01*
X154291789Y-86870289D01*
X154379394Y-86739179D01*
X154439737Y-86593497D01*
X154470500Y-86438842D01*
X154470500Y-86281158D01*
X154470500Y-86281155D01*
X154470500Y-86280973D01*
X154470065Y-86278972D01*
X154440397Y-86129824D01*
X154439994Y-86127467D01*
X154439738Y-86126508D01*
X154439737Y-86126506D01*
X154439737Y-86126503D01*
X154439735Y-86126498D01*
X154379397Y-85980827D01*
X154379390Y-85980814D01*
X154291789Y-85849711D01*
X154291786Y-85849707D01*
X154291781Y-85849701D01*
X154180297Y-85738217D01*
X154180291Y-85738212D01*
X154180290Y-85738211D01*
X154049191Y-85650613D01*
X154049190Y-85650612D01*
X154049185Y-85650609D01*
X154049172Y-85650602D01*
X154049165Y-85650598D01*
X153903502Y-85590264D01*
X153903471Y-85590257D01*
X153748847Y-85559500D01*
X153748845Y-85559500D01*
X153748842Y-85559500D01*
X153591158Y-85559500D01*
X153591155Y-85559500D01*
X153591153Y-85559500D01*
X153436527Y-85590257D01*
X153436496Y-85590264D01*
X153290833Y-85650598D01*
X153290827Y-85650602D01*
X153290807Y-85650613D01*
X153159708Y-85738211D01*
X153159707Y-85738212D01*
X153159701Y-85738217D01*
X153048217Y-85849701D01*
X153048212Y-85849707D01*
X153048211Y-85849708D01*
X152960613Y-85980807D01*
X152960603Y-85980824D01*
X152960598Y-85980833D01*
X152900264Y-86126496D01*
X152900257Y-86126527D01*
X152869500Y-86281150D01*
X152869500Y-86281153D01*
X152869500Y-86438846D01*
X152869500Y-86438848D01*
X152869499Y-86438848D01*
X151460500Y-86438848D01*
X151460500Y-86234038D01*
X151421090Y-85985215D01*
X151421089Y-85985211D01*
X151421089Y-85985210D01*
X151345855Y-85753665D01*
X151345852Y-85753659D01*
X151343241Y-85745621D01*
X151343239Y-85745618D01*
X151343239Y-85745616D01*
X151340998Y-85741218D01*
X151340686Y-85740418D01*
X151339954Y-85739169D01*
X151294826Y-85650602D01*
X151294825Y-85650600D01*
X151228876Y-85521166D01*
X151228874Y-85521163D01*
X151228870Y-85521155D01*
X151209952Y-85495117D01*
X151080798Y-85317350D01*
X151080794Y-85317345D01*
X151080791Y-85317342D01*
X151080788Y-85317338D01*
X150902660Y-85139210D01*
X150902655Y-85139206D01*
X150902654Y-85139205D01*
X150902649Y-85139201D01*
X150698848Y-84991132D01*
X150698847Y-84991131D01*
X150698845Y-84991130D01*
X150628747Y-84955413D01*
X150474383Y-84876760D01*
X150390487Y-84849500D01*
X150234787Y-84798910D01*
X150068903Y-84772636D01*
X149985962Y-84759500D01*
X149985961Y-84759500D01*
X149734039Y-84759500D01*
X149734038Y-84759500D01*
X149651096Y-84772636D01*
X149485212Y-84798910D01*
X149485209Y-84798910D01*
X149245619Y-84876759D01*
X149245616Y-84876760D01*
X149091253Y-84955413D01*
X149021147Y-84991134D01*
X148817367Y-85139188D01*
X148817338Y-85139210D01*
X148639210Y-85317338D01*
X148639188Y-85317367D01*
X148491134Y-85521147D01*
X148491132Y-85521151D01*
X148376760Y-85745616D01*
X148376759Y-85745618D01*
X148376759Y-85745619D01*
X148298910Y-85985209D01*
X148298910Y-85985212D01*
X148259500Y-86234038D01*
X130045500Y-86234038D01*
X130045500Y-83898848D01*
X152869499Y-83898848D01*
X152900257Y-84053471D01*
X152900264Y-84053502D01*
X152960598Y-84199165D01*
X152960603Y-84199174D01*
X152960613Y-84199191D01*
X153048211Y-84330290D01*
X153048212Y-84330291D01*
X153048217Y-84330297D01*
X153159701Y-84441781D01*
X153159707Y-84441786D01*
X153159711Y-84441789D01*
X153290814Y-84529390D01*
X153290827Y-84529397D01*
X153436498Y-84589735D01*
X153436503Y-84589737D01*
X153591153Y-84620499D01*
X153591156Y-84620500D01*
X153591158Y-84620500D01*
X153748844Y-84620500D01*
X153748845Y-84620499D01*
X153903497Y-84589737D01*
X154049179Y-84529394D01*
X154180289Y-84441789D01*
X154291789Y-84330289D01*
X154379394Y-84199179D01*
X154439737Y-84053497D01*
X154470500Y-83898842D01*
X154470500Y-83741158D01*
X154470500Y-83741155D01*
X154470500Y-83740973D01*
X154470065Y-83738972D01*
X154440397Y-83589824D01*
X154439994Y-83587467D01*
X154439738Y-83586508D01*
X154439737Y-83586506D01*
X154439737Y-83586503D01*
X154439735Y-83586498D01*
X154379397Y-83440827D01*
X154379390Y-83440814D01*
X154291789Y-83309711D01*
X154291786Y-83309707D01*
X154291781Y-83309701D01*
X154180297Y-83198217D01*
X154180291Y-83198212D01*
X154180290Y-83198211D01*
X154049191Y-83110613D01*
X154049190Y-83110612D01*
X154049185Y-83110609D01*
X154049172Y-83110602D01*
X154049165Y-83110598D01*
X153903502Y-83050264D01*
X153903471Y-83050257D01*
X153748847Y-83019500D01*
X153748845Y-83019500D01*
X153748842Y-83019500D01*
X153591158Y-83019500D01*
X153591155Y-83019500D01*
X153591153Y-83019500D01*
X153436527Y-83050257D01*
X153436496Y-83050264D01*
X153290833Y-83110598D01*
X153290824Y-83110603D01*
X153290807Y-83110613D01*
X153159708Y-83198211D01*
X153159707Y-83198212D01*
X153159701Y-83198217D01*
X153048217Y-83309701D01*
X153048212Y-83309707D01*
X153048211Y-83309708D01*
X152960613Y-83440807D01*
X152960603Y-83440824D01*
X152960598Y-83440833D01*
X152900264Y-83586496D01*
X152900257Y-83586527D01*
X152869500Y-83741150D01*
X152869500Y-83741153D01*
X152869500Y-83898846D01*
X152869500Y-83898848D01*
X152869499Y-83898848D01*
X130045500Y-83898848D01*
X130045500Y-81183939D01*
X133399500Y-81183939D01*
X133399500Y-81376059D01*
X133429553Y-81565803D01*
X133488916Y-81748507D01*
X133491262Y-81753351D01*
X133492207Y-81754965D01*
X133576135Y-81919681D01*
X133689055Y-82075102D01*
X133824898Y-82210945D01*
X133980319Y-82323865D01*
X134151491Y-82411082D01*
X134151497Y-82411085D01*
X134188570Y-82423129D01*
X134242845Y-82440764D01*
X134334199Y-82470447D01*
X134523945Y-82500500D01*
X134523946Y-82500500D01*
X134716054Y-82500500D01*
X134716055Y-82500500D01*
X134905801Y-82470447D01*
X135088509Y-82411082D01*
X135259681Y-82323865D01*
X135415102Y-82210945D01*
X135550945Y-82075102D01*
X135663865Y-81919681D01*
X135751082Y-81748509D01*
X135751084Y-81748504D01*
X135766560Y-81700873D01*
X135776342Y-81686396D01*
X135781368Y-81670331D01*
X135782046Y-81669326D01*
X135788515Y-81659865D01*
X135801376Y-81649348D01*
X135804945Y-81644068D01*
X135813609Y-81636823D01*
X135820210Y-81633947D01*
X135842601Y-81615637D01*
X135869267Y-81612576D01*
X135877665Y-81608918D01*
X135887409Y-81610494D01*
X135912014Y-81607670D01*
X135932642Y-81617810D01*
X135946638Y-81620074D01*
X135958002Y-81630276D01*
X135974707Y-81638488D01*
X135976987Y-81640581D01*
X135987229Y-81656514D01*
X135998630Y-81666750D01*
X136002228Y-81679850D01*
X136011085Y-81693630D01*
X136028911Y-81748497D01*
X136029699Y-81750226D01*
X136030863Y-81752327D01*
X136116135Y-81919681D01*
X136229055Y-82075102D01*
X136364898Y-82210945D01*
X136520319Y-82323865D01*
X136691491Y-82411082D01*
X136691497Y-82411085D01*
X136728570Y-82423129D01*
X136782845Y-82440764D01*
X136874199Y-82470447D01*
X137063945Y-82500500D01*
X137063946Y-82500500D01*
X137256054Y-82500500D01*
X137256055Y-82500500D01*
X137445801Y-82470447D01*
X137628509Y-82411082D01*
X137799681Y-82323865D01*
X137955102Y-82210945D01*
X138090945Y-82075102D01*
X138203865Y-81919681D01*
X138291082Y-81748509D01*
X138291084Y-81748504D01*
X138306560Y-81700873D01*
X138316342Y-81686396D01*
X138321368Y-81670331D01*
X138322046Y-81669326D01*
X138328515Y-81659865D01*
X138341376Y-81649348D01*
X138344945Y-81644068D01*
X138353609Y-81636823D01*
X138360210Y-81633947D01*
X138382601Y-81615637D01*
X138409267Y-81612576D01*
X138417665Y-81608918D01*
X138427409Y-81610494D01*
X138452014Y-81607670D01*
X138472642Y-81617810D01*
X138486638Y-81620074D01*
X138498002Y-81630276D01*
X138514707Y-81638488D01*
X138516987Y-81640581D01*
X138527229Y-81656514D01*
X138538630Y-81666750D01*
X138542228Y-81679850D01*
X138551085Y-81693630D01*
X138568911Y-81748497D01*
X138569699Y-81750226D01*
X138570863Y-81752327D01*
X138656135Y-81919681D01*
X138769055Y-82075102D01*
X138904898Y-82210945D01*
X139060319Y-82323865D01*
X139231491Y-82411082D01*
X139231497Y-82411085D01*
X139268570Y-82423129D01*
X139322845Y-82440764D01*
X139414199Y-82470447D01*
X139603945Y-82500500D01*
X139603946Y-82500500D01*
X139796054Y-82500500D01*
X139796055Y-82500500D01*
X139985801Y-82470447D01*
X140168509Y-82411082D01*
X140339681Y-82323865D01*
X140495102Y-82210945D01*
X140630945Y-82075102D01*
X140743865Y-81919681D01*
X140831082Y-81748509D01*
X140890447Y-81565801D01*
X140920500Y-81376055D01*
X140920500Y-81183945D01*
X140890447Y-80994199D01*
X140860424Y-80901797D01*
X140860424Y-80901796D01*
X140831085Y-80811498D01*
X140831078Y-80811482D01*
X140743867Y-80640322D01*
X140679439Y-80551645D01*
X140630945Y-80484898D01*
X140495102Y-80349055D01*
X140339681Y-80236135D01*
X140218434Y-80174356D01*
X140168506Y-80148916D01*
X140168502Y-80148914D01*
X140168497Y-80148912D01*
X139985804Y-80089553D01*
X139985805Y-80089553D01*
X139796059Y-80059500D01*
X139796055Y-80059500D01*
X139603945Y-80059500D01*
X139603941Y-80059500D01*
X139540696Y-80069517D01*
X139414193Y-80089553D01*
X139231498Y-80148913D01*
X139231482Y-80148920D01*
X139060322Y-80236131D01*
X138971645Y-80300560D01*
X138916769Y-80340430D01*
X138909388Y-80344563D01*
X138764563Y-80489388D01*
X138760430Y-80496769D01*
X138720560Y-80551645D01*
X138656131Y-80640322D01*
X138568920Y-80811482D01*
X138568914Y-80811495D01*
X138553440Y-80859123D01*
X138543651Y-80873605D01*
X138538619Y-80889684D01*
X138537868Y-80890795D01*
X138531483Y-80900133D01*
X138518604Y-80910663D01*
X138515036Y-80915944D01*
X138506370Y-80923188D01*
X138499779Y-80926057D01*
X138477395Y-80944362D01*
X138450708Y-80947424D01*
X138442310Y-80951081D01*
X138432576Y-80949504D01*
X138407981Y-80952327D01*
X138387340Y-80942179D01*
X138373339Y-80939912D01*
X138361980Y-80929710D01*
X138345283Y-80921502D01*
X138342984Y-80919391D01*
X138332742Y-80903454D01*
X138321355Y-80893227D01*
X138317764Y-80880143D01*
X138308913Y-80866369D01*
X138291083Y-80811493D01*
X138203864Y-80640318D01*
X138090945Y-80484898D01*
X137955102Y-80349055D01*
X137799681Y-80236135D01*
X137678434Y-80174356D01*
X137628506Y-80148916D01*
X137628502Y-80148914D01*
X137628497Y-80148912D01*
X137445804Y-80089553D01*
X137445805Y-80089553D01*
X137256059Y-80059500D01*
X137256055Y-80059500D01*
X137063945Y-80059500D01*
X137063941Y-80059500D01*
X137000696Y-80069517D01*
X136874193Y-80089553D01*
X136691498Y-80148913D01*
X136691482Y-80148920D01*
X136520322Y-80236131D01*
X136431645Y-80300560D01*
X136376769Y-80340430D01*
X136369388Y-80344563D01*
X136224563Y-80489388D01*
X136220430Y-80496769D01*
X136180560Y-80551645D01*
X136116131Y-80640322D01*
X136028920Y-80811482D01*
X136028914Y-80811495D01*
X136013440Y-80859123D01*
X136003651Y-80873605D01*
X135998619Y-80889684D01*
X135997868Y-80890795D01*
X135991483Y-80900133D01*
X135978604Y-80910663D01*
X135975036Y-80915944D01*
X135966370Y-80923188D01*
X135959779Y-80926057D01*
X135937395Y-80944362D01*
X135910708Y-80947424D01*
X135902310Y-80951081D01*
X135892576Y-80949504D01*
X135867981Y-80952327D01*
X135847340Y-80942179D01*
X135833339Y-80939912D01*
X135821980Y-80929710D01*
X135805283Y-80921502D01*
X135802984Y-80919391D01*
X135792742Y-80903454D01*
X135781355Y-80893227D01*
X135777764Y-80880143D01*
X135768913Y-80866369D01*
X135751083Y-80811493D01*
X135663864Y-80640318D01*
X135550945Y-80484898D01*
X135415102Y-80349055D01*
X135259681Y-80236135D01*
X135138434Y-80174356D01*
X135088506Y-80148916D01*
X135088502Y-80148914D01*
X135088497Y-80148912D01*
X134905804Y-80089553D01*
X134905805Y-80089553D01*
X134716059Y-80059500D01*
X134716055Y-80059500D01*
X134523945Y-80059500D01*
X134523941Y-80059500D01*
X134460696Y-80069517D01*
X134334193Y-80089553D01*
X134151498Y-80148913D01*
X134151482Y-80148920D01*
X133980322Y-80236131D01*
X133891645Y-80300560D01*
X133836769Y-80340430D01*
X133829388Y-80344563D01*
X133684563Y-80489388D01*
X133680430Y-80496769D01*
X133640560Y-80551645D01*
X133576131Y-80640322D01*
X133488920Y-80811482D01*
X133488913Y-80811498D01*
X133429553Y-80994193D01*
X133399500Y-81183939D01*
X130045500Y-81183939D01*
X130045500Y-77940007D01*
X145820000Y-77940007D01*
X145820000Y-77940010D01*
X145820000Y-77940013D01*
X145820000Y-78490000D01*
X146707750Y-78490000D01*
X146774789Y-78509685D01*
X146820544Y-78562489D01*
X146830488Y-78631647D01*
X146827524Y-78646095D01*
X146820000Y-78674171D01*
X146820000Y-78805828D01*
X146827524Y-78833905D01*
X146825863Y-78903755D01*
X146786701Y-78961618D01*
X146722473Y-78989123D01*
X146707750Y-78990000D01*
X145820001Y-78990000D01*
X145820001Y-79539995D01*
X145830493Y-79642694D01*
X145830493Y-79642695D01*
X145830494Y-79642697D01*
X145885641Y-79809119D01*
X145885643Y-79809124D01*
X145977684Y-79958345D01*
X146101654Y-80082315D01*
X146250875Y-80174356D01*
X146250880Y-80174358D01*
X146417299Y-80229504D01*
X146417300Y-80229504D01*
X146417302Y-80229505D01*
X146417309Y-80229506D01*
X146520019Y-80239999D01*
X147069999Y-80239999D01*
X147070000Y-80239998D01*
X147070000Y-79352250D01*
X147089685Y-79285211D01*
X147142489Y-79239456D01*
X147211647Y-79229512D01*
X147226093Y-79232475D01*
X147254174Y-79240000D01*
X147385825Y-79240000D01*
X147385826Y-79240000D01*
X147413905Y-79232476D01*
X147483755Y-79234137D01*
X147541618Y-79273299D01*
X147569123Y-79337527D01*
X147570000Y-79352250D01*
X147570000Y-80239999D01*
X148119960Y-80239999D01*
X148119972Y-80239999D01*
X148119986Y-80239998D01*
X148222697Y-80229505D01*
X148389119Y-80174358D01*
X148389124Y-80174356D01*
X148538345Y-80082315D01*
X148662315Y-79958345D01*
X148754356Y-79809124D01*
X148754358Y-79809119D01*
X148809505Y-79642697D01*
X148809506Y-79642690D01*
X148819999Y-79539986D01*
X148820000Y-79539973D01*
X148820000Y-78990000D01*
X147932250Y-78990000D01*
X147865211Y-78970315D01*
X147819456Y-78917511D01*
X147808251Y-78865596D01*
X147808303Y-78849476D01*
X147820000Y-78805826D01*
X147820000Y-78674174D01*
X147809009Y-78633156D01*
X147809046Y-78621896D01*
X150819500Y-78621896D01*
X150819500Y-78858102D01*
X150837273Y-78970315D01*
X150856446Y-79091368D01*
X150929433Y-79315996D01*
X151036657Y-79526433D01*
X151175483Y-79717510D01*
X151342490Y-79884517D01*
X151533567Y-80023343D01*
X151604529Y-80059500D01*
X151604528Y-80059500D01*
X151663511Y-80089553D01*
X151744003Y-80130566D01*
X151744876Y-80131011D01*
X151748630Y-80132070D01*
X151796335Y-80147569D01*
X151864410Y-80169688D01*
X151864411Y-80169689D01*
X151864412Y-80169689D01*
X151968631Y-80203553D01*
X152201903Y-80240500D01*
X152201908Y-80240500D01*
X152438096Y-80240500D01*
X152438097Y-80240500D01*
X152671368Y-80203553D01*
X152895992Y-80130568D01*
X153106433Y-80023343D01*
X153297510Y-79884517D01*
X153464517Y-79717510D01*
X153603343Y-79526433D01*
X153710568Y-79315992D01*
X153783553Y-79091368D01*
X153808637Y-78932993D01*
X153820500Y-78858097D01*
X153820500Y-78621902D01*
X153783553Y-78388631D01*
X153710566Y-78164003D01*
X153603342Y-77953566D01*
X153603340Y-77953563D01*
X153603340Y-77953562D01*
X153593497Y-77940015D01*
X153593494Y-77940012D01*
X153593490Y-77940007D01*
X153464517Y-77762490D01*
X153297510Y-77595483D01*
X153106433Y-77456657D01*
X152895996Y-77349433D01*
X152671368Y-77276446D01*
X152671362Y-77276445D01*
X152438102Y-77239500D01*
X152438097Y-77239500D01*
X152438092Y-77239500D01*
X152201908Y-77239500D01*
X152201903Y-77239500D01*
X152201898Y-77239500D01*
X151968636Y-77276445D01*
X151968634Y-77276445D01*
X151968631Y-77276446D01*
X151744003Y-77349433D01*
X151548210Y-77449195D01*
X151533562Y-77456659D01*
X151424549Y-77535861D01*
X151424550Y-77535862D01*
X151354361Y-77586858D01*
X151346980Y-77590991D01*
X151170992Y-77766979D01*
X151166858Y-77774362D01*
X151121129Y-77837302D01*
X151036656Y-77953566D01*
X150965625Y-78092972D01*
X150929433Y-78164003D01*
X150856446Y-78388631D01*
X150856445Y-78388634D01*
X150856445Y-78388636D01*
X150819500Y-78621896D01*
X147809046Y-78621896D01*
X147809063Y-78616626D01*
X147813534Y-78601578D01*
X147814137Y-78576248D01*
X147826483Y-78558004D01*
X147828966Y-78549651D01*
X147836561Y-78543112D01*
X147853297Y-78518384D01*
X147877161Y-78508163D01*
X147881919Y-78504068D01*
X147889069Y-78503063D01*
X147917525Y-78490877D01*
X147932250Y-78490000D01*
X148819999Y-78490000D01*
X148819999Y-77940032D01*
X148819998Y-77940012D01*
X148819997Y-77940011D01*
X148809505Y-77837302D01*
X148754358Y-77670880D01*
X148754356Y-77670875D01*
X148662315Y-77521654D01*
X148538345Y-77397684D01*
X148389124Y-77305643D01*
X148389119Y-77305641D01*
X148389110Y-77305638D01*
X148222699Y-77250494D01*
X148222694Y-77250493D01*
X148119991Y-77240000D01*
X148119986Y-77240000D01*
X147570000Y-77240000D01*
X147570000Y-78127749D01*
X147550315Y-78194788D01*
X147497511Y-78240543D01*
X147428353Y-78250487D01*
X147413908Y-78247524D01*
X147385828Y-78240000D01*
X147385826Y-78240000D01*
X147254174Y-78240000D01*
X147254171Y-78240000D01*
X147226092Y-78247524D01*
X147156242Y-78245861D01*
X147098380Y-78206698D01*
X147070877Y-78142469D01*
X147070000Y-78127749D01*
X147070000Y-77240000D01*
X146520028Y-77240000D01*
X146520012Y-77240001D01*
X146520002Y-77240001D01*
X146520002Y-77240002D01*
X146417304Y-77250493D01*
X146417302Y-77250494D01*
X146250887Y-77305638D01*
X146250879Y-77305641D01*
X146250877Y-77305642D01*
X146250875Y-77305643D01*
X146179881Y-77349433D01*
X146101652Y-77397685D01*
X145977685Y-77521652D01*
X145885641Y-77670879D01*
X145885638Y-77670888D01*
X145830494Y-77837299D01*
X145830494Y-77837302D01*
X145820000Y-77940007D01*
X130045500Y-77940007D01*
X130045500Y-73019500D01*
X130065185Y-72952461D01*
X130117989Y-72906706D01*
X130169500Y-72895500D01*
X140823721Y-72895500D01*
X140864307Y-72893685D01*
X140868818Y-72893484D01*
X140873908Y-72893027D01*
X140890833Y-72891512D01*
X140890839Y-72891511D01*
X140890852Y-72891510D01*
X140898587Y-72890466D01*
X140967656Y-72901005D01*
X141020063Y-72947213D01*
X141039169Y-73014420D01*
X141025659Y-73069645D01*
X140988904Y-73141781D01*
X140923242Y-73343865D01*
X140921716Y-73353505D01*
X140890000Y-73553753D01*
X140890000Y-73766246D01*
X140915860Y-73929517D01*
X140921715Y-73966485D01*
X140921716Y-73966493D01*
X140923242Y-73976133D01*
X140957886Y-74082754D01*
X140988904Y-74178217D01*
X141085374Y-74367548D01*
X141085375Y-74367550D01*
X141120674Y-74416137D01*
X141124728Y-74421716D01*
X141630297Y-73916145D01*
X141691618Y-73882662D01*
X141761309Y-73887646D01*
X141817243Y-73929517D01*
X141825362Y-73941826D01*
X141839898Y-73967003D01*
X141839900Y-73967005D01*
X141839901Y-73967007D01*
X141932993Y-74060099D01*
X141958169Y-74074634D01*
X142006384Y-74125202D01*
X142019606Y-74193809D01*
X141993638Y-74258673D01*
X141983849Y-74269702D01*
X141478282Y-74775268D01*
X141478282Y-74775269D01*
X141478282Y-74775270D01*
X141532449Y-74814624D01*
X141721782Y-74911095D01*
X141721784Y-74911096D01*
X141923866Y-74976756D01*
X141923867Y-74976756D01*
X141923870Y-74976757D01*
X142133754Y-75010000D01*
X142346245Y-75010000D01*
X142346246Y-75010000D01*
X142459050Y-74992132D01*
X142546487Y-74978284D01*
X142546493Y-74978283D01*
X142556127Y-74976757D01*
X142556130Y-74976757D01*
X142758217Y-74911095D01*
X142947554Y-74814622D01*
X142949976Y-74812862D01*
X142969121Y-74798953D01*
X142995858Y-74789412D01*
X143001717Y-74775269D01*
X142496149Y-74269702D01*
X142462664Y-74208379D01*
X142467648Y-74138688D01*
X142509519Y-74082754D01*
X142521822Y-74074639D01*
X142547007Y-74060099D01*
X142640099Y-73967007D01*
X142654634Y-73941830D01*
X142705199Y-73893616D01*
X142773805Y-73880391D01*
X142838671Y-73906358D01*
X142849702Y-73916149D01*
X143355269Y-74421717D01*
X143355269Y-74421716D01*
X143355270Y-74421717D01*
X143355270Y-74421716D01*
X143368738Y-74416137D01*
X143374955Y-74394967D01*
X143378954Y-74389118D01*
X143394621Y-74367555D01*
X143394625Y-74367548D01*
X143491095Y-74178217D01*
X143556757Y-73976130D01*
X143556757Y-73976127D01*
X143590000Y-73766246D01*
X143590000Y-73553753D01*
X143556757Y-73343872D01*
X143556757Y-73343869D01*
X143491095Y-73141782D01*
X143453515Y-73068029D01*
X143440619Y-72999361D01*
X143466895Y-72934621D01*
X143524001Y-72894363D01*
X143581652Y-72888998D01*
X143591080Y-72890354D01*
X143663028Y-72895500D01*
X150201897Y-72895500D01*
X150201902Y-72895500D01*
X150331308Y-72878656D01*
X150385159Y-72864395D01*
X150455000Y-72866261D01*
X150503757Y-72898524D01*
X150505101Y-72897181D01*
X150619701Y-73011781D01*
X150619707Y-73011786D01*
X150619711Y-73011789D01*
X150750814Y-73099390D01*
X150750827Y-73099397D01*
X150853155Y-73141782D01*
X150896503Y-73159737D01*
X151046715Y-73189616D01*
X151048498Y-73190069D01*
X151051155Y-73190500D01*
X151208844Y-73190500D01*
X151212964Y-73190500D01*
X151220814Y-73188118D01*
X151363497Y-73159737D01*
X151509179Y-73099394D01*
X151640289Y-73011789D01*
X151751789Y-72900289D01*
X151751790Y-72900286D01*
X151754192Y-72897885D01*
X151759418Y-72895030D01*
X151762749Y-72890091D01*
X151789735Y-72878475D01*
X151815515Y-72864399D01*
X151822865Y-72864217D01*
X151826927Y-72862469D01*
X151842273Y-72863737D01*
G37*
%TD.AperFunction*%
%TD*%
%TA.AperFunction,Conductor*%
%TO.N,/5V_ESP*%
G36*
X113038520Y-62755185D02*
G01*
X113084275Y-62807989D01*
X113094219Y-62877147D01*
X113081966Y-62915795D01*
X113048445Y-62981580D01*
X112982754Y-63183754D01*
X112982754Y-63183757D01*
X112982753Y-63183760D01*
X112980899Y-63195466D01*
X112949500Y-63393707D01*
X112949500Y-63606290D01*
X112957119Y-63654392D01*
X112957119Y-63654393D01*
X112981226Y-63806597D01*
X112981601Y-63811363D01*
X112983770Y-63820553D01*
X112985623Y-63825074D01*
X113009968Y-63900000D01*
X113023512Y-63941683D01*
X113048445Y-64018418D01*
X113141532Y-64201111D01*
X113144951Y-64207820D01*
X113269890Y-64379786D01*
X113370824Y-64480720D01*
X113391972Y-64508970D01*
X113397091Y-64518345D01*
X113398625Y-64521153D01*
X113413477Y-64589426D01*
X113389061Y-64654891D01*
X113389055Y-64654899D01*
X113386305Y-64658572D01*
X113330376Y-64700436D01*
X113207673Y-64746201D01*
X113207670Y-64746202D01*
X113207669Y-64746203D01*
X113207666Y-64746205D01*
X113207664Y-64746206D01*
X113207661Y-64746208D01*
X113092456Y-64832450D01*
X113092450Y-64832456D01*
X113006205Y-64947665D01*
X113006203Y-64947668D01*
X112955908Y-65082516D01*
X112949500Y-65142125D01*
X112949500Y-66937876D01*
X112949659Y-66939806D01*
X112949885Y-66941454D01*
X112955907Y-66997482D01*
X112959214Y-67006348D01*
X113006202Y-67132328D01*
X113006203Y-67132330D01*
X113006204Y-67132332D01*
X113006205Y-67132333D01*
X113092450Y-67247542D01*
X113092452Y-67247544D01*
X113092455Y-67247547D01*
X113207664Y-67333793D01*
X113207671Y-67333797D01*
X113342517Y-67384091D01*
X113342516Y-67384091D01*
X113349444Y-67384835D01*
X113402127Y-67390500D01*
X115197872Y-67390499D01*
X115257483Y-67384091D01*
X115392331Y-67333796D01*
X115507546Y-67247546D01*
X115593796Y-67132331D01*
X115640785Y-67006348D01*
X150329499Y-67006348D01*
X150360257Y-67160971D01*
X150360264Y-67161002D01*
X150420598Y-67306665D01*
X150420602Y-67306672D01*
X150420609Y-67306685D01*
X150420613Y-67306691D01*
X150420619Y-67306701D01*
X150478806Y-67393784D01*
X150494039Y-67425622D01*
X150498711Y-67440543D01*
X150499958Y-67510401D01*
X150496357Y-67523527D01*
X150479878Y-67559611D01*
X150420610Y-67648312D01*
X150420603Y-67648324D01*
X150420598Y-67648333D01*
X150360264Y-67793996D01*
X150360257Y-67794027D01*
X150329500Y-67948650D01*
X150329500Y-67948653D01*
X150329500Y-68106346D01*
X150329500Y-68106348D01*
X150329499Y-68106348D01*
X150360257Y-68260971D01*
X150360264Y-68261002D01*
X150420598Y-68406665D01*
X150420603Y-68406674D01*
X150420613Y-68406691D01*
X150508211Y-68537790D01*
X150508212Y-68537791D01*
X150508217Y-68537797D01*
X150619701Y-68649281D01*
X150619707Y-68649286D01*
X150619711Y-68649289D01*
X150750814Y-68736890D01*
X150750827Y-68736897D01*
X150896498Y-68797235D01*
X150896503Y-68797237D01*
X151051153Y-68827999D01*
X151051156Y-68828000D01*
X151051158Y-68828000D01*
X151208844Y-68828000D01*
X151208845Y-68827999D01*
X151363497Y-68797237D01*
X151509179Y-68736894D01*
X151640289Y-68649289D01*
X151751789Y-68537789D01*
X151839394Y-68406679D01*
X151899737Y-68260997D01*
X151930500Y-68106342D01*
X151930500Y-67948658D01*
X151930500Y-67948655D01*
X151930500Y-67948473D01*
X151930065Y-67946472D01*
X151900397Y-67797324D01*
X151899994Y-67794967D01*
X151899738Y-67794008D01*
X151899737Y-67794006D01*
X151899737Y-67794003D01*
X151899735Y-67793998D01*
X151839397Y-67648327D01*
X151839393Y-67648320D01*
X151839389Y-67648314D01*
X151781187Y-67561208D01*
X151765957Y-67529375D01*
X151761287Y-67514461D01*
X151760039Y-67444605D01*
X151763644Y-67431462D01*
X151780120Y-67395386D01*
X151839394Y-67306679D01*
X151899737Y-67160997D01*
X151930500Y-67006342D01*
X151930500Y-66848658D01*
X151930500Y-66848655D01*
X151930500Y-66848473D01*
X151930065Y-66846472D01*
X151900397Y-66697324D01*
X151899994Y-66694967D01*
X151899738Y-66694008D01*
X151899737Y-66694006D01*
X151899737Y-66694003D01*
X151899735Y-66693998D01*
X151839397Y-66548327D01*
X151839390Y-66548314D01*
X151751789Y-66417211D01*
X151751786Y-66417207D01*
X151751781Y-66417201D01*
X151640297Y-66305717D01*
X151640291Y-66305712D01*
X151640290Y-66305711D01*
X151509191Y-66218113D01*
X151509190Y-66218112D01*
X151509185Y-66218109D01*
X151509172Y-66218102D01*
X151509165Y-66218098D01*
X151363502Y-66157764D01*
X151363471Y-66157757D01*
X151208847Y-66127000D01*
X151208845Y-66127000D01*
X151208842Y-66127000D01*
X151051158Y-66127000D01*
X151051155Y-66127000D01*
X151051153Y-66127000D01*
X150896527Y-66157757D01*
X150896496Y-66157764D01*
X150750833Y-66218098D01*
X150750824Y-66218103D01*
X150750807Y-66218113D01*
X150619708Y-66305711D01*
X150619707Y-66305712D01*
X150619701Y-66305717D01*
X150508217Y-66417201D01*
X150508212Y-66417207D01*
X150508211Y-66417208D01*
X150420613Y-66548307D01*
X150420603Y-66548324D01*
X150420598Y-66548333D01*
X150360264Y-66693996D01*
X150360257Y-66694027D01*
X150329500Y-66848650D01*
X150329500Y-66848653D01*
X150329500Y-67006346D01*
X150329500Y-67006348D01*
X150329499Y-67006348D01*
X115640785Y-67006348D01*
X115644091Y-66997483D01*
X115650500Y-66937873D01*
X115650499Y-65142128D01*
X115644091Y-65082517D01*
X115593796Y-64947669D01*
X115593795Y-64947668D01*
X115593793Y-64947664D01*
X115593782Y-64947649D01*
X115591392Y-64943929D01*
X115591391Y-64943928D01*
X115588489Y-64940579D01*
X115507547Y-64832455D01*
X115507544Y-64832452D01*
X115507542Y-64832450D01*
X115449616Y-64789086D01*
X115392335Y-64746206D01*
X115392332Y-64746204D01*
X115392330Y-64746203D01*
X115392328Y-64746202D01*
X115277621Y-64703419D01*
X115246642Y-64686502D01*
X115235531Y-64678184D01*
X115193661Y-64622250D01*
X115188678Y-64552561D01*
X115189654Y-64548072D01*
X115223136Y-64486758D01*
X115330104Y-64379792D01*
X115331164Y-64378332D01*
X115337861Y-64369117D01*
X115368076Y-64327527D01*
X115413402Y-64265141D01*
X115455051Y-64207816D01*
X115551557Y-64018412D01*
X115617246Y-63816243D01*
X115650500Y-63606287D01*
X115650500Y-63393713D01*
X115617246Y-63183757D01*
X115551557Y-62981588D01*
X115518034Y-62915795D01*
X115505138Y-62847126D01*
X115531414Y-62782385D01*
X115588521Y-62742128D01*
X115628519Y-62735500D01*
X123079493Y-62735500D01*
X123146532Y-62755185D01*
X123192287Y-62807989D01*
X123202851Y-62872102D01*
X123200000Y-62900002D01*
X123200000Y-62900013D01*
X123200000Y-63250000D01*
X123991277Y-63250000D01*
X124058316Y-63269685D01*
X124104071Y-63322489D01*
X124114015Y-63391647D01*
X124111052Y-63406093D01*
X124100000Y-63447339D01*
X124100000Y-63552660D01*
X124111052Y-63593907D01*
X124109389Y-63663757D01*
X124070226Y-63721619D01*
X124005998Y-63749123D01*
X123991277Y-63750000D01*
X123200001Y-63750000D01*
X123200001Y-64099995D01*
X123210493Y-64202694D01*
X123210493Y-64202695D01*
X123210494Y-64202697D01*
X123265641Y-64369119D01*
X123265643Y-64369124D01*
X123357684Y-64518345D01*
X123481654Y-64642315D01*
X123630875Y-64734356D01*
X123630880Y-64734358D01*
X123797299Y-64789504D01*
X123797300Y-64789504D01*
X123797302Y-64789505D01*
X123797309Y-64789506D01*
X123900019Y-64799999D01*
X124249999Y-64799999D01*
X124250000Y-64799998D01*
X124250000Y-64008722D01*
X124269685Y-63941683D01*
X124322489Y-63895928D01*
X124391647Y-63885984D01*
X124406082Y-63888945D01*
X124447339Y-63900000D01*
X124552659Y-63900000D01*
X124552661Y-63900000D01*
X124593907Y-63888948D01*
X124663755Y-63890609D01*
X124721618Y-63929771D01*
X124749123Y-63993999D01*
X124750000Y-64008722D01*
X124750000Y-64799999D01*
X125099960Y-64799999D01*
X125099972Y-64799999D01*
X125099986Y-64799998D01*
X125202697Y-64789505D01*
X125369119Y-64734358D01*
X125369124Y-64734356D01*
X125515414Y-64644122D01*
X125521074Y-64640835D01*
X125524777Y-64638813D01*
X125524778Y-64638814D01*
X125543897Y-64628374D01*
X125612167Y-64613525D01*
X125677631Y-64637944D01*
X125719494Y-64693861D01*
X125719499Y-64693876D01*
X125719501Y-64693878D01*
X125719501Y-64693880D01*
X125722176Y-64701049D01*
X125730000Y-64744397D01*
X125730000Y-64770000D01*
X126690456Y-64770000D01*
X126700164Y-64770380D01*
X126709879Y-64771145D01*
X126719517Y-64772285D01*
X126897648Y-64800500D01*
X126897649Y-64800500D01*
X127102346Y-64800500D01*
X127102351Y-64800500D01*
X127102352Y-64800500D01*
X127128262Y-64796395D01*
X127197551Y-64805348D01*
X127251005Y-64850342D01*
X127266637Y-64883933D01*
X127273557Y-64907501D01*
X127273560Y-64907507D01*
X127351342Y-65028537D01*
X127351350Y-65028548D01*
X127397094Y-65081340D01*
X127397097Y-65081343D01*
X127397101Y-65081347D01*
X127505835Y-65175567D01*
X127505838Y-65175568D01*
X127505839Y-65175569D01*
X127600707Y-65218895D01*
X127636712Y-65235338D01*
X127703751Y-65255023D01*
X127703755Y-65255024D01*
X127846171Y-65275500D01*
X127846174Y-65275500D01*
X130929977Y-65275500D01*
X130929996Y-65275500D01*
X130947978Y-65275179D01*
X130947988Y-65275178D01*
X130948023Y-65275178D01*
X130956869Y-65274862D01*
X130974886Y-65273896D01*
X131115478Y-65243312D01*
X131180942Y-65218895D01*
X131307217Y-65149944D01*
X131408957Y-65048207D01*
X131450829Y-64992274D01*
X131450835Y-64992266D01*
X131519788Y-64865985D01*
X131519796Y-64865945D01*
X131520752Y-64864228D01*
X131545289Y-64840069D01*
X131569691Y-64815667D01*
X131570207Y-64815535D01*
X131570540Y-64815208D01*
X131575828Y-64814100D01*
X131629119Y-64800499D01*
X132720002Y-64800499D01*
X132720008Y-64800499D01*
X132822797Y-64789999D01*
X132854719Y-64779420D01*
X132873962Y-64774710D01*
X132893356Y-64771581D01*
X132913100Y-64770000D01*
X134310456Y-64770000D01*
X134320164Y-64770380D01*
X134329879Y-64771145D01*
X134339517Y-64772285D01*
X134517648Y-64800500D01*
X134517649Y-64800500D01*
X134722346Y-64800500D01*
X134722351Y-64800500D01*
X134722352Y-64800500D01*
X134748262Y-64796395D01*
X134817551Y-64805348D01*
X134871005Y-64850342D01*
X134886637Y-64883933D01*
X134893557Y-64907501D01*
X134893560Y-64907507D01*
X134971342Y-65028537D01*
X134971350Y-65028548D01*
X135017094Y-65081340D01*
X135017097Y-65081343D01*
X135017101Y-65081347D01*
X135125835Y-65175567D01*
X135125838Y-65175568D01*
X135125839Y-65175569D01*
X135220707Y-65218895D01*
X135256712Y-65235338D01*
X135323751Y-65255023D01*
X135323755Y-65255024D01*
X135466171Y-65275500D01*
X135466174Y-65275500D01*
X160665500Y-65275500D01*
X160732539Y-65295185D01*
X160778294Y-65347989D01*
X160789500Y-65399500D01*
X160789500Y-72248170D01*
X160789499Y-72248176D01*
X160789500Y-72248179D01*
X160784475Y-72283114D01*
X160780070Y-72298112D01*
X160742327Y-72356855D01*
X160742292Y-72356885D01*
X160742291Y-72356887D01*
X160742289Y-72356887D01*
X160740958Y-72358042D01*
X160686097Y-72385518D01*
X160678539Y-72387163D01*
X160652168Y-72390000D01*
X152065777Y-72390000D01*
X152065772Y-72389999D01*
X152065770Y-72390000D01*
X152030836Y-72384975D01*
X152015837Y-72380570D01*
X151957075Y-72342809D01*
X151952263Y-72337257D01*
X151924349Y-72280236D01*
X151900395Y-72159815D01*
X151899983Y-72157403D01*
X151899738Y-72156508D01*
X151899737Y-72156506D01*
X151899737Y-72156503D01*
X151842297Y-72017830D01*
X151842297Y-72017828D01*
X151839400Y-72010834D01*
X151839397Y-72010827D01*
X151839395Y-72010824D01*
X151839390Y-72010814D01*
X151751789Y-71879711D01*
X151751786Y-71879707D01*
X151751781Y-71879701D01*
X151640297Y-71768217D01*
X151640291Y-71768212D01*
X151640290Y-71768211D01*
X151509191Y-71680613D01*
X151509190Y-71680612D01*
X151509185Y-71680609D01*
X151509172Y-71680602D01*
X151509165Y-71680598D01*
X151363502Y-71620264D01*
X151363471Y-71620257D01*
X151208847Y-71589500D01*
X151208845Y-71589500D01*
X151208842Y-71589500D01*
X151051158Y-71589500D01*
X151051155Y-71589500D01*
X151051153Y-71589500D01*
X150896527Y-71620257D01*
X150896496Y-71620264D01*
X150750833Y-71680598D01*
X150750824Y-71680603D01*
X150750807Y-71680613D01*
X150619708Y-71768211D01*
X150619707Y-71768212D01*
X150619701Y-71768217D01*
X150508217Y-71879701D01*
X150508212Y-71879707D01*
X150508211Y-71879708D01*
X150420613Y-72010807D01*
X150420603Y-72010824D01*
X150420598Y-72010833D01*
X150360264Y-72156496D01*
X150360257Y-72156527D01*
X150337148Y-72272703D01*
X150325406Y-72305987D01*
X150318159Y-72319841D01*
X150269654Y-72370113D01*
X150269644Y-72370118D01*
X150269643Y-72370120D01*
X150269640Y-72370120D01*
X150263272Y-72373748D01*
X150201902Y-72390000D01*
X143663028Y-72390000D01*
X143628089Y-72384976D01*
X143614771Y-72381065D01*
X143599773Y-72371425D01*
X143582668Y-72366403D01*
X143570993Y-72352928D01*
X143555994Y-72343289D01*
X143548588Y-72327071D01*
X143536914Y-72313598D01*
X143526972Y-72279733D01*
X143526629Y-72277347D01*
X143531709Y-72220555D01*
X143543528Y-72185033D01*
X143544975Y-72180928D01*
X143583596Y-72077379D01*
X143583598Y-72077372D01*
X143583598Y-72077370D01*
X143583599Y-72077369D01*
X143589999Y-72017850D01*
X143590000Y-72017834D01*
X143590000Y-71370000D01*
X142852250Y-71370000D01*
X142785211Y-71350315D01*
X142739456Y-71297511D01*
X142729512Y-71228353D01*
X142732476Y-71213905D01*
X142739999Y-71185828D01*
X142740000Y-71185825D01*
X142740000Y-71054175D01*
X142739999Y-71054171D01*
X142732476Y-71026095D01*
X142734137Y-70956245D01*
X142773299Y-70898382D01*
X142837527Y-70870877D01*
X142852250Y-70870000D01*
X143590000Y-70870000D01*
X143590000Y-70222172D01*
X143589998Y-70222138D01*
X143583598Y-70162628D01*
X143583596Y-70162621D01*
X143583596Y-70162620D01*
X143533354Y-70027913D01*
X143533350Y-70027906D01*
X143447190Y-69912812D01*
X143447187Y-69912809D01*
X143447185Y-69912807D01*
X143389317Y-69869487D01*
X143332093Y-69826649D01*
X143332086Y-69826645D01*
X143264732Y-69801524D01*
X143197377Y-69776402D01*
X143197370Y-69776400D01*
X143137852Y-69770000D01*
X143137844Y-69770000D01*
X142490000Y-69770000D01*
X142490000Y-70507749D01*
X142470315Y-70574788D01*
X142417511Y-70620543D01*
X142348353Y-70630487D01*
X142333908Y-70627524D01*
X142305828Y-70620000D01*
X142305826Y-70620000D01*
X142174174Y-70620000D01*
X142174171Y-70620000D01*
X142146092Y-70627524D01*
X142076242Y-70625861D01*
X142018380Y-70586698D01*
X141990877Y-70522469D01*
X141990000Y-70507749D01*
X141990000Y-69770000D01*
X141342155Y-69770000D01*
X141342146Y-69770000D01*
X141282628Y-69776400D01*
X141282621Y-69776402D01*
X141147910Y-69826646D01*
X141147907Y-69826648D01*
X141032813Y-69912807D01*
X141032807Y-69912813D01*
X140946648Y-70027907D01*
X140946646Y-70027910D01*
X140896402Y-70162621D01*
X140896400Y-70162628D01*
X140890000Y-70222146D01*
X140890000Y-70222155D01*
X140890000Y-70870000D01*
X141627750Y-70870000D01*
X141694789Y-70889685D01*
X141740544Y-70942489D01*
X141750488Y-71011647D01*
X141747524Y-71026095D01*
X141740000Y-71054171D01*
X141740000Y-71185828D01*
X141747524Y-71213905D01*
X141745863Y-71283755D01*
X141706701Y-71341618D01*
X141642473Y-71369123D01*
X141627750Y-71370000D01*
X140890000Y-71370000D01*
X140890000Y-72017852D01*
X140896400Y-72077370D01*
X140896402Y-72077377D01*
X140939209Y-72192148D01*
X140944197Y-72209142D01*
X140950377Y-72237573D01*
X140945382Y-72307264D01*
X140903516Y-72363180D01*
X140901587Y-72364624D01*
X140849315Y-72387382D01*
X140846692Y-72387855D01*
X140845746Y-72388026D01*
X140823712Y-72390000D01*
X129540000Y-72390000D01*
X129540000Y-114927670D01*
X129539999Y-114927676D01*
X129540000Y-114927679D01*
X129534975Y-114962614D01*
X129530570Y-114977612D01*
X129492827Y-115036355D01*
X129492792Y-115036385D01*
X129492791Y-115036387D01*
X129492789Y-115036387D01*
X129491458Y-115037542D01*
X129436597Y-115065018D01*
X129429039Y-115066663D01*
X129402668Y-115069500D01*
X109414576Y-115069500D01*
X109411516Y-115069462D01*
X109408478Y-115069387D01*
X109405457Y-115069276D01*
X109386904Y-115068365D01*
X109386900Y-115068365D01*
X109076114Y-115053096D01*
X109070044Y-115052648D01*
X109063983Y-115052051D01*
X109057944Y-115051306D01*
X108736318Y-115003598D01*
X108730319Y-115002557D01*
X108724352Y-115001370D01*
X108718415Y-115000037D01*
X108500691Y-114945500D01*
X108402998Y-114921029D01*
X108397120Y-114919401D01*
X108395463Y-114918898D01*
X108391297Y-114917634D01*
X108385549Y-114915735D01*
X108079384Y-114806187D01*
X108073735Y-114804008D01*
X108068124Y-114801684D01*
X108062557Y-114799217D01*
X107768595Y-114660184D01*
X107763135Y-114657434D01*
X107757789Y-114654575D01*
X107752518Y-114651589D01*
X107473611Y-114484420D01*
X107468481Y-114481172D01*
X107463428Y-114477795D01*
X107458457Y-114474295D01*
X107197272Y-114280586D01*
X107192484Y-114276850D01*
X107191148Y-114275754D01*
X107187761Y-114272974D01*
X107183164Y-114269008D01*
X107146475Y-114235755D01*
X106942239Y-114050646D01*
X106937831Y-114046449D01*
X106933550Y-114042168D01*
X106929353Y-114037760D01*
X106710990Y-113796833D01*
X106707015Y-113792225D01*
X106703157Y-113787524D01*
X106699412Y-113782726D01*
X106505703Y-113521541D01*
X106502208Y-113516578D01*
X106498815Y-113511500D01*
X106495575Y-113506382D01*
X106328393Y-113227456D01*
X106325428Y-113222223D01*
X106322541Y-113216823D01*
X106319822Y-113211419D01*
X106180775Y-112917429D01*
X106178316Y-112911879D01*
X106175979Y-112906238D01*
X106173825Y-112900653D01*
X106064255Y-112594424D01*
X106062361Y-112588692D01*
X106060587Y-112582846D01*
X106058967Y-112576990D01*
X106050958Y-112545015D01*
X105979958Y-112261568D01*
X105978627Y-112255639D01*
X105977441Y-112249677D01*
X105976404Y-112243702D01*
X105928690Y-111922037D01*
X105927948Y-111916018D01*
X105927351Y-111909959D01*
X105926903Y-111903904D01*
X105910721Y-111574510D01*
X105910611Y-111571480D01*
X105910537Y-111568438D01*
X105910500Y-111565422D01*
X105910500Y-106555446D01*
X110019500Y-106555446D01*
X110019500Y-106804552D01*
X110019501Y-106804581D01*
X110052016Y-107051559D01*
X110116499Y-107292212D01*
X110211824Y-107522348D01*
X110211830Y-107522361D01*
X110211837Y-107522376D01*
X110211845Y-107522389D01*
X110336399Y-107738125D01*
X110488053Y-107935766D01*
X110488057Y-107935771D01*
X110488060Y-107935774D01*
X110488066Y-107935781D01*
X110664218Y-108111933D01*
X110664225Y-108111939D01*
X110664228Y-108111941D01*
X110664232Y-108111945D01*
X110861873Y-108263599D01*
X111077623Y-108388162D01*
X111077638Y-108388169D01*
X111161031Y-108422711D01*
X111307793Y-108483502D01*
X111548435Y-108547982D01*
X111795435Y-108580500D01*
X111795442Y-108580500D01*
X112044558Y-108580500D01*
X112044565Y-108580500D01*
X112291565Y-108547982D01*
X112532207Y-108483502D01*
X112762373Y-108388164D01*
X112978127Y-108263599D01*
X113175776Y-108111938D01*
X113351938Y-107935776D01*
X113503599Y-107738127D01*
X113628164Y-107522373D01*
X113723502Y-107292207D01*
X113787982Y-107051565D01*
X113820500Y-106804565D01*
X113820500Y-106555446D01*
X115019500Y-106555446D01*
X115019500Y-106804552D01*
X115019501Y-106804581D01*
X115052016Y-107051559D01*
X115116499Y-107292212D01*
X115211824Y-107522348D01*
X115211830Y-107522361D01*
X115211837Y-107522376D01*
X115211845Y-107522389D01*
X115336399Y-107738125D01*
X115488053Y-107935766D01*
X115488057Y-107935771D01*
X115488060Y-107935774D01*
X115488066Y-107935781D01*
X115664218Y-108111933D01*
X115664225Y-108111939D01*
X115664228Y-108111941D01*
X115664232Y-108111945D01*
X115861873Y-108263599D01*
X116077623Y-108388162D01*
X116077638Y-108388169D01*
X116161031Y-108422711D01*
X116307793Y-108483502D01*
X116548435Y-108547982D01*
X116795435Y-108580500D01*
X116795442Y-108580500D01*
X117044558Y-108580500D01*
X117044565Y-108580500D01*
X117291565Y-108547982D01*
X117532207Y-108483502D01*
X117762373Y-108388164D01*
X117978127Y-108263599D01*
X118175776Y-108111938D01*
X118351938Y-107935776D01*
X118503599Y-107738127D01*
X118628164Y-107522373D01*
X118723502Y-107292207D01*
X118787982Y-107051565D01*
X118820500Y-106804565D01*
X118820500Y-106555446D01*
X120019500Y-106555446D01*
X120019500Y-106804552D01*
X120019501Y-106804581D01*
X120052016Y-107051559D01*
X120116499Y-107292212D01*
X120211824Y-107522348D01*
X120211830Y-107522361D01*
X120211837Y-107522376D01*
X120211845Y-107522389D01*
X120336399Y-107738125D01*
X120488053Y-107935766D01*
X120488057Y-107935771D01*
X120488060Y-107935774D01*
X120488066Y-107935781D01*
X120664218Y-108111933D01*
X120664225Y-108111939D01*
X120664228Y-108111941D01*
X120664232Y-108111945D01*
X120861873Y-108263599D01*
X121077623Y-108388162D01*
X121077638Y-108388169D01*
X121161031Y-108422711D01*
X121307793Y-108483502D01*
X121548435Y-108547982D01*
X121795435Y-108580500D01*
X121795442Y-108580500D01*
X122044558Y-108580500D01*
X122044565Y-108580500D01*
X122291565Y-108547982D01*
X122532207Y-108483502D01*
X122762373Y-108388164D01*
X122978127Y-108263599D01*
X123175776Y-108111938D01*
X123351938Y-107935776D01*
X123503599Y-107738127D01*
X123628164Y-107522373D01*
X123723502Y-107292207D01*
X123787982Y-107051565D01*
X123820500Y-106804565D01*
X123820500Y-106555446D01*
X125019500Y-106555446D01*
X125019500Y-106804552D01*
X125019501Y-106804581D01*
X125052016Y-107051559D01*
X125116499Y-107292212D01*
X125211824Y-107522348D01*
X125211830Y-107522361D01*
X125211837Y-107522376D01*
X125211845Y-107522389D01*
X125336399Y-107738125D01*
X125488053Y-107935766D01*
X125488057Y-107935771D01*
X125488060Y-107935774D01*
X125488066Y-107935781D01*
X125664218Y-108111933D01*
X125664225Y-108111939D01*
X125664228Y-108111941D01*
X125664232Y-108111945D01*
X125861873Y-108263599D01*
X126077623Y-108388162D01*
X126077638Y-108388169D01*
X126161031Y-108422711D01*
X126307793Y-108483502D01*
X126548435Y-108547982D01*
X126795435Y-108580500D01*
X126795442Y-108580500D01*
X127044558Y-108580500D01*
X127044565Y-108580500D01*
X127291565Y-108547982D01*
X127532207Y-108483502D01*
X127762373Y-108388164D01*
X127978127Y-108263599D01*
X128175776Y-108111938D01*
X128351938Y-107935776D01*
X128503599Y-107738127D01*
X128628164Y-107522373D01*
X128723502Y-107292207D01*
X128787982Y-107051565D01*
X128820500Y-106804565D01*
X128820500Y-106555435D01*
X128787982Y-106308435D01*
X128723502Y-106067793D01*
X128628168Y-105837637D01*
X128628162Y-105837623D01*
X128503599Y-105621873D01*
X128351941Y-105424228D01*
X128351935Y-105424220D01*
X128351920Y-105424204D01*
X128175789Y-105248074D01*
X128175781Y-105248066D01*
X128175774Y-105248060D01*
X128175771Y-105248057D01*
X128175766Y-105248053D01*
X127978125Y-105096399D01*
X127878703Y-105038998D01*
X127762376Y-104971837D01*
X127762361Y-104971830D01*
X127762348Y-104971824D01*
X127532211Y-104876499D01*
X127532213Y-104876499D01*
X127291559Y-104812016D01*
X127048665Y-104780039D01*
X127046649Y-104779705D01*
X127044575Y-104779500D01*
X127044570Y-104779500D01*
X127044565Y-104779500D01*
X126795435Y-104779500D01*
X126795429Y-104779500D01*
X126795424Y-104779500D01*
X126793347Y-104779705D01*
X126791333Y-104780039D01*
X126548439Y-104812016D01*
X126307786Y-104876499D01*
X126077650Y-104971824D01*
X126077637Y-104971830D01*
X126077630Y-104971833D01*
X126077623Y-104971837D01*
X126077610Y-104971843D01*
X126077609Y-104971845D01*
X125861873Y-105096399D01*
X125664232Y-105248053D01*
X125664217Y-105248067D01*
X125664209Y-105248074D01*
X125488074Y-105424209D01*
X125488067Y-105424217D01*
X125488053Y-105424232D01*
X125336399Y-105621873D01*
X125211845Y-105837609D01*
X125211837Y-105837623D01*
X125211835Y-105837627D01*
X125211830Y-105837637D01*
X125211824Y-105837650D01*
X125116499Y-106067786D01*
X125052016Y-106308439D01*
X125019501Y-106555417D01*
X125019500Y-106555446D01*
X123820500Y-106555446D01*
X123820500Y-106555435D01*
X123787982Y-106308435D01*
X123723502Y-106067793D01*
X123628168Y-105837637D01*
X123628162Y-105837623D01*
X123503599Y-105621873D01*
X123351941Y-105424228D01*
X123351935Y-105424220D01*
X123351920Y-105424204D01*
X123175789Y-105248074D01*
X123175781Y-105248066D01*
X123175774Y-105248060D01*
X123175771Y-105248057D01*
X123175766Y-105248053D01*
X122978125Y-105096399D01*
X122878703Y-105038998D01*
X122762376Y-104971837D01*
X122762361Y-104971830D01*
X122762348Y-104971824D01*
X122532211Y-104876499D01*
X122532213Y-104876499D01*
X122291559Y-104812016D01*
X122048665Y-104780039D01*
X122046649Y-104779705D01*
X122044575Y-104779500D01*
X122044570Y-104779500D01*
X122044565Y-104779500D01*
X121795435Y-104779500D01*
X121795429Y-104779500D01*
X121795424Y-104779500D01*
X121793347Y-104779705D01*
X121791333Y-104780039D01*
X121548439Y-104812016D01*
X121307786Y-104876499D01*
X121077650Y-104971824D01*
X121077637Y-104971830D01*
X121077630Y-104971833D01*
X121077623Y-104971837D01*
X121077610Y-104971843D01*
X121077609Y-104971845D01*
X120861873Y-105096399D01*
X120664232Y-105248053D01*
X120664217Y-105248067D01*
X120664209Y-105248074D01*
X120488074Y-105424209D01*
X120488067Y-105424217D01*
X120488053Y-105424232D01*
X120336399Y-105621873D01*
X120211845Y-105837609D01*
X120211837Y-105837623D01*
X120211835Y-105837627D01*
X120211830Y-105837637D01*
X120211824Y-105837650D01*
X120116499Y-106067786D01*
X120052016Y-106308439D01*
X120019501Y-106555417D01*
X120019500Y-106555446D01*
X118820500Y-106555446D01*
X118820500Y-106555435D01*
X118787982Y-106308435D01*
X118723502Y-106067793D01*
X118628168Y-105837637D01*
X118628162Y-105837623D01*
X118503599Y-105621873D01*
X118351941Y-105424228D01*
X118351935Y-105424220D01*
X118351920Y-105424204D01*
X118175789Y-105248074D01*
X118175781Y-105248066D01*
X118175774Y-105248060D01*
X118175771Y-105248057D01*
X118175766Y-105248053D01*
X117978125Y-105096399D01*
X117878703Y-105038998D01*
X117762376Y-104971837D01*
X117762361Y-104971830D01*
X117762348Y-104971824D01*
X117532211Y-104876499D01*
X117532213Y-104876499D01*
X117291559Y-104812016D01*
X117048665Y-104780039D01*
X117046649Y-104779705D01*
X117044575Y-104779500D01*
X117044570Y-104779500D01*
X117044565Y-104779500D01*
X116795435Y-104779500D01*
X116795429Y-104779500D01*
X116795424Y-104779500D01*
X116793347Y-104779705D01*
X116791333Y-104780039D01*
X116548439Y-104812016D01*
X116307786Y-104876499D01*
X116077650Y-104971824D01*
X116077637Y-104971830D01*
X116077630Y-104971833D01*
X116077623Y-104971837D01*
X116077610Y-104971843D01*
X116077609Y-104971845D01*
X115861873Y-105096399D01*
X115664232Y-105248053D01*
X115664217Y-105248067D01*
X115664209Y-105248074D01*
X115488074Y-105424209D01*
X115488067Y-105424217D01*
X115488053Y-105424232D01*
X115336399Y-105621873D01*
X115211845Y-105837609D01*
X115211837Y-105837623D01*
X115211835Y-105837627D01*
X115211830Y-105837637D01*
X115211824Y-105837650D01*
X115116499Y-106067786D01*
X115052016Y-106308439D01*
X115019501Y-106555417D01*
X115019500Y-106555446D01*
X113820500Y-106555446D01*
X113820500Y-106555435D01*
X113787982Y-106308435D01*
X113723502Y-106067793D01*
X113628168Y-105837637D01*
X113628162Y-105837623D01*
X113503599Y-105621873D01*
X113351941Y-105424228D01*
X113351935Y-105424220D01*
X113351920Y-105424204D01*
X113175789Y-105248074D01*
X113175781Y-105248066D01*
X113175774Y-105248060D01*
X113175771Y-105248057D01*
X113175766Y-105248053D01*
X112978125Y-105096399D01*
X112878703Y-105038998D01*
X112762376Y-104971837D01*
X112762361Y-104971830D01*
X112762348Y-104971824D01*
X112532211Y-104876499D01*
X112532213Y-104876499D01*
X112291559Y-104812016D01*
X112048665Y-104780039D01*
X112046649Y-104779705D01*
X112044575Y-104779500D01*
X112044570Y-104779500D01*
X112044565Y-104779500D01*
X111795435Y-104779500D01*
X111795429Y-104779500D01*
X111795424Y-104779500D01*
X111793347Y-104779705D01*
X111791333Y-104780039D01*
X111548439Y-104812016D01*
X111307786Y-104876499D01*
X111077650Y-104971824D01*
X111077637Y-104971830D01*
X111077630Y-104971833D01*
X111077623Y-104971837D01*
X111077610Y-104971843D01*
X111077609Y-104971845D01*
X110861873Y-105096399D01*
X110664232Y-105248053D01*
X110664217Y-105248067D01*
X110664209Y-105248074D01*
X110488074Y-105424209D01*
X110488067Y-105424217D01*
X110488053Y-105424232D01*
X110336399Y-105621873D01*
X110211845Y-105837609D01*
X110211837Y-105837623D01*
X110211835Y-105837627D01*
X110211830Y-105837637D01*
X110211824Y-105837650D01*
X110116499Y-106067786D01*
X110052016Y-106308439D01*
X110019501Y-106555417D01*
X110019500Y-106555446D01*
X105910500Y-106555446D01*
X105910500Y-97868848D01*
X110959499Y-97868848D01*
X110990257Y-98023471D01*
X110990264Y-98023502D01*
X111050598Y-98169165D01*
X111050603Y-98169174D01*
X111050613Y-98169191D01*
X111138211Y-98300290D01*
X111138212Y-98300291D01*
X111138217Y-98300297D01*
X111249701Y-98411781D01*
X111249707Y-98411786D01*
X111249711Y-98411789D01*
X111380814Y-98499390D01*
X111380827Y-98499397D01*
X111502298Y-98549711D01*
X111526503Y-98559737D01*
X111675803Y-98589434D01*
X111678054Y-98589971D01*
X111678117Y-98590007D01*
X111681155Y-98590500D01*
X111838844Y-98590500D01*
X111842964Y-98590500D01*
X111850814Y-98588118D01*
X111993497Y-98559737D01*
X112139179Y-98499394D01*
X112270289Y-98411789D01*
X112381789Y-98300289D01*
X112469394Y-98169179D01*
X112529737Y-98023497D01*
X112560499Y-97868848D01*
X116039499Y-97868848D01*
X116070257Y-98023471D01*
X116070264Y-98023502D01*
X116130598Y-98169165D01*
X116130603Y-98169174D01*
X116130613Y-98169191D01*
X116218211Y-98300290D01*
X116218212Y-98300291D01*
X116218217Y-98300297D01*
X116329701Y-98411781D01*
X116329707Y-98411786D01*
X116329711Y-98411789D01*
X116460814Y-98499390D01*
X116460827Y-98499397D01*
X116582298Y-98549711D01*
X116606503Y-98559737D01*
X116755803Y-98589434D01*
X116758054Y-98589971D01*
X116758117Y-98590007D01*
X116761155Y-98590500D01*
X116918844Y-98590500D01*
X116922964Y-98590500D01*
X116930814Y-98588118D01*
X117073497Y-98559737D01*
X117219179Y-98499394D01*
X117350289Y-98411789D01*
X117461789Y-98300289D01*
X117549394Y-98169179D01*
X117609737Y-98023497D01*
X117640499Y-97868848D01*
X121119499Y-97868848D01*
X121150257Y-98023471D01*
X121150264Y-98023502D01*
X121210598Y-98169165D01*
X121210603Y-98169174D01*
X121210613Y-98169191D01*
X121298211Y-98300290D01*
X121298212Y-98300291D01*
X121298217Y-98300297D01*
X121409701Y-98411781D01*
X121409707Y-98411786D01*
X121409711Y-98411789D01*
X121540814Y-98499390D01*
X121540827Y-98499397D01*
X121662298Y-98549711D01*
X121686503Y-98559737D01*
X121835803Y-98589434D01*
X121838054Y-98589971D01*
X121838117Y-98590007D01*
X121841155Y-98590500D01*
X121998844Y-98590500D01*
X122002964Y-98590500D01*
X122010814Y-98588118D01*
X122153497Y-98559737D01*
X122299179Y-98499394D01*
X122430289Y-98411789D01*
X122541789Y-98300289D01*
X122629394Y-98169179D01*
X122689737Y-98023497D01*
X122720499Y-97868848D01*
X126199499Y-97868848D01*
X126230257Y-98023471D01*
X126230264Y-98023502D01*
X126290598Y-98169165D01*
X126290603Y-98169174D01*
X126290613Y-98169191D01*
X126378211Y-98300290D01*
X126378212Y-98300291D01*
X126378217Y-98300297D01*
X126489701Y-98411781D01*
X126489707Y-98411786D01*
X126489711Y-98411789D01*
X126620814Y-98499390D01*
X126620827Y-98499397D01*
X126742298Y-98549711D01*
X126766503Y-98559737D01*
X126915803Y-98589434D01*
X126918054Y-98589971D01*
X126918117Y-98590007D01*
X126921155Y-98590500D01*
X127078844Y-98590500D01*
X127082964Y-98590500D01*
X127090814Y-98588118D01*
X127233497Y-98559737D01*
X127379179Y-98499394D01*
X127510289Y-98411789D01*
X127621789Y-98300289D01*
X127709394Y-98169179D01*
X127769737Y-98023497D01*
X127800500Y-97868842D01*
X127800500Y-97711158D01*
X127800500Y-97711155D01*
X127800500Y-97710973D01*
X127800065Y-97708972D01*
X127770398Y-97559830D01*
X127769983Y-97557403D01*
X127769739Y-97556511D01*
X127769737Y-97556507D01*
X127769737Y-97556503D01*
X127755776Y-97522798D01*
X127709397Y-97410827D01*
X127709390Y-97410814D01*
X127621789Y-97279711D01*
X127621786Y-97279707D01*
X127621785Y-97279706D01*
X127621781Y-97279701D01*
X127510297Y-97168217D01*
X127510291Y-97168212D01*
X127510290Y-97168211D01*
X127379191Y-97080613D01*
X127379190Y-97080612D01*
X127379185Y-97080609D01*
X127379172Y-97080602D01*
X127379165Y-97080598D01*
X127233502Y-97020264D01*
X127233471Y-97020257D01*
X127078847Y-96989500D01*
X127078845Y-96989500D01*
X127078842Y-96989500D01*
X126921158Y-96989500D01*
X126921155Y-96989500D01*
X126921153Y-96989500D01*
X126766527Y-97020257D01*
X126766496Y-97020264D01*
X126620833Y-97080598D01*
X126620824Y-97080603D01*
X126620807Y-97080613D01*
X126489708Y-97168211D01*
X126489707Y-97168212D01*
X126489701Y-97168217D01*
X126378217Y-97279701D01*
X126378212Y-97279707D01*
X126290613Y-97410807D01*
X126290603Y-97410824D01*
X126290598Y-97410833D01*
X126230264Y-97556496D01*
X126230257Y-97556527D01*
X126199500Y-97711150D01*
X126199500Y-97711153D01*
X126199500Y-97868846D01*
X126199500Y-97868848D01*
X126199499Y-97868848D01*
X122720499Y-97868848D01*
X122720500Y-97868842D01*
X122720500Y-97711158D01*
X122720500Y-97711155D01*
X122720499Y-97711153D01*
X122690395Y-97559815D01*
X122689983Y-97557403D01*
X122689739Y-97556511D01*
X122689737Y-97556507D01*
X122689737Y-97556503D01*
X122675776Y-97522798D01*
X122629397Y-97410827D01*
X122629390Y-97410814D01*
X122541789Y-97279711D01*
X122541786Y-97279707D01*
X122541785Y-97279706D01*
X122541781Y-97279701D01*
X122430297Y-97168217D01*
X122430291Y-97168212D01*
X122430290Y-97168211D01*
X122299191Y-97080613D01*
X122299190Y-97080612D01*
X122299185Y-97080609D01*
X122299172Y-97080602D01*
X122299165Y-97080598D01*
X122153502Y-97020264D01*
X122153471Y-97020257D01*
X121998847Y-96989500D01*
X121998845Y-96989500D01*
X121998842Y-96989500D01*
X121841158Y-96989500D01*
X121841155Y-96989500D01*
X121841153Y-96989500D01*
X121686527Y-97020257D01*
X121686496Y-97020264D01*
X121540833Y-97080598D01*
X121540824Y-97080603D01*
X121540807Y-97080613D01*
X121409708Y-97168211D01*
X121409707Y-97168212D01*
X121409701Y-97168217D01*
X121298217Y-97279701D01*
X121298212Y-97279707D01*
X121210613Y-97410807D01*
X121210603Y-97410824D01*
X121210598Y-97410833D01*
X121150264Y-97556496D01*
X121150257Y-97556527D01*
X121119500Y-97711150D01*
X121119500Y-97711153D01*
X121119500Y-97868846D01*
X121119500Y-97868848D01*
X121119499Y-97868848D01*
X117640499Y-97868848D01*
X117640500Y-97868842D01*
X117640500Y-97711158D01*
X117640500Y-97711155D01*
X117640499Y-97711153D01*
X117610395Y-97559815D01*
X117609983Y-97557403D01*
X117609739Y-97556511D01*
X117609737Y-97556507D01*
X117609737Y-97556503D01*
X117595776Y-97522798D01*
X117549397Y-97410827D01*
X117549390Y-97410814D01*
X117461789Y-97279711D01*
X117461786Y-97279707D01*
X117461785Y-97279706D01*
X117461781Y-97279701D01*
X117350297Y-97168217D01*
X117350291Y-97168212D01*
X117350290Y-97168211D01*
X117219191Y-97080613D01*
X117219190Y-97080612D01*
X117219185Y-97080609D01*
X117219172Y-97080602D01*
X117219165Y-97080598D01*
X117073502Y-97020264D01*
X117073471Y-97020257D01*
X116918847Y-96989500D01*
X116918845Y-96989500D01*
X116918842Y-96989500D01*
X116761158Y-96989500D01*
X116761155Y-96989500D01*
X116761153Y-96989500D01*
X116606527Y-97020257D01*
X116606496Y-97020264D01*
X116460833Y-97080598D01*
X116460824Y-97080603D01*
X116460807Y-97080613D01*
X116329708Y-97168211D01*
X116329707Y-97168212D01*
X116329701Y-97168217D01*
X116218217Y-97279701D01*
X116218212Y-97279707D01*
X116130613Y-97410807D01*
X116130603Y-97410824D01*
X116130598Y-97410833D01*
X116070264Y-97556496D01*
X116070257Y-97556527D01*
X116039500Y-97711150D01*
X116039500Y-97711153D01*
X116039500Y-97868846D01*
X116039500Y-97868848D01*
X116039499Y-97868848D01*
X112560499Y-97868848D01*
X112560500Y-97868842D01*
X112560500Y-97711158D01*
X112560500Y-97711155D01*
X112560499Y-97711153D01*
X112530395Y-97559815D01*
X112529983Y-97557403D01*
X112529739Y-97556511D01*
X112529737Y-97556507D01*
X112529737Y-97556503D01*
X112515776Y-97522798D01*
X112469397Y-97410827D01*
X112469390Y-97410814D01*
X112381789Y-97279711D01*
X112381786Y-97279707D01*
X112381785Y-97279706D01*
X112381781Y-97279701D01*
X112270297Y-97168217D01*
X112270291Y-97168212D01*
X112270290Y-97168211D01*
X112139191Y-97080613D01*
X112139190Y-97080612D01*
X112139185Y-97080609D01*
X112139172Y-97080602D01*
X112139165Y-97080598D01*
X111993502Y-97020264D01*
X111993471Y-97020257D01*
X111838847Y-96989500D01*
X111838845Y-96989500D01*
X111838842Y-96989500D01*
X111681158Y-96989500D01*
X111681155Y-96989500D01*
X111681153Y-96989500D01*
X111526527Y-97020257D01*
X111526496Y-97020264D01*
X111380833Y-97080598D01*
X111380824Y-97080603D01*
X111380807Y-97080613D01*
X111249708Y-97168211D01*
X111249707Y-97168212D01*
X111249701Y-97168217D01*
X111138217Y-97279701D01*
X111138212Y-97279707D01*
X111050613Y-97410807D01*
X111050603Y-97410824D01*
X111050598Y-97410833D01*
X110990264Y-97556496D01*
X110990257Y-97556527D01*
X110959500Y-97711150D01*
X110959500Y-97711153D01*
X110959500Y-97868846D01*
X110959500Y-97868848D01*
X110959499Y-97868848D01*
X105910500Y-97868848D01*
X105910500Y-96598848D01*
X118514499Y-96598848D01*
X118545257Y-96753471D01*
X118545264Y-96753502D01*
X118605598Y-96899165D01*
X118605603Y-96899174D01*
X118605613Y-96899191D01*
X118693211Y-97030290D01*
X118693212Y-97030291D01*
X118693217Y-97030297D01*
X118804701Y-97141781D01*
X118804707Y-97141786D01*
X118804711Y-97141789D01*
X118935814Y-97229390D01*
X118935827Y-97229397D01*
X119057288Y-97279707D01*
X119081503Y-97289737D01*
X119081510Y-97289738D01*
X119081510Y-97289739D01*
X119165279Y-97306401D01*
X119236153Y-97320499D01*
X119236156Y-97320500D01*
X119236158Y-97320500D01*
X119393844Y-97320500D01*
X119393845Y-97320499D01*
X119548497Y-97289737D01*
X119694179Y-97229394D01*
X119825289Y-97141789D01*
X119936789Y-97030289D01*
X120024394Y-96899179D01*
X120084737Y-96753497D01*
X120115500Y-96598842D01*
X120115500Y-96441158D01*
X120115500Y-96441155D01*
X120115500Y-96440973D01*
X120115065Y-96438972D01*
X120085397Y-96289824D01*
X120084994Y-96287467D01*
X120084738Y-96286508D01*
X120084737Y-96286506D01*
X120084737Y-96286503D01*
X120084735Y-96286498D01*
X120024397Y-96140827D01*
X120024390Y-96140814D01*
X119936789Y-96009711D01*
X119936786Y-96009707D01*
X119936785Y-96009706D01*
X119936781Y-96009701D01*
X119825297Y-95898217D01*
X119825291Y-95898212D01*
X119825290Y-95898211D01*
X119694191Y-95810613D01*
X119694190Y-95810612D01*
X119694185Y-95810609D01*
X119694172Y-95810602D01*
X119694165Y-95810598D01*
X119548502Y-95750264D01*
X119548471Y-95750257D01*
X119393847Y-95719500D01*
X119393845Y-95719500D01*
X119393842Y-95719500D01*
X119236158Y-95719500D01*
X119236155Y-95719500D01*
X119236153Y-95719500D01*
X119081527Y-95750257D01*
X119081496Y-95750264D01*
X118935833Y-95810598D01*
X118935824Y-95810603D01*
X118935807Y-95810613D01*
X118804708Y-95898211D01*
X118804707Y-95898212D01*
X118804701Y-95898217D01*
X118693217Y-96009701D01*
X118693212Y-96009707D01*
X118605613Y-96140807D01*
X118605603Y-96140824D01*
X118605598Y-96140833D01*
X118545264Y-96286496D01*
X118545257Y-96286527D01*
X118514500Y-96441150D01*
X118514500Y-96441153D01*
X118514500Y-96598846D01*
X118514500Y-96598848D01*
X118514499Y-96598848D01*
X105910500Y-96598848D01*
X105910500Y-95328848D01*
X114769499Y-95328848D01*
X114800257Y-95483471D01*
X114800264Y-95483502D01*
X114860598Y-95629165D01*
X114860603Y-95629174D01*
X114860613Y-95629191D01*
X114948211Y-95760290D01*
X114948212Y-95760291D01*
X114948217Y-95760297D01*
X115059701Y-95871781D01*
X115059707Y-95871786D01*
X115059711Y-95871789D01*
X115190814Y-95959390D01*
X115190827Y-95959397D01*
X115312288Y-96009707D01*
X115336503Y-96019737D01*
X115336510Y-96019738D01*
X115336510Y-96019739D01*
X115420279Y-96036401D01*
X115491153Y-96050499D01*
X115491156Y-96050500D01*
X115491158Y-96050500D01*
X115648844Y-96050500D01*
X115648845Y-96050499D01*
X115803497Y-96019737D01*
X115949179Y-95959394D01*
X116080289Y-95871789D01*
X116191789Y-95760289D01*
X116279394Y-95629179D01*
X116339737Y-95483497D01*
X116370500Y-95328842D01*
X116370500Y-95171158D01*
X116370500Y-95171155D01*
X116370500Y-95170973D01*
X116370065Y-95168972D01*
X116340398Y-95019830D01*
X116339983Y-95017403D01*
X116339737Y-95016504D01*
X116303907Y-94930001D01*
X116303906Y-94929999D01*
X116279399Y-94870833D01*
X116279397Y-94870827D01*
X116279390Y-94870814D01*
X116191789Y-94739711D01*
X116191786Y-94739707D01*
X116191781Y-94739701D01*
X116080297Y-94628217D01*
X116080291Y-94628212D01*
X116080290Y-94628211D01*
X115949191Y-94540613D01*
X115949190Y-94540612D01*
X115949185Y-94540609D01*
X115949172Y-94540602D01*
X115949165Y-94540598D01*
X115803502Y-94480264D01*
X115803471Y-94480257D01*
X115648847Y-94449500D01*
X115648845Y-94449500D01*
X115648842Y-94449500D01*
X115491158Y-94449500D01*
X115491155Y-94449500D01*
X115491153Y-94449500D01*
X115336527Y-94480257D01*
X115336496Y-94480264D01*
X115190833Y-94540598D01*
X115190824Y-94540603D01*
X115190807Y-94540613D01*
X115059708Y-94628211D01*
X115059707Y-94628212D01*
X115059701Y-94628217D01*
X114948217Y-94739701D01*
X114948212Y-94739707D01*
X114948211Y-94739708D01*
X114860613Y-94870807D01*
X114860603Y-94870824D01*
X114860598Y-94870833D01*
X114800264Y-95016496D01*
X114800257Y-95016527D01*
X114769500Y-95171150D01*
X114769500Y-95171153D01*
X114769500Y-95328846D01*
X114769500Y-95328848D01*
X114769499Y-95328848D01*
X105910500Y-95328848D01*
X105910500Y-91583848D01*
X113434499Y-91583848D01*
X113465257Y-91738471D01*
X113465264Y-91738502D01*
X113525598Y-91884165D01*
X113525603Y-91884174D01*
X113525613Y-91884191D01*
X113613211Y-92015290D01*
X113613212Y-92015291D01*
X113613217Y-92015297D01*
X113724701Y-92126781D01*
X113724707Y-92126786D01*
X113724711Y-92126789D01*
X113855814Y-92214390D01*
X113855827Y-92214397D01*
X114001498Y-92274735D01*
X114001503Y-92274737D01*
X114156153Y-92305499D01*
X114156156Y-92305500D01*
X114156158Y-92305500D01*
X114313844Y-92305500D01*
X114313845Y-92305499D01*
X114468497Y-92274737D01*
X114614179Y-92214394D01*
X114745289Y-92126789D01*
X114856789Y-92015289D01*
X114944394Y-91884179D01*
X115004737Y-91738497D01*
X115035500Y-91583842D01*
X115035500Y-91453848D01*
X115974499Y-91453848D01*
X116005257Y-91608471D01*
X116005264Y-91608502D01*
X116065598Y-91754165D01*
X116065603Y-91754174D01*
X116065613Y-91754191D01*
X116153211Y-91885290D01*
X116153212Y-91885291D01*
X116153217Y-91885297D01*
X116264701Y-91996781D01*
X116264707Y-91996786D01*
X116264711Y-91996789D01*
X116395814Y-92084390D01*
X116395827Y-92084397D01*
X116498165Y-92126786D01*
X116541503Y-92144737D01*
X116691720Y-92174617D01*
X116693495Y-92175068D01*
X116696155Y-92175500D01*
X116853844Y-92175500D01*
X116857964Y-92175500D01*
X116865814Y-92173118D01*
X117008497Y-92144737D01*
X117154179Y-92084394D01*
X117154185Y-92084390D01*
X117257447Y-92015392D01*
X117289276Y-92000165D01*
X117301986Y-91996186D01*
X117304200Y-91995493D01*
X117374040Y-91994244D01*
X117374058Y-91994249D01*
X117374059Y-91994249D01*
X117381123Y-91996186D01*
X117436009Y-92028088D01*
X117534707Y-92126786D01*
X117534711Y-92126789D01*
X117665814Y-92214390D01*
X117665827Y-92214397D01*
X117811498Y-92274735D01*
X117811503Y-92274737D01*
X117966153Y-92305499D01*
X117966156Y-92305500D01*
X117966158Y-92305500D01*
X118123844Y-92305500D01*
X118123845Y-92305499D01*
X118278497Y-92274737D01*
X118424179Y-92214394D01*
X118555289Y-92126789D01*
X118666789Y-92015289D01*
X118754394Y-91884179D01*
X118814737Y-91738497D01*
X118826828Y-91677707D01*
X118838566Y-91644437D01*
X118843813Y-91634407D01*
X118892330Y-91584134D01*
X118960328Y-91568069D01*
X119026211Y-91591314D01*
X119026214Y-91591316D01*
X119026216Y-91591317D01*
X119026217Y-91591318D01*
X119032432Y-91595800D01*
X119063004Y-91627481D01*
X119070222Y-91638282D01*
X119070226Y-91638287D01*
X119181710Y-91749771D01*
X119181716Y-91749776D01*
X119181720Y-91749779D01*
X119312823Y-91837380D01*
X119312836Y-91837387D01*
X119428491Y-91885292D01*
X119458512Y-91897727D01*
X119578127Y-91921520D01*
X119605537Y-91926972D01*
X119608261Y-91927694D01*
X119613164Y-91928490D01*
X119770853Y-91928490D01*
X119774973Y-91928490D01*
X119782823Y-91926108D01*
X119925506Y-91897727D01*
X120071188Y-91837384D01*
X120202298Y-91749779D01*
X120313798Y-91638279D01*
X120401403Y-91507169D01*
X120461746Y-91361487D01*
X120492509Y-91206832D01*
X120492509Y-91049148D01*
X120492509Y-91049145D01*
X120492509Y-91049069D01*
X120492372Y-91048464D01*
X120481903Y-90995827D01*
X120461746Y-90894493D01*
X120457073Y-90883211D01*
X120403227Y-90753213D01*
X120401409Y-90748823D01*
X120401404Y-90748814D01*
X120401399Y-90748804D01*
X120313798Y-90617701D01*
X120313795Y-90617697D01*
X120313790Y-90617691D01*
X120202306Y-90506207D01*
X120202300Y-90506202D01*
X120202299Y-90506201D01*
X120071200Y-90418603D01*
X120071199Y-90418602D01*
X120071194Y-90418599D01*
X120071181Y-90418592D01*
X120071174Y-90418588D01*
X119925511Y-90358254D01*
X119925480Y-90358247D01*
X119770856Y-90327490D01*
X119770854Y-90327490D01*
X119770851Y-90327490D01*
X119613167Y-90327490D01*
X119613164Y-90327490D01*
X119613162Y-90327490D01*
X119458536Y-90358247D01*
X119458505Y-90358254D01*
X119312842Y-90418588D01*
X119312833Y-90418593D01*
X119312816Y-90418603D01*
X119181717Y-90506201D01*
X119181716Y-90506202D01*
X119181710Y-90506207D01*
X119070226Y-90617691D01*
X119070221Y-90617697D01*
X119070220Y-90617698D01*
X118982622Y-90748797D01*
X118982612Y-90748814D01*
X118982607Y-90748823D01*
X118922281Y-90894465D01*
X118922273Y-90894489D01*
X118922268Y-90894503D01*
X118910182Y-90955266D01*
X118898440Y-90988549D01*
X118893197Y-90998572D01*
X118844681Y-91048851D01*
X118776684Y-91064919D01*
X118710800Y-91041677D01*
X118704574Y-91037188D01*
X118673996Y-91005497D01*
X118666791Y-90994713D01*
X118666789Y-90994710D01*
X118555292Y-90883213D01*
X118555291Y-90883212D01*
X118555290Y-90883211D01*
X118424191Y-90795613D01*
X118424190Y-90795612D01*
X118424185Y-90795609D01*
X118424172Y-90795602D01*
X118424165Y-90795598D01*
X118278502Y-90735264D01*
X118278471Y-90735257D01*
X118123847Y-90704500D01*
X118123845Y-90704500D01*
X118123842Y-90704500D01*
X117966158Y-90704500D01*
X117966155Y-90704500D01*
X117966153Y-90704500D01*
X117811527Y-90735257D01*
X117811496Y-90735264D01*
X117665829Y-90795600D01*
X117665825Y-90795602D01*
X117562558Y-90864602D01*
X117530717Y-90879835D01*
X117515801Y-90884505D01*
X117445943Y-90885750D01*
X117445941Y-90885749D01*
X117438856Y-90883805D01*
X117383986Y-90851906D01*
X117285297Y-90753217D01*
X117285291Y-90753212D01*
X117285290Y-90753211D01*
X117154191Y-90665613D01*
X117154190Y-90665612D01*
X117154185Y-90665609D01*
X117154172Y-90665602D01*
X117154165Y-90665598D01*
X117008502Y-90605264D01*
X117008471Y-90605257D01*
X116853847Y-90574500D01*
X116853845Y-90574500D01*
X116853842Y-90574500D01*
X116696158Y-90574500D01*
X116696155Y-90574500D01*
X116696153Y-90574500D01*
X116541527Y-90605257D01*
X116541496Y-90605264D01*
X116395833Y-90665598D01*
X116395824Y-90665603D01*
X116395807Y-90665613D01*
X116264708Y-90753211D01*
X116264707Y-90753212D01*
X116264701Y-90753217D01*
X116153217Y-90864701D01*
X116153212Y-90864707D01*
X116153211Y-90864708D01*
X116065613Y-90995807D01*
X116065603Y-90995824D01*
X116065602Y-90995827D01*
X116065599Y-90995831D01*
X116005264Y-91141496D01*
X116005257Y-91141527D01*
X115974500Y-91296150D01*
X115974500Y-91296153D01*
X115974500Y-91453846D01*
X115974500Y-91453848D01*
X115974499Y-91453848D01*
X115035500Y-91453848D01*
X115035500Y-91426158D01*
X115035500Y-91426155D01*
X115035500Y-91425971D01*
X115035065Y-91423970D01*
X115035064Y-91423968D01*
X115013242Y-91314257D01*
X115004815Y-91271895D01*
X115004670Y-91271154D01*
X115004511Y-91270329D01*
X115002420Y-91265910D01*
X114944397Y-91125827D01*
X114944390Y-91125814D01*
X114856789Y-90994711D01*
X114856786Y-90994707D01*
X114856781Y-90994701D01*
X114745295Y-90883215D01*
X114745290Y-90883211D01*
X114614191Y-90795613D01*
X114614190Y-90795612D01*
X114614185Y-90795609D01*
X114614172Y-90795602D01*
X114614165Y-90795598D01*
X114468502Y-90735264D01*
X114468471Y-90735257D01*
X114313847Y-90704500D01*
X114313845Y-90704500D01*
X114313842Y-90704500D01*
X114156158Y-90704500D01*
X114156155Y-90704500D01*
X114156153Y-90704500D01*
X114001527Y-90735257D01*
X114001496Y-90735264D01*
X113855833Y-90795598D01*
X113855824Y-90795603D01*
X113855807Y-90795613D01*
X113724708Y-90883211D01*
X113724709Y-90883211D01*
X113724704Y-90883215D01*
X113613217Y-90994701D01*
X113613212Y-90994707D01*
X113613211Y-90994708D01*
X113525613Y-91125807D01*
X113525603Y-91125824D01*
X113525598Y-91125833D01*
X113465264Y-91271496D01*
X113465257Y-91271527D01*
X113434500Y-91426150D01*
X113434500Y-91426153D01*
X113434500Y-91583846D01*
X113434500Y-91583848D01*
X113434499Y-91583848D01*
X105910500Y-91583848D01*
X105910500Y-86438848D01*
X114769499Y-86438848D01*
X114800257Y-86593471D01*
X114800264Y-86593502D01*
X114860598Y-86739165D01*
X114860603Y-86739174D01*
X114860613Y-86739191D01*
X114948211Y-86870290D01*
X114948212Y-86870291D01*
X114948217Y-86870297D01*
X115059701Y-86981781D01*
X115059707Y-86981786D01*
X115059711Y-86981789D01*
X115190814Y-87069390D01*
X115190827Y-87069397D01*
X115336498Y-87129735D01*
X115336503Y-87129737D01*
X115491153Y-87160499D01*
X115491156Y-87160500D01*
X115491158Y-87160500D01*
X115648844Y-87160500D01*
X115648845Y-87160499D01*
X115803497Y-87129737D01*
X115949179Y-87069394D01*
X116080289Y-86981789D01*
X116191789Y-86870289D01*
X116279394Y-86739179D01*
X116339737Y-86593497D01*
X116357569Y-86503848D01*
X118514499Y-86503848D01*
X118545257Y-86658471D01*
X118545264Y-86658502D01*
X118605598Y-86804165D01*
X118605603Y-86804174D01*
X118605613Y-86804191D01*
X118693211Y-86935290D01*
X118693212Y-86935291D01*
X118693217Y-86935297D01*
X118804701Y-87046781D01*
X118804707Y-87046786D01*
X118804711Y-87046789D01*
X118935814Y-87134390D01*
X118935827Y-87134397D01*
X119081498Y-87194735D01*
X119081503Y-87194737D01*
X119236153Y-87225499D01*
X119236156Y-87225500D01*
X119236158Y-87225500D01*
X119393844Y-87225500D01*
X119393845Y-87225499D01*
X119548497Y-87194737D01*
X119694179Y-87134394D01*
X119825289Y-87046789D01*
X119936789Y-86935289D01*
X120024394Y-86804179D01*
X120084737Y-86658497D01*
X120115500Y-86503842D01*
X120115500Y-86346158D01*
X120115500Y-86346155D01*
X120115499Y-86346153D01*
X120084737Y-86191503D01*
X120057816Y-86126510D01*
X120054686Y-86118954D01*
X120054685Y-86118949D01*
X120024402Y-86045840D01*
X120024399Y-86045833D01*
X120024397Y-86045827D01*
X120024390Y-86045814D01*
X119936789Y-85914711D01*
X119936786Y-85914707D01*
X119936781Y-85914701D01*
X119825297Y-85803217D01*
X119825291Y-85803212D01*
X119825290Y-85803211D01*
X119694191Y-85715613D01*
X119694190Y-85715612D01*
X119694185Y-85715609D01*
X119694172Y-85715602D01*
X119694165Y-85715598D01*
X119548502Y-85655264D01*
X119548471Y-85655257D01*
X119393847Y-85624500D01*
X119393845Y-85624500D01*
X119393842Y-85624500D01*
X119236158Y-85624500D01*
X119236155Y-85624500D01*
X119236153Y-85624500D01*
X119081527Y-85655257D01*
X119081496Y-85655264D01*
X118935833Y-85715598D01*
X118935824Y-85715603D01*
X118935807Y-85715613D01*
X118804708Y-85803211D01*
X118804707Y-85803212D01*
X118804701Y-85803217D01*
X118693217Y-85914701D01*
X118693212Y-85914707D01*
X118693211Y-85914708D01*
X118605613Y-86045807D01*
X118605603Y-86045824D01*
X118605598Y-86045833D01*
X118545264Y-86191496D01*
X118545257Y-86191527D01*
X118514500Y-86346150D01*
X118514500Y-86346153D01*
X118514500Y-86503846D01*
X118514500Y-86503848D01*
X118514499Y-86503848D01*
X116357569Y-86503848D01*
X116370500Y-86438842D01*
X116370500Y-86281158D01*
X116370500Y-86281155D01*
X116370499Y-86281153D01*
X116340395Y-86129815D01*
X116339983Y-86127403D01*
X116339737Y-86126504D01*
X116306315Y-86045814D01*
X116279402Y-85980840D01*
X116279399Y-85980833D01*
X116279397Y-85980827D01*
X116279390Y-85980814D01*
X116191789Y-85849711D01*
X116191786Y-85849707D01*
X116191781Y-85849701D01*
X116080297Y-85738217D01*
X116080291Y-85738212D01*
X116080290Y-85738211D01*
X115949191Y-85650613D01*
X115949190Y-85650612D01*
X115949185Y-85650609D01*
X115949172Y-85650602D01*
X115949165Y-85650598D01*
X115803502Y-85590264D01*
X115803471Y-85590257D01*
X115648847Y-85559500D01*
X115648845Y-85559500D01*
X115648842Y-85559500D01*
X115491158Y-85559500D01*
X115491155Y-85559500D01*
X115491153Y-85559500D01*
X115336527Y-85590257D01*
X115336496Y-85590264D01*
X115190833Y-85650598D01*
X115190824Y-85650603D01*
X115190807Y-85650613D01*
X115059708Y-85738211D01*
X115059707Y-85738212D01*
X115059701Y-85738217D01*
X114948217Y-85849701D01*
X114948212Y-85849707D01*
X114948211Y-85849708D01*
X114860613Y-85980807D01*
X114860603Y-85980824D01*
X114860598Y-85980833D01*
X114800264Y-86126496D01*
X114800261Y-86126510D01*
X114769500Y-86281150D01*
X114769500Y-86281153D01*
X114769500Y-86438846D01*
X114769500Y-86438848D01*
X114769499Y-86438848D01*
X105910500Y-86438848D01*
X105910500Y-62859500D01*
X105930185Y-62792461D01*
X105982989Y-62746706D01*
X106034500Y-62735500D01*
X112971481Y-62735500D01*
X113038520Y-62755185D01*
G37*
%TD.AperFunction*%
%TD*%
%TA.AperFunction,Conductor*%
%TO.N,/V_ALIM*%
G36*
X146980873Y-94219619D02*
G01*
X146993693Y-94236272D01*
X147012188Y-94265050D01*
X147120926Y-94359271D01*
X147179704Y-94397045D01*
X147310581Y-94456814D01*
X147321421Y-94459997D01*
X147321442Y-94460003D01*
X147391894Y-94475329D01*
X147391908Y-94475332D01*
X147426843Y-94480355D01*
X147498785Y-94485500D01*
X151569559Y-94485500D01*
X151569568Y-94485500D01*
X151613558Y-94483582D01*
X151635041Y-94481705D01*
X151635041Y-94481704D01*
X151635052Y-94481704D01*
X151661136Y-94478281D01*
X151678447Y-94476010D01*
X151678453Y-94476008D01*
X151678460Y-94476008D01*
X151680579Y-94475636D01*
X151680669Y-94475620D01*
X151680679Y-94475680D01*
X151680766Y-94475659D01*
X151680757Y-94475605D01*
X151681703Y-94475438D01*
X151681702Y-94475438D01*
X151681709Y-94475437D01*
X151792790Y-94442408D01*
X151792792Y-94442407D01*
X151792796Y-94442406D01*
X151842084Y-94421340D01*
X151844691Y-94420226D01*
X151945264Y-94362817D01*
X151945465Y-94362668D01*
X151947461Y-94361204D01*
X151950064Y-94359271D01*
X151951502Y-94358204D01*
X151951518Y-94358192D01*
X152050164Y-94260337D01*
X152065325Y-94240456D01*
X152078377Y-94230867D01*
X152087852Y-94217728D01*
X152105953Y-94210606D01*
X152121629Y-94199089D01*
X152138482Y-94197808D01*
X152152871Y-94192147D01*
X152188114Y-94194036D01*
X152271418Y-94210606D01*
X152313513Y-94218979D01*
X152316247Y-94219703D01*
X152321155Y-94220500D01*
X152478844Y-94220500D01*
X152482964Y-94220500D01*
X152490814Y-94218118D01*
X152610027Y-94194405D01*
X152679616Y-94200633D01*
X152734793Y-94243497D01*
X152738531Y-94248985D01*
X152748378Y-94264308D01*
X152748381Y-94264311D01*
X152857111Y-94358532D01*
X152857113Y-94358533D01*
X152857115Y-94358535D01*
X152915892Y-94396311D01*
X153046766Y-94456084D01*
X153059420Y-94459800D01*
X153060091Y-94459997D01*
X153060089Y-94459997D01*
X153130548Y-94475327D01*
X153130554Y-94475328D01*
X153130558Y-94475328D01*
X153130560Y-94475329D01*
X153165495Y-94480353D01*
X153201389Y-94484212D01*
X153206193Y-94483868D01*
X153232682Y-94484813D01*
X153237455Y-94485500D01*
X160652166Y-94485500D01*
X160652168Y-94485500D01*
X160658857Y-94485141D01*
X160726854Y-94501206D01*
X160775373Y-94551482D01*
X160789500Y-94608963D01*
X160789500Y-111565424D01*
X160789462Y-111568484D01*
X160789387Y-111571522D01*
X160789276Y-111574547D01*
X160773096Y-111903884D01*
X160772648Y-111909954D01*
X160772051Y-111916015D01*
X160771306Y-111922054D01*
X160723598Y-112243680D01*
X160722557Y-112249679D01*
X160721370Y-112255646D01*
X160720037Y-112261583D01*
X160641030Y-112576997D01*
X160639399Y-112582887D01*
X160637634Y-112588701D01*
X160635733Y-112594455D01*
X160526200Y-112900581D01*
X160524015Y-112906245D01*
X160521683Y-112911877D01*
X160519211Y-112917456D01*
X160380187Y-113211398D01*
X160377440Y-113216853D01*
X160374569Y-113222222D01*
X160371579Y-113227499D01*
X160204423Y-113506382D01*
X160201170Y-113511520D01*
X160197802Y-113516561D01*
X160194295Y-113521541D01*
X160000586Y-113782726D01*
X159996841Y-113787524D01*
X159992983Y-113792225D01*
X159989008Y-113796833D01*
X159770652Y-114037753D01*
X159766455Y-114042161D01*
X159762161Y-114046455D01*
X159757753Y-114050652D01*
X159516833Y-114269008D01*
X159512225Y-114272983D01*
X159507524Y-114276841D01*
X159502726Y-114280586D01*
X159241541Y-114474295D01*
X159236561Y-114477802D01*
X159231520Y-114481170D01*
X159226382Y-114484423D01*
X158947499Y-114651579D01*
X158942222Y-114654569D01*
X158936853Y-114657440D01*
X158931398Y-114660187D01*
X158637456Y-114799211D01*
X158631877Y-114801683D01*
X158626245Y-114804015D01*
X158620589Y-114806196D01*
X158443590Y-114869527D01*
X158314455Y-114915733D01*
X158308701Y-114917634D01*
X158302887Y-114919399D01*
X158296997Y-114921030D01*
X157981583Y-115000037D01*
X157975646Y-115001370D01*
X157969679Y-115002557D01*
X157963680Y-115003598D01*
X157642054Y-115051306D01*
X157636013Y-115052051D01*
X157629951Y-115052648D01*
X157623883Y-115053096D01*
X157311987Y-115068419D01*
X157311986Y-115068418D01*
X157294577Y-115069274D01*
X157291561Y-115069386D01*
X157288494Y-115069462D01*
X157285422Y-115069500D01*
X130168448Y-115069500D01*
X130101409Y-115049815D01*
X130055654Y-114997011D01*
X130044871Y-114935265D01*
X130045500Y-114927670D01*
X130045500Y-107696046D01*
X130065185Y-107629007D01*
X130117989Y-107583252D01*
X130187147Y-107573308D01*
X130250703Y-107602333D01*
X130276885Y-107634043D01*
X130311552Y-107694089D01*
X130336808Y-107737833D01*
X130336816Y-107737846D01*
X130337032Y-107738127D01*
X130411400Y-107835045D01*
X131202924Y-107043520D01*
X131264245Y-107010037D01*
X131333936Y-107015021D01*
X131389870Y-107056893D01*
X131393691Y-107062292D01*
X131415112Y-107094351D01*
X131415116Y-107094355D01*
X131415116Y-107094356D01*
X131505643Y-107184883D01*
X131505646Y-107184885D01*
X131505649Y-107184888D01*
X131537685Y-107206293D01*
X131582489Y-107259904D01*
X131591197Y-107329229D01*
X131561043Y-107392257D01*
X131556475Y-107397076D01*
X130764953Y-108188597D01*
X130764953Y-108188598D01*
X130831284Y-108239496D01*
X130862152Y-108263182D01*
X130862155Y-108263184D01*
X130862158Y-108263186D01*
X131077840Y-108387711D01*
X131077851Y-108387716D01*
X131307950Y-108483026D01*
X131548536Y-108547491D01*
X131795466Y-108580000D01*
X132044527Y-108580000D01*
X132044534Y-108580000D01*
X132291463Y-108547491D01*
X132532049Y-108483026D01*
X132762148Y-108387716D01*
X132762159Y-108387711D01*
X132977855Y-108263178D01*
X133075045Y-108188600D01*
X133075045Y-108188597D01*
X132624281Y-107737833D01*
X132283524Y-107397076D01*
X132250039Y-107335753D01*
X132255023Y-107266061D01*
X132296895Y-107210128D01*
X132302270Y-107206323D01*
X132334351Y-107184888D01*
X132424888Y-107094351D01*
X132446295Y-107062312D01*
X132499903Y-107017510D01*
X132569227Y-107008801D01*
X132632256Y-107038955D01*
X132637074Y-107043522D01*
X133428597Y-107835045D01*
X133428599Y-107835045D01*
X133428600Y-107835045D01*
X133503178Y-107737855D01*
X133627711Y-107522159D01*
X133627716Y-107522148D01*
X133723026Y-107292049D01*
X133787491Y-107051463D01*
X133820000Y-106804533D01*
X133820000Y-106555466D01*
X133787491Y-106308536D01*
X133723026Y-106067950D01*
X133627716Y-105837851D01*
X133627711Y-105837840D01*
X133503186Y-105622158D01*
X133503174Y-105622140D01*
X133449600Y-105552322D01*
X133449599Y-105552321D01*
X133428598Y-105524953D01*
X133428597Y-105524953D01*
X133428596Y-105524952D01*
X132637076Y-106316474D01*
X132575753Y-106349959D01*
X132506061Y-106344975D01*
X132450128Y-106303103D01*
X132446293Y-106297684D01*
X132424886Y-106265646D01*
X132334356Y-106175116D01*
X132334352Y-106175113D01*
X132334351Y-106175112D01*
X132302310Y-106153703D01*
X132257507Y-106100091D01*
X132248800Y-106030766D01*
X132278955Y-105967739D01*
X132283501Y-105962942D01*
X132766460Y-105479984D01*
X135019500Y-105479984D01*
X135019500Y-105484951D01*
X135019500Y-107880024D01*
X135030174Y-107984502D01*
X135032415Y-107990083D01*
X135085184Y-108149331D01*
X135085190Y-108149343D01*
X135148558Y-108252076D01*
X135177286Y-108298651D01*
X135177289Y-108298655D01*
X135177291Y-108298657D01*
X135177293Y-108298660D01*
X135301338Y-108422705D01*
X135301341Y-108422707D01*
X135301344Y-108422710D01*
X135301348Y-108422713D01*
X135450662Y-108514812D01*
X135450664Y-108514813D01*
X135450666Y-108514814D01*
X135617203Y-108569999D01*
X135719992Y-108580500D01*
X135719997Y-108580500D01*
X138120003Y-108580500D01*
X138120008Y-108580500D01*
X138222797Y-108569999D01*
X138389334Y-108514814D01*
X138538655Y-108422711D01*
X138662711Y-108298655D01*
X138754814Y-108149334D01*
X138809999Y-107982797D01*
X138820500Y-107880008D01*
X138820500Y-106555446D01*
X145499500Y-106555446D01*
X145499500Y-106804552D01*
X145499501Y-106804581D01*
X145532016Y-107051559D01*
X145596499Y-107292212D01*
X145691824Y-107522348D01*
X145691830Y-107522361D01*
X145691837Y-107522376D01*
X145691845Y-107522389D01*
X145816399Y-107738125D01*
X145968053Y-107935766D01*
X145968057Y-107935771D01*
X145968060Y-107935774D01*
X145968066Y-107935781D01*
X146144218Y-108111933D01*
X146144225Y-108111939D01*
X146144228Y-108111941D01*
X146144232Y-108111945D01*
X146244128Y-108188597D01*
X146341873Y-108263599D01*
X146557623Y-108388162D01*
X146557638Y-108388169D01*
X146656825Y-108429253D01*
X146787793Y-108483502D01*
X147028435Y-108547982D01*
X147275435Y-108580500D01*
X147275442Y-108580500D01*
X147524558Y-108580500D01*
X147524565Y-108580500D01*
X147771565Y-108547982D01*
X148012207Y-108483502D01*
X148242373Y-108388164D01*
X148458127Y-108263599D01*
X148655776Y-108111938D01*
X148831938Y-107935776D01*
X148983599Y-107738127D01*
X149108164Y-107522373D01*
X149203502Y-107292207D01*
X149267982Y-107051565D01*
X149300500Y-106804565D01*
X149300500Y-106555435D01*
X149267982Y-106308435D01*
X149203502Y-106067793D01*
X149108257Y-105837851D01*
X149108169Y-105837638D01*
X149108162Y-105837623D01*
X149079161Y-105787392D01*
X149007895Y-105663954D01*
X148983602Y-105621877D01*
X148983599Y-105621873D01*
X148930230Y-105552321D01*
X148909229Y-105524952D01*
X148874743Y-105480008D01*
X150500000Y-105480008D01*
X150500000Y-105480014D01*
X150500000Y-106430000D01*
X151635899Y-106430000D01*
X151702938Y-106449685D01*
X151748693Y-106502489D01*
X151758637Y-106571647D01*
X151757517Y-106578190D01*
X151750000Y-106615982D01*
X151750000Y-106744017D01*
X151757517Y-106781810D01*
X151751288Y-106851401D01*
X151708425Y-106906578D01*
X151642535Y-106929822D01*
X151635899Y-106930000D01*
X150500000Y-106930000D01*
X150500000Y-107879990D01*
X150510493Y-107982693D01*
X150510494Y-107982698D01*
X150553316Y-108111924D01*
X150565641Y-108149118D01*
X150565643Y-108149123D01*
X150657684Y-108298344D01*
X150781655Y-108422315D01*
X150930876Y-108514356D01*
X150930881Y-108514358D01*
X151097303Y-108569505D01*
X151097310Y-108569506D01*
X151185508Y-108578517D01*
X151200023Y-108580000D01*
X151200027Y-108580000D01*
X152150000Y-108580000D01*
X152150000Y-107444100D01*
X152169685Y-107377061D01*
X152222489Y-107331306D01*
X152291647Y-107321362D01*
X152298172Y-107322479D01*
X152335981Y-107330000D01*
X152464019Y-107330000D01*
X152501808Y-107322483D01*
X152571399Y-107328710D01*
X152626577Y-107371572D01*
X152649822Y-107437461D01*
X152650000Y-107444100D01*
X152650000Y-108580000D01*
X153599973Y-108580000D01*
X153599977Y-108580000D01*
X153624217Y-108577523D01*
X153702689Y-108569506D01*
X153702696Y-108569505D01*
X153869118Y-108514358D01*
X153869123Y-108514356D01*
X154018344Y-108422315D01*
X154142315Y-108298344D01*
X154234356Y-108149123D01*
X154234358Y-108149118D01*
X154289505Y-107982696D01*
X154289506Y-107982689D01*
X154299999Y-107879985D01*
X154300000Y-107879972D01*
X154300000Y-106930000D01*
X153164101Y-106930000D01*
X153097062Y-106910315D01*
X153051307Y-106857511D01*
X153041363Y-106788353D01*
X153042483Y-106781810D01*
X153050000Y-106744017D01*
X153050000Y-106615982D01*
X153042483Y-106578190D01*
X153048712Y-106508599D01*
X153091575Y-106453422D01*
X153157465Y-106430178D01*
X153164101Y-106430000D01*
X154300000Y-106430000D01*
X154300000Y-105480023D01*
X154294298Y-105424217D01*
X154289506Y-105377310D01*
X154289505Y-105377303D01*
X154234358Y-105210881D01*
X154234356Y-105210876D01*
X154142315Y-105061655D01*
X154018344Y-104937684D01*
X153869123Y-104845643D01*
X153869118Y-104845641D01*
X153867739Y-104845184D01*
X153702698Y-104790494D01*
X153702693Y-104790493D01*
X153599990Y-104780000D01*
X153599985Y-104780000D01*
X152650000Y-104780000D01*
X152650000Y-105915899D01*
X152630315Y-105982938D01*
X152577511Y-106028693D01*
X152508353Y-106038637D01*
X152501810Y-106037517D01*
X152496541Y-106036469D01*
X152464019Y-106030000D01*
X152464018Y-106030000D01*
X152335982Y-106030000D01*
X152335981Y-106030000D01*
X152298190Y-106037517D01*
X152228599Y-106031288D01*
X152173422Y-105988425D01*
X152150178Y-105922535D01*
X152150000Y-105915899D01*
X152150000Y-104780000D01*
X151200014Y-104780000D01*
X151200008Y-104780000D01*
X151097305Y-104790493D01*
X151097300Y-104790494D01*
X150930889Y-104845638D01*
X150930880Y-104845641D01*
X150930878Y-104845642D01*
X150930876Y-104845643D01*
X150880081Y-104876974D01*
X150781653Y-104937685D01*
X150657685Y-105061653D01*
X150636253Y-105096400D01*
X150565774Y-105210665D01*
X150565641Y-105210880D01*
X150565638Y-105210889D01*
X150510494Y-105377300D01*
X150510493Y-105377305D01*
X150500000Y-105480008D01*
X148874743Y-105480008D01*
X148831945Y-105424232D01*
X148831941Y-105424228D01*
X148831939Y-105424225D01*
X148831933Y-105424218D01*
X148655781Y-105248066D01*
X148655774Y-105248060D01*
X148655771Y-105248057D01*
X148655766Y-105248053D01*
X148458125Y-105096399D01*
X148358703Y-105038998D01*
X148242376Y-104971837D01*
X148242361Y-104971830D01*
X148242348Y-104971824D01*
X148012222Y-104876503D01*
X148012209Y-104876499D01*
X148012210Y-104876499D01*
X148012207Y-104876498D01*
X147895349Y-104845186D01*
X147895342Y-104845184D01*
X147779416Y-104814121D01*
X147771668Y-104811491D01*
X147763502Y-104810956D01*
X147528665Y-104780039D01*
X147526649Y-104779705D01*
X147524575Y-104779500D01*
X147524570Y-104779500D01*
X147524565Y-104779500D01*
X147275435Y-104779500D01*
X147275429Y-104779500D01*
X147275424Y-104779500D01*
X147273347Y-104779705D01*
X147271333Y-104780039D01*
X147028439Y-104812016D01*
X146787786Y-104876499D01*
X146557650Y-104971824D01*
X146557637Y-104971830D01*
X146557630Y-104971833D01*
X146557623Y-104971837D01*
X146557610Y-104971843D01*
X146557609Y-104971845D01*
X146341873Y-105096399D01*
X146144232Y-105248053D01*
X146144217Y-105248067D01*
X146144209Y-105248074D01*
X145968074Y-105424209D01*
X145968067Y-105424217D01*
X145968053Y-105424232D01*
X145816399Y-105621873D01*
X145720838Y-105787392D01*
X145691837Y-105837623D01*
X145691834Y-105837629D01*
X145691830Y-105837637D01*
X145691824Y-105837650D01*
X145596499Y-106067786D01*
X145532016Y-106308439D01*
X145499501Y-106555417D01*
X145499500Y-106555446D01*
X138820500Y-106555446D01*
X138820500Y-105479992D01*
X138809999Y-105377203D01*
X138754814Y-105210666D01*
X138730594Y-105171400D01*
X138730594Y-105171399D01*
X138662724Y-105061365D01*
X138662717Y-105061354D01*
X138662713Y-105061348D01*
X138662710Y-105061344D01*
X138662709Y-105061343D01*
X138662707Y-105061340D01*
X138538660Y-104937293D01*
X138538657Y-104937291D01*
X138538655Y-104937289D01*
X138538651Y-104937286D01*
X138492076Y-104908558D01*
X138389343Y-104845190D01*
X138389339Y-104845188D01*
X138389337Y-104845187D01*
X138389335Y-104845186D01*
X138306065Y-104817593D01*
X138306064Y-104817592D01*
X138231264Y-104792806D01*
X138228440Y-104791639D01*
X138222796Y-104789999D01*
X138120024Y-104779500D01*
X138120015Y-104779500D01*
X138120008Y-104779500D01*
X135719992Y-104779500D01*
X135719984Y-104779500D01*
X135719974Y-104779500D01*
X135615495Y-104790174D01*
X135609915Y-104792415D01*
X135450667Y-104845184D01*
X135450655Y-104845190D01*
X135301354Y-104937282D01*
X135301341Y-104937291D01*
X135301338Y-104937293D01*
X135177293Y-105061338D01*
X135177291Y-105061341D01*
X135177282Y-105061354D01*
X135085190Y-105210655D01*
X135085184Y-105210667D01*
X135036113Y-105358755D01*
X135036112Y-105358760D01*
X135030001Y-105377203D01*
X135030000Y-105377204D01*
X135019500Y-105479984D01*
X132766460Y-105479984D01*
X133075045Y-105171400D01*
X133075044Y-105171399D01*
X132977846Y-105096816D01*
X132977833Y-105096808D01*
X132762154Y-104972285D01*
X132532053Y-104876974D01*
X132310440Y-104817593D01*
X132291463Y-104812508D01*
X132291462Y-104812507D01*
X132291459Y-104812507D01*
X132044535Y-104780000D01*
X132044534Y-104780000D01*
X131795466Y-104780000D01*
X131795465Y-104780000D01*
X131548546Y-104812506D01*
X131548539Y-104812507D01*
X131548536Y-104812508D01*
X131529559Y-104817593D01*
X131307947Y-104876973D01*
X131077846Y-104972284D01*
X130862150Y-105096818D01*
X130862134Y-105096829D01*
X130764953Y-105171398D01*
X130764953Y-105171400D01*
X131556475Y-105962922D01*
X131589960Y-106024245D01*
X131584976Y-106093937D01*
X131543104Y-106149870D01*
X131537688Y-106153703D01*
X131505648Y-106175112D01*
X131505643Y-106175116D01*
X131415116Y-106265643D01*
X131415112Y-106265648D01*
X131393703Y-106297688D01*
X131340090Y-106342491D01*
X131270764Y-106351197D01*
X131207738Y-106321040D01*
X131202922Y-106316475D01*
X130411400Y-105524953D01*
X130411399Y-105524953D01*
X130411398Y-105524953D01*
X130336829Y-105622134D01*
X130336823Y-105622143D01*
X130276887Y-105725955D01*
X130226320Y-105774170D01*
X130157712Y-105787392D01*
X130092848Y-105761424D01*
X130052320Y-105704510D01*
X130045500Y-105663954D01*
X130045500Y-98460007D01*
X153640000Y-98460007D01*
X153640000Y-98460013D01*
X153640000Y-98810000D01*
X154431277Y-98810000D01*
X154498316Y-98829685D01*
X154544071Y-98882489D01*
X154554015Y-98951647D01*
X154551052Y-98966093D01*
X154540000Y-99007339D01*
X154540000Y-99112660D01*
X154551052Y-99153907D01*
X154549389Y-99223757D01*
X154510226Y-99281619D01*
X154445998Y-99309123D01*
X154431277Y-99310000D01*
X153640001Y-99310000D01*
X153640001Y-99659995D01*
X153650493Y-99762694D01*
X153650494Y-99762696D01*
X153698382Y-99907215D01*
X153705641Y-99929119D01*
X153705643Y-99929124D01*
X153797684Y-100078345D01*
X153921654Y-100202315D01*
X154070875Y-100294356D01*
X154070880Y-100294358D01*
X154237299Y-100349504D01*
X154237300Y-100349504D01*
X154237302Y-100349505D01*
X154237309Y-100349506D01*
X154340019Y-100359999D01*
X154689999Y-100359999D01*
X154690000Y-100359998D01*
X154690000Y-99568722D01*
X154709685Y-99501683D01*
X154762489Y-99455928D01*
X154831647Y-99445984D01*
X154846082Y-99448945D01*
X154887339Y-99460000D01*
X154992659Y-99460000D01*
X154992661Y-99460000D01*
X155033907Y-99448948D01*
X155103755Y-99450609D01*
X155161618Y-99489771D01*
X155189123Y-99553999D01*
X155190000Y-99568722D01*
X155190000Y-100359999D01*
X155539960Y-100359999D01*
X155539972Y-100359999D01*
X155539986Y-100359998D01*
X155642697Y-100349505D01*
X155809119Y-100294358D01*
X155809124Y-100294356D01*
X155958345Y-100202315D01*
X156082315Y-100078345D01*
X156174356Y-99929124D01*
X156174359Y-99929117D01*
X156174359Y-99929114D01*
X156174362Y-99929110D01*
X156181615Y-99907219D01*
X156183454Y-99901667D01*
X156199206Y-99870092D01*
X156206639Y-99859355D01*
X156260981Y-99815443D01*
X156330440Y-99807879D01*
X156388726Y-99835312D01*
X156395687Y-99841207D01*
X156415868Y-99862948D01*
X156448028Y-99907212D01*
X156448031Y-99907215D01*
X156448034Y-99907219D01*
X156592786Y-100051971D01*
X156747749Y-100164556D01*
X156758390Y-100172287D01*
X156874607Y-100231503D01*
X156935154Y-100262353D01*
X156936043Y-100262824D01*
X156936249Y-100263025D01*
X156939629Y-100264662D01*
X156941637Y-100265660D01*
X156945403Y-100266722D01*
X156979017Y-100277643D01*
X157030457Y-100294357D01*
X157030458Y-100294358D01*
X157080998Y-100310779D01*
X157135465Y-100328477D01*
X157236557Y-100344488D01*
X157337648Y-100360500D01*
X157337649Y-100360500D01*
X157542351Y-100360500D01*
X157542352Y-100360500D01*
X157744534Y-100328477D01*
X157939219Y-100265220D01*
X158121610Y-100172287D01*
X158214590Y-100104732D01*
X158287213Y-100051971D01*
X158287213Y-100051969D01*
X158287272Y-100051927D01*
X158288031Y-100051153D01*
X158431966Y-99907219D01*
X158431968Y-99907215D01*
X158431971Y-99907213D01*
X158479925Y-99841207D01*
X158484730Y-99834593D01*
X158484732Y-99834591D01*
X158509519Y-99800474D01*
X158552287Y-99741610D01*
X158645220Y-99559219D01*
X158708477Y-99364534D01*
X158740500Y-99162352D01*
X158740500Y-98957648D01*
X158732257Y-98905605D01*
X158708477Y-98755468D01*
X158708477Y-98755465D01*
X158645218Y-98560776D01*
X158593876Y-98460013D01*
X158552287Y-98378390D01*
X158508254Y-98317783D01*
X158503912Y-98311806D01*
X158503909Y-98311803D01*
X158431970Y-98212785D01*
X158410055Y-98190870D01*
X158287213Y-98068028D01*
X158269025Y-98054814D01*
X158132202Y-97955408D01*
X158132199Y-97955406D01*
X158121613Y-97947715D01*
X158121612Y-97947714D01*
X158121610Y-97947713D01*
X158115535Y-97944617D01*
X158115531Y-97944615D01*
X158062675Y-97917684D01*
X158062675Y-97917683D01*
X158062673Y-97917683D01*
X157939229Y-97854783D01*
X157939221Y-97854780D01*
X157834316Y-97820694D01*
X157744534Y-97791522D01*
X157744532Y-97791521D01*
X157744530Y-97791521D01*
X157744529Y-97791520D01*
X157569995Y-97763878D01*
X157553409Y-97761251D01*
X157542354Y-97759500D01*
X157542352Y-97759500D01*
X157337648Y-97759500D01*
X157337647Y-97759500D01*
X157313327Y-97763351D01*
X157313326Y-97763350D01*
X157135468Y-97791521D01*
X156940777Y-97854780D01*
X156940764Y-97854786D01*
X156758397Y-97947708D01*
X156758385Y-97947715D01*
X156592787Y-98068027D01*
X156592784Y-98068029D01*
X156448033Y-98212780D01*
X156417566Y-98254715D01*
X156417563Y-98254717D01*
X156417564Y-98254717D01*
X156392966Y-98280027D01*
X156382631Y-98287996D01*
X156317521Y-98313343D01*
X156249043Y-98299466D01*
X156201839Y-98255642D01*
X156196995Y-98247912D01*
X156184363Y-98221072D01*
X156174359Y-98190882D01*
X156174354Y-98190871D01*
X156174354Y-98190870D01*
X156082317Y-98041657D01*
X156082314Y-98041653D01*
X155958346Y-97917685D01*
X155958345Y-97917684D01*
X155809124Y-97825643D01*
X155809119Y-97825641D01*
X155809110Y-97825638D01*
X155642699Y-97770494D01*
X155642694Y-97770493D01*
X155539991Y-97760000D01*
X155539986Y-97760000D01*
X155190000Y-97760000D01*
X155190000Y-98551277D01*
X155170315Y-98618316D01*
X155117511Y-98664071D01*
X155048353Y-98674015D01*
X155033911Y-98671052D01*
X154992661Y-98660000D01*
X154992660Y-98660000D01*
X154887339Y-98660000D01*
X154846092Y-98671051D01*
X154776243Y-98669389D01*
X154718381Y-98630226D01*
X154690877Y-98565998D01*
X154690000Y-98551277D01*
X154690000Y-97760000D01*
X154340028Y-97760000D01*
X154340012Y-97760001D01*
X154340002Y-97760001D01*
X154340002Y-97760002D01*
X154237304Y-97770493D01*
X154237302Y-97770494D01*
X154070887Y-97825638D01*
X154070879Y-97825641D01*
X154070877Y-97825642D01*
X154070875Y-97825643D01*
X154023632Y-97854783D01*
X153921652Y-97917685D01*
X153797685Y-98041652D01*
X153797684Y-98041654D01*
X153705646Y-98190871D01*
X153705641Y-98190879D01*
X153705638Y-98190888D01*
X153650494Y-98357299D01*
X153650493Y-98357304D01*
X153640000Y-98460007D01*
X130045500Y-98460007D01*
X130045500Y-95619982D01*
X148259500Y-95619982D01*
X148259500Y-95622950D01*
X148259500Y-97420026D01*
X148269999Y-97522797D01*
X148271639Y-97528440D01*
X148272807Y-97531266D01*
X148325186Y-97689335D01*
X148417288Y-97838656D01*
X148541344Y-97962712D01*
X148690665Y-98054814D01*
X148857202Y-98109999D01*
X148959990Y-98120500D01*
X148959995Y-98120500D01*
X150760005Y-98120500D01*
X150760010Y-98120500D01*
X150862798Y-98109999D01*
X151029335Y-98054814D01*
X151178656Y-97962712D01*
X151302712Y-97838656D01*
X151394814Y-97689335D01*
X151449999Y-97522798D01*
X151460500Y-97420010D01*
X151460500Y-95619990D01*
X151449999Y-95517202D01*
X151394814Y-95350665D01*
X151302712Y-95201344D01*
X151178656Y-95077288D01*
X151029335Y-94985186D01*
X150871266Y-94932807D01*
X150868440Y-94931639D01*
X150862797Y-94929999D01*
X150760026Y-94919500D01*
X150760017Y-94919500D01*
X150760010Y-94919500D01*
X148959990Y-94919500D01*
X148959982Y-94919500D01*
X148959974Y-94919500D01*
X148855495Y-94930174D01*
X148849912Y-94932416D01*
X148774669Y-94957349D01*
X148690679Y-94985180D01*
X148690666Y-94985184D01*
X148541340Y-95077290D01*
X148417289Y-95201341D01*
X148417286Y-95201345D01*
X148325188Y-95350658D01*
X148325152Y-95350769D01*
X148280300Y-95486122D01*
X148271852Y-95499068D01*
X148270365Y-95513629D01*
X148269542Y-95519880D01*
X148269387Y-95522912D01*
X148269396Y-95523103D01*
X148269355Y-95523513D01*
X148259500Y-95619982D01*
X130045500Y-95619982D01*
X130045500Y-94609500D01*
X130065185Y-94542461D01*
X130117989Y-94496706D01*
X130169500Y-94485500D01*
X146287623Y-94485500D01*
X146287624Y-94485499D01*
X146401786Y-94472440D01*
X146402771Y-94472211D01*
X146423515Y-94470657D01*
X146445948Y-94462202D01*
X146456303Y-94459803D01*
X146564498Y-94421340D01*
X146565617Y-94420792D01*
X146565616Y-94420791D01*
X146568469Y-94419395D01*
X146568543Y-94419359D01*
X146568553Y-94419351D01*
X146568620Y-94419319D01*
X146568622Y-94419319D01*
X146568693Y-94419284D01*
X146572447Y-94417446D01*
X146572457Y-94417441D01*
X146591947Y-94407896D01*
X146615709Y-94389296D01*
X146615379Y-94388782D01*
X146619342Y-94386241D01*
X146619344Y-94386239D01*
X146619354Y-94386234D01*
X146637886Y-94372262D01*
X146642646Y-94368850D01*
X146687433Y-94338324D01*
X146703384Y-94323728D01*
X146703288Y-94323623D01*
X146705726Y-94321118D01*
X146734244Y-94299621D01*
X146755625Y-94270856D01*
X146793517Y-94224667D01*
X146851254Y-94185324D01*
X146921098Y-94183442D01*
X146980873Y-94219619D01*
G37*
%TD.AperFunction*%
%TD*%
M02*
