M48
; DRILL file KiCad 10.0.4 date 2026-07-22T17:59:20
; FORMAT={-:-/ absolute / metric / decimal}
; #@! TF.CreationDate,2026-07-22T17:59:20+02:00
; #@! TF.GenerationSoftware,Kicad,Pcbnew,10.0.4
; #@! TF.FileFunction,Plated,1,4,PTH
FMAT,2
METRIC
; #@! TA.AperFunction,Plated,PTH,ComponentDrill
T1C0.200
; #@! TA.AperFunction,Plated,PTH,ViaDrill
T2C0.300
; #@! TA.AperFunction,Plated,PTH,ComponentDrill
T3C0.800
; #@! TA.AperFunction,Plated,PTH,ComponentDrill
T4C1.000
; #@! TA.AperFunction,Plated,PTH,ComponentDrill
T5C1.100
; #@! TA.AperFunction,Plated,PTH,ComponentDrill
T6C1.300
%
G90
G05
T1
X130.68Y-46.16
X130.68Y-47.56
X131.38Y-45.46
X131.38Y-46.86
X131.38Y-48.26
X132.08Y-46.16
X132.08Y-47.56
X132.78Y-45.46
X132.78Y-46.86
X132.78Y-48.26
X133.48Y-46.16
X133.48Y-47.56
T2
X109.22Y-88.9
X111.76Y-97.79
X111.825Y-88.965
X114.235Y-91.505
X115.57Y-46.99
X115.57Y-86.36
X115.57Y-95.25
X116.775Y-91.375
X116.84Y-46.99
X116.84Y-97.79
X118.045Y-91.505
X119.315Y-86.425
X119.315Y-96.52
X119.38Y-44.45
X119.38Y-64.77
X119.692Y-91.128
X121.92Y-97.79
X123.19Y-46.99
X123.42Y-40.41
X123.42Y-41.68
X127.0Y-97.79
X137.16Y-63.5
X139.7Y-67.31
X143.5Y-43.073
X143.51Y-44.45
X143.51Y-48.26
X143.51Y-49.53
X143.51Y-52.07
X143.51Y-53.34
X146.89Y-89.74
X146.89Y-93.14
X146.91Y-94.84
X147.32Y-63.5
X151.13Y-66.927
X151.13Y-68.028
X151.13Y-72.39
X151.13Y-99.06
X152.4Y-93.42
X153.338Y-60.022
X153.67Y-83.82
X153.67Y-86.36
X156.162Y-55.738
X156.21Y-44.45
X157.48Y-82.55
X158.75Y-90.17
T3
X111.76Y-40.64
X111.76Y-43.14
X124.5Y-63.5
X127.0Y-63.5
X132.12Y-63.5
X134.62Y-63.5
X134.62Y-81.28
X137.16Y-81.28
X139.7Y-81.28
X154.94Y-99.06
X157.44Y-99.06
T4
X114.3Y-53.34
X114.3Y-55.88
X114.3Y-58.42
X114.3Y-60.96
X114.3Y-63.5
X114.3Y-66.04
X142.24Y-71.12
X142.24Y-73.66
X147.32Y-78.74
X152.32Y-78.74
T5
X146.61Y-40.93
X146.61Y-45.43
X146.61Y-51.09
X146.61Y-55.59
X149.86Y-86.36
X149.86Y-96.52
X153.11Y-40.93
X153.11Y-45.43
X153.11Y-51.09
X153.11Y-55.59
T6
X111.92Y-106.68
X116.92Y-106.68
X121.92Y-106.68
X126.92Y-106.68
X131.92Y-106.68
X136.92Y-106.68
X147.4Y-106.68
X152.4Y-106.68
M30
