%TF.GenerationSoftware,KiCad,Pcbnew,10.0.4*%
%TF.CreationDate,2026-07-22T17:59:10+02:00*%
%TF.ProjectId,ESP32_BUCK_WLED_NO_BOARD,45535033-325f-4425-9543-4b5f574c4544,rev?*%
%TF.SameCoordinates,Original*%
%TF.FileFunction,Soldermask,Top*%
%TF.FilePolarity,Negative*%
%FSLAX46Y46*%
G04 Gerber Fmt 4.6, Leading zero omitted, Abs format (unit mm)*
G04 Created by KiCad (PCBNEW 10.0.4) date 2026-07-22 17:59:10*
%MOMM*%
%LPD*%
G01*
G04 APERTURE LIST*
G04 Aperture macros list*
%AMRoundRect*
0 Rectangle with rounded corners*
0 $1 Rounding radius*
0 $2 $3 $4 $5 $6 $7 $8 $9 X,Y pos of 4 corners*
0 Add a 4 corners polygon primitive as box body*
4,1,4,$2,$3,$4,$5,$6,$7,$8,$9,$2,$3,0*
0 Add four circle primitives for the rounded corners*
1,1,$1+$1,$2,$3*
1,1,$1+$1,$4,$5*
1,1,$1+$1,$6,$7*
1,1,$1+$1,$8,$9*
0 Add four rect primitives between the rounded corners*
20,1,$1+$1,$2,$3,$4,$5,0*
20,1,$1+$1,$4,$5,$6,$7,0*
20,1,$1+$1,$6,$7,$8,$9,0*
20,1,$1+$1,$8,$9,$2,$3,0*%
G04 Aperture macros list end*
%ADD10RoundRect,0.250000X0.450000X-0.350000X0.450000X0.350000X-0.450000X0.350000X-0.450000X-0.350000X0*%
%ADD11RoundRect,0.250000X0.550000X-0.550000X0.550000X0.550000X-0.550000X0.550000X-0.550000X-0.550000X0*%
%ADD12C,1.600000*%
%ADD13RoundRect,0.250000X-0.550000X-0.550000X0.550000X-0.550000X0.550000X0.550000X-0.550000X0.550000X0*%
%ADD14C,2.000000*%
%ADD15RoundRect,0.250000X-0.750000X-0.750000X0.750000X-0.750000X0.750000X0.750000X-0.750000X0.750000X0*%
%ADD16RoundRect,0.375000X-0.625000X-0.375000X0.625000X-0.375000X0.625000X0.375000X-0.625000X0.375000X0*%
%ADD17RoundRect,0.500000X-0.500000X-1.400000X0.500000X-1.400000X0.500000X1.400000X-0.500000X1.400000X0*%
%ADD18RoundRect,0.250000X0.475000X-0.337500X0.475000X0.337500X-0.475000X0.337500X-0.475000X-0.337500X0*%
%ADD19RoundRect,0.249999X0.850001X-0.850001X0.850001X0.850001X-0.850001X0.850001X-0.850001X-0.850001X0*%
%ADD20C,2.200000*%
%ADD21R,1.700000X1.700000*%
%ADD22C,1.700000*%
%ADD23RoundRect,0.250000X-0.450000X0.350000X-0.450000X-0.350000X0.450000X-0.350000X0.450000X0.350000X0*%
%ADD24RoundRect,0.250000X0.337500X0.475000X-0.337500X0.475000X-0.337500X-0.475000X0.337500X-0.475000X0*%
%ADD25R,1.200000X3.300000*%
%ADD26RoundRect,0.250001X1.149999X1.149999X-1.149999X1.149999X-1.149999X-1.149999X1.149999X-1.149999X0*%
%ADD27C,2.800000*%
%ADD28RoundRect,0.150000X-0.150000X0.587500X-0.150000X-0.587500X0.150000X-0.587500X0.150000X0.587500X0*%
%ADD29RoundRect,0.150000X0.150000X-0.825000X0.150000X0.825000X-0.150000X0.825000X-0.150000X-0.825000X0*%
%ADD30RoundRect,0.250000X-0.450000X0.325000X-0.450000X-0.325000X0.450000X-0.325000X0.450000X0.325000X0*%
%ADD31C,1.500000*%
%ADD32RoundRect,0.250000X2.050000X0.300000X-2.050000X0.300000X-2.050000X-0.300000X2.050000X-0.300000X0*%
%ADD33RoundRect,0.250002X4.449998X5.149998X-4.449998X5.149998X-4.449998X-5.149998X4.449998X-5.149998X0*%
%ADD34RoundRect,0.150000X0.150000X-0.587500X0.150000X0.587500X-0.150000X0.587500X-0.150000X-0.587500X0*%
%ADD35R,1.500000X0.900000*%
%ADD36R,0.900000X1.500000*%
%ADD37R,0.900000X0.900000*%
%ADD38C,0.600000*%
%ADD39C,1.440000*%
%ADD40RoundRect,0.250000X-0.350000X-0.450000X0.350000X-0.450000X0.350000X0.450000X-0.350000X0.450000X0*%
G04 APERTURE END LIST*
D10*
%TO.C,R7*%
X154940000Y-68027500D03*
X154940000Y-66027500D03*
%TD*%
D11*
%TO.C,C5*%
X111760000Y-43140000D03*
D12*
X111760000Y-40640000D03*
%TD*%
D13*
%TO.C,C14*%
X154940000Y-99060000D03*
D12*
X157440000Y-99060000D03*
%TD*%
D14*
%TO.C,SW2*%
X146610000Y-51090000D03*
X153110000Y-51090000D03*
X146610000Y-55590000D03*
X153110000Y-55590000D03*
%TD*%
D15*
%TO.C,C1*%
X147320000Y-78740000D03*
D14*
X152320000Y-78740000D03*
%TD*%
D16*
%TO.C,U2*%
X139090000Y-61200000D03*
X139090000Y-63500000D03*
D17*
X145390000Y-63500000D03*
D16*
X139090000Y-65800000D03*
%TD*%
D18*
%TO.C,C7*%
X157480000Y-54377500D03*
X157480000Y-52302500D03*
%TD*%
D19*
%TO.C,D1*%
X149860000Y-96520000D03*
D20*
X149860000Y-86360000D03*
%TD*%
D10*
%TO.C,R5*%
X119380000Y-63500000D03*
X119380000Y-61500000D03*
%TD*%
D21*
%TO.C,J6*%
X142240000Y-71120000D03*
D22*
X142240000Y-73660000D03*
%TD*%
D23*
%TO.C,R13*%
X121920000Y-99060000D03*
X121920000Y-101060000D03*
%TD*%
D18*
%TO.C,C10*%
X157480000Y-44217500D03*
X157480000Y-42142500D03*
%TD*%
D24*
%TO.C,C9*%
X121920000Y-48260000D03*
X119845000Y-48260000D03*
%TD*%
D25*
%TO.C,L1*%
X154380000Y-91440000D03*
X157480000Y-91440000D03*
%TD*%
D26*
%TO.C,J3*%
X152400000Y-106680000D03*
D27*
X147400000Y-106680000D03*
%TD*%
D28*
%TO.C,Q2*%
X154940000Y-71107500D03*
X153040000Y-71107500D03*
X153990000Y-72982500D03*
%TD*%
D23*
%TO.C,R6*%
X152400000Y-66027500D03*
X152400000Y-68027500D03*
%TD*%
D29*
%TO.C,U5*%
X112965000Y-93915000D03*
X114235000Y-93915000D03*
X115505000Y-93915000D03*
X116775000Y-93915000D03*
X118045000Y-93915000D03*
X119315000Y-93915000D03*
X120585000Y-93915000D03*
X120585000Y-88965000D03*
X119315000Y-88965000D03*
X118045000Y-88965000D03*
X116775000Y-88965000D03*
X115505000Y-88965000D03*
X114235000Y-88965000D03*
X112965000Y-88965000D03*
%TD*%
D13*
%TO.C,C4*%
X124500000Y-63500000D03*
D12*
X127000000Y-63500000D03*
%TD*%
D21*
%TO.C,J5*%
X114300000Y-66040000D03*
D22*
X114300000Y-63500000D03*
X114300000Y-60960000D03*
X114300000Y-58420000D03*
X114300000Y-55880000D03*
X114300000Y-53340000D03*
%TD*%
D30*
%TO.C,D2*%
X119380000Y-56370000D03*
X119380000Y-58420000D03*
%TD*%
D31*
%TO.C,TP6*%
X147320000Y-68580000D03*
%TD*%
%TO.C,TP4*%
X137160000Y-76200000D03*
%TD*%
D24*
%TO.C,C15*%
X149860000Y-99060000D03*
X147785000Y-99060000D03*
%TD*%
D32*
%TO.C,U1*%
X143655000Y-94840000D03*
X143655000Y-93140000D03*
X143655000Y-91440000D03*
D33*
X134505000Y-91440000D03*
D32*
X143655000Y-89740000D03*
X143655000Y-88040000D03*
%TD*%
D34*
%TO.C,Q1*%
X152387500Y-63487500D03*
X154287500Y-63487500D03*
X153337500Y-61612500D03*
%TD*%
D23*
%TO.C,R1*%
X157480000Y-83820000D03*
X157480000Y-85820000D03*
%TD*%
D35*
%TO.C,U3*%
X124830000Y-39140000D03*
X124830000Y-40410000D03*
X124830000Y-41680000D03*
X124830000Y-42950000D03*
X124830000Y-44220000D03*
X124830000Y-45490000D03*
X124830000Y-46760000D03*
X124830000Y-48030000D03*
X124830000Y-49300000D03*
X124830000Y-50570000D03*
X124830000Y-51840000D03*
X124830000Y-53110000D03*
X124830000Y-54380000D03*
X124830000Y-55650000D03*
D36*
X127865000Y-56900000D03*
X129135000Y-56900000D03*
X130405000Y-56900000D03*
X131675000Y-56900000D03*
X132945000Y-56900000D03*
X134215000Y-56900000D03*
X135485000Y-56900000D03*
X136755000Y-56900000D03*
X138025000Y-56900000D03*
X139295000Y-56900000D03*
D35*
X142330000Y-55650000D03*
X142330000Y-54380000D03*
X142330000Y-53110000D03*
X142330000Y-51840000D03*
X142330000Y-50570000D03*
X142330000Y-49300000D03*
X142330000Y-48030000D03*
X142330000Y-46760000D03*
X142330000Y-45490000D03*
X142330000Y-44220000D03*
X142330000Y-42950000D03*
X142330000Y-41680000D03*
X142330000Y-40410000D03*
X142330000Y-39140000D03*
D37*
X130680000Y-45460000D03*
D38*
X130680000Y-46160000D03*
D37*
X130680000Y-46860000D03*
D38*
X130680000Y-47560000D03*
D37*
X130680000Y-48260000D03*
D38*
X131380000Y-45460000D03*
X131380000Y-46860000D03*
X131380000Y-48260000D03*
D37*
X132080000Y-45460000D03*
D38*
X132080000Y-46160000D03*
D37*
X132080000Y-46860000D03*
D38*
X132080000Y-47560000D03*
D37*
X132080000Y-48260000D03*
D38*
X132780000Y-45460000D03*
X132780000Y-46860000D03*
X132780000Y-48260000D03*
D37*
X133480000Y-45460000D03*
D38*
X133480000Y-46160000D03*
D37*
X133480000Y-46860000D03*
D38*
X133480000Y-47560000D03*
D37*
X133480000Y-48260000D03*
%TD*%
D31*
%TO.C,TP3*%
X132080000Y-76200000D03*
%TD*%
%TO.C,TP5*%
X137160000Y-68580000D03*
%TD*%
D23*
%TO.C,R11*%
X111760000Y-99060000D03*
X111760000Y-101060000D03*
%TD*%
%TO.C,R14*%
X127000000Y-99060000D03*
X127000000Y-101060000D03*
%TD*%
D31*
%TO.C,TP2*%
X137160000Y-99060000D03*
%TD*%
D18*
%TO.C,C8*%
X119380000Y-42715000D03*
X119380000Y-40640000D03*
%TD*%
D23*
%TO.C,R12*%
X116840000Y-99060000D03*
X116840000Y-101060000D03*
%TD*%
D14*
%TO.C,SW3*%
X146610000Y-40930000D03*
X153110000Y-40930000D03*
X146610000Y-45430000D03*
X153110000Y-45430000D03*
%TD*%
D39*
%TO.C,RV1*%
X139700000Y-81280000D03*
X137160000Y-81280000D03*
X134620000Y-81280000D03*
%TD*%
D13*
%TO.C,C3*%
X132120000Y-63500000D03*
D12*
X134620000Y-63500000D03*
%TD*%
D31*
%TO.C,TP1*%
X134620000Y-99060000D03*
%TD*%
D10*
%TO.C,R4*%
X154940000Y-85820000D03*
X154940000Y-83820000D03*
%TD*%
D18*
%TO.C,C6*%
X109220000Y-92477500D03*
X109220000Y-90402500D03*
%TD*%
D40*
%TO.C,R9*%
X114840000Y-48260000D03*
X116840000Y-48260000D03*
%TD*%
D26*
%TO.C,J2*%
X136920000Y-106680000D03*
D27*
X131920000Y-106680000D03*
X126920000Y-106680000D03*
X121920000Y-106680000D03*
X116920000Y-106680000D03*
X111920000Y-106680000D03*
%TD*%
M02*
